<svg width="2811" height="1999" viewBox="0 0 2811 1999" fill="none" xmlns="http://www.w3.org/2000/svg">
<g clip-path="url(#clip0)">
<rect width="2811" height="1999" fill="white"/>
<path fill-rule="evenodd" clip-rule="evenodd" d="M1281.98 1154.31C1352.19 1154.31 1409.11 1211.32 1409.11 1281.66C1409.11 1284.47 1409.02 1287.26 1408.84 1290.03L1409.11 1290.03L1409.11 1456.43L1409.52 1456.43C1411.71 1468.59 1422.33 1477.81 1435.09 1477.81C1447.86 1477.81 1458.47 1468.59 1460.66 1456.43L1464.46 1456.43C1462.27 1450.33 1461.07 1443.76 1461.07 1436.91C1461.07 1405.08 1486.83 1379.27 1518.6 1379.27C1550.38 1379.27 1576.13 1405.08 1576.13 1436.91C1576.13 1438.16 1576.09 1439.4 1576.02 1440.63H1576.13V1543.08C1576.13 1567.52 1567.4 1589.92 1552.89 1607.31L1563.28 1643.28H859.782L859.9 1494.48L899.17 1494.48C905.248 1509.92 922.254 1521.04 942.282 1521.04C967.411 1521.04 987.782 1503.54 987.782 1481.96C987.782 1481.51 987.773 1481.06 987.756 1480.62L987.723 1479.96L987.782 1479.96L987.781 1359.43L987.834 1359.43L987.835 1342.09L987.953 1342.09C987.875 1340.86 987.835 1339.62 987.835 1338.37C987.835 1306.54 1013.59 1280.73 1045.37 1280.73C1077.14 1280.73 1102.9 1306.54 1102.9 1338.37C1102.9 1339.62 1102.86 1340.86 1102.78 1342.09L1102.9 1342.09V1388.57L1102.96 1388.57C1102.92 1389.18 1102.9 1389.8 1102.9 1390.43C1102.9 1404.8 1114.53 1416.46 1128.88 1416.46C1143.23 1416.46 1154.86 1404.8 1154.86 1390.43C1154.86 1390.01 1154.85 1389.6 1154.83 1389.18L1154.79 1388.57L1154.86 1388.57V1290.03L1155.13 1290.03C1154.95 1287.26 1154.86 1284.47 1154.86 1281.66C1154.86 1211.32 1211.78 1154.31 1281.98 1154.31Z" fill="#EBF2F9"/>
<path fill-rule="evenodd" clip-rule="evenodd" d="M1745.93 1154.31C1675.72 1154.31 1618.81 1211.32 1618.81 1281.66C1618.81 1284.47 1618.9 1287.26 1619.08 1290.03L1618.81 1290.03L1618.81 1456.43L1618.39 1456.43C1616.21 1468.59 1605.59 1477.81 1592.83 1477.81C1580.06 1477.81 1569.44 1468.59 1567.26 1456.43L1563.46 1456.43C1565.65 1450.33 1566.84 1443.76 1566.84 1436.91C1566.84 1405.08 1541.09 1379.27 1509.31 1379.27C1477.54 1379.27 1451.78 1405.08 1451.78 1436.91C1451.78 1438.16 1451.82 1439.4 1451.9 1440.63H1451.78V1543.08C1451.78 1586.76 1479.68 1623.92 1518.59 1637.63L1518.59 1643.28H1551.66C1551.7 1643.28 1551.74 1643.28 1551.78 1643.28H1566.84L1566.84 1643.28H1618.81L1618.81 1643.28L2040.22 1643.28C2040.17 1642.79 2040.12 1642.3 2040.08 1641.8L2040.08 1342.09L2039.96 1342.09C2040.04 1340.86 2040.08 1339.62 2040.08 1338.37C2040.08 1306.54 2014.32 1280.73 1982.55 1280.73C1950.78 1280.73 1925.02 1306.54 1925.02 1338.37C1925.02 1339.62 1925.06 1340.86 1925.14 1342.09L1925.02 1342.09V1388.57L1924.95 1388.57C1925 1389.18 1925.02 1389.8 1925.02 1390.43C1925.02 1404.8 1913.39 1416.46 1899.04 1416.46C1884.69 1416.46 1873.06 1404.8 1873.06 1390.43C1873.06 1390.01 1873.07 1389.6 1873.09 1389.18L1873.12 1388.57L1873.06 1388.57L1873.06 1361.2V1361.2L1873.06 1290.03L1872.79 1290.03C1872.97 1287.26 1873.06 1284.47 1873.06 1281.66C1873.06 1211.32 1816.14 1154.31 1745.93 1154.31Z" fill="#EBF2F9"/>
<path fill-rule="evenodd" clip-rule="evenodd" d="M804.932 1154.31C734.723 1154.31 677.807 1211.32 677.807 1281.66C677.807 1284.47 677.898 1287.26 678.077 1290.03L677.807 1290.03L677.808 1452.42C677.805 1452.42 677.802 1452.42 677.799 1452.42C677.464 1466.5 665.964 1477.81 651.826 1477.81C637.476 1477.81 625.844 1466.16 625.844 1451.78C625.844 1451.36 625.854 1450.95 625.873 1450.54L625.909 1449.92L625.844 1449.92L625.844 1432.65L625.686 1432.6C623.485 1402.78 598.639 1379.27 568.313 1379.27C536.54 1379.27 510.782 1405.08 510.782 1436.91C510.782 1438.16 510.822 1439.4 510.9 1440.63H510.782V1543.08C510.782 1598.42 555.554 1643.28 610.782 1643.28H625.844L625.845 1643.28H677.808L677.807 1643.28L1099.22 1643.28C1099.17 1642.79 1099.12 1642.3 1099.08 1641.8L1099.08 1342.09L1098.96 1342.09C1099.04 1340.86 1099.08 1339.62 1099.08 1338.37C1099.08 1306.54 1073.32 1280.73 1041.55 1280.73C1009.78 1280.73 984.02 1306.54 984.02 1338.37C984.02 1339.62 984.06 1340.86 984.138 1342.09L984.02 1342.09V1388.57L983.955 1388.57C983.998 1389.18 984.02 1389.8 984.02 1390.43C984.02 1404.8 972.388 1416.46 958.039 1416.46C943.689 1416.46 932.057 1404.8 932.057 1390.43C932.057 1390.01 932.067 1389.6 932.086 1389.18L932.122 1388.57L932.057 1388.57L932.058 1361.2V1361.2L932.057 1290.03L931.787 1290.03C931.966 1287.26 932.057 1284.47 932.057 1281.66C932.057 1211.32 875.141 1154.31 804.932 1154.31Z" fill="#EBF2F9"/>
<path fill-rule="evenodd" clip-rule="evenodd" d="M2325 1643.28L2325.77 1642.21C2374.04 1635.09 2411.08 1593.42 2411.08 1543.08V1342.09L2410.96 1342.09C2411.04 1340.86 2411.08 1339.62 2411.08 1338.37C2411.08 1306.54 2385.32 1280.73 2353.55 1280.73C2321.78 1280.73 2296.02 1306.54 2296.02 1338.37C2296.02 1339.62 2296.06 1340.86 2296.14 1342.09L2296.02 1342.09V1388.57L2295.95 1388.57C2296 1389.18 2296.02 1389.8 2296.02 1390.43C2296.02 1404.8 2284.39 1416.46 2270.04 1416.46C2255.69 1416.46 2244.06 1404.8 2244.06 1390.43C2244.06 1390.01 2244.07 1389.6 2244.09 1389.18L2244.12 1388.57L2244.06 1388.57L2244.06 1360.75L2243.78 1360.75L2243.78 1333.66L2243.58 1333.66C2243.71 1331.84 2243.78 1330.01 2243.78 1328.15C2243.78 1287.48 2210.87 1254.51 2170.28 1254.51C2129.69 1254.51 2096.78 1287.48 2096.78 1328.15C2096.78 1330.01 2096.85 1331.84 2096.98 1333.66L2096.78 1333.66L2096.78 1400.89L1991.49 1456.43L1989.39 1456.43C1987.21 1468.59 1976.59 1477.81 1963.83 1477.81C1951.06 1477.81 1940.44 1468.59 1938.26 1456.43L1889.59 1456.43V1643.28H2325Z" fill="#EBF2F9"/>
<path fill-rule="evenodd" clip-rule="evenodd" d="M1099.32 469.938H1173.82V728.929C1173.82 780.207 1212.45 823.211 1263.35 828.579L1266.91 828.954C1316.9 834.227 1363.03 801.498 1374.66 752.5L1433.32 505.509H1508.32L1414.58 829.421C1401.3 875.294 1357.56 905.401 1310.06 901.354L1191.82 891.28L1156.32 1643.28H1099.32V469.938Z" fill="#E4EDF6"/>
<path fill-rule="evenodd" clip-rule="evenodd" d="M539.782 842.799L590.697 834.718L618.538 1010.85C624.121 1046.18 655.422 1071.57 691.065 1069.7C715.729 1068.41 734.675 1047.32 733.382 1022.61C733.122 1017.63 732.033 1012.73 730.162 1008.11L628.282 756.511L684.282 745.489L722.509 832.197C726.93 842.225 736.841 848.695 747.782 848.695C757.945 848.695 766.401 840.867 767.203 830.715L775.282 728.455L811.282 728.455L797.54 1030.22C795.022 1085.5 748.257 1128.27 693.086 1125.75C690.287 1125.62 687.495 1125.37 684.718 1125.01L648.443 1120.27L705.292 1637.26L666.338 1643.44L539.782 842.799Z" fill="#E4EDF6"/>
<path fill-rule="evenodd" clip-rule="evenodd" d="M1714.75 586.671L1868.23 862.528C1872.55 870.305 1877.9 877.469 1884.11 883.832L2014.25 1017.03L2037.75 1643.28H2115.75L2136.25 1297.09V1036.07L2222.09 992.392C2248.78 978.811 2267.99 953.963 2274.45 924.675L2325.25 694.387L2245.25 679.356L2217.57 869.76C2211.89 908.775 2183.92 940.83 2146.08 951.661L2135.21 954.775C2100.35 964.754 2062.83 955.049 2037.15 929.411L1979.16 871.517C1954.93 847.32 1944.72 812.386 1952.1 778.912L1991.75 599.196L1918.25 574.647L1904.25 662.825C1901.7 678.919 1886.61 689.892 1870.55 687.333C1869.77 687.21 1869.01 687.056 1868.25 686.871C1849.21 682.258 1834.36 667.364 1829.76 648.292L1808.75 561.12L1714.75 586.671Z" fill="#E4EDF6"/>
<path fill-rule="evenodd" clip-rule="evenodd" d="M2088.36 729.604L2104.36 729.325C2127.55 728.919 2146.68 747.429 2147.08 770.668L2147.26 780.686C2147.74 808.352 2125.75 831.17 2098.14 831.653C2070.53 832.136 2047.75 810.1 2047.27 782.435L2047.1 772.417C2046.69 749.178 2065.17 730.01 2088.36 729.604Z" fill="#DFE9F3"/>
<path fill-rule="evenodd" clip-rule="evenodd" d="M1267 257.817L1396.28 271.433C1419.35 273.863 1436.09 294.571 1433.66 317.686L1429.27 359.528C1437.32 355.152 1446.85 353.371 1456.57 355.088L1547.18 371.096C1570.02 375.132 1585.27 396.959 1581.24 419.849L1572.56 469.187C1564.12 517.146 1518.48 549.169 1470.62 540.712C1427.55 533.103 1397.36 495.311 1397.89 452.874C1377.26 474.071 1347.49 485.934 1315.81 482.598L1301.89 481.132C1268.05 477.568 1239.93 457.483 1224.68 429.715C1213.96 466.285 1180.22 492.984 1140.25 492.984C1091.65 492.984 1052.25 453.507 1052.25 404.808V354.708C1052.25 331.466 1071.05 312.624 1094.25 312.624H1186.25C1198.68 312.624 1209.86 318.039 1217.55 326.645L1220.84 295.272C1223.26 272.157 1243.93 255.388 1267 257.817Z" fill="#DFE9F3"/>
<path fill-rule="evenodd" clip-rule="evenodd" d="M2226.66 486.199L2289.75 505.509L2356.78 488.01C2379.23 482.151 2402.17 495.634 2408.02 518.126C2408.98 521.828 2409.43 525.644 2409.37 529.47L2407.87 615.293C2406.91 670.624 2361.36 714.695 2306.14 713.73L2269.15 713.083C2213.93 712.117 2169.94 666.48 2170.91 611.149L2172.4 525.713C2172.8 502.474 2191.93 483.964 2215.12 484.37C2219.03 484.438 2222.92 485.054 2226.66 486.199Z" fill="#DFE9F3"/>
<path fill-rule="evenodd" clip-rule="evenodd" d="M822.932 656.045L823.349 659.022C830.689 711.356 794.299 759.744 742.069 767.099C717.399 770.573 693.607 764.271 674.594 751.137C673.337 799.183 637.615 840.694 588.537 847.605L534.073 855.275C479.382 862.976 428.815 824.795 421.128 769.995L412.917 711.452C405.231 656.652 443.336 605.984 498.027 598.282L552.492 590.612C588.075 585.601 621.913 600.013 643.33 625.789C657.023 599.012 683.075 579.108 715.07 574.603C767.3 567.247 815.591 603.71 822.932 656.045Z" fill="#DFE9F3"/>
<path fill-rule="evenodd" clip-rule="evenodd" d="M1714.75 592.683L1808.75 561.12L1870.25 538.575L1918.25 577.653L1991.75 599.196L2036.9 487.251C2049.86 455.146 2034.38 418.6 2002.34 405.623C1991.86 401.376 1980.42 400.056 1969.25 401.802L1875.01 416.529C1865.22 418.059 1855.26 418.123 1845.46 416.719L1741.25 401.802C1704.93 396.604 1671.29 421.887 1666.1 458.272C1664.33 470.679 1666.1 483.334 1671.19 494.781L1714.75 592.683Z" fill="#DFE9F3"/>
<g clip-path="url(#clip1)">
<path fill-rule="evenodd" clip-rule="evenodd" d="M1135.81 1130.45C1134.86 1132.01 1133.96 1133.6 1133.12 1135.21L1086.01 1225.24C1073.63 1248.92 1050.93 1265.49 1024.6 1270.08L907.019 1290.6C884.207 1294.58 865.168 1307.42 852.827 1324.97C840.486 1342.52 834.844 1364.78 838.825 1387.59C839.424 1391.02 840.237 1394.41 841.26 1397.75L864.51 1473.55C869.112 1488.56 869.44 1504.22 865.88 1518.94C862.32 1533.66 854.872 1547.45 843.923 1558.69L766.998 1637.7C754.145 1650.9 747.862 1668.06 748.094 1685.13C748.326 1702.21 755.073 1719.19 768.279 1732.04C780.738 1744.16 797.438 1750.94 814.823 1750.94H1630.72C1653.88 1750.94 1674.84 1741.56 1690.02 1726.39C1705.2 1711.22 1714.58 1690.26 1714.58 1667.11C1714.58 1657.71 1713 1648.37 1709.9 1639.49C1680.76 1556.03 1621.23 1461.93 1531.33 1357.18C1430.63 1239.84 1337.21 1154.93 1251.05 1102.47C1231.27 1090.43 1208.49 1087.54 1187.63 1092.6C1166.78 1097.67 1147.85 1110.68 1135.81 1130.45Z" fill="#5E69FF" stroke="black" stroke-width="2.5"/>
<path fill-rule="evenodd" clip-rule="evenodd" d="M1428.52 1396.35L1428.6 1396.52L1435.52 1413.64C1436.55 1416.21 1435.31 1419.12 1432.75 1420.16C1430.19 1421.19 1427.27 1419.95 1426.24 1417.39V1417.39L1419.32 1400.27C1418.28 1397.71 1419.52 1394.79 1422.08 1393.76C1424.59 1392.75 1427.43 1393.9 1428.52 1396.35ZM1477.79 1380.96L1477.86 1381.13L1484.78 1398.26C1485.82 1400.82 1484.58 1403.73 1482.02 1404.77C1479.51 1405.78 1476.67 1404.62 1475.58 1402.18L1475.5 1402L1468.58 1384.88C1467.55 1382.32 1468.79 1379.4 1471.35 1378.37C1473.85 1377.36 1476.69 1378.51 1477.79 1380.96Z" fill="#FFFFD9" stroke="black" stroke-width="2.5" stroke-linecap="round" stroke-linejoin="round"/>
<path d="M1450.8 1415.65L1452.93 1417.09C1456.8 1419.7 1462.06 1418.67 1464.67 1414.8C1465.48 1413.6 1465.97 1412.2 1466.08 1410.75" stroke="black" stroke-width="2.5" stroke-linecap="round" stroke-linejoin="round"/>
</g>
<path fill-rule="evenodd" clip-rule="evenodd" d="M1041.49 925.808L1041.96 941.278L727.84 1189.01C725.996 1190.46 725.374 1192.98 726.33 1195.13C727.25 1197.19 729.596 1198.21 731.732 1197.48L857.597 1154.05C876.955 1147.37 898.062 1157.64 904.742 1177C908.36 1187.49 907.093 1199.04 901.289 1208.5L848.582 1294.34C847.72 1295.74 847.907 1297.55 849.039 1298.75C850.14 1299.91 851.93 1300.1 853.244 1299.18L959.97 1224.41C979.671 1210.61 1006.83 1215.39 1020.63 1235.09C1026.19 1243.03 1028.95 1252.6 1028.46 1262.28L1024.28 1344.96C1024.09 1348.55 1026.65 1351.71 1030.21 1352.28C1033.78 1352.85 1037.23 1350.69 1038.27 1347.21C1067.7 1249.05 1089.26 1175.08 1102.96 1125.28C1111.17 1095.43 1129.83 1050.93 1158.96 991.778L1151.46 957.64L1056.97 915.431C1051.42 912.953 1044.92 915.441 1042.44 920.988C1041.76 922.502 1041.44 924.15 1041.49 925.808Z" fill="black"/>
<path fill-rule="evenodd" clip-rule="evenodd" d="M1488.16 769.461C1487.6 768.658 1486.76 768.154 1485.86 767.993C1484.96 767.832 1484 768.015 1483.19 768.579L1440.56 798.293C1427.65 807.289 1412.82 813.153 1397.25 815.42L1381.27 817.749C1381.06 817.779 1380.85 817.815 1380.65 817.858C1377.87 818.437 1375.59 820.088 1374.15 822.29C1372.7 824.491 1372.1 827.243 1372.68 830.023C1373.31 833.027 1375.07 835.506 1377.44 837.095C1379.8 838.685 1382.77 839.384 1385.78 838.828L1430.36 830.617L1487.6 775.254C1488.39 774.492 1488.84 773.501 1488.94 772.472C1489.04 771.442 1488.79 770.375 1488.16 769.461Z" fill="#FF7C25" stroke="black" stroke-width="2.5"/>
<path fill-rule="evenodd" clip-rule="evenodd" d="M1405.21 747.324C1405.22 747.327 1405.23 747.33 1405.24 747.333C1407.69 748.171 1409.03 750.786 1408.31 753.247L1408.24 753.458L1391.43 802.628C1390.64 804.934 1389.94 807.263 1389.33 809.611C1389.43 809.624 1389.53 809.638 1389.64 809.653L1441.98 817.184C1453.83 814.255 1465.09 809.172 1475.17 802.144L1515.47 774.054C1517.66 772.531 1520.67 773.067 1522.19 775.253L1522.21 775.278C1523.79 777.587 1523.48 780.705 1521.47 782.653L1470.4 832.047C1477.16 830.635 1483.76 828.393 1490.02 825.354L1539.01 801.593C1541.41 800.431 1544.29 801.431 1545.45 803.828L1545.47 803.856C1546.68 806.399 1545.92 809.446 1543.65 811.119L1502.08 841.802C1489.19 851.313 1473.94 857.031 1458.06 858.373L1427.12 950.929C1410.33 1001.18 1357.25 1029.61 1306.12 1015.75L1184.11 982.672C1176.84 980.702 1170.39 976.453 1165.72 970.55C1161.7 965.474 1162.41 958.129 1167.33 953.917L1174.1 948.117C1176.01 946.477 1177.86 944.764 1179.65 942.984C1189.08 933.583 1216.34 935.222 1261.44 947.902L1262.81 948.29C1299.22 958.625 1337.12 937.484 1347.46 901.071C1347.99 899.194 1348.44 897.296 1348.81 895.38L1360.9 832.907C1360.42 817.481 1364.52 802.103 1372.89 788.806L1373.32 788.132L1397.98 749.863C1399.52 747.463 1402.5 746.417 1405.21 747.324Z" fill="#FF7C25" stroke="black" stroke-width="2.5" stroke-linejoin="round"/>
<path d="M1335.08 966.909L1369.63 940.921C1374.48 937.268 1381.38 938.243 1385.03 943.098C1386.72 945.346 1387.49 948.157 1387.17 950.952L1381.01 1005.15" stroke="black" stroke-width="2" stroke-linecap="round" stroke-linejoin="round"/>
<path fill-rule="evenodd" clip-rule="evenodd" d="M1024.08 1230.41L989.701 1162.51C989.225 1161.68 988.465 1161.11 987.608 1160.85C986.747 1160.59 985.788 1160.64 984.922 1161.08C984.609 1161.24 984.321 1161.44 984.066 1161.69C982.85 1162.84 982.077 1164.32 981.791 1165.89C981.504 1167.45 981.705 1169.11 982.436 1170.62L1004.49 1216.08C1007.78 1222.59 1013.38 1227.18 1019.81 1229.35C1021.2 1229.82 1022.63 1230.17 1024.08 1230.41ZM1024.94 1230.54C1029.93 1231.18 1035.17 1230.43 1040.03 1228.07C1042.98 1226.64 1045.63 1224.69 1047.87 1222.3L1072.04 1196.53L1072.72 1195.8C1083.75 1183.72 1090.29 1168.76 1092.05 1153.25C1093.8 1137.75 1090.79 1121.71 1082.72 1107.44L1040.17 1032.16L1124.56 997.315L1124.57 1000.21C1124.63 1012.43 1129.5 1023.54 1137.42 1031.71C1145.33 1039.87 1156.28 1045.09 1168.5 1045.53L1169.25 1045.55C1181.38 1045.78 1192.64 1041.37 1201.22 1033.88C1209.78 1026.41 1215.67 1015.86 1217.09 1003.77L1220.57 974.112C1220.73 972.693 1220.8 971.264 1220.76 969.836C1220.53 961.624 1217 954.28 1211.48 949.045C1205.95 943.809 1198.42 940.683 1190.21 940.906L1181.85 941.133L1180.24 913.163L1153.7 908.355L1150.51 941.584L1135.25 941.448C1131.14 940.737 1126.79 941.017 1122.57 942.452L1028.98 974.254L1027.43 974.795C1002.09 983.864 982.69 1002.29 971.808 1024.84C960.944 1047.36 958.569 1073.98 967.247 1099.52C968.201 1102.33 969.281 1105.09 970.483 1107.8L1024.94 1230.54Z" fill="#FF7C25" stroke="black" stroke-width="2.5"/>
<path fill-rule="evenodd" clip-rule="evenodd" d="M1000.83 1207.31C1008.43 1222.73 1024.65 1235.82 1040.13 1228.31C1043.07 1226.88 1045.73 1224.92 1047.97 1222.53L1072.15 1196.71L1072.83 1195.98C1083.88 1183.88 1090.42 1168.89 1092.18 1153.35C1093.94 1137.82 1090.92 1121.75 1082.85 1107.46L1040.26 1032.04L1124.71 997.124L1124.73 1000.02C1124.79 1012.27 1129.66 1023.4 1137.58 1031.58C1145.5 1039.76 1156.46 1044.99 1168.69 1045.43L1169.44 1045.45C1181.58 1045.67 1192.85 1041.26 1201.44 1033.76C1210.01 1026.27 1215.9 1015.7 1217.32 1003.59L1220.8 973.879C1220.96 972.458 1221.03 971.026 1220.99 969.596C1220.77 961.368 1217.23 954.01 1211.7 948.765C1206.17 943.52 1198.64 940.388 1190.42 940.612L1182.05 940.839L1180.44 912.817L1153.88 908.001L1150.69 941.291L1135.42 941.154C1131.3 940.442 1126.95 940.723 1122.73 942.16L1029.06 974.021L1027.51 974.563C1002.15 983.649 982.737 1002.11 971.846 1024.7C960.973 1047.26 958.597 1073.94 967.281 1099.52C968.236 1102.33 969.317 1105.1 970.52 1107.82L991 1161C985.01 1161 981.1 1167.29 983.748 1172.66L1000.83 1207.31Z" fill="#FF7C25" stroke="black" stroke-width="2.5"/>
<path d="M1044.96 1039.78L1036.96 1026.78" stroke="black" stroke-width="2.5" stroke-linecap="round" stroke-linejoin="round"/>
<path d="M1157.96 890.278C1163.62 896.945 1170.29 896.945 1177.96 890.278" stroke="black" stroke-width="2.5" stroke-linecap="round" stroke-linejoin="round"/>
<path fill-rule="evenodd" clip-rule="evenodd" d="M1176.23 810.298C1168.54 798.663 1159.1 791.805 1147.92 789.725C1126.46 785.735 1102.13 815.981 1074.92 880.464C1074.29 881.972 1072.58 882.716 1071.04 882.157C1069.47 881.584 1068.56 879.93 1068.93 878.294C1084.2 810.296 1103.04 773.392 1125.46 767.581C1146.62 762.096 1161.78 761.762 1170.96 766.581L1176.23 810.298Z" fill="black"/>
<path fill-rule="evenodd" clip-rule="evenodd" d="M1187.31 920.942L1151.42 881.883C1163.39 858.575 1170.58 839.897 1172.97 825.849C1175.36 811.801 1174.53 792.245 1170.48 767.18L1175.48 770.148C1200.82 785.188 1214.62 814.01 1210.43 843.182C1207.62 862.799 1199.91 888.719 1187.31 920.942Z" fill="#FFFFD9" stroke="black" stroke-width="2.5" stroke-linecap="round" stroke-linejoin="round"/>
<path fill-rule="evenodd" clip-rule="evenodd" d="M1182.95 937.455L1157.78 915.492L1181.94 914.278L1182.95 937.455Z" fill="black"/>
<path fill-rule="evenodd" clip-rule="evenodd" d="M1202.47 880.117C1201.36 888.676 1200.16 895.292 1198.87 899.963C1198.12 902.648 1197.36 904.669 1196.55 906.012C1196.04 906.857 1195.57 907.528 1194.96 907.528C1192.65 907.528 1190.76 906.612 1189.43 905.086C1187.99 903.422 1187.21 901.067 1187.21 898.436C1187.21 896.794 1187.96 895.25 1189.36 893.773C1191 892.056 1193.49 890.448 1196.81 888.916L1202.47 880.117Z" fill="#FF7C25" stroke="black" stroke-width="2.5"/>
<path fill-rule="evenodd" clip-rule="evenodd" d="M1157.23 874.588C1160.5 872.115 1164.38 870.818 1168.33 870.74C1172.26 870.662 1176.25 871.789 1179.8 874.156L1180.22 874.443C1187.26 879.362 1191.81 882.815 1194.12 887.309C1196.18 891.301 1196.41 896.103 1195.25 903.43C1193.96 911.564 1190.62 918.335 1185.45 922.608C1180.68 926.548 1174.36 928.32 1166.75 927.115C1157.22 925.604 1149.48 919.709 1145.34 911.85C1145.21 911.59 1145.07 911.329 1144.95 911.065C1144.66 911.121 1144.38 911.163 1144.12 911.188C1142.54 911.341 1140.5 911.034 1137.85 910.166C1131.18 907.987 1125.6 897.817 1120.69 880.292L1120.49 879.571C1120.46 879.391 1120.5 879.212 1120.59 879.065C1120.69 878.91 1120.84 878.789 1121.03 878.736C1121.24 878.678 1121.47 878.715 1121.65 878.839C1129.92 884.453 1135.56 888.727 1138.58 891.673C1139.28 892.349 1139.96 892.961 1140.64 893.526C1141.16 893.963 1141.71 894.404 1142.29 894.844C1142.38 894.163 1142.5 893.504 1142.65 892.868C1144.03 887.284 1148.67 881.424 1156.43 875.214L1157.23 874.588Z" fill="#FF7C25" stroke="black" stroke-width="2.5"/>
<path fill-rule="evenodd" clip-rule="evenodd" d="M1143.76 883.221L1141.82 893.495L1169.34 884.619C1173.36 883.659 1177.18 883.458 1180.83 884.017C1184.47 884.576 1189.56 886.145 1196.09 888.725C1202.96 886.069 1206.27 882.199 1206 877.115C1205.67 870.79 1200.11 869.772 1189.32 874.059C1196.61 866.583 1195.36 861.975 1185.59 860.235C1170.92 857.626 1153.81 872.844 1149.24 883.169C1146.19 890.053 1144.36 890.07 1143.76 883.221Z" fill="black"/>
<path d="M1168.32 902.055C1168.38 900.399 1167.08 899.01 1165.42 898.952C1163.77 898.895 1162.38 900.19 1162.32 901.846L1162.29 902.845C1162.23 904.501 1163.52 905.89 1165.18 905.948C1166.84 906.006 1168.22 904.71 1168.28 903.055L1168.32 902.055Z" fill="white" stroke="black" stroke-width="2" stroke-linecap="round" stroke-linejoin="round"/>
<path d="M1189.34 901.789C1189.4 900.133 1188.1 898.744 1186.45 898.686C1184.79 898.628 1183.4 899.924 1183.34 901.579L1183.31 902.579C1183.25 904.235 1184.55 905.624 1186.2 905.682C1187.86 905.74 1189.25 904.444 1189.3 902.788L1189.34 901.789Z" fill="white" stroke="black" stroke-width="2" stroke-linecap="round" stroke-linejoin="round"/>
<path d="M1174.96 912.293C1176.58 913.684 1178.25 913.742 1179.96 912.468" stroke="black" stroke-width="2" stroke-linecap="round" stroke-linejoin="round"/>
<path d="M1150.96 963.854L1157.79 969.351C1164.68 974.889 1165.77 984.961 1160.23 991.846C1159.37 992.915 1158.38 993.869 1157.27 994.685L1150.96 999.354" stroke="black" stroke-width="2.5" stroke-linecap="round" stroke-linejoin="round"/>
<path d="M1196.96 963.854L1203.79 969.351C1210.68 974.889 1211.77 984.961 1206.23 991.846C1205.37 992.915 1204.38 993.869 1203.27 994.685L1196.96 999.354" stroke="black" stroke-width="2.5" stroke-linecap="round" stroke-linejoin="round"/>
<path fill-rule="evenodd" clip-rule="evenodd" d="M1105.68 818.718C1088.93 807.787 1073.95 807.564 1060.74 818.048C1049.51 826.962 1036.69 840.683 1022.29 859.211C1017.45 865.446 1013.36 872.233 1010.11 879.429C995.615 911.533 983.571 932.46 973.974 942.212C964.078 952.268 954.297 960.158 944.633 965.882C943.519 966.542 942.093 966.321 941.231 965.354C940.374 964.393 940.286 962.97 941.019 961.91C953.62 943.702 965.099 922.412 975.456 898.041C991.507 860.274 1018.69 785.712 1074.86 774.845C1112.31 767.6 1122.58 782.225 1105.68 818.718Z" fill="black"/>
<path fill-rule="evenodd" clip-rule="evenodd" d="M1170.27 881.974C1166.31 845.785 1153.79 816.809 1132.71 795.045C1111.64 773.28 1089.71 767.605 1066.92 778.02C1084.83 791.268 1097.29 803.581 1104.31 814.96C1111.33 826.338 1118.34 845.601 1125.35 872.751C1130.63 888.9 1139.33 896.267 1151.46 894.854C1163.58 893.44 1169.85 889.147 1170.27 881.974Z" fill="#FFFFD9" stroke="black" stroke-width="2.5" stroke-linecap="round" stroke-linejoin="round"/>
<path d="M1176.46 908.278H1180.46L1179.14 903.46C1178.19 899.957 1180.06 896.303 1183.46 895.028C1186.95 893.717 1190.89 895.033 1192.9 898.184L1192.96 898.278" stroke="black" stroke-width="2" stroke-linecap="round" stroke-linejoin="round"/>
<path d="M1142.96 823.278L1151.46 821.278M1152.96 854.278L1163.46 851.778L1152.96 854.278ZM1148.96 838.278L1158.46 835.278L1148.96 838.278Z" stroke="black" stroke-width="2" stroke-linecap="round" stroke-linejoin="round"/>
<path d="M1200.96 821.028L1210.46 823.278M1198.46 851.278L1208.46 853.778L1198.46 851.278ZM1200.96 837.028L1210.46 839.278L1200.96 837.028Z" stroke="black" stroke-width="2" stroke-linecap="round" stroke-linejoin="round"/>
<path d="M947.457 1039.78L1013.23 1079.59C1017.48 1082.16 1023.01 1080.8 1025.59 1076.55C1026.02 1075.83 1026.36 1075.05 1026.58 1074.24L1033.46 1048.78" stroke="black" stroke-width="2" stroke-linecap="round" stroke-linejoin="round"/>
<path d="M1443.5 858.5H1458.5" stroke="black" stroke-width="2.5" stroke-linecap="round" stroke-linejoin="round"/>
<path d="M1455.5 831.5C1455.5 831.5 1461.27 832.368 1465.5 832.5C1467.16 832.552 1469.16 832.385 1471.5 832" stroke="black" stroke-width="2.5" stroke-linecap="round" stroke-linejoin="round"/>
<path d="M991 1161L1009 1200" stroke="black" stroke-width="2.5" stroke-linecap="round"/>
<path fill-rule="evenodd" clip-rule="evenodd" d="M907.521 1737.14L927.027 1617.78L1061.03 1617.78L1066.9 1739.25C1067.19 1745.32 1062.51 1750.47 1056.44 1750.77C1056.27 1750.77 1056.09 1750.78 1055.91 1750.78L1023.83 1750.78C1017.76 1750.78 1012.83 1745.85 1012.83 1739.78C1012.83 1739.66 1012.83 1739.53 1012.84 1739.41L1014.46 1691.03C1014.51 1689.45 1013.27 1688.13 1011.7 1688.08C1010.22 1688.03 1008.96 1689.1 1008.77 1690.57L1003.01 1734.93C1001.84 1743.97 994.09 1750.71 984.973 1750.61L918.262 1749.91C912.187 1749.85 907.314 1744.87 907.378 1738.8C907.384 1738.24 907.432 1737.69 907.521 1737.14Z" fill="black"/>
<path fill-rule="evenodd" clip-rule="evenodd" d="M1170.24 1732.83L1170.96 1617.78L1304.96 1617.78L1333.74 1733.79C1335.6 1741.3 1331.03 1748.89 1323.52 1750.75C1322.52 1751 1321.49 1751.14 1320.46 1751.16L1275.92 1752.13C1267.58 1752.31 1260.34 1746.41 1258.83 1738.21L1250.74 1694.25C1250.44 1692.62 1248.88 1691.54 1247.25 1691.84C1245.75 1692.12 1244.7 1693.47 1244.8 1694.99L1247.36 1734.19C1247.93 1743.01 1241.25 1750.62 1232.44 1751.2C1232.18 1751.22 1231.92 1751.23 1231.67 1751.23L1189.57 1751.95C1179.07 1752.13 1170.42 1743.77 1170.25 1733.27C1170.24 1733.13 1170.24 1732.98 1170.24 1732.83Z" fill="black"/>
<path d="M1244.88 1042.8C1245.51 1043.73 1245.72 1044.89 1245.45 1045.99L1237.62 1078.33C1244.2 1086.9 1249.22 1096.85 1252.18 1107.79L1310.53 1323.48C1315.07 1340.26 1315.16 1357.94 1310.79 1374.77L1289.46 1456.78L1314.96 1606.78L1317.72 1622.33C1318.91 1629.03 1314.44 1635.43 1307.74 1636.62C1303.94 1637.29 1300.04 1636.14 1297.22 1633.53L1296.96 1633.28L1292.71 1643.71C1290 1650.36 1282.41 1653.55 1275.76 1650.85C1274.5 1650.33 1273.33 1649.62 1272.28 1648.74L1253.96 1633.28L1231.36 1652.96C1226.52 1657.17 1219.34 1657.23 1214.44 1653.09L1190.96 1633.28L1175.8 1649.05C1170.82 1654.23 1162.59 1654.39 1157.42 1649.42C1154.92 1647.02 1153.48 1643.72 1153.43 1640.26L1152.46 1582.78L1155.46 1543.28C1150.02 1545.04 1144.2 1542.06 1142.44 1536.62C1141.88 1534.9 1141.79 1533.07 1142.16 1531.3L1156.97 1461.43C1157.63 1458.33 1158.43 1455.26 1159.38 1452.24L1190.71 1352.38L1187.06 1170.72L1172.21 1172.06L1159.74 1341.48C1158.58 1357.33 1152.77 1372.48 1143.06 1385.06L1081.46 1464.78C1076.46 1483.45 1073.96 1511.45 1073.96 1548.78C1073.96 1581.22 1075.85 1613.67 1079.62 1646.13C1080.07 1649.97 1077.32 1653.45 1073.48 1653.89C1071.89 1654.08 1070.28 1653.71 1068.93 1652.86L1047.46 1639.28L1030.02 1652.91C1023.94 1657.67 1015.57 1658.27 1008.87 1654.42L982.456 1639.28L964.729 1651.01C956.408 1656.51 945.247 1654.64 939.173 1646.73L933.456 1639.28L918.744 1646.11C915.237 1647.74 911.075 1646.21 909.447 1642.71C908.773 1641.26 908.617 1639.62 909.004 1638.06L932.105 1545.52L925.037 1545.52C921.171 1545.52 918.037 1542.39 918.037 1538.52C918.037 1537.72 918.175 1536.92 918.444 1536.17L954.458 1435.28C959.396 1421.45 967.321 1408.87 977.668 1398.45L1029.96 1345.78C1045.33 1279.94 1056.66 1230.94 1063.96 1198.78C1068.65 1178.1 1075.13 1149.97 1083.41 1114.39C1085.3 1106.23 1088.28 1098.55 1092.18 1091.48L1082.67 1051.7C1082.41 1050.61 1082.62 1049.45 1083.26 1048.52C1084.5 1046.7 1086.99 1046.23 1088.81 1047.47L1101.59 1056.17L1101.51 1055.92C1100.89 1053.95 1101.33 1051.79 1102.68 1050.21C1104.84 1047.7 1108.62 1047.42 1111.13 1049.58L1115.36 1053.21L1122.54 1059.15C1135.45 1050.93 1150.56 1045.96 1166.65 1045.25C1183.74 1044.5 1200.06 1048.91 1213.94 1057.23L1215.55 1053.98L1222.04 1045.66C1223.3 1044.05 1225.62 1043.76 1227.24 1045.02C1228.41 1045.93 1228.91 1047.46 1228.53 1048.88L1228.48 1049.08L1239.32 1041.73C1241.15 1040.49 1243.64 1040.97 1244.88 1042.8Z" fill="#FF7C25"/>
<path fill-rule="evenodd" clip-rule="evenodd" d="M1243.84 1043.5C1243.42 1042.87 1242.78 1042.48 1242.08 1042.34C1241.39 1042.21 1240.65 1042.34 1240.02 1042.77L1226.48 1051.74L1227.33 1048.56C1227.45 1048.09 1227.43 1047.6 1227.28 1047.15C1227.13 1046.71 1226.85 1046.3 1226.47 1046C1225.93 1045.59 1225.28 1045.42 1224.66 1045.5C1224.04 1045.58 1223.44 1045.89 1223.03 1046.43L1216.61 1054.64L1214.45 1059.01C1200.54 1050.35 1184.02 1045.74 1166.71 1046.5C1150.53 1047.21 1135.35 1052.3 1122.45 1060.7L1114.56 1054.17L1110.15 1050.39C1109.16 1049.61 1107.94 1049.29 1106.77 1049.4C1105.6 1049.51 1104.46 1050.06 1103.63 1051.03C1102.54 1052.29 1102.22 1054.02 1102.79 1055.79L1103.88 1059.24L1087.96 1048.41C1087.34 1048.04 1086.64 1047.94 1085.98 1048.09C1085.31 1048.23 1084.7 1048.62 1084.29 1049.23C1083.85 1049.87 1083.71 1050.66 1083.89 1051.41L1093.51 1091.66C1089.55 1098.75 1086.53 1106.47 1084.62 1114.67C1076.35 1150.25 1069.87 1178.38 1065.18 1199.05C1057.87 1231.28 1046.5 1280.4 1031.09 1346.41L978.555 1399.33C968.337 1409.62 960.512 1422.04 955.636 1435.7L919.622 1536.59C919.4 1537.21 919.287 1537.86 919.287 1538.52C919.287 1540.11 919.931 1541.55 920.971 1542.59C922.012 1543.63 923.449 1544.27 925.037 1544.27L933.706 1544.27L910.217 1638.37C909.899 1639.64 910.027 1640.99 910.581 1642.18C911.249 1643.62 912.438 1644.65 913.82 1645.16C915.202 1645.67 916.777 1645.64 918.217 1644.98L933.838 1637.72L940.165 1645.97C943.002 1649.66 947.027 1651.95 951.315 1652.67C955.602 1653.38 960.152 1652.53 964.039 1649.96L982.41 1637.81L1009.49 1653.34C1012.62 1655.13 1016.14 1655.89 1019.59 1655.64C1023.04 1655.4 1026.41 1654.15 1029.25 1651.92L1047.38 1637.75L1069.6 1651.8C1070.71 1652.5 1072.03 1652.8 1073.34 1652.65C1074.91 1652.47 1076.27 1651.66 1077.18 1650.51C1078.09 1649.35 1078.57 1647.85 1078.38 1646.28C1074.6 1613.77 1072.71 1581.27 1072.71 1548.78C1072.71 1511.15 1075.25 1482.96 1080.31 1464.21L1142.07 1384.3C1151.64 1371.91 1157.35 1356.99 1158.5 1341.39L1171.04 1170.91L1188.28 1169.35L1191.96 1352.56L1160.57 1452.61C1159.64 1455.6 1158.84 1458.63 1158.19 1461.69L1143.38 1531.56C1143.05 1533.11 1143.14 1534.73 1143.63 1536.24C1144.4 1538.63 1146.07 1540.48 1148.14 1541.53C1150.73 1542.86 1153.96 1542.95 1156.86 1541.3L1153.71 1582.82L1154.68 1640.24C1154.73 1643.37 1156.03 1646.35 1158.28 1648.52C1160.62 1650.76 1163.65 1651.85 1166.66 1651.79C1169.66 1651.73 1172.65 1650.53 1174.9 1648.19L1190.87 1631.57L1215.24 1652.14C1217.46 1654.01 1220.19 1654.93 1222.91 1654.91C1225.64 1654.88 1228.35 1653.92 1230.54 1652.02L1253.94 1631.63L1273.09 1647.79C1274.03 1648.58 1275.09 1649.22 1276.23 1649.69C1279.24 1650.91 1282.46 1650.8 1285.23 1649.64C1288 1648.47 1290.33 1646.24 1291.56 1643.22L1296.85 1631.28C1299.4 1634.56 1303.52 1636.1 1307.52 1635.39C1310.53 1634.85 1313.04 1633.15 1314.66 1630.83C1316.29 1628.5 1317.02 1625.56 1316.49 1622.55L1313.73 1607L1288.18 1456.72L1309.58 1374.45C1313.9 1357.84 1313.81 1340.38 1309.33 1323.81L1250.97 1108.12C1248 1097.13 1242.93 1087.17 1236.26 1078.62L1244.24 1045.69C1244.42 1044.94 1244.28 1044.14 1243.84 1043.5Z" stroke="black" stroke-width="2.5"/>
<path fill-rule="evenodd" clip-rule="evenodd" d="M1211.46 1059.26C1217.6 1076.03 1217.6 1077.05 1211.46 1104.28C1205.31 1131.51 1197.06 1154.24 1186.7 1172.49L1171.15 1172.71C1171.69 1142.42 1167.29 1117.44 1157.96 1097.78C1148.62 1078.11 1137.18 1065.27 1123.62 1059.26C1140 1050 1149.19 1047.7 1166.5 1046.5C1186.7 1042 1215.22 1057.13 1211.46 1059.26Z" fill="black"/>
<path d="M1047.46 1639.28L1036.46 1544.28M932.456 1544.28L952.456 1488.28L932.456 1544.28ZM933.456 1637.78L952.456 1558.28L933.456 1637.78ZM982.456 1639.28L1033.46 1495.28L982.456 1639.28Z" stroke="black" stroke-width="2" stroke-linecap="round" stroke-linejoin="round"/>
<path d="M1297.96 1631.28L1280.46 1558.28M1156.46 1542.28L1169.46 1488.28L1156.46 1542.28ZM1189.46 1637.78V1542.28V1637.78ZM1254.46 1631.28L1257.46 1488.28L1254.46 1631.28Z" stroke="black" stroke-width="2" stroke-linecap="round" stroke-linejoin="round"/>
<path fill-rule="evenodd" clip-rule="evenodd" d="M1441.65 622.421C1437.19 624.337 1433.79 628.089 1432.31 632.708C1425.05 655.424 1419.13 670.725 1414.58 678.624C1409.89 686.779 1401.47 696.082 1389.3 706.51L1388.62 707.085C1384.05 710.978 1381.48 716.355 1381.03 721.904C1380.59 727.452 1382.25 733.171 1386.15 737.746C1387.03 738.786 1388.01 739.74 1389.07 740.597C1402.8 751.643 1411.27 759.91 1414.57 765.353C1423.59 780.251 1431.81 794.961 1439.24 809.483L1440.35 811.658C1441.94 814.8 1444.66 816.998 1447.76 818.013C1450.86 819.028 1454.35 818.86 1457.49 817.268C1460.05 815.972 1462.09 813.852 1463.29 811.251C1474.31 787.46 1481.37 773.311 1484.47 768.793C1487.55 764.296 1496.76 754.666 1512.11 739.922L1512.64 739.415C1516.97 735.257 1519.21 729.736 1519.33 724.171C1519.44 718.606 1517.44 712.996 1512.94 708.312C1499.4 694.823 1489.91 683.598 1484.43 674.652C1479.81 667.1 1473 652.879 1463.99 631.985L1463.65 631.191C1461.83 626.942 1458.45 623.836 1454.47 622.249C1450.48 620.662 1445.9 620.594 1441.65 622.421Z" fill="#5E69FF" stroke="black" stroke-width="2.5"/>
<path fill-rule="evenodd" clip-rule="evenodd" d="M1439 705C1441.14 705 1442.89 706.684 1442.99 708.8L1443 709L1443 716C1443 718.209 1441.21 720 1439 720C1436.86 720 1435.11 718.316 1435 716.2L1435 716L1435 709C1435 706.791 1436.79 705 1439 705ZM1467 705C1469.14 705 1470.89 706.684 1470.99 708.8L1471 709L1471 716C1471 718.209 1469.21 720 1467 720C1464.79 720 1463 718.209 1463 716V716L1463 709C1463 706.791 1464.79 705 1467 705Z" fill="#FFFFD9" stroke="black" stroke-width="2.5" stroke-linecap="round" stroke-linejoin="round"/>
<path d="M1432 692H1432.19C1443.79 692 1453.19 701.402 1453.19 713V716.946L1483 739H1455.7" stroke="black" stroke-width="2.5" stroke-linecap="round" stroke-linejoin="round"/>
<g clip-path="url(#clip2)">
<path fill-rule="evenodd" clip-rule="evenodd" d="M1673.31 1535L1763.65 1544.6L1721.67 1743.75C1720.7 1748.38 1716.61 1751.69 1711.88 1751.68L1551.55 1751.51C1546.83 1751.5 1543 1747.67 1543 1742.95C1543 1737.87 1546.32 1733.39 1551.18 1731.91L1613 1713.1L1673.31 1535ZM1967.5 1535L1967.56 1713L2029.28 1731.79C2034.15 1733.27 2037.38 1737.87 2037.13 1742.95C2036.9 1747.79 2032.9 1751.6 2028.05 1751.6H1870.39C1864.87 1751.6 1860.39 1747.12 1860.39 1741.6C1860.39 1741.33 1860.4 1741.06 1860.42 1740.8L1876.15 1544.6L1967.5 1535Z" fill="black"/>
<path fill-rule="evenodd" clip-rule="evenodd" d="M1759.98 1130.75H1916.95L1965.23 1403.06C1966.24 1408.75 1966.75 1414.52 1966.75 1420.3V1675.25H1867.29L1875.25 1424.92L1842.07 1217.75H1832.99L1734.49 1675.25H1627.09L1759.98 1130.75Z" fill="#57EFFF" stroke="black" stroke-width="2.5"/>
</g>
<path fill-rule="evenodd" clip-rule="evenodd" d="M1887.41 925.518C1869.98 934.575 1860.93 954.303 1865.43 973.417L1866.01 975.916C1871.21 998.013 1886.26 1016.5 1906.84 1026.08L1990.2 1064.86C2017.59 1077.6 2049.26 1077.28 2076.38 1063.99L2135.39 1035.08L2135.55 1035.6L2223.63 991.725C2229.12 988.99 2231.49 982.428 2229.03 976.812L2195.06 899.392L2185.34 904.685L2207.79 875.004L2207.83 874.953C2213.49 867.417 2211.96 856.722 2204.43 851.065C2196.85 845.381 2186.11 846.891 2180.4 854.442L2123.6 929.525L2033.74 982.417L1945.41 927.7C1927.81 916.798 1905.77 915.969 1887.41 925.518Z" fill="white" stroke="black" stroke-width="2.5" stroke-linecap="round" stroke-linejoin="round"/>
<path fill-rule="evenodd" clip-rule="evenodd" d="M1973 928.5L1912 1020L1915 1130H1755.5L1737.41 1020.56L1648.84 1021.66C1662.18 929.209 1731.1 892.521 1842.27 905.79C1845.28 904.476 1848.02 903.712 1850.5 903.5C1893.5 899.833 1934.33 908.167 1973 928.5Z" fill="#FFE13D" stroke="black" stroke-width="2.5"/>
<path fill-rule="evenodd" clip-rule="evenodd" d="M1761.89 1020.16L1763.64 1111.73L1901.9 1130.15C1903.33 1129.69 1904.84 1129.42 1906.41 1129.36L1906.52 1129.36L1973.32 1127.47C1982.47 1127.21 1990.1 1134.38 1990.42 1143.52C1990.45 1144.42 1990.41 1145.31 1990.3 1146.18L2043.22 1146.48C2052.09 1146.53 2059.32 1153.61 2059.56 1162.47C2059.8 1170.97 2053.1 1178.04 2044.61 1178.28C2044.44 1178.28 2044.27 1178.28 2044.09 1178.28L1985.3 1177.94C1970.93 1180.11 1959.66 1182.79 1951.5 1186C1940.4 1190.36 1931.98 1192.25 1926.25 1191.66C1919.23 1190.95 1912.15 1190.97 1905.14 1191.74L1761.76 1207.5C1714 1212.75 1671.03 1178.28 1665.78 1130.52C1665.63 1129.14 1665.51 1127.75 1665.42 1126.36L1658.96 1021.15L1761.89 1020.16Z" fill="white" stroke="black" stroke-width="2.5" stroke-linecap="round" stroke-linejoin="round"/>
<path fill-rule="evenodd" clip-rule="evenodd" d="M2183 817H2218C2225.73 817 2232 823.268 2232 831C2232 838.732 2225.73 845 2218 845H2155C2155 829.536 2167.54 817 2183 817Z" fill="white" stroke="black" stroke-width="2.5" stroke-linecap="round" stroke-linejoin="round"/>
<path d="M2238 833H1935V1147H2238V833Z" fill="#FFFFD9" stroke="black" stroke-width="2.5" stroke-linecap="round" stroke-linejoin="round"/>
<path fill-rule="evenodd" clip-rule="evenodd" d="M1935 833L2238 1147L1935 833ZM1935.5 1146.5L2237.5 833.5L1935.5 1146.5Z" fill="white"/>
<path d="M1935.5 1146.5L2237.5 833.5M1935 833L2238 1147L1935 833Z" stroke="black" stroke-width="2.5" stroke-linecap="round" stroke-linejoin="round"/>
<path fill-rule="evenodd" clip-rule="evenodd" d="M2212.74 920.809L2265.45 898.714C2273.37 895.395 2282.49 898.928 2286.11 906.715C2289.56 914.128 2286.34 922.932 2278.93 926.377C2278.76 926.457 2278.58 926.533 2278.41 926.605L2225.7 948.7C2217.78 952.019 2208.65 948.486 2205.04 940.699C2201.59 933.286 2204.81 924.483 2212.22 921.037C2212.39 920.958 2212.56 920.882 2212.74 920.809Z" fill="white" stroke="black" stroke-width="2.5" stroke-linecap="round" stroke-linejoin="round"/>
<path fill-rule="evenodd" clip-rule="evenodd" d="M2198.74 892.977L2254.05 870.128C2262.03 866.835 2271.18 870.373 2274.87 878.172C2278.32 885.487 2275.2 894.221 2267.88 897.679C2267.66 897.783 2267.44 897.881 2267.21 897.974L2211.9 920.822C2203.93 924.116 2194.78 920.578 2191.09 912.779C2187.63 905.464 2190.76 896.73 2198.08 893.272C2198.3 893.168 2198.52 893.07 2198.74 892.977Z" fill="white" stroke="black" stroke-width="2.5" stroke-linecap="round" stroke-linejoin="round"/>
<path fill-rule="evenodd" clip-rule="evenodd" d="M2186.74 864.977L2242.05 842.128C2250.03 838.835 2259.18 842.373 2262.87 850.172C2266.32 857.487 2263.2 866.221 2255.88 869.679C2255.66 869.783 2255.44 869.881 2255.21 869.974L2199.9 892.822C2191.93 896.116 2182.78 892.578 2179.09 884.779C2175.63 877.464 2178.76 868.73 2186.08 865.272C2186.3 865.168 2186.52 865.07 2186.74 864.977Z" fill="white" stroke="black" stroke-width="2.5" stroke-linecap="round" stroke-linejoin="round"/>
<path d="M2192.71 886.204C2189.04 886.962 2185.45 884.604 2184.7 880.938C2184.36 879.309 2184.63 877.613 2185.46 876.173L2186.35 874.645" stroke="black" stroke-width="2.5" stroke-linecap="round" stroke-linejoin="round"/>
<path d="M2204.71 914.204C2201.04 914.962 2197.45 912.604 2196.7 908.938C2196.36 907.309 2196.63 905.613 2197.46 904.173L2198.35 902.645" stroke="black" stroke-width="2.5" stroke-linecap="round" stroke-linejoin="round"/>
<path d="M2218.71 942.204C2215.04 942.962 2211.45 940.604 2210.7 936.938C2210.36 935.309 2210.63 933.613 2211.46 932.173L2212.35 930.645" stroke="black" stroke-width="2.5" stroke-linecap="round" stroke-linejoin="round"/>
<path fill-rule="evenodd" clip-rule="evenodd" d="M1921 1129H2009C2016.73 1129 2023 1135.27 2023 1143C2023 1150.73 2016.73 1157 2009 1157H1941" fill="white"/>
<path d="M1921 1129H2009C2016.73 1129 2023 1135.27 2023 1143C2023 1150.73 2016.73 1157 2009 1157H1941" stroke="black" stroke-width="2.5" stroke-linecap="round" stroke-linejoin="round"/>
<path fill-rule="evenodd" clip-rule="evenodd" d="M1809.5 907.885L1812.24 885.798L1846.21 880.393L1850 906.006C1843.74 914.301 1836.44 918.231 1828.12 917.795C1819.8 917.359 1813.59 914.055 1809.5 907.885Z" fill="white" stroke="black" stroke-width="2.5" stroke-linecap="round" stroke-linejoin="round"/>
<path fill-rule="evenodd" clip-rule="evenodd" d="M1809.44 909.194L1837.4 891.323L1810.45 886.017L1809.44 909.194Z" fill="black"/>
<path d="M1800.5 841.493L1844.18 841.76C1847.11 841.777 1849.59 843.905 1850.06 846.794C1851.01 852.576 1851.31 858.386 1850.97 864.223C1851.59 864.099 1852.22 864.033 1852.88 864.033C1858.4 864.033 1862.88 868.734 1862.88 874.533C1862.88 880.332 1858.4 885.033 1852.88 885.033C1851.57 885.033 1850.32 884.77 1849.18 884.291C1847.85 891.256 1844.6 896.255 1834.58 899.608C1829.67 901.253 1811.5 900.716 1807.57 899.193C1800.78 896.562 1798.31 891.594 1796.72 884.306L1796.63 884.309L1796.36 884.313C1790.84 884.313 1786.36 879.612 1786.36 873.813C1786.36 868.826 1789.67 864.651 1794.11 863.58C1793.9 858.252 1794.02 852.729 1794.48 847.012C1794.74 843.881 1797.36 841.474 1800.5 841.493Z" fill="white"/>
<path d="M1800.5 841.493L1844.18 841.76C1847.11 841.777 1849.59 843.905 1850.06 846.794C1851.01 852.576 1851.31 858.386 1850.97 864.223C1851.59 864.099 1852.22 864.033 1852.88 864.033C1858.4 864.033 1862.88 868.734 1862.88 874.533C1862.88 880.332 1858.4 885.033 1852.88 885.033C1851.57 885.033 1850.32 884.77 1849.18 884.291C1847.85 891.256 1844.6 896.255 1834.58 899.608C1829.67 901.253 1811.5 900.716 1807.57 899.193C1800.78 896.562 1798.31 891.594 1796.72 884.306L1796.63 884.309L1796.36 884.313C1790.84 884.313 1786.36 879.612 1786.36 873.813C1786.36 868.826 1789.67 864.651 1794.11 863.58C1793.9 858.252 1794.02 852.729 1794.48 847.012C1794.74 843.881 1797.36 841.474 1800.5 841.493Z" fill="white" stroke="black" stroke-width="2.5" stroke-linecap="round" stroke-linejoin="round"/>
<mask id="mask0" mask-type="alpha" maskUnits="userSpaceOnUse" x="1785" y="840" width="80" height="62">
<path d="M1800.5 841.493L1844.18 841.759C1847.11 841.777 1849.59 843.905 1850.06 846.794C1851.01 852.576 1851.31 858.386 1850.97 864.223C1851.59 864.098 1852.22 864.033 1852.88 864.033C1858.4 864.033 1862.88 868.734 1862.88 874.533C1862.88 880.332 1858.4 885.033 1852.88 885.033C1851.57 885.033 1850.32 884.769 1849.18 884.29C1847.85 891.256 1844.6 896.255 1834.58 899.608C1829.67 901.253 1811.5 900.716 1807.57 899.193C1800.78 896.562 1798.31 891.594 1796.72 884.306L1796.63 884.309L1796.36 884.313C1790.84 884.313 1786.36 879.612 1786.36 873.813C1786.36 868.826 1789.67 864.651 1794.11 863.58C1793.9 858.251 1794.02 852.728 1794.48 847.012C1794.74 843.881 1797.36 841.474 1800.5 841.493Z" fill="white" stroke="black" stroke-width="2.5" stroke-linecap="round" stroke-linejoin="round"/>
</mask>
<g mask="url(#mask0)">
<path fill-rule="evenodd" clip-rule="evenodd" d="M1854.73 855.274L1792.98 854.008C1791.39 841.592 1795.31 833.842 1804.75 830.759C1818.9 826.135 1838.92 818.349 1844.89 827.937C1848.87 834.33 1852.15 843.442 1854.73 855.274Z" fill="black"/>
</g>
<path fill-rule="evenodd" clip-rule="evenodd" d="M1826.87 868.924C1825.22 868.981 1823.92 870.371 1823.98 872.027L1824.02 873.026C1824.07 874.682 1825.46 875.977 1827.12 875.919C1828.77 875.862 1830.07 874.472 1830.01 872.817L1829.98 871.817C1829.92 870.161 1828.53 868.866 1826.87 868.924ZM1803.86 868.553C1802.21 868.611 1800.91 870 1800.97 871.656L1801 872.655C1801.06 874.311 1802.45 875.606 1804.11 875.549C1805.76 875.491 1807.06 874.102 1807 872.446L1806.96 871.446C1806.91 869.79 1805.52 868.495 1803.86 868.553Z" stroke="black" stroke-width="2" stroke-linecap="round" stroke-linejoin="round"/>
<path d="M1818.27 885.018C1816.65 886.409 1814.99 886.467 1813.27 885.193" stroke="black" stroke-width="2" stroke-linecap="round" stroke-linejoin="round"/>
<path d="M1816.06 868.095L1808.46 882.217L1816.05 880.612" stroke="black" stroke-width="2" stroke-linecap="round" stroke-linejoin="round"/>
<path fill-rule="evenodd" clip-rule="evenodd" d="M1843.5 841L1792.47 834.767C1788.57 834.291 1785.01 837.069 1784.54 840.973C1784.35 842.547 1784.68 844.14 1785.5 845.5L1791.78 855.958C1792.53 857.216 1793.91 857.96 1795.38 857.897L1850.5 855.5L1843.5 841Z" fill="black"/>
</g>
<defs>
<clipPath id="clip0">
<rect width="2811" height="1999" fill="white"/>
</clipPath>
<clipPath id="clip1">
<path d="M481 460H2041V1752H481V460Z" fill="white"/>
</clipPath>
<clipPath id="clip2">
<path d="M1285 530H2465V1945H1285V530Z" fill="white"/>
</clipPath>
</defs>
</svg>
