<svg width="2811" height="1999" viewBox="0 0 2811 1999" fill="none" xmlns="http://www.w3.org/2000/svg">
<g clip-path="url(#clip0)">
<rect width="2811" height="1999" fill="white"/>
<path fill-rule="evenodd" clip-rule="evenodd" d="M762 1640L799.267 1128.79C801.395 1099.59 826.786 1077.65 855.98 1079.78C861.301 1080.17 866.533 1081.36 871.499 1083.31L1009.5 1137.5L1034.71 1023.89C1043.21 985.613 1081.13 961.468 1119.41 969.964C1124.6 971.115 1129.63 972.844 1134.43 975.118L1533 1164L1786.12 1018.58C1816.77 1000.98 1855.89 1011.55 1873.49 1042.2C1879.07 1051.9 1882 1062.89 1882 1074.08V1640H762Z" fill="#EBF2F9"/>
<path fill-rule="evenodd" clip-rule="evenodd" d="M1587 1640L1508.75 859.294L1508.64 833.046C1508.55 808.84 1517.24 785.422 1533.1 767.137L1587 705L1549.87 676.655L1461.39 777.043C1457.01 782.015 1449.43 782.493 1444.45 778.111C1442.45 776.34 1441.09 773.947 1440.59 771.314L1415.11 635L1367.53 649.553L1386.11 767.609C1387.74 777.975 1380.65 787.7 1370.29 789.331C1364.19 790.291 1358 788.226 1353.7 783.795C1300.1 728.571 1251.37 694.139 1207.5 680.5C1152.36 663.355 1119.86 654.855 1110 655C1045 700.06 1045 722.659 1110 722.795C1166.92 722.915 1234.95 760.681 1314.11 836.095C1335.94 856.897 1347.22 886.44 1344.81 916.5L1286.71 1640H1587Z" fill="#DFE9F3"/>
<path fill-rule="evenodd" clip-rule="evenodd" d="M891.245 728.074L1043.5 766.036C1097.09 779.397 1151.36 746.786 1164.72 693.198C1165.71 689.242 1166.45 685.228 1166.95 681.181L1170.44 652.722C1176.82 600.679 1141.93 552.543 1090.48 542.427L945.194 513.861C897.213 504.427 849.446 531.076 832.272 576.861L823.741 599.603C804.884 649.873 830.35 705.912 880.62 724.769C884.096 726.073 887.643 727.176 891.245 728.074Z" fill="#EBF2F9"/>
<path fill-rule="evenodd" clip-rule="evenodd" d="M1278.04 655H1434.96C1490.18 655 1534.96 610.228 1534.96 555C1534.96 550.922 1534.71 546.848 1534.21 542.8L1530.71 514.343C1524.31 462.301 1478.81 424.037 1426.44 426.669L1278.56 434.098C1229.72 436.552 1189.82 473.965 1184.24 522.545L1181.46 546.675C1175.32 600.015 1213.59 648.228 1266.93 654.363C1270.62 654.787 1274.33 655 1278.04 655Z" fill="#E4EDF6"/>
<path fill-rule="evenodd" clip-rule="evenodd" d="M1349.32 476H1367.16C1422.39 476 1467.16 431.228 1467.16 376C1467.16 373.486 1467.06 370.972 1466.87 368.465L1464.96 343.085C1460.8 288.147 1412.9 246.976 1357.97 251.128C1357.76 251.143 1357.56 251.159 1357.36 251.175L1342.87 252.359C1293.66 256.381 1254.75 295.72 1251.27 344.973L1249.57 368.946C1245.67 424.037 1287.18 471.855 1342.27 475.751C1344.61 475.917 1346.97 476 1349.32 476Z" fill="#E4EDF6"/>
<path fill-rule="evenodd" clip-rule="evenodd" d="M1503.77 683.781L1632.31 773.785C1677.55 805.462 1739.9 794.468 1771.58 749.227C1773.92 745.887 1776.05 742.406 1777.97 738.805L1791.42 713.488C1816.03 667.189 1800.7 609.743 1756.3 581.862L1630.9 503.129C1589.49 477.126 1535.34 484.887 1502.9 521.477L1486.79 539.651C1451.17 579.825 1454.86 641.267 1495.03 676.887C1497.81 679.35 1500.73 681.651 1503.77 683.781Z" fill="#EBF2F9"/>
<path fill-rule="evenodd" clip-rule="evenodd" d="M1436 1151V1357C1436 1378.54 1453.46 1396 1475 1396C1496.54 1396 1514 1378.54 1514 1357V1151C1514 1129.46 1496.54 1112 1475 1112C1453.46 1112 1436 1129.46 1436 1151Z" fill="#EBF2F9"/>
<path fill-rule="evenodd" clip-rule="evenodd" d="M560.139 1640C516.23 1640 479.918 1607.47 473.987 1565.2L473.438 1564.81L473.437 1560.26C473.239 1557.87 473.139 1555.44 473.139 1553V1339.41H473.256C473.178 1338.18 473.139 1336.94 473.139 1335.7C473.139 1303.93 498.896 1278.17 530.67 1278.17C562.443 1278.17 588.2 1303.93 588.2 1335.7C588.2 1336.94 588.161 1338.18 588.083 1339.41H588.2V1385.79L588.266 1385.79C588.222 1386.41 588.2 1387.03 588.2 1387.65C588.2 1402 599.833 1413.63 614.182 1413.63C628.531 1413.63 640.164 1402 640.164 1387.65C640.164 1387.23 640.154 1386.82 640.135 1386.41L640.099 1385.79L640.164 1385.79L640.163 1358.48L640.164 1358.48L640.164 1287.45L640.434 1287.45C640.255 1284.69 640.164 1281.91 640.164 1279.1C640.164 1208.91 697.079 1152 767.289 1152C837.498 1152 894.413 1208.91 894.413 1279.1C894.413 1281.91 894.322 1284.69 894.143 1287.45L894.413 1287.45V1447.03L894.479 1447.03C894.435 1447.64 894.413 1448.26 894.413 1448.88C894.413 1463.23 906.046 1474.86 920.395 1474.86C934.744 1474.86 946.377 1463.23 946.377 1448.88C946.377 1448.47 946.367 1448.05 946.348 1447.64L946.311 1447.03L946.377 1447.03L946.376 1426.22L946.866 1426.5C950.559 1398.29 974.689 1376.52 1003.91 1376.52C1035.68 1376.52 1061.44 1402.27 1061.44 1434.04C1061.44 1435.28 1061.4 1436.52 1061.32 1437.75L1061.44 1437.75V1563C1061.44 1602.07 1032.34 1634.35 994.629 1639.33L994.628 1640H560.139Z" fill="#E4EDF6"/>
<path fill-rule="evenodd" clip-rule="evenodd" d="M1736.5 1640L1808 1287.5L1954.5 1268.85L2042.76 1019.81C2045.46 1012.18 2053.45 1007.77 2061.35 1009.55L2153 1030.17L2204.54 796.847C2205.97 790.376 2212.37 786.288 2218.84 787.718C2222.99 788.633 2226.34 791.668 2227.66 795.7L2311 1050.17L2318.1 1083.92L2435 1640H1736.5Z" fill="#DFE9F3"/>
<path fill-rule="evenodd" clip-rule="evenodd" d="M2153 1030.41L2244.5 1050L2218.45 797.163C2218.05 793.318 2214.61 790.521 2210.77 790.918C2207.76 791.227 2205.3 793.425 2204.65 796.372L2153 1030.41Z" fill="#EBF2F9"/>
<path fill-rule="evenodd" clip-rule="evenodd" d="M2047.97 1021.58L2030 1281L1954.5 1269.3L2042.15 1020.38C2042.7 1018.82 2044.41 1018 2045.97 1018.55C2047.25 1019 2048.06 1020.24 2047.97 1021.58Z" fill="#EBF2F9"/>
<path fill-rule="evenodd" clip-rule="evenodd" d="M1924.89 550.078C1888.08 550.078 1853.92 561.07 1825.7 579.853C1796.65 599.191 1773.9 626.787 1761.05 659.148C1760.95 659.417 1760.84 659.686 1760.74 659.955C1760.44 659.912 1760.14 659.867 1759.84 659.823C1754.08 658.986 1748.18 658.552 1742.18 658.552C1710.31 658.552 1681.46 670.79 1660.57 690.576C1639.69 710.362 1626.77 737.696 1626.77 767.888C1626.77 798.08 1639.69 825.414 1660.57 845.2C1681.46 864.986 1710.31 877.224 1742.18 877.224C1744.6 877.224 1747.01 877.153 1749.39 877.014L1749.39 1738.09H2100.4L2100.81 875.68C2133.12 875.97 2162.4 863.679 2183.53 843.661C2204.42 823.875 2217.34 796.541 2217.34 766.349C2217.34 736.157 2204.42 708.823 2183.53 689.037C2162.65 669.251 2133.8 657.013 2101.93 657.013C2097.57 657.013 2093.27 657.242 2089.04 657.689C2088.76 657.719 2088.47 657.75 2088.19 657.782C2088.09 657.53 2087.98 657.275 2087.88 657.021C2074.74 625.218 2051.99 598.154 2023.11 579.208C1995.09 560.819 1961.28 550.078 1924.89 550.078Z" fill="#57EFFF" stroke="black" stroke-width="2.5"/>
<path fill-rule="evenodd" clip-rule="evenodd" d="M1927.43 728.131C1930.39 728.131 1932.8 730.412 1932.8 733.225V742.562C1932.8 745.375 1930.39 747.656 1927.43 747.656C1924.46 747.656 1922.05 745.375 1922.05 742.562V733.225C1922.05 730.412 1924.46 728.131 1927.43 728.131ZM2035.78 728.131C2038.75 728.131 2041.15 730.412 2041.15 733.225V742.562C2041.15 745.375 2038.75 747.656 2035.78 747.656C2032.81 747.656 2030.41 745.375 2030.41 742.562V733.225C2030.41 730.412 2032.81 728.131 2035.78 728.131Z" fill="#FFFFD9" stroke="black" stroke-width="2.5" stroke-linecap="round" stroke-linejoin="round"/>
<path d="M1984.74 755.296L1984.7 755.356C1982.46 759.323 1977.24 760.813 1973.06 758.685C1971.55 757.915 1970.31 756.735 1969.51 755.296" stroke="black" stroke-width="2.5" stroke-linecap="round" stroke-linejoin="round"/>
<path d="M2049.21 724.311L2024.14 724.524" stroke="black" stroke-width="2.5" stroke-linecap="round" stroke-linejoin="round"/>
<path d="M1940.86 724.736L1915.78 725.16" stroke="black" stroke-width="2.5" stroke-linecap="round" stroke-linejoin="round"/>
<path fill-rule="evenodd" clip-rule="evenodd" d="M968.115 873.021C952.572 858.939 930.795 854.015 910.706 860.042C894.87 864.794 882.458 875.514 875.194 889.006C867.93 902.498 865.812 918.761 870.563 934.598L922.127 1106.46C928.453 1127.55 927.734 1150.12 920.079 1170.76L759.156 1604.66C755.08 1615.65 752.994 1627.28 752.994 1639C752.994 1666.27 764.047 1690.96 781.917 1708.83C799.787 1726.7 824.475 1737.75 851.744 1737.75H1416.16C1427.32 1737.75 1438.41 1735.86 1448.94 1732.15C1474.66 1723.1 1494.28 1704.48 1505.21 1681.69C1516.13 1658.9 1518.36 1631.94 1509.31 1606.22C1460.04 1466.21 1398.39 1346.04 1324.36 1245.71C1250.24 1145.28 1131.49 1021.05 968.115 873.021Z" fill="#66EC36" stroke="black" stroke-width="2.5"/>
<path fill-rule="evenodd" clip-rule="evenodd" d="M951 1210C955.97 1210 960 1214.03 960 1219V1224C960 1228.97 955.97 1233 951 1233C946.029 1233 942 1228.97 942 1224V1219C942 1214.03 946.029 1210 951 1210ZM1121 1210C1125.97 1210 1130 1214.03 1130 1219V1224C1130 1228.97 1125.97 1233 1121 1233C1116.03 1233 1112 1228.97 1112 1224V1219C1112 1214.03 1116.03 1210 1121 1210Z" fill="#FFFFD9" stroke="black" stroke-width="2.5" stroke-linecap="round" stroke-linejoin="round"/>
<path d="M1028 1235L1028.03 1235.08C1030.79 1242.24 1038.84 1245.81 1046 1243.04C1049.69 1241.62 1052.6 1238.7 1054 1235" stroke="black" stroke-width="2.5" stroke-linecap="round" stroke-linejoin="round"/>
<path d="M930 1220L930.183 1219.76C938.91 1208.26 955.305 1206.02 966.802 1214.74C968.775 1216.24 970.525 1218.01 972 1220" stroke="black" stroke-width="2.5" stroke-linecap="round" stroke-linejoin="round"/>
<path d="M1100 1220L1100.19 1219.75C1109.34 1207.98 1126.29 1205.86 1138.06 1215C1139.92 1216.45 1141.58 1218.13 1143 1220" stroke="black" stroke-width="2.5" stroke-linecap="round" stroke-linejoin="round"/>
<path fill-rule="evenodd" clip-rule="evenodd" d="M1630.72 1532L1615.3 1694.67L1674.82 1716C1679.62 1717.72 1682.62 1722.51 1682.08 1727.58C1681.55 1732.5 1677.4 1736.22 1672.46 1736.22H1566.56C1561.1 1736.22 1556.65 1731.85 1556.56 1726.39L1555.99 1691.27C1555.94 1688.53 1553.7 1686.33 1550.96 1686.33C1548.03 1686.33 1545.46 1688.27 1544.64 1691.08L1533.71 1728.99C1532.47 1733.28 1528.56 1736.22 1524.1 1736.22H1516.19C1510.67 1736.22 1506.19 1731.75 1506.19 1726.22C1506.19 1725.85 1506.21 1725.47 1506.25 1725.1L1528.03 1532H1630.72ZM1433.32 1532L1455.09 1725.1C1455.13 1725.47 1455.15 1725.85 1455.15 1726.22C1455.15 1731.75 1450.68 1736.22 1445.15 1736.22H1437.25C1432.79 1736.22 1428.87 1733.28 1427.64 1728.99L1416.7 1691.08C1415.89 1688.27 1413.31 1686.33 1410.39 1686.33C1407.64 1686.33 1405.41 1688.53 1405.36 1691.27L1404.78 1726.39C1404.69 1731.85 1400.24 1736.22 1394.78 1736.22H1287.85C1283 1736.22 1279.01 1732.42 1278.77 1727.58C1278.52 1722.44 1281.65 1717.75 1286.49 1716.02L1346.05 1694.67L1330.62 1532H1433.32Z" fill="black"/>
<path fill-rule="evenodd" clip-rule="evenodd" d="M1479.42 1118.26C1513.81 1118.87 1545.4 1137.32 1562.82 1166.97L1650.01 1315.34C1660.85 1333.8 1665.4 1355.27 1662.98 1376.54L1633.88 1632.25L1492.58 1632.19L1552.83 1376.31L1480.48 1249.93L1409.18 1379.81L1462.46 1635.25L1313.67 1635.32L1297.48 1377.64C1296.31 1358.99 1300.45 1340.38 1309.44 1323.99L1395.82 1166.37C1404.11 1151.25 1416.26 1139.05 1430.73 1130.72C1445.16 1122.41 1461.89 1117.95 1479.42 1118.26Z" fill="#66EC36"/>
<path d="M1479.42 1118.26L1479.4 1119.51L1479.42 1118.26ZM1562.82 1166.97L1561.75 1167.6L1562.82 1166.97ZM1650.01 1315.34L1648.93 1315.98L1650.01 1315.34ZM1662.98 1376.54L1661.74 1376.39L1662.98 1376.54ZM1633.88 1632.25L1635.13 1632.39L1635 1633.5L1633.88 1633.5L1633.88 1632.25ZM1492.58 1632.19L1492.58 1633.44L1491 1633.43L1491.36 1631.9L1492.58 1632.19ZM1552.83 1376.31L1553.91 1375.69L1554.16 1376.12L1554.05 1376.6L1552.83 1376.31ZM1480.48 1249.93L1479.38 1249.33C1479.6 1248.93 1480.01 1248.68 1480.47 1248.68C1480.92 1248.67 1481.34 1248.92 1481.56 1249.31L1480.48 1249.93ZM1409.18 1379.81L1407.96 1380.06L1407.86 1379.61L1408.09 1379.2L1409.18 1379.81ZM1462.46 1635.25L1463.69 1635L1464 1636.5L1462.46 1636.5L1462.46 1635.25ZM1313.67 1635.32L1313.67 1636.57L1312.5 1636.57L1312.43 1635.39L1313.67 1635.32ZM1297.48 1377.64L1296.23 1377.72L1297.48 1377.64ZM1309.44 1323.99L1308.34 1323.39L1309.44 1323.99ZM1395.82 1166.37L1394.72 1165.77L1395.82 1166.37ZM1430.73 1130.72L1430.11 1129.63L1430.73 1130.72ZM1479.45 1117.01C1514.27 1117.63 1546.26 1136.31 1563.9 1166.34L1561.75 1167.6C1544.54 1138.33 1513.35 1120.11 1479.4 1119.51L1479.45 1117.01ZM1563.9 1166.34L1651.08 1314.71L1648.93 1315.98L1561.75 1167.6L1563.9 1166.34ZM1651.08 1314.71C1662.06 1333.4 1666.68 1355.14 1664.22 1376.68L1661.74 1376.39C1664.13 1355.4 1659.63 1334.2 1648.93 1315.98L1651.08 1314.71ZM1664.22 1376.68L1635.13 1632.39L1632.64 1632.11L1661.74 1376.39L1664.22 1376.68ZM1633.88 1633.5L1492.58 1633.44L1492.58 1630.94L1633.88 1631L1633.88 1633.5ZM1491.36 1631.9L1551.61 1376.02L1554.05 1376.6L1493.8 1632.47L1491.36 1631.9ZM1551.74 1376.93L1479.39 1250.55L1481.56 1249.31L1553.91 1375.69L1551.74 1376.93ZM1481.57 1250.53L1410.28 1380.41L1408.09 1379.2L1479.38 1249.33L1481.57 1250.53ZM1410.41 1379.55L1463.69 1635L1461.24 1635.51L1407.96 1380.06L1410.41 1379.55ZM1462.46 1636.5L1313.67 1636.57L1313.67 1634.07L1462.46 1634L1462.46 1636.5ZM1312.43 1635.39L1296.23 1377.72L1298.73 1377.56L1314.92 1635.24L1312.43 1635.39ZM1296.23 1377.72C1295.04 1358.83 1299.24 1339.99 1308.34 1323.39L1310.53 1324.59C1301.66 1340.77 1297.57 1359.14 1298.73 1377.56L1296.23 1377.72ZM1308.34 1323.39L1394.72 1165.77L1396.91 1166.98L1310.53 1324.59L1308.34 1323.39ZM1394.72 1165.77C1403.12 1150.44 1415.44 1138.08 1430.11 1129.63L1431.36 1131.8C1417.08 1140.02 1405.09 1152.05 1396.91 1166.98L1394.72 1165.77ZM1430.11 1129.63C1444.73 1121.22 1461.69 1116.7 1479.45 1117.01L1479.4 1119.51C1462.1 1119.21 1445.59 1123.61 1431.36 1131.8L1430.11 1129.63Z" fill="black"/>
<path d="M1479.88 1251.25L1490.62 1246.75" stroke="black" stroke-width="2.5" stroke-linecap="round" stroke-linejoin="round"/>
<path fill-rule="evenodd" clip-rule="evenodd" d="M1481 1251.5L1491.5 1247C1534.17 1333.33 1554.67 1376.5 1553 1376.5C1551.33 1376.5 1527.33 1334.83 1481 1251.5Z" fill="black"/>
<path fill-rule="evenodd" clip-rule="evenodd" d="M1467.33 1018.29L1455.58 1006.35C1448.82 1000.34 1421.64 1005 1374.03 1020.33C1327.37 1035.35 1303.7 1043.03 1303.02 1043.37L1303.01 1043.37L1266.81 911.455L1297.5 896.595C1304.38 893.263 1307.4 885.095 1304.35 878.087C1301.46 871.452 1293.74 868.417 1287.1 871.307C1286.93 871.382 1286.76 871.461 1286.59 871.544L1247.18 890.779L1240.56 877.029L1236.33 852.527C1235.1 845.376 1228.32 840.568 1221.16 841.773C1213.93 842.992 1208.94 849.698 1209.86 856.975L1211.13 866.986C1212.6 878.684 1216.13 890.023 1221.55 900.481L1219.22 901.35L1210.69 884.553L1207.32 859.919C1206.34 852.729 1199.73 847.687 1192.53 848.642C1185.26 849.607 1180.05 856.135 1180.71 863.44L1181.62 873.489C1182.75 885.925 1186.2 898.04 1191.79 909.207L1192.79 911.2L1191.56 911.66L1181.32 893.151L1177.1 868.649C1175.86 861.498 1169.08 856.69 1161.92 857.896C1154.69 859.114 1149.71 865.821 1150.63 873.098L1151.94 883.483C1153.47 895.625 1157.26 907.373 1163.12 918.118L1169.31 929.482L1236.86 1103.4C1242.17 1117.06 1257.1 1124.32 1271.12 1120.05L1451.88 1064.98C1461.66 1062 1469.49 1054.63 1473.06 1045.05C1476.51 1035.78 1474.28 1025.34 1467.33 1018.29Z" fill="white" stroke="black" stroke-width="2.5" stroke-linecap="round" stroke-linejoin="round"/>
<path d="M1303.27 1043.5L1293.59 1046.45" stroke="black" stroke-width="2.5" stroke-linecap="round" stroke-linejoin="round"/>
<path fill-rule="evenodd" clip-rule="evenodd" d="M1181.4 916.107L1235.14 894.893L1181.4 916.107Z" stroke="black" stroke-width="2.5" stroke-linecap="round" stroke-linejoin="round"/>
<path fill-rule="evenodd" clip-rule="evenodd" d="M1476.91 1029.89L1484.66 1015.04C1489.37 1007.31 1516.72 1003.82 1566.73 1004.56C1616.75 1005.3 1641.63 1005.72 1641.39 1005.84L1635.74 885.738C1635.14 872.959 1642.99 861.296 1655.05 857.033C1672.24 850.957 1687.48 847.446 1700.77 846.5C1717.28 845.324 1745.21 839.512 1784.56 829.063C1791.32 827.268 1798.26 831.294 1800.06 838.056C1800.14 838.368 1800.21 838.683 1800.27 839C1801.67 846.561 1796.89 853.89 1789.41 855.658L1761.52 862.25C1737.35 867.964 1720.27 889.547 1720.27 914.387L1720.28 1041.81C1720.26 1057.27 1707.74 1069.8 1692.28 1069.84L1505.34 1070.02C1495.12 1070.03 1485.47 1065.28 1479.26 1057.16C1473.25 1049.3 1472.33 1038.66 1476.91 1029.89Z" fill="white" stroke="black" stroke-width="2.5" stroke-linecap="round"/>
<path fill-rule="evenodd" clip-rule="evenodd" d="M1667.5 853C1667.51 852.996 1693.68 842.872 1746.02 822.627C1753.17 820.449 1760.74 824.467 1762.95 831.614C1765.15 838.723 1761.17 846.266 1754.06 848.462C1754.04 848.467 1754.02 848.473 1754 848.479L1711.46 865.802" fill="white"/>
<path d="M1667.5 853C1667.51 852.996 1693.68 842.872 1746.02 822.627C1753.17 820.449 1760.74 824.467 1762.95 831.614C1765.15 838.723 1761.17 846.266 1754.06 848.462C1754.04 848.467 1754.02 848.473 1754 848.479L1711.46 865.802" stroke="black" stroke-width="2.5" stroke-linecap="round" stroke-linejoin="round"/>
<path fill-rule="evenodd" clip-rule="evenodd" d="M1528.27 1038.28C1528.35 1039.54 1528.35 1040.79 1528.26 1042.05L1526.11 1073.2C1525.26 1085.46 1519.74 1096.35 1511.36 1104.17C1502.98 1111.99 1491.74 1116.75 1479.45 1116.75C1467.06 1116.75 1455.69 1112.04 1447.11 1104.25C1438.54 1096.47 1432.77 1085.59 1431.58 1073.26L1428.72 1043.5C1427.96 1035.59 1430.48 1028.13 1435.16 1022.45C1439.84 1016.78 1446.69 1012.89 1454.59 1012.13C1457.02 1011.89 1459.47 1011.97 1461.88 1012.36L1467.5 1013.26L1497.8 1011.37C1505.72 1010.88 1513.09 1013.65 1518.61 1018.52C1524.12 1023.39 1527.78 1030.36 1528.27 1038.28Z" fill="#FF75AA" stroke="black" stroke-width="2.5"/>
<path d="M1749 850.5C1751.62 840.711 1756.6 835.532 1763.94 834.964" stroke="black" stroke-width="2.5" stroke-linecap="round" stroke-linejoin="round"/>
<path d="M1784.93 856.513C1787.54 846.724 1792.52 841.545 1799.87 840.977" stroke="black" stroke-width="2.5" stroke-linecap="round" stroke-linejoin="round"/>
<path fill-rule="evenodd" clip-rule="evenodd" d="M1530.28 564.579C1534.55 566.715 1544.57 587.871 1560.65 627.524L1542.32 618.355C1536.73 598.978 1533.08 584.697 1531.36 575.51C1530.51 571.003 1530.14 567.757 1530.25 565.772C1530.29 565.132 1530.32 564.642 1530.28 564.579Z" fill="#FF7C25" stroke="black" stroke-width="2.5"/>
<path fill-rule="evenodd" clip-rule="evenodd" d="M1511.47 986.827L1492.89 692.688L1520.21 686.482L1545.94 944.999L1562.48 945.788C1581.71 946.704 1598.41 959.331 1604.53 977.585C1606.47 983.388 1608.93 993.704 1611.89 1008.53L1529.53 1004.61C1519.86 1004.15 1512.08 996.489 1511.47 986.827Z" fill="white" stroke="black" stroke-width="2.5" stroke-linecap="round" stroke-linejoin="round"/>
<path fill-rule="evenodd" clip-rule="evenodd" d="M1296.22 985.979L1301.46 996.582L1415.91 949.152C1429.98 943.321 1436.65 927.188 1430.82 913.118C1429.78 910.604 1428.37 908.259 1426.65 906.157C1420.95 899.228 1413.68 865.296 1404.85 804.36C1401.9 784.052 1405.28 763.33 1414.51 745.006L1445.8 682.935L1420.23 673.207L1386.97 742.58C1381.05 754.926 1377.72 768.356 1377.21 782.038L1372.21 914.194C1341.73 930.562 1321.6 940.752 1311.8 944.765C1296.41 951.069 1289.04 968.658 1295.35 984.051C1295.61 984.703 1295.9 985.347 1296.22 985.979Z" fill="white" stroke="black" stroke-width="2.5" stroke-linecap="round" stroke-linejoin="round"/>
<path d="M1316.52 990.106C1302.63 971.316 1304.37 958.007 1321.73 950.178" stroke="black" stroke-width="2.5" stroke-linecap="round" stroke-linejoin="round"/>
<path d="M1470.94 598.295L1463.52 594.954" stroke="black" stroke-width="2.5" stroke-linecap="round" stroke-linejoin="round"/>
<path d="M1573.16 965.094C1578.6 974.764 1580.9 988.518 1580.05 1006.36" stroke="black" stroke-width="2.5" stroke-linecap="round" stroke-linejoin="round"/>
<path d="M1597.66 965.537L1549.57 963.245" stroke="black" stroke-width="2.5" stroke-linecap="round" stroke-linejoin="round"/>
<path fill-rule="evenodd" clip-rule="evenodd" d="M1580.67 424.293L1575.64 424.679C1561.19 425.79 1550.2 438.112 1550.73 452.596C1551.86 483.194 1556.28 503.619 1563.98 513.87C1572.82 525.634 1611.76 544.549 1680.81 570.615L1680.81 570.615C1682.87 571.395 1685.18 570.352 1685.96 568.285C1686.55 566.719 1686.11 564.951 1684.84 563.853C1637.55 522.761 1612.32 493.395 1609.16 475.755C1607.5 466.459 1606.75 457.552 1606.9 449.035C1607.15 435.58 1596.44 424.472 1582.99 424.225C1582.22 424.211 1581.44 424.233 1580.67 424.293Z" fill="white" stroke="black" stroke-width="2.5" stroke-linecap="round" stroke-linejoin="round"/>
<path fill-rule="evenodd" clip-rule="evenodd" d="M1394.57 415.43L1399.54 416.293C1413.82 418.773 1423.6 432.085 1421.69 446.452C1417.65 476.805 1411.31 496.717 1402.67 506.189C1392.75 517.058 1352.18 532.184 1280.98 551.566C1278.84 552.146 1276.65 550.888 1276.07 548.757C1275.63 547.141 1276.24 545.423 1277.6 544.451C1328.59 508.043 1356.49 481.209 1361.31 463.95C1363.86 454.854 1365.45 446.059 1366.11 437.566C1367.14 424.148 1378.86 414.109 1392.27 415.142C1393.04 415.202 1393.81 415.298 1394.57 415.43Z" fill="white" stroke="black" stroke-width="2.5" stroke-linecap="round" stroke-linejoin="round"/>
<path fill-rule="evenodd" clip-rule="evenodd" d="M1674.91 247.049C1674.1 247.09 1673.39 247.621 1673.12 248.392L1643.29 334.534C1638.33 348.861 1626.04 359.402 1611.12 362.114L1507.54 380.944C1506.58 391.538 1507.39 402.658 1509.95 414.304C1512.52 425.951 1515.51 433.406 1518.93 436.671L1623.12 427.889C1658.04 424.947 1684.34 394.854 1682.58 359.856L1679.52 299.024L1677.01 248.946C1676.95 247.843 1676.01 246.993 1674.91 247.049ZM1327.26 223.77C1326.18 223.553 1325.12 224.255 1324.9 225.338L1315.05 274.501L1303.08 334.222C1296.19 368.581 1317.78 402.214 1351.88 410.261L1453.66 434.271C1457.51 431.544 1461.57 424.61 1465.82 413.467C1470.07 402.325 1472.5 391.444 1473.12 380.825L1373.43 346.967C1359.08 342.09 1348.46 329.855 1345.66 314.954L1328.83 225.362C1328.68 224.561 1328.06 223.931 1327.26 223.77Z" fill="white" stroke="black" stroke-width="2.5" stroke-linecap="round" stroke-linejoin="round"/>
<path fill-rule="evenodd" clip-rule="evenodd" d="M1675.46 247.631C1674.94 247.452 1674.37 247.73 1674.19 248.252L1657.33 297.426L1666 320.532L1678.86 307.007L1676.14 248.53C1676.12 248.12 1675.85 247.764 1675.46 247.631ZM1326.63 224.265C1326.22 224.339 1325.91 224.653 1325.83 225.055L1314.53 282.495L1325.26 297.764L1337.24 276.186L1327.79 225.066C1327.69 224.523 1327.17 224.164 1326.63 224.265Z" fill="black"/>
<path fill-rule="evenodd" clip-rule="evenodd" d="M1500.45 232.777C1505.23 233.005 1509.47 235.15 1512.46 238.433C1515.44 241.716 1517.17 246.138 1516.94 250.921C1516.89 252.082 1516.72 253.235 1516.43 254.362L1511.55 273.602C1511.16 275.112 1511.43 276.634 1512.17 277.874C1512.9 279.115 1514.11 280.074 1515.62 280.457C1516.92 280.786 1518.24 280.638 1519.38 280.108C1520.53 279.577 1521.5 278.665 1522.08 277.464L1534.47 252.086C1536.71 247.491 1540.61 244.244 1545.13 242.733C1549.62 241.231 1554.73 241.443 1559.44 243.737C1563.88 246.001 1566.98 249.851 1568.41 254.245C1569.84 258.638 1569.59 263.576 1567.32 268.017C1567.22 268.223 1567.11 268.427 1567 268.629L1525.08 343.559L1461.97 339.226L1425.49 265.943C1423.07 261.083 1422.86 255.7 1424.51 250.913C1426.16 246.16 1429.65 241.996 1434.64 239.505C1439.45 237.231 1444.72 237.119 1449.35 238.776C1453.99 240.434 1458 243.861 1460.27 248.664C1460.37 248.875 1460.47 249.089 1460.56 249.304L1471.02 273.656C1471.77 275.397 1473.15 276.67 1474.78 277.32C1476.41 277.971 1478.29 278 1480.03 277.252C1481.44 276.648 1482.56 275.613 1483.28 274.349C1484 273.086 1484.33 271.594 1484.13 270.074L1481.92 252.858C1481.29 247.975 1482.7 243.3 1485.49 239.688C1488.28 236.077 1492.45 233.529 1497.33 232.902C1498.37 232.769 1499.41 232.727 1500.45 232.777Z" fill="#5E69FF" stroke="black" stroke-width="2.5"/>
<path d="M1490.49 413.018C1463.02 412.668 1441.03 390.113 1441.38 362.639C1441.73 335.165 1464.28 313.176 1491.76 313.526C1519.23 313.875 1541.22 336.431 1540.87 363.905C1540.52 391.378 1517.97 413.367 1490.49 413.018Z" fill="#5E69FF" stroke="black" stroke-width="2.5"/>
<path fill-rule="evenodd" clip-rule="evenodd" d="M1469.35 691.705L1481.05 692.263C1536.22 694.894 1583.07 652.307 1585.7 597.141C1586.06 589.525 1585.55 581.892 1584.18 574.392L1553.94 408.95C1547.24 372.341 1512.14 348.09 1475.53 354.783C1450.13 359.426 1429.62 378.172 1422.72 403.049L1377.75 565.077C1362.98 618.294 1394.15 673.408 1447.37 688.177C1454.54 690.167 1461.91 691.35 1469.35 691.705Z" fill="#FFFFD9" stroke="black" stroke-width="2.5" stroke-linecap="round" stroke-linejoin="round"/>
<path fill-rule="evenodd" clip-rule="evenodd" d="M1441.98 535.658C1445.73 536.036 1448.47 539.386 1448.1 543.141L1447.87 545.433C1447.49 549.185 1444.15 551.922 1440.39 551.547C1440.39 551.547 1440.39 551.547 1440.39 551.547C1436.63 551.168 1433.9 547.819 1434.27 544.064L1434.5 541.772C1434.87 538.02 1438.22 535.283 1441.97 535.658C1441.97 535.658 1441.98 535.658 1441.98 535.658Z" fill="white" stroke="black" stroke-width="2.5" stroke-linecap="round" stroke-linejoin="round"/>
<path fill-rule="evenodd" clip-rule="evenodd" d="M1523.68 538.285C1527.45 538.4 1530.42 541.55 1530.31 545.323L1530.24 547.625C1530.13 551.394 1526.98 554.358 1523.21 554.245C1523.21 554.245 1523.21 554.245 1523.21 554.245C1519.43 554.13 1516.47 550.98 1516.58 547.207L1516.65 544.906C1516.76 541.137 1519.91 538.172 1523.68 538.285C1523.68 538.285 1523.68 538.285 1523.68 538.285Z" fill="white" stroke="black" stroke-width="2.5" stroke-linecap="round" stroke-linejoin="round"/>
<path fill-rule="evenodd" clip-rule="evenodd" d="M1482.47 510.913C1480.33 510.87 1478.49 512.345 1478.04 514.398C1477.79 514.938 1477.63 515.527 1477.58 516.147L1477.56 516.46L1477.51 518.104C1474.48 539.436 1472 554.395 1470.06 562.981C1467.86 572.671 1462.95 580.345 1455.32 586.004C1452.64 587.987 1452.08 591.764 1454.06 594.439C1455.14 595.895 1456.82 596.788 1458.63 596.872L1479.02 597.81C1479.2 597.818 1479.37 597.819 1479.55 597.811C1479.85 597.892 1480.15 597.95 1480.47 597.985L1480.78 598.011L1501.65 599.201C1503.45 599.304 1505.21 598.586 1506.42 597.249C1508.65 594.801 1508.46 591.014 1506.02 588.79C1499.04 582.449 1494.92 574.384 1493.67 564.593C1492.49 555.371 1490.7 539.2 1488.3 516.077C1488.07 513.918 1486.59 512.159 1484.61 511.514C1483.98 511.146 1483.25 510.928 1482.47 510.913ZM1484.86 481.066C1479.89 480.829 1475.67 484.662 1475.44 489.627C1475.2 494.592 1479.03 498.809 1484 499.045C1488.96 499.282 1493.18 495.449 1493.42 490.484C1493.65 485.519 1489.82 481.302 1484.86 481.066ZM1486.66 443.109C1481.7 442.872 1477.48 446.705 1477.25 451.67C1477.01 456.635 1480.84 460.852 1485.81 461.088C1490.77 461.325 1494.99 457.492 1495.23 452.527C1495.46 447.562 1491.63 443.345 1486.66 443.109ZM1491.43 332.71C1478.44 332.091 1461.8 345.147 1441.5 371.878L1461.69 408.072C1462.03 408.672 1462.51 409.176 1463.1 409.534C1464.98 410.688 1467.44 410.096 1468.6 408.212L1486.52 378.95C1486.75 378.571 1487.04 378.234 1487.39 377.951C1489.09 376.547 1491.61 376.792 1493.02 378.498L1513.71 403.637C1513.9 403.868 1514.11 404.076 1514.35 404.259C1516.1 405.611 1518.61 405.29 1519.96 403.542L1539.3 378.541C1520.37 348.606 1504.41 333.329 1491.43 332.71Z" fill="black"/>
<path fill-rule="evenodd" clip-rule="evenodd" d="M1455.37 606.054L1504.32 608.386C1509.63 608.639 1514.33 611.021 1517.64 614.666C1520.96 618.312 1522.88 623.221 1522.63 628.531C1522.37 633.841 1519.99 638.545 1516.35 641.859C1512.7 645.173 1507.79 647.096 1502.48 646.843L1453.54 644.51C1448.23 644.257 1443.52 641.876 1440.21 638.23C1436.9 634.585 1434.97 629.675 1435.23 624.365C1435.48 619.056 1437.86 614.351 1441.51 611.038C1445.15 607.724 1450.06 605.801 1455.37 606.054Z" fill="#5E69FF" stroke="black" stroke-width="2.5"/>
<path d="M1444.3 628.302L1513.22 631.587C1515.15 631.679 1516.79 630.188 1516.88 628.257C1516.98 626.327 1515.49 624.687 1513.56 624.595L1444.63 621.31C1442.7 621.218 1441.06 622.708 1440.97 624.639C1440.88 626.57 1442.37 628.21 1444.3 628.302Z" fill="black"/>
<path fill-rule="evenodd" clip-rule="evenodd" d="M1528.51 510.427C1538.09 510.884 1546.58 515.183 1552.57 521.763C1558.55 528.344 1562.02 537.207 1561.56 546.792C1561.54 547.378 1561.49 547.961 1561.44 548.539L1548.93 547.942C1549 547.367 1549.05 546.785 1549.08 546.197C1549.37 540.06 1547.15 534.385 1543.32 530.171C1539.49 525.958 1534.05 523.205 1527.91 522.913C1521.77 522.62 1516.1 524.843 1511.89 528.673C1507.67 532.504 1504.92 537.941 1504.63 544.078C1504.6 544.667 1504.6 545.251 1504.61 545.83L1492.1 545.234C1492.1 544.653 1492.11 544.07 1492.14 543.483C1492.6 533.898 1496.9 525.406 1503.48 519.424C1510.06 513.442 1518.92 509.97 1528.51 510.427ZM1439.61 506.19C1449.19 506.647 1457.69 510.946 1463.67 517.526C1469.65 524.107 1473.12 532.97 1472.66 542.555C1472.64 543.141 1472.59 543.724 1472.54 544.302L1460.03 543.705C1460.1 543.131 1460.15 542.548 1460.18 541.96C1460.47 535.823 1458.25 530.148 1454.42 525.934C1450.59 521.721 1445.15 518.968 1439.01 518.676C1432.88 518.383 1427.2 520.606 1422.99 524.436C1418.77 528.267 1416.02 533.704 1415.73 539.841C1415.7 540.43 1415.7 541.014 1415.71 541.593L1403.2 540.997C1403.2 540.416 1403.22 539.833 1403.24 539.246C1403.7 529.661 1408 521.169 1414.58 515.187C1421.16 509.205 1430.02 505.733 1439.61 506.19Z" fill="#5E69FF" stroke="black" stroke-width="2.5"/>
<path fill-rule="evenodd" clip-rule="evenodd" d="M1599.41 549.711C1603.68 548.861 1607.88 549.82 1611.24 552.058C1614.59 554.296 1617.09 557.813 1617.94 562.078L1627.32 609.153C1628.17 613.418 1627.21 617.624 1624.97 620.976C1622.73 624.329 1619.22 626.827 1614.95 627.677C1610.69 628.527 1606.48 627.568 1603.13 625.33C1599.78 623.092 1597.28 619.575 1596.43 615.309L1587.05 568.235C1586.2 563.97 1587.15 559.764 1589.39 556.411C1591.63 553.059 1595.15 550.561 1599.41 549.711Z" fill="#5E69FF" stroke="black" stroke-width="2.5"/>
<path fill-rule="evenodd" clip-rule="evenodd" d="M1575.33 595.505C1576.58 591.34 1579.41 588.076 1582.96 586.167C1586.51 584.258 1590.78 583.703 1594.95 584.955L1640.92 598.771C1645.08 600.023 1648.35 602.845 1650.26 606.395C1652.16 609.945 1652.72 614.223 1651.47 618.388C1650.22 622.553 1647.39 625.817 1643.84 627.726C1640.29 629.635 1636.02 630.19 1631.85 628.938L1585.88 615.122C1581.72 613.87 1578.45 611.048 1576.54 607.498C1574.63 603.948 1574.08 599.67 1575.33 595.505Z" fill="#5E69FF" stroke="black" stroke-width="2.5"/>
<path fill-rule="evenodd" clip-rule="evenodd" d="M1565.66 626.156C1566.91 621.991 1569.73 618.728 1573.28 616.819C1576.83 614.91 1581.11 614.355 1585.28 615.606L1631.24 629.423C1635.41 630.675 1638.67 633.496 1640.58 637.046C1642.49 640.596 1643.05 644.875 1641.79 649.04C1640.54 653.205 1637.72 656.468 1634.17 658.377C1630.62 660.287 1626.34 660.842 1622.18 659.59L1576.21 645.773C1572.04 644.521 1568.78 641.7 1566.87 638.15C1564.96 634.6 1564.41 630.322 1565.66 626.156Z" fill="#5E69FF" stroke="black" stroke-width="2.5"/>
<path fill-rule="evenodd" clip-rule="evenodd" d="M1556.86 657.574C1558.12 653.409 1560.94 650.145 1564.49 648.236C1568.04 646.327 1572.32 645.772 1576.48 647.024L1622.45 660.84C1626.62 662.092 1629.88 664.914 1631.79 668.464C1633.7 672.014 1634.25 676.292 1633 680.457C1631.75 684.622 1628.93 687.886 1625.38 689.795C1621.83 691.704 1617.55 692.259 1613.38 691.007L1567.41 677.191C1563.25 675.939 1559.99 673.117 1558.08 669.567C1556.17 666.017 1555.61 661.739 1556.86 657.574Z" fill="#5E69FF" stroke="black" stroke-width="2.5"/>
<path fill-rule="evenodd" clip-rule="evenodd" d="M1374.1 459.271C1375.27 455.085 1374.65 450.817 1372.67 447.301C1370.7 443.785 1367.39 441.021 1363.2 439.842L1317 426.83C1312.82 425.651 1308.55 426.28 1305.03 428.251C1301.52 430.222 1298.75 433.534 1297.57 437.72C1296.39 441.907 1297.02 446.175 1298.99 449.691C1300.96 453.207 1304.28 455.971 1308.46 457.15L1354.67 470.162C1358.85 471.341 1363.12 470.712 1366.64 468.741C1370.15 466.77 1372.92 463.458 1374.1 459.271Z" fill="#5E69FF" stroke="black" stroke-width="2.5"/>
<path fill-rule="evenodd" clip-rule="evenodd" d="M1365.81 490.326C1366.99 486.14 1366.36 481.872 1364.39 478.356C1362.42 474.839 1359.1 472.075 1354.92 470.896L1308.71 457.884C1304.53 456.705 1300.26 457.335 1296.74 459.306C1293.23 461.276 1290.46 464.589 1289.28 468.775C1288.11 472.961 1288.73 477.229 1290.71 480.745C1292.68 484.262 1295.99 487.026 1300.18 488.205L1346.38 501.217C1350.56 502.396 1354.83 501.766 1358.35 499.795C1361.86 497.825 1364.63 494.512 1365.81 490.326Z" fill="#5E69FF" stroke="black" stroke-width="2.5"/>
<path fill-rule="evenodd" clip-rule="evenodd" d="M1356.37 521.556C1357.55 517.369 1356.92 513.101 1354.95 509.585C1352.98 506.069 1349.66 503.305 1345.48 502.126L1299.27 489.114C1295.09 487.935 1290.82 488.564 1287.3 490.535C1283.79 492.506 1281.02 495.818 1279.84 500.005C1278.67 504.191 1279.29 508.459 1281.27 511.975C1283.24 515.491 1286.55 518.255 1290.74 519.434L1336.94 532.446C1341.12 533.625 1345.39 532.996 1348.91 531.025C1352.42 529.054 1355.19 525.742 1356.37 521.556Z" fill="#5E69FF" stroke="black" stroke-width="2.5"/>
<path d="M1364.39 450.228C1367.63 452.102 1368.74 456.249 1366.86 459.491C1366.03 460.931 1364.7 462.014 1363.12 462.535L1361.44 463.087" stroke="black" stroke-width="2.5" stroke-linecap="round" stroke-linejoin="round"/>
<path d="M1356.83 481.611C1360.07 483.485 1361.18 487.632 1359.31 490.874C1358.47 492.313 1357.14 493.397 1355.56 493.918L1353.88 494.47" stroke="black" stroke-width="2.5" stroke-linecap="round" stroke-linejoin="round"/>
<path d="M1347.54 512.002C1350.78 513.876 1351.89 518.024 1350.01 521.265C1349.18 522.705 1347.85 523.788 1346.27 524.309L1344.59 524.861" stroke="black" stroke-width="2.5" stroke-linecap="round" stroke-linejoin="round"/>
<path d="M1588.38 593.083C1584.64 592.926 1581.47 595.831 1581.32 599.572C1581.25 601.234 1581.79 602.863 1582.84 604.151L1583.96 605.516" stroke="black" stroke-width="2.5" stroke-linecap="round" stroke-linejoin="round"/>
<path d="M1577.91 623.62C1574.17 623.462 1571.01 626.367 1570.85 630.108C1570.78 631.77 1571.33 633.4 1572.38 634.687L1573.5 636.053" stroke="black" stroke-width="2.5" stroke-linecap="round" stroke-linejoin="round"/>
<path d="M1569.44 654.251C1565.7 654.094 1562.54 656.999 1562.38 660.74C1562.31 662.402 1562.86 664.031 1563.91 665.319L1565.03 666.684" stroke="black" stroke-width="2.5" stroke-linecap="round" stroke-linejoin="round"/>
<path fill-rule="evenodd" clip-rule="evenodd" d="M1483.08 819.686C1500.41 821.202 1513.23 836.48 1511.71 853.811C1510.66 865.77 1503.06 875.581 1492.76 880.016C1505.68 884.853 1514.34 897.848 1513.08 912.262C1511.56 929.593 1496.28 942.413 1478.95 940.897C1461.62 939.381 1448.8 924.102 1450.32 906.772C1451.36 894.813 1458.96 885.002 1469.27 880.567C1456.35 875.73 1447.69 862.735 1448.95 848.32C1450.47 830.989 1465.74 818.169 1483.08 819.686Z" fill="black"/>
<path fill-rule="evenodd" clip-rule="evenodd" d="M1496.27 1011L1496.13 982.984L1467.6 976.257L1462.31 1012.37C1467.28 1014.46 1473.51 1015.55 1480.98 1015.65C1488.45 1015.75 1493.55 1014.2 1496.27 1011Z" fill="white" stroke="black" stroke-width="2.5" stroke-linecap="round"/>
<path fill-rule="evenodd" clip-rule="evenodd" d="M1496.32 1008.38L1472.33 985.125L1496.52 985.178L1496.32 1008.38Z" fill="black"/>
<path d="M1482.79 937.218C1468.01 945.609 1459.48 953.705 1457.18 961.506C1456.66 961.39 1456.13 961.316 1455.58 961.287C1450.06 960.998 1445.35 965.458 1445.04 971.249C1444.74 977.04 1448.96 981.969 1454.48 982.258C1456.08 982.342 1457.61 982.027 1458.99 981.396C1462.87 989.787 1470.6 996.334 1480.43 998.424C1494.31 1001.37 1504.5 994.443 1509.42 982.467C1509.7 982.508 1509.99 982.536 1510.28 982.551C1515.8 982.84 1520.51 978.38 1520.82 972.589C1521.1 967.133 1517.37 962.442 1512.32 961.676C1510.91 955.134 1506.05 950.845 1497.25 944.004C1494.41 941.797 1489.59 939.535 1482.79 937.218Z" fill="white"/>
<path d="M1482.79 937.218C1468.01 945.609 1459.48 953.705 1457.18 961.506C1456.66 961.39 1456.13 961.316 1455.58 961.287C1450.06 960.998 1445.35 965.458 1445.04 971.249C1444.74 977.04 1448.96 981.969 1454.48 982.258C1456.08 982.342 1457.61 982.027 1458.99 981.396C1462.87 989.787 1470.6 996.334 1480.43 998.424C1494.31 1001.37 1504.5 994.443 1509.42 982.467C1509.7 982.508 1509.99 982.536 1510.28 982.551C1515.8 982.84 1520.51 978.38 1520.82 972.589C1521.1 967.133 1517.37 962.442 1512.32 961.676C1510.91 955.134 1506.05 950.845 1497.25 944.004C1494.41 941.797 1489.59 939.535 1482.79 937.218Z" fill="white" stroke="black" stroke-width="2.5" stroke-linejoin="round"/>
<mask id="mask0" mask-type="alpha" maskUnits="userSpaceOnUse" x="1443" y="935" width="80" height="66">
<path d="M1482.79 937.218C1468.01 945.609 1459.48 953.705 1457.18 961.506C1456.66 961.39 1456.13 961.316 1455.58 961.287C1450.06 960.998 1445.35 965.458 1445.04 971.249C1444.74 977.04 1448.96 981.969 1454.48 982.258C1456.08 982.342 1457.61 982.027 1458.99 981.396C1462.87 989.787 1470.6 996.335 1480.43 998.424C1494.31 1001.37 1504.5 994.443 1509.42 982.467C1509.7 982.508 1509.99 982.536 1510.28 982.551C1515.8 982.841 1520.51 978.38 1520.82 972.589C1521.1 967.133 1517.37 962.442 1512.32 961.676C1510.91 955.134 1506.05 950.846 1497.25 944.004C1494.41 941.797 1489.59 939.535 1482.79 937.218Z" fill="white" stroke="black" stroke-width="2.5" stroke-linejoin="round"/>
</mask>
<g mask="url(#mask0)">
<path fill-rule="evenodd" clip-rule="evenodd" d="M1459.83 950.55L1456 957.5L1457 961L1495.27 954.785L1513 961C1517.34 945.869 1514.75 936.928 1505.21 934.176C1490.9 930.048 1470.62 922.966 1464.99 932.756C1461.24 939.284 1459.52 945.215 1459.83 950.55Z" fill="black"/>
</g>
<path fill-rule="evenodd" clip-rule="evenodd" d="M1480.83 969.009C1482.48 969.153 1483.71 970.608 1483.56 972.259L1483.47 973.255C1483.33 974.905 1481.87 976.126 1480.22 975.982C1478.57 975.837 1477.35 974.382 1477.5 972.732L1477.58 971.736C1477.73 970.085 1479.18 968.864 1480.83 969.009ZM1501.84 969.843C1503.49 969.987 1504.71 971.442 1504.57 973.093L1504.48 974.089C1504.34 975.739 1502.88 976.96 1501.23 976.816C1499.58 976.672 1498.36 975.216 1498.5 973.566L1498.59 972.57C1498.74 970.919 1500.19 969.698 1501.84 969.843Z" stroke="black" stroke-width="2" stroke-linecap="round" stroke-linejoin="round"/>
<path d="M1489.66 982.831C1491.21 984.304 1492.87 984.449 1494.64 983.266" stroke="black" stroke-width="2" stroke-linecap="round" stroke-linejoin="round"/>
<path d="M1492.96 968.062L1494.99 979.282L1492 979.02" stroke="black" stroke-width="2" stroke-linecap="round" stroke-linejoin="round"/>
</g>
<defs>
<clipPath id="clip0">
<rect width="2811" height="1999" fill="white"/>
</clipPath>
</defs>
</svg>
