<svg width="2811" height="1999" viewBox="0 0 2811 1999" fill="none" xmlns="http://www.w3.org/2000/svg">
<g clip-path="url(#clip0)">
<rect width="2811" height="1999" fill="white"/>
<path fill-rule="evenodd" clip-rule="evenodd" d="M1840.03 1320.57C1743.08 1418.4 1608.62 1479 1460 1479C1311.38 1479 1176.92 1418.4 1079.97 1320.57H1840.03ZM1920.91 1215.81C1906.9 1239.51 1891.12 1262.03 1873.75 1283.2H1046.25C1028.88 1262.03 1013.1 1239.51 999.094 1215.81H1920.91ZM1962.39 1128.36C1953.67 1152.12 1943.31 1175.08 1931.45 1197.12H988.548C976.691 1175.08 966.335 1152.12 957.615 1128.36H1962.39ZM1984.93 1047.82C1980.78 1068.91 1975.4 1089.56 1968.85 1109.68H951.15C944.602 1089.56 939.215 1068.91 935.067 1047.82H1984.93ZM1994.68 962.687C1993.91 985.22 1991.74 1007.4 1988.26 1029.14H931.738C928.261 1007.4 926.094 985.22 925.32 962.687H1994.68ZM1460 409C1755.47 409 1995 648.528 1995 944H925L925.072 935.153C929.796 643.761 1167.48 409 1460 409Z" fill="#EBF2F9"/>
<path fill-rule="evenodd" clip-rule="evenodd" d="M455 1639.65L721.888 1240.99C731.72 1226.31 751.596 1222.37 766.281 1232.2C770.213 1234.83 773.512 1238.31 775.941 1242.37L1015 1642L455 1639.65Z" fill="#E4EDF6"/>
<path fill-rule="evenodd" clip-rule="evenodd" d="M773.5 1239L1186 1640H1015.53L773.5 1239Z" fill="#DFE9F3"/>
<path fill-rule="evenodd" clip-rule="evenodd" d="M913 1640L1199.25 1373.06C1209.43 1363.56 1225.06 1362.99 1235.91 1371.73L1569 1640H913Z" fill="#E4EDF6"/>
<path fill-rule="evenodd" clip-rule="evenodd" d="M1235 1371L1685 1640H1569.29L1235 1371Z" fill="#DFE9F3"/>
<path fill-rule="evenodd" clip-rule="evenodd" d="M1451 1640L1804.51 1330.62C1812.82 1323.35 1825.46 1324.19 1832.73 1332.5C1832.88 1332.67 1833.03 1332.85 1833.17 1333.02L2084 1640H1451Z" fill="#E4EDF6"/>
<path fill-rule="evenodd" clip-rule="evenodd" d="M1831.5 1330.5L2066.51 1474.24L2209 1261.5L2237 1640H2082.93L1831.5 1330.5Z" fill="#DFE9F3"/>
<path fill-rule="evenodd" clip-rule="evenodd" d="M2022 1642L2210.16 1259.39C2212.6 1254.43 2218.59 1252.39 2223.55 1254.83C2225.41 1255.75 2226.95 1257.22 2227.93 1259.05L2294.62 1382.39L2435 1642H2022Z" fill="#E4EDF6"/>
<path fill-rule="evenodd" clip-rule="evenodd" d="M712.621 911.154L848.941 914.374L859.886 809.891L954.62 758.792L929.886 902.824C921.773 950.07 878.741 983.168 830.995 978.886L723.913 969.281C706.958 967.761 693.017 955.281 689.636 938.597C687.124 926.202 695.136 914.116 707.532 911.604C709.206 911.265 710.913 911.114 712.621 911.154Z" fill="white" stroke="black" stroke-width="2.5" stroke-linecap="round" stroke-linejoin="round"/>
<path fill-rule="evenodd" clip-rule="evenodd" d="M893.715 785.244L901.663 745.101C903.212 737.276 910.752 732.142 918.599 733.569C926.29 734.967 931.392 742.335 929.993 750.026C929.98 750.099 929.967 750.171 929.952 750.243L922.005 790.387C920.456 798.211 912.915 803.345 905.068 801.918C897.377 800.52 892.276 793.152 893.674 785.461C893.687 785.389 893.701 785.316 893.715 785.244Z" fill="white" stroke="black" stroke-width="2.5" stroke-linecap="round" stroke-linejoin="round"/>
<path fill-rule="evenodd" clip-rule="evenodd" d="M923.095 791.241L929.129 753.577C930.301 746.257 937.186 741.274 944.506 742.447C944.64 742.468 944.773 742.492 944.907 742.517C952.478 743.967 957.527 751.17 956.308 758.782L950.274 796.445C949.102 803.765 942.217 808.748 934.897 807.576C934.763 807.554 934.629 807.531 934.496 807.505C926.925 806.056 921.876 798.852 923.095 791.241Z" fill="white" stroke="black" stroke-width="2.5" stroke-linecap="round" stroke-linejoin="round"/>
<path fill-rule="evenodd" clip-rule="evenodd" d="M866.04 786.5L872.824 743.478C874.09 735.449 881.3 729.732 889.406 730.33C896.697 730.867 902.172 737.213 901.634 744.504C901.607 744.869 901.565 745.232 901.508 745.593L894.725 788.614C893.459 796.643 886.248 802.36 878.142 801.763C870.852 801.225 865.377 794.879 865.914 787.588C865.941 787.224 865.983 786.861 866.04 786.5Z" fill="white" stroke="black" stroke-width="2.5" stroke-linecap="round" stroke-linejoin="round"/>
<path fill-rule="evenodd" clip-rule="evenodd" d="M872.954 821.522L852.103 804.775C845.989 799.864 845.013 790.927 849.924 784.813C849.935 784.799 849.947 784.785 849.958 784.771C854.917 778.645 863.896 777.683 870.04 782.618L890.892 799.365C897.006 804.276 897.982 813.213 893.071 819.326C893.06 819.341 893.048 819.355 893.036 819.369C888.078 825.495 879.099 826.457 872.954 821.522Z" fill="white" stroke="black" stroke-width="2.5" stroke-linecap="round" stroke-linejoin="round"/>
<path fill-rule="evenodd" clip-rule="evenodd" d="M756.701 947.934C756.415 948.968 756.074 949.986 755.678 950.983L703.524 1082.44L607.229 1048.69L644.695 891.943L695.974 900.293L735.947 911.336C743.866 913.524 750.148 918.714 753.904 925.337C757.659 931.96 758.888 940.015 756.701 947.934Z" fill="#FF7C25" stroke="black" stroke-width="2.5"/>
<path fill-rule="evenodd" clip-rule="evenodd" d="M510.956 978.2L428.114 1140.86L429.263 1136.93C431.316 1129.92 427.293 1122.56 420.276 1120.51C420.115 1120.46 419.953 1120.42 419.79 1120.38C412.808 1118.62 405.722 1122.86 403.964 1129.84C403.907 1130.06 403.857 1130.29 403.813 1130.52L399.31 1153.5C396.336 1168.67 406.228 1183.38 421.403 1186.36C422.224 1186.52 423.051 1186.64 423.883 1186.73L465.445 1191.06C483.143 1192.91 499.932 1182.84 506.642 1166.36L567.281 1017.42L663.468 938.491C674.682 929.29 677.341 913.203 669.685 900.883C662.268 888.948 646.635 885.191 634.605 892.453L534.538 952.856C524.465 958.936 516.296 967.716 510.956 978.2Z" fill="white" stroke="black" stroke-width="2.5" stroke-linecap="round" stroke-linejoin="round"/>
<path fill-rule="evenodd" clip-rule="evenodd" d="M607.135 1050.35L717.417 1079.37L787.238 1097.72C801.593 1101.5 813.059 1110.73 819.993 1122.61C826.927 1134.49 829.329 1149.02 825.555 1163.37C824.112 1168.86 821.807 1174.09 818.728 1178.86L651.341 1438.12L606.461 1372.53L728.723 1171.91L636.002 1161.29L446.638 1538.4L394.504 1478.3L607.135 1050.35Z" fill="#5E69FF" stroke="black" stroke-width="2.5"/>
<path d="M636.263 1162.1L623.497 1160.56" stroke="black" stroke-width="2.5" stroke-linecap="round" stroke-linejoin="round"/>
<path fill-rule="evenodd" clip-rule="evenodd" d="M695.292 1522.84C691.97 1526.37 686.554 1526.92 682.592 1524.12L569.76 1444.48C565.411 1441.41 564.229 1435.47 567.071 1430.97L631.47 1328.99L701 1362.5L659.52 1458.01L696.196 1509.78C699.04 1513.79 698.662 1519.26 695.292 1522.84Z" fill="black"/>
<path fill-rule="evenodd" clip-rule="evenodd" d="M463 1616C459.511 1618.04 455.07 1617.33 452.388 1614.31L367.036 1518.17C364.059 1514.82 363.678 1509.89 366.105 1506.12L427 1411.5L499.5 1434.5L457.029 1526.25L468.045 1605.62C468.623 1609.78 466.63 1613.88 463 1616Z" fill="black"/>
<path fill-rule="evenodd" clip-rule="evenodd" d="M726.778 906.256L730.532 878.493L703.218 867.86L692.952 902.888C697.591 905.645 703.603 907.593 710.989 908.731C718.375 909.868 723.638 909.043 726.778 906.256Z" fill="white" stroke="black" stroke-width="2.5" stroke-linecap="round" stroke-linejoin="round"/>
<path fill-rule="evenodd" clip-rule="evenodd" d="M727.189 903.663L706.674 877.301L730.618 880.72L727.189 903.663Z" fill="black"/>
<path d="M727.846 831.311C726.82 831.027 725.778 830.805 724.726 830.646C710.633 828.519 697.456 837.877 694.7 851.711C694.281 851.567 693.847 851.45 693.399 851.363C687.978 850.309 682.686 854.07 681.579 859.762C680.473 865.454 683.971 870.923 689.392 871.977C691.387 872.365 693.365 872.101 695.123 871.328C697.444 880.484 703.097 888.052 712.838 891.597C726.171 896.45 737.23 891.005 743.77 879.831C744.044 879.91 744.323 879.978 744.609 880.034C750.03 881.087 755.322 877.327 756.428 871.635C757.376 866.759 754.946 862.048 750.823 860.134C752.492 851.294 750.656 844.176 741.083 836.434C739.254 834.954 734.841 833.247 727.846 831.311Z" fill="white" stroke="black" stroke-width="2.5" stroke-linecap="round" stroke-linejoin="round"/>
<mask id="mask0" mask-type="alpha" maskUnits="userSpaceOnUse" x="680" y="829" width="78" height="66">
<path d="M727.846 831.311C726.82 831.027 725.778 830.805 724.726 830.646C710.633 828.518 697.456 837.877 694.7 851.71C694.281 851.566 693.847 851.449 693.399 851.362C687.978 850.309 682.686 854.069 681.579 859.761C680.473 865.454 683.971 870.923 689.392 871.977C691.387 872.364 693.365 872.1 695.123 871.328C697.444 880.483 703.097 888.051 712.838 891.597C726.171 896.45 737.23 891.004 743.77 879.831C744.044 879.91 744.323 879.978 744.609 880.033C750.03 881.087 755.322 877.326 756.428 871.634C757.376 866.759 754.946 862.047 750.823 860.133C752.492 851.294 750.656 844.175 741.083 836.433C739.253 834.954 734.841 833.246 727.846 831.311Z" fill="white" stroke="black" stroke-width="2.5" stroke-linecap="round" stroke-linejoin="round"/>
</mask>
<g mask="url(#mask0)">
<path fill-rule="evenodd" clip-rule="evenodd" d="M690.746 840.934L695.341 851.346L733.672 842.461L751.315 859.039C757.047 844.681 755.381 835.475 746.317 831.422C732.72 825.343 713.627 815.508 706.689 824.42C702.063 830.361 696.749 835.865 690.746 840.934Z" fill="black"/>
</g>
<path d="M719.582 866.122C719.955 864.508 718.948 862.897 717.334 862.524C715.719 862.152 714.108 863.158 713.736 864.773L713.511 865.747C713.138 867.361 714.145 868.972 715.759 869.345C717.373 869.718 718.984 868.711 719.357 867.097L719.582 866.122Z" stroke="black" stroke-width="2" stroke-linecap="round" stroke-linejoin="round"/>
<path d="M740.269 869.872C740.641 868.258 739.635 866.647 738.02 866.274C736.406 865.901 734.795 866.908 734.422 868.522L734.197 869.497C733.825 871.111 734.831 872.722 736.446 873.095C738.06 873.467 739.671 872.461 740.044 870.846L740.269 869.872Z" stroke="black" stroke-width="2" stroke-linecap="round" stroke-linejoin="round"/>
<path d="M724.153 877.441C725.477 879.115 727.101 879.49 729.025 878.566" stroke="black" stroke-width="2" stroke-linecap="round" stroke-linejoin="round"/>
<path d="M729.476 863.275L729.925 874.668L727.002 873.993" stroke="black" stroke-width="2" stroke-linecap="round" stroke-linejoin="round"/>
<path fill-rule="evenodd" clip-rule="evenodd" d="M1089.62 383.25C1113.11 383.25 1133.36 388.469 1150.34 398.939C1167.32 409.409 1181.03 425.123 1191.5 446.059C1212.5 488.056 1220.45 550.963 1215.44 634.75H965.787C960.122 550.959 967.573 488.05 988.241 446.052C998.543 425.118 1012.13 409.406 1029.03 398.938C1045.93 388.468 1066.13 383.25 1089.62 383.25Z" fill="#ADF7FF" stroke="black" stroke-width="2.5"/>
<path d="M1087.24 484.957C1085.85 485.023 1084.47 485.185 1083.1 485.44C1069.32 488.009 1059.43 499.447 1058.23 512.757C1057.14 512.505 1056 512.418 1054.83 512.521C1048.63 513.064 1044.05 518.742 1044.62 525.203C1045.18 531.664 1050.67 536.461 1056.88 535.918C1058.2 535.803 1059.44 535.457 1060.57 534.922C1062.02 546.213 1063.85 554.452 1075.5 557C1081.21 558.249 1106.73 557.583 1111 555.5C1118.27 551.952 1120.17 544.525 1121.06 535.575C1122.27 535.907 1123.56 536.033 1124.88 535.918C1131.09 535.375 1135.66 529.697 1135.1 523.236C1134.53 516.775 1129.04 511.977 1122.83 512.521C1122.7 512.532 1122.57 512.546 1122.44 512.562C1120.6 496.294 1106.41 484.037 1089.82 484.833L1087.24 484.957Z" fill="white"/>
<path d="M1087.24 484.957C1085.85 485.023 1084.47 485.185 1083.1 485.44C1069.32 488.009 1059.43 499.447 1058.23 512.757C1057.14 512.505 1056 512.418 1054.83 512.521C1048.63 513.064 1044.05 518.742 1044.62 525.203C1045.18 531.664 1050.67 536.461 1056.88 535.918C1058.2 535.803 1059.44 535.457 1060.57 534.922C1062.02 546.213 1063.85 554.452 1075.5 557C1081.21 558.249 1106.73 557.583 1111 555.5C1118.27 551.952 1120.17 544.525 1121.06 535.575C1122.27 535.907 1123.56 536.033 1124.88 535.918C1131.09 535.375 1135.66 529.697 1135.1 523.236C1134.53 516.775 1129.04 511.977 1122.83 512.521C1122.7 512.532 1122.57 512.546 1122.44 512.562C1120.6 496.294 1106.41 484.037 1089.82 484.833L1087.24 484.957Z" fill="white" stroke="black" stroke-width="2.5" stroke-linecap="round" stroke-linejoin="round"/>
<path d="M1083.15 520.815L1082.38 520.855C1080.73 520.942 1079.46 522.353 1079.54 524.008L1079.64 525.834C1079.73 527.489 1081.14 528.76 1082.79 528.673L1083.56 528.633C1085.21 528.546 1086.49 527.135 1086.4 525.48L1086.3 523.654C1086.22 521.999 1084.8 520.728 1083.15 520.815Z" fill="white" stroke="black" stroke-width="2" stroke-linecap="round" stroke-linejoin="round"/>
<path d="M1094.01 537.923C1095.96 539.314 1097.84 539.216 1099.64 537.628" stroke="black" stroke-width="2" stroke-linecap="round" stroke-linejoin="round"/>
<path d="M1094.84 518.852L1104.76 533.841L1096.07 532.797" stroke="black" stroke-width="2" stroke-linecap="round" stroke-linejoin="round"/>
<path d="M1111.11 519.882L1111.88 519.855C1113.53 519.798 1114.92 521.093 1114.98 522.749L1115.05 524.577C1115.1 526.233 1113.81 527.622 1112.15 527.68L1111.38 527.707C1109.73 527.764 1108.34 526.469 1108.28 524.813L1108.22 522.985C1108.16 521.329 1109.45 519.94 1111.11 519.882Z" fill="white" stroke="black" stroke-width="2" stroke-linecap="round" stroke-linejoin="round"/>
<path d="M1094.14 382V286.5" stroke="black" stroke-width="2.5" stroke-linecap="round" stroke-linejoin="round"/>
<path d="M1094.14 294C1090.27 294 1087.14 290.866 1087.14 287C1087.14 283.134 1090.27 280 1094.14 280C1098.01 280 1101.14 283.134 1101.14 287C1101.14 290.866 1098.01 294 1094.14 294Z" fill="white" stroke="black" stroke-width="2.5" stroke-linecap="round" stroke-linejoin="round"/>
<path fill-rule="evenodd" clip-rule="evenodd" d="M1112.67 546.102L1110.18 547.779C1108.81 548.706 1108.44 550.57 1109.37 551.944L1112.17 556.089C1113.09 557.463 1114.96 557.825 1116.33 556.898L1118.82 555.221C1120.19 554.294 1120.56 552.43 1119.63 551.056L1116.83 546.911C1115.91 545.537 1114.04 545.175 1112.67 546.102ZM1065.09 546.55L1061.55 550.086C1060.38 551.257 1060.38 553.157 1061.55 554.328L1063.67 556.45C1064.84 557.621 1066.74 557.621 1067.91 556.45L1071.45 552.914C1072.62 551.743 1072.62 549.843 1071.45 548.672L1069.33 546.55C1068.16 545.379 1066.26 545.379 1065.09 546.55ZM1102.14 482C1100.48 482 1099.14 483.343 1099.14 485V490C1099.14 491.657 1100.48 493 1102.14 493H1105.14C1106.8 493 1108.14 491.657 1108.14 490V485C1108.14 483.343 1106.8 482 1105.14 482H1102.14ZM1076.14 482C1074.48 482 1073.14 483.343 1073.14 485V490C1073.14 491.657 1074.48 493 1076.14 493H1079.14C1080.8 493 1082.14 491.657 1082.14 490V485C1082.14 483.343 1080.8 482 1079.14 482H1076.14Z" fill="black"/>
<path fill-rule="evenodd" clip-rule="evenodd" d="M783.216 550.415C780.96 545.678 775.291 543.667 770.554 545.923C765.902 548.139 763.879 553.647 765.946 558.331L766.063 558.585L859.533 754.822C872.714 782.495 905.833 794.242 933.506 781.061C952.637 771.949 964.893 752.749 965.136 731.597L965.14 730.955V672.5C965.14 667.253 960.886 663 955.64 663C950.483 663 946.287 667.108 946.143 672.23L946.14 672.5V730.955C946.14 745.032 938.045 757.854 925.336 763.908C907.318 772.49 885.791 765.003 876.951 747.194L876.687 746.651L783.216 550.415Z" fill="white" stroke="black" stroke-width="2.5" stroke-linecap="round" stroke-linejoin="round"/>
<path fill-rule="evenodd" clip-rule="evenodd" d="M1225.4 672.504C1220.25 672.361 1215.94 676.351 1215.65 681.467L1215.64 681.737L1211.14 844.338C1210.57 865.041 1226.88 882.289 1247.59 882.862C1263.75 883.31 1278.36 873.349 1283.87 858.185L1284.03 857.724L1331.89 720.5H1423.14C1428.3 720.5 1432.49 716.392 1432.64 711.27L1432.64 711C1432.64 705.844 1428.53 701.647 1423.41 701.504L1423.14 701.5H1325.14C1321.19 701.5 1317.67 703.939 1316.27 707.608L1316.17 707.872L1266.09 851.468C1263.44 859.076 1256.17 864.092 1248.11 863.869C1238.01 863.59 1230.03 855.264 1230.13 845.2L1230.13 844.864L1234.64 682.263C1234.78 677.018 1230.65 672.649 1225.4 672.504Z" fill="white" stroke="black" stroke-width="2.5" stroke-linecap="round" stroke-linejoin="round"/>
<path d="M951.14 635.25H1230.14C1242.7 635.25 1252.89 645.436 1252.89 658C1252.89 670.564 1242.7 680.75 1230.14 680.75H951.14C938.575 680.75 928.39 670.564 928.39 658C928.39 645.436 938.575 635.25 951.14 635.25Z" fill="#5E69FF" stroke="black" stroke-width="2.5"/>
<path fill-rule="evenodd" clip-rule="evenodd" d="M1044.84 824.25L1131.57 822.25L1140.88 882.177C1141.05 883.199 1140.78 884.192 1140.22 884.969C1139.66 885.747 1138.8 886.31 1137.78 886.474C1137.03 886.595 1136.28 886.483 1135.61 886.179C1134.95 885.874 1134.38 885.377 1133.98 884.729L1113.52 851.282L1111.04 928.413C1111 929.448 1110.55 930.372 1109.85 931.028C1109.15 931.684 1108.2 932.074 1107.17 932.04C1106.33 932.013 1105.56 931.711 1104.94 931.213C1104.32 930.715 1103.86 930.02 1103.65 929.209L1082.69 846.094L1076.9 895.688C1076.78 896.717 1076.26 897.599 1075.5 898.195C1074.75 898.79 1073.77 899.098 1072.74 898.978C1071.46 898.829 1070.35 898.035 1069.79 896.875L1058.6 873.526L1049.14 894.676C1048.72 895.621 1047.96 896.306 1047.06 896.648C1046.16 896.991 1045.14 896.991 1044.19 896.569C1043.49 896.255 1042.92 895.744 1042.53 895.119C1042.15 894.495 1041.94 893.757 1041.97 892.989L1044.84 824.25Z" fill="#FF7C25" stroke="black" stroke-width="2.5"/>
<path fill-rule="evenodd" clip-rule="evenodd" d="M968.216 681.25L1213.82 681.25L1153.46 747.692C1135.96 766.961 1111.12 777.919 1085.08 777.854C1059.29 777.789 1034.94 765.936 1018.98 745.674L968.216 681.25Z" fill="#5E69FF" stroke="black" stroke-width="2.5"/>
<path fill-rule="evenodd" clip-rule="evenodd" d="M1030.56 824.496C1033.03 816.662 1037.64 807.691 1044.39 797.574C1051.34 787.144 1058.6 780.657 1066.63 778.104L1107.28 777.491C1116.56 780.215 1123.65 787.178 1131 796.5C1138.08 805.479 1143.71 822.881 1143.71 822.881C1143.71 822.881 1080.21 824.496 1030.56 824.496Z" fill="#5E69FF" stroke="black" stroke-width="2.5"/>
<path fill-rule="evenodd" clip-rule="evenodd" d="M1150.64 651C1146.5 651 1143.14 654.358 1143.14 658.5C1143.14 662.642 1146.5 666 1150.64 666C1154.78 666 1158.14 662.642 1158.14 658.5C1158.14 654.358 1154.78 651 1150.64 651ZM1093.64 651C1089.5 651 1086.14 654.358 1086.14 658.5C1086.14 662.642 1089.5 666 1093.64 666C1097.78 666 1101.14 662.642 1101.14 658.5C1101.14 654.358 1097.78 651 1093.64 651ZM1036.64 651C1032.5 651 1029.14 654.358 1029.14 658.5C1029.14 662.642 1032.5 666 1036.64 666C1040.78 666 1044.14 662.642 1044.14 658.5C1044.14 654.358 1040.78 651 1036.64 651Z" fill="white" stroke="black" stroke-width="2.5" stroke-linecap="round" stroke-linejoin="round"/>
<path d="M1143.14 658.5H1101.64" stroke="black" stroke-width="2.5" stroke-linecap="round" stroke-linejoin="round"/>
<path d="M1085.39 659H1044.89" stroke="black" stroke-width="2.5" stroke-linecap="round" stroke-linejoin="round"/>
<path d="M1103.64 487.5V470.5C1103.64 463.32 1097.82 457.5 1090.64 457.5C1083.46 457.5 1077.64 463.32 1077.64 470.5V487.5" stroke="black" stroke-width="2.5" stroke-linecap="round" stroke-linejoin="round"/>
<path d="M1111.64 548.5L1124.5 565.805C1133.15 577.462 1139.17 590.864 1142.13 605.081L1148.14 634" stroke="black" stroke-width="2.5" stroke-linecap="round" stroke-linejoin="round"/>
<path d="M1068.64 548.5L1058.08 562.34C1046.06 578.091 1038.99 597.058 1037.76 616.834L1036.64 635" stroke="black" stroke-width="2.5" stroke-linecap="round" stroke-linejoin="round"/>
<path fill-rule="evenodd" clip-rule="evenodd" d="M1471.64 663.25C1482.82 663.25 1493.1 667.134 1501.19 673.626C1509.04 679.93 1514.84 688.694 1517.42 698.75L1496.6 698.75C1494.34 694.063 1490.83 690.095 1486.49 687.283C1482.07 684.416 1476.8 682.75 1471.14 682.75C1463.34 682.75 1456.28 685.912 1451.16 691.024C1446.05 696.136 1442.89 703.199 1442.89 711C1442.89 718.801 1446.05 725.864 1451.16 730.976C1456.28 736.088 1463.34 739.25 1471.14 739.25C1476.8 739.25 1482.07 737.584 1486.49 734.717C1490.83 731.905 1494.34 727.938 1496.6 723.251L1517.15 723.251C1514.41 733.053 1508.59 741.568 1500.79 747.687C1492.76 753.991 1482.64 757.75 1471.64 757.75C1458.59 757.75 1446.78 752.461 1438.23 743.911C1429.68 735.36 1424.39 723.548 1424.39 710.5C1424.39 697.452 1429.68 685.64 1438.23 677.089C1446.78 668.539 1458.59 663.25 1471.64 663.25Z" fill="#5E69FF" stroke="black" stroke-width="2.5"/>
<path fill-rule="evenodd" clip-rule="evenodd" d="M712.492 534.701C707.59 524.651 706.577 513.714 708.865 503.596C711.087 493.77 716.421 484.715 724.331 477.994L733.456 496.702C730.233 500.787 728.208 505.686 727.581 510.814C726.941 516.044 727.755 521.513 730.237 526.602C733.657 533.614 739.595 538.575 746.431 540.929C753.267 543.283 761.001 543.029 768.012 539.609C775.024 536.189 779.985 530.251 782.339 523.415C784.693 516.579 784.439 508.846 781.019 501.834C778.537 496.746 774.729 492.737 770.214 490.021C765.787 487.358 760.68 485.938 755.477 485.962L746.469 467.494C756.481 465.66 766.687 467.161 775.603 471.484C784.789 475.937 792.605 483.388 797.428 493.275C803.147 505.002 803.572 517.937 799.635 529.371C795.698 540.804 787.4 550.736 775.673 556.456C763.945 562.176 751.01 562.6 739.577 558.664C728.143 554.727 718.211 546.428 712.492 534.701Z" fill="#5E69FF" stroke="black" stroke-width="2.5"/>
<path fill-rule="evenodd" clip-rule="evenodd" d="M1852.75 1078.55C1846 1080.34 1826.45 1105.55 1793.89 1153.58C1792.84 1155.12 1792.52 1156.94 1792.84 1158.64C1793.17 1160.33 1794.14 1161.9 1795.68 1162.95C1797.3 1164.05 1799.32 1164.39 1801.21 1163.89L1817.41 1159.58C1832.43 1131.09 1842.76 1109.96 1848.42 1096.18C1851.21 1089.37 1852.86 1084.39 1853.32 1081.23C1853.5 1080 1853.55 1079.09 1852.75 1078.55Z" fill="#5E69FF" stroke="black" stroke-width="2.5"/>
<path fill-rule="evenodd" clip-rule="evenodd" d="M2438.3 1636.59L2444.12 1654.53L2237.16 1738.15C2214.83 1747.17 2189.41 1736.38 2180.38 1714.05C2178.75 1710.01 2177.73 1705.75 2177.36 1701.4C2173.83 1659.82 2155.7 1607.04 2123 1543.07L2239.65 1495.94L2332.26 1608.67C2345.22 1613.89 2359.47 1613.35 2375.03 1607.07C2399.47 1597.2 2427.28 1609 2437.15 1633.44C2437.57 1634.48 2437.95 1635.53 2438.3 1636.59Z" fill="#FFFFD9" stroke="black" stroke-width="2.5" stroke-linecap="round" stroke-linejoin="round"/>
<path d="M2430.21 1660.15C2423.89 1623.61 2406.73 1610.99 2378.75 1622.29" stroke="black" stroke-width="2.5" stroke-linecap="round" stroke-linejoin="round"/>
<path fill-rule="evenodd" clip-rule="evenodd" d="M1396.98 1501.31L1378.6 1497.06L1413.52 1276.59C1417.29 1252.8 1439.63 1236.57 1463.42 1240.34C1467.73 1241.02 1471.9 1242.34 1475.81 1244.26C1513.28 1262.65 1567.85 1274.3 1639.53 1279.21L1619.85 1403.47L1475.52 1424.79C1464.38 1433.22 1457.49 1445.71 1454.87 1462.28C1450.75 1488.31 1426.3 1506.07 1400.27 1501.95C1399.16 1501.77 1398.07 1501.56 1396.98 1501.31Z" fill="#FFFFD9" stroke="black" stroke-width="2.5" stroke-linecap="round" stroke-linejoin="round"/>
<path d="M1380.95 1482.24C1415.53 1495.64 1435.18 1487.44 1439.9 1457.63" stroke="black" stroke-width="2.5" stroke-linecap="round" stroke-linejoin="round"/>
<path fill-rule="evenodd" clip-rule="evenodd" d="M1856.03 1078.11L2019.61 1104.02L2137.98 1321.52C2139.25 1323.84 2140.6 1326.11 2142.04 1328.33L2287.21 1551.48L2131.53 1616.76L2032.87 1323.58L1926.95 1177.93L1840.77 1367.57C1832.99 1384.7 1820.67 1398.87 1805.6 1408.91C1790.53 1418.95 1772.71 1424.84 1753.9 1425.42L1498.22 1433.27L1516.04 1260.25C1516.43 1256.47 1518.31 1253.21 1521.04 1250.99C1523.77 1248.77 1527.35 1247.59 1531.12 1247.98C1531.92 1248.06 1532.7 1248.21 1533.47 1248.43L1740.69 1307.19L1856.03 1078.11Z" fill="#5E69FF" stroke="black" stroke-width="2.5"/>
<path d="M1928 1178.5L1939.73 1174" stroke="black" stroke-width="2.5" stroke-linecap="round" stroke-linejoin="round"/>
<path fill-rule="evenodd" clip-rule="evenodd" d="M1906.32 747.026L1859.2 740.779C1824.47 736.174 1799.63 704.868 1803.05 669.998L1804.89 651.24L1807.78 621.803C1807.89 620.704 1808.87 619.9 1809.97 620.008C1810.78 620.087 1811.46 620.652 1811.69 621.435L1825.28 667.775C1829.55 682.326 1841.33 693.446 1856.11 696.869L1915.57 710.646C1915.86 717.659 1914.98 724.965 1912.93 732.562C1910.87 740.16 1908.67 744.981 1906.32 747.026Z" fill="white" stroke="black" stroke-width="2.5" stroke-linecap="round" stroke-linejoin="round"/>
<path fill-rule="evenodd" clip-rule="evenodd" d="M2079.88 830.08C2079.6 817.797 2074.36 806.789 2066.13 798.923C2058.21 791.356 2047.51 786.696 2035.78 786.602L2048.31 880.82L2066.61 862.8C2075.36 854.189 2080.16 842.349 2079.88 830.08Z" fill="#5E69FF" stroke="black" stroke-width="2.5"/>
<path fill-rule="evenodd" clip-rule="evenodd" d="M1823.68 811.292C1818.86 822.638 1819.1 834.862 1823.38 845.452C1827.51 855.666 1835.4 864.361 1846.13 869.284L1877.51 784.653L1866.91 784.143C1857.57 783.693 1848.59 786.178 1841.03 790.926C1833.47 795.674 1827.33 802.686 1823.68 811.292Z" fill="#5E69FF" stroke="black" stroke-width="2.5"/>
<path fill-rule="evenodd" clip-rule="evenodd" d="M2227.59 617.001L2236.79 594.546C2238.87 589.472 2244.66 587.044 2249.74 589.122C2250.55 589.455 2251.31 589.894 2252.01 590.427C2258.38 595.309 2261.66 603.226 2260.6 611.184L2259.76 617.486C2258.13 629.727 2261.58 642.102 2269.31 651.732L2275.41 659.327C2286.92 673.661 2304.31 682 2322.69 682L2373 682.001L2373 642C2373 633.197 2378.56 628.401 2385.68 626.581L2386 626.5C2393.27 624.744 2402.96 629.032 2404.71 636.301L2424.49 726.931C2426.79 737.434 2426.1 748.369 2422.5 758.5L2415.05 758.379L2400.48 739.428C2387.58 752.915 2363.44 755.328 2354.86 766.465C2338.94 787.139 2331.62 792.486 2332.9 782.505L2268 735.668C2254.76 726.116 2244.07 713.47 2236.84 698.832L2229.95 684.866C2219.47 663.63 2218.61 638.916 2227.59 617.001Z" fill="#FFFFD9" stroke="black" stroke-width="2.5" stroke-linecap="round" stroke-linejoin="round"/>
<path d="M2373.5 681.5L2373.5 696.5" stroke="black" stroke-width="2.5" stroke-linecap="round" stroke-linejoin="round"/>
<path fill-rule="evenodd" clip-rule="evenodd" d="M2032.02 899.761C2018.75 900.814 2007.1 907.033 1998.91 916.314C1990.73 925.596 1986.01 937.938 1986.62 951.235C1987.24 964.6 1993.04 976.549 2002.04 985.169C2011.03 993.789 2023.21 999.08 2036.59 999.129L2321.98 1000.18C2327.7 1000.2 2333.11 998.398 2337.56 995.241C2342.01 992.084 2345.49 987.57 2347.36 982.162L2425.49 756.024C2426.89 751.951 2426.64 747.675 2425.06 743.969C2423.47 740.263 2420.56 737.126 2416.64 735.33L2380.71 718.85C2376.23 716.49 2371.97 714.242 2367.92 712.106C2355.57 705.599 2338.33 696.728 2316.2 685.494C2314.79 684.775 2313.19 684.509 2311.61 684.73C2309.49 685.029 2307.7 686.159 2306.5 687.743C2305.31 689.328 2304.72 691.367 2305.02 693.486L2312.93 749.623L2282.1 716.883C2281.07 715.791 2279.77 715.044 2278.38 714.687C2276.98 714.33 2275.48 714.363 2274.06 714.828C2272.02 715.491 2270.45 716.916 2269.55 718.684C2268.65 720.452 2268.43 722.563 2269.09 724.598L2281.35 762.201L2257.49 881.881L2032.02 899.761Z" fill="#5E69FF" stroke="black" stroke-width="2.5"/>
<path fill-rule="evenodd" clip-rule="evenodd" d="M2019.62 887.178C2079.39 862.507 2102.09 876.156 2111.57 883.016C2113.47 884.39 2114.78 885.903 2115.57 887.519C2116.41 889.227 2116.66 891.043 2116.46 892.897C2115.96 897.501 2112.79 902.303 2108.69 906.469C2103.67 911.57 2096.54 913.233 2087.37 911.649L2086.71 914.047L2087.29 914.271L2087.86 914.494C2094.31 917.059 2099.12 922.001 2101.67 927.916C2104.22 933.83 2104.51 940.718 2101.95 947.177C2098.74 955.237 2091.62 961.061 2082.68 962.712C2081.62 962.907 2080.56 963.039 2079.51 963.108C2080.41 963.661 2081.28 964.268 2082.14 964.928C2088.49 969.869 2092.25 976.919 2093.18 984.324C2094.11 991.729 2092.22 999.489 2087.28 1005.85C2082.45 1012.06 2075.32 1016.06 2067.51 1016.94L2050.25 1018.88L2050.25 1024.16C2023.3 1022.28 2003.62 1018.77 1989.81 1011.8C1976.79 1005.22 1969.1 995.525 1965.51 981.15C1961.26 964.129 1959.95 944.008 1970.71 925.292C1978.85 911.125 1993.88 897.8 2019.62 887.178Z" fill="#5E69FF" stroke="black" stroke-width="2.5"/>
<path fill-rule="evenodd" clip-rule="evenodd" d="M1857.97 789.496L1853.64 805.199L1834.63 775.776C1834.74 775.601 1834.91 775.486 1835.1 775.443C1835.28 775.4 1835.49 775.428 1835.66 775.538L1857.97 789.496ZM1858.04 789.259L1844.47 762.321C1844.39 762.161 1844.37 761.983 1844.41 761.819C1844.45 761.654 1844.54 761.501 1844.68 761.391C1844.85 761.264 1845.04 761.215 1845.24 761.239C1845.43 761.263 1845.61 761.36 1845.73 761.523L1860.46 780.478L1858.04 789.259Z" fill="#5E69FF" stroke="black" stroke-width="2.5"/>
<path fill-rule="evenodd" clip-rule="evenodd" d="M1928.44 1092.31C1916.51 1103.07 1903.86 1108.21 1890.46 1107.74C1879.81 1107.37 1869.6 1101.06 1859.83 1088.79L1836.08 1096.41C1826.85 1099.37 1816.97 1094.29 1814.01 1085.07C1813.14 1082.36 1812.94 1079.48 1813.43 1076.68C1814.2 1072.33 1815.08 1067.47 1816.06 1062.12C1820.86 1035.94 1828.69 979.503 1839.54 892.81C1839.62 892.191 1839.73 891.582 1839.87 890.987L1835.56 890.836C1837.41 880.388 1838.78 872.783 1839.66 868.022C1842.62 852.113 1845.36 838.504 1847.9 827.193C1849.67 819.31 1851.34 812.545 1852.91 806.895C1855.67 796.964 1860.13 784.686 1863.79 774.461L1928.09 588.686C1928.42 587.729 1929.27 587.047 1930.28 586.933C1931.72 586.769 1933.03 587.805 1933.19 589.249L1937.16 624.067C1937.18 624.257 1937.23 624.442 1937.31 624.616C1937.73 625.525 1938.8 625.925 1939.71 625.509C1941.11 624.869 1942.04 623.514 1942.14 621.979L1947.21 543.041C1947.28 541.96 1948.01 541.033 1949.04 540.704C1950.42 540.262 1951.9 541.027 1952.35 542.411L2002.79 700.514C2017.32 735.982 2027.44 763.441 2033.16 782.89L2053.43 763.728C2054.24 762.969 2055.5 763.005 2056.26 763.808C2056.91 764.497 2056.99 765.548 2056.45 766.325L2039.74 790.296L2064.38 779.347C2065.39 778.899 2066.58 779.353 2067.02 780.363C2067.34 781.065 2067.22 781.884 2066.72 782.47L2040.26 813.609C2044.02 834.223 2047.54 861.146 2050.82 894.379C2050.83 894.534 2050.84 894.689 2050.83 894.845C2050.8 895.691 2050.48 896.457 2049.96 897.045L2052.62 961.96C2052.8 966.253 2051.22 970.434 2048.26 973.545L2056.34 1019.36C2057.13 1023.82 2055.88 1028.39 2052.93 1031.83L2054.16 1068.74C2054.83 1088.66 2039.21 1105.35 2019.28 1106.01C2018.45 1106.04 2017.63 1106.04 2016.81 1106.01" fill="#5E69FF"/>
<path d="M1928.44 1092.31C1916.51 1103.07 1903.86 1108.21 1890.46 1107.74C1879.81 1107.37 1869.6 1101.06 1859.83 1088.79L1836.08 1096.41C1826.85 1099.37 1816.97 1094.29 1814.01 1085.07C1813.14 1082.36 1812.94 1079.48 1813.43 1076.68C1814.2 1072.33 1815.08 1067.47 1816.06 1062.12C1820.86 1035.94 1828.69 979.503 1839.54 892.81C1839.62 892.191 1839.73 891.582 1839.87 890.987L1835.56 890.836C1837.41 880.388 1838.78 872.783 1839.66 868.022C1842.62 852.113 1845.36 838.504 1847.9 827.193C1849.67 819.31 1851.34 812.545 1852.91 806.895C1855.67 796.964 1860.13 784.686 1863.79 774.461L1928.09 588.686C1928.42 587.729 1929.27 587.047 1930.28 586.933C1931.72 586.769 1933.03 587.805 1933.19 589.249L1937.16 624.067C1937.18 624.257 1937.23 624.442 1937.31 624.616C1937.73 625.525 1938.8 625.925 1939.71 625.509C1941.11 624.869 1942.04 623.514 1942.14 621.979L1947.21 543.041C1947.28 541.96 1948.01 541.033 1949.04 540.704C1950.42 540.262 1951.9 541.027 1952.35 542.411L2002.79 700.514C2017.32 735.982 2027.44 763.441 2033.16 782.89L2053.43 763.728C2054.24 762.969 2055.5 763.005 2056.26 763.808C2056.91 764.497 2056.99 765.548 2056.45 766.325L2039.74 790.296L2064.38 779.347C2065.39 778.899 2066.58 779.353 2067.02 780.363C2067.34 781.065 2067.22 781.884 2066.72 782.47L2040.26 813.609C2044.02 834.223 2047.54 861.146 2050.82 894.379C2050.83 894.534 2050.84 894.689 2050.83 894.845C2050.8 895.691 2050.48 896.457 2049.96 897.045L2052.62 961.96C2052.8 966.253 2051.22 970.434 2048.26 973.545L2056.34 1019.36C2057.13 1023.82 2055.88 1028.39 2052.93 1031.83L2054.16 1068.74C2054.83 1088.66 2039.21 1105.35 2019.28 1106.01C2018.45 1106.04 2017.63 1106.04 2016.81 1106.01" stroke="black" stroke-width="2.5" stroke-linecap="round" stroke-linejoin="round"/>
<path d="M1576.09 1091.04L1638.48 1293.16L1634.33 1288.74C1626.92 1280.84 1614.5 1280.45 1606.6 1287.86C1606.34 1288.11 1606.08 1288.36 1605.83 1288.63C1598.21 1296.62 1598.51 1309.27 1606.5 1316.89C1606.68 1317.06 1606.86 1317.22 1607.04 1317.38L1643.17 1349.41C1654.74 1359.67 1672.44 1358.61 1682.7 1347.04C1683.64 1345.97 1684.5 1344.84 1685.28 1343.64L1755.69 1234.47C1763.8 1221.9 1764.22 1205.86 1756.78 1192.89L1660.67 1025.29C1633.85 1008.31 1598.35 1016.28 1581.37 1043.09C1572.33 1057.37 1571.03 1074.91 1576.09 1091.04Z" fill="#FFFFD9" stroke="black" stroke-width="2.5" stroke-linecap="round" stroke-linejoin="round"/>
<mask id="mask1" mask-type="alpha" maskUnits="userSpaceOnUse" x="1546" y="902" width="271" height="408">
<path d="M1547.85 1002.21C1542.1 967.89 1565.25 935.408 1599.57 929.653L1759.42 902.847C1784.61 898.624 1808.78 914.55 1814.84 939.356C1820.83 963.843 1806.21 988.639 1781.89 995.269L1671 1025.5L1754 1185C1753.52 1185.35 1753.04 1185.71 1752.57 1186.06L1701.46 1271.39C1700.67 1272.72 1699.4 1273.68 1697.91 1274.09C1694.71 1274.97 1691.41 1273.1 1690.53 1269.9L1683.9 1245.84L1652.33 1306.41C1651.58 1307.86 1650.26 1308.94 1648.69 1309.39C1645.51 1310.32 1642.18 1308.49 1641.25 1305.31L1637.72 1293.18L1637.5 1293.5L1549.81 1010.43C1548.97 1007.73 1548.32 1004.99 1547.85 1002.21Z" fill="white"/>
</mask>
<g mask="url(#mask1)">
<path fill-rule="evenodd" clip-rule="evenodd" d="M1598.76 931.065C1582.21 934.116 1568.39 943.539 1559.41 956.364C1550.44 969.168 1546.3 985.364 1549.09 1002C1549.54 1004.72 1550.18 1007.42 1551 1010.06L1638.91 1292.82L1642.51 1305.15C1642.92 1306.35 1643.76 1307.29 1644.81 1307.84C1645.86 1308.39 1647.11 1308.55 1648.34 1308.19C1649.59 1307.83 1650.63 1306.98 1651.23 1305.83L1684.26 1242.44L1691.79 1269.76C1692.18 1270.97 1693.01 1271.92 1694.05 1272.48C1695.09 1273.05 1696.34 1273.23 1697.57 1272.89C1698.75 1272.56 1699.76 1271.8 1700.39 1270.75L1751.62 1185.2C1751.88 1185.01 1752.14 1184.82 1752.4 1184.63L1669.18 1024.7L1781.56 994.063L1782.28 993.861C1793.9 990.494 1803.19 982.829 1808.84 973.055C1814.48 963.297 1816.51 951.438 1813.63 939.653C1810.68 927.567 1803.31 917.645 1793.62 911.259C1783.92 904.873 1771.9 902.022 1759.63 904.08L1599.77 930.886L1598.76 931.065Z" fill="#5E69FF" stroke="black" stroke-width="2.5"/>
<path d="M1670.64 1025.67L1659.14 999.166" stroke="black" stroke-width="2.5" stroke-linecap="round" stroke-linejoin="round"/>
</g>
<path fill-rule="evenodd" clip-rule="evenodd" d="M1946.02 787.413C1974.5 788.408 1996.78 812.301 1995.79 840.781C1995.62 845.684 1994.75 850.537 1993.21 855.194L1975.07 909.992C1968.87 928.723 1948.66 938.881 1929.93 932.681C1918.19 928.795 1909.29 919.111 1906.41 907.082L1893.23 851.984C1886.49 823.836 1903.85 795.557 1932 788.82C1936.59 787.722 1941.31 787.248 1946.02 787.413Z" fill="#FFFFD9" stroke="black" stroke-width="2.5" stroke-linecap="round" stroke-linejoin="round"/>
<path fill-rule="evenodd" clip-rule="evenodd" d="M1976.53 847.673L1975.37 847.734C1973.72 847.824 1972.45 849.234 1972.53 850.888L1972.65 853.235C1972.74 854.889 1974.15 856.161 1975.8 856.075C1975.8 856.075 1975.8 856.075 1975.8 856.072L1976.96 856.011C1978.61 855.922 1979.89 854.511 1979.8 852.857L1979.68 850.511C1979.6 848.856 1978.18 847.584 1976.53 847.671C1976.53 847.671 1976.53 847.671 1976.53 847.673Z" fill="white" stroke="black" stroke-width="2.5" stroke-linecap="round" stroke-linejoin="round"/>
<path fill-rule="evenodd" clip-rule="evenodd" d="M1908.07 845.31L1906.91 845.371C1905.26 845.46 1903.99 846.871 1904.07 848.525L1904.2 850.871C1904.28 852.526 1905.69 853.798 1907.35 853.712C1907.35 853.712 1907.35 853.712 1907.35 853.709L1908.51 853.648C1910.16 853.559 1911.43 852.148 1911.35 850.494L1911.22 848.148C1911.14 846.493 1909.73 845.221 1908.07 845.308C1908.07 845.308 1908.07 845.308 1908.07 845.31Z" fill="white" stroke="black" stroke-width="2.5" stroke-linecap="round" stroke-linejoin="round"/>
<path d="M1924.37 871.029L1929.09 871.415L1934.25 861.587C1936.71 867.999 1938.06 871.204 1938.29 871.201C1939.99 871.178 1942.87 871.266 1946.93 871.465L1950.53 861.866L1954.91 871.858L1960.84 872.288" stroke="black" stroke-width="2" stroke-linecap="round" stroke-linejoin="round"/>
<path fill-rule="evenodd" clip-rule="evenodd" d="M1670.5 1024.5C1670.76 1024.8 1723.84 1017.66 1777 1006.5C1830.16 995.342 1856.47 979.616 1859.75 948.493C1863.03 917.37 1855.7 877.979 1792.15 861.629C1728.59 845.278 1707.87 862.399 1699.32 870.611C1690.78 878.823 1696.59 888.464 1705.55 895.326C1711.52 899.901 1719.18 900.688 1728.53 897.687C1705.45 910.398 1700.89 924.869 1714.86 941.1C1718.33 945.132 1726.66 947.317 1739.85 947.655C1725.43 958.177 1720.12 968.913 1723.91 979.863" fill="#5E69FF"/>
<path d="M1670.5 1024.5C1670.76 1024.8 1723.84 1017.66 1777 1006.5C1830.16 995.342 1856.47 979.616 1859.75 948.493C1863.03 917.37 1855.7 877.979 1792.15 861.629C1728.59 845.278 1707.87 862.399 1699.32 870.611C1690.78 878.823 1696.59 888.464 1705.55 895.326C1711.52 899.901 1719.18 900.688 1728.53 897.687C1705.45 910.398 1700.89 924.869 1714.86 941.1C1718.33 945.132 1726.66 947.317 1739.85 947.655C1725.43 958.177 1720.12 968.913 1723.91 979.863" stroke="black" stroke-width="2.5" stroke-linecap="round" stroke-linejoin="round"/>
<path d="M1957.49 702.987L1952.3 649.309C1952.08 647.11 1953.69 645.155 1955.89 644.942C1957.29 644.807 1958.66 645.414 1959.49 646.542L2006.5 710" stroke="black" stroke-width="2.5" stroke-linecap="round" stroke-linejoin="round"/>
<path d="M1914.16 631.453C1915.27 629.941 1916.35 632.769 1917.38 639.935C1918.41 647.102 1919.81 657.38 1921.57 670.77" stroke="black" stroke-width="2.5" stroke-linecap="round" stroke-linejoin="round"/>
<path fill-rule="evenodd" clip-rule="evenodd" d="M1938.89 857.346L1942.47 857.659C1945.77 857.948 1948.68 855.506 1948.97 852.205C1948.99 851.973 1949 851.74 1948.99 851.508L1947.93 814.964C1947.88 813.242 1946.44 811.886 1944.72 811.936C1943.18 811.981 1941.91 813.137 1941.71 814.661C1940.17 826.744 1938.9 835.15 1937.89 839.877C1937.04 843.878 1935.96 847.187 1934.66 849.805C1933.37 852.392 1934.43 855.532 1937.01 856.819C1937.6 857.11 1938.24 857.289 1938.89 857.346Z" fill="black"/>
<path fill-rule="evenodd" clip-rule="evenodd" d="M2022.86 748.164L2069.7 739.396C2100.69 733.596 2121.52 704.301 2116.83 673.127L2108.1 615.205C2107.93 614.113 2106.91 613.361 2105.82 613.525C2105.01 613.647 2104.36 614.249 2104.17 615.046L2092.56 664.507C2089.09 679.28 2077.92 691.032 2063.34 695.25L2002.73 712.785C2002.81 720.031 2004.11 727.514 2006.62 735.236C2007.2 737.027 2007.79 738.664 2008.37 740.146C2010.65 745.947 2016.73 749.311 2022.86 748.164Z" fill="white" stroke="black" stroke-width="2.5" stroke-linecap="round" stroke-linejoin="round"/>
<path d="M1851 973.5C1932.61 996.358 1998.34 996.316 2048.17 973.374" stroke="black" stroke-width="2.5" stroke-linecap="round" stroke-linejoin="round"/>
<path fill-rule="evenodd" clip-rule="evenodd" d="M1909.45 977.285C1915.11 978.076 1919.06 983.308 1918.27 988.971C1918.17 989.663 1918.01 990.344 1917.77 991.002C1915.33 997.884 1912.72 1002.91 1909.94 1006.07C1905.74 1010.86 1897.05 1016.06 1883.88 1021.67C1890.61 1010.96 1894.9 1002.61 1896.76 996.605C1897.72 993.544 1898.24 990.225 1898.35 986.647C1898.52 981.265 1903.01 977.034 1908.39 977.196C1908.75 977.207 1909.1 977.237 1909.45 977.285Z" fill="white" stroke="black" stroke-width="2.5" stroke-linecap="round" stroke-linejoin="round"/>
<path fill-rule="evenodd" clip-rule="evenodd" d="M1973.41 979.519C1967.7 979.913 1963.4 984.856 1963.79 990.561C1963.84 991.258 1963.96 991.949 1964.15 992.622C1966.1 999.657 1968.35 1004.85 1970.91 1008.2C1974.76 1013.27 1983.07 1019.06 1995.81 1025.58C1989.85 1014.43 1986.15 1005.79 1984.71 999.676C1983.98 996.556 1983.68 993.208 1983.82 989.632C1984.03 984.251 1979.85 979.717 1974.46 979.504C1974.11 979.49 1973.76 979.495 1973.41 979.519Z" fill="white" stroke="black" stroke-width="2.5" stroke-linecap="round" stroke-linejoin="round"/>
<path fill-rule="evenodd" clip-rule="evenodd" d="M1940.63 979.625C1934.39 979.407 1929.15 984.292 1928.93 990.535C1928.9 991.525 1929 992.516 1929.22 993.481L1938.5 1033.58L1950.93 994.205C1952.8 988.301 1949.52 982.003 1943.62 980.139C1942.65 979.833 1941.65 979.661 1940.63 979.625Z" fill="white" stroke="black" stroke-width="2.5" stroke-linecap="round" stroke-linejoin="round"/>
<path fill-rule="evenodd" clip-rule="evenodd" d="M1804.5 656L1813.5 666L1820 651L1810.42 621.813C1810.24 621.289 1809.68 621.003 1809.15 621.175C1808.78 621.297 1808.52 621.622 1808.47 622.009L1804.5 656Z" fill="black"/>
<path fill-rule="evenodd" clip-rule="evenodd" d="M2096.83 648.257L2103 659L2112.5 647.5L2106.82 615.292C2106.72 614.748 2106.2 614.385 2105.66 614.481C2105.27 614.55 2104.95 614.843 2104.86 615.229L2096.83 648.257Z" fill="black"/>
<path fill-rule="evenodd" clip-rule="evenodd" d="M2329.25 487.104C2328.84 487.309 2328.53 487.663 2328.39 488.092L2311.22 537.557L2248.29 528.374C2247.81 528.304 2247.35 528.435 2246.99 528.703C2246.63 528.97 2246.37 529.375 2246.31 529.853C2246.22 530.411 2246.42 530.973 2246.82 531.365L2286 569.195L2246.7 594.571C2246.3 594.833 2246.04 595.235 2245.94 595.673C2245.85 596.111 2245.92 596.585 2246.18 596.991C2246.46 597.418 2246.91 597.704 2247.41 597.774L2295.76 604.533L2274.51 653.569C2274.32 654.013 2274.32 654.492 2274.49 654.908C2274.65 655.325 2274.98 655.679 2275.42 655.871C2275.96 656.106 2276.59 656.051 2277.08 655.724L2329.73 620.843L2368.45 663.42C2368.78 663.778 2369.22 663.97 2369.66 663.991C2370.11 664.012 2370.57 663.863 2370.92 663.537C2371.29 663.206 2371.5 662.736 2371.5 662.243V604.121L2410.95 609.22C2411.43 609.281 2411.89 609.143 2412.25 608.87C2412.6 608.596 2412.85 608.187 2412.91 607.708C2412.98 607.182 2412.81 606.653 2412.44 606.271L2378.23 570.699L2406.72 531.165C2407.01 530.773 2407.1 530.303 2407.03 529.861C2406.96 529.419 2406.72 529.004 2406.33 528.722C2405.94 528.441 2405.45 528.333 2404.98 528.422L2356.74 537.574L2331.6 487.876C2331.38 487.444 2331.01 487.142 2330.58 487.003C2330.16 486.863 2329.68 486.886 2329.25 487.104Z" fill="#FF7C25" stroke="black" stroke-width="2.5"/>
<path fill-rule="evenodd" clip-rule="evenodd" d="M2324 566C2326.14 566 2327.89 567.684 2327.99 569.8L2328 570L2328 577C2328 579.209 2326.21 581 2324 581C2321.86 581 2320.11 579.316 2320 577.2L2320 577L2320 570C2320 567.791 2321.79 566 2324 566ZM2351 566C2353.14 566 2354.89 567.684 2354.99 569.8L2355 570L2355 577C2355 579.209 2353.21 581 2351 581C2348.79 581 2347 579.209 2347 577V577L2347 570C2347 567.791 2348.79 566 2351 566Z" fill="#FFFFD9" stroke="black" stroke-width="2.5" stroke-linecap="round" stroke-linejoin="round"/>
<path d="M2312.82 549.318L2324.36 549.76C2333.43 550.107 2341.24 556.232 2343.74 564.948L2345.67 571.654L2351.15 608.328L2331.85 589.027" stroke="black" stroke-width="2.5" stroke-linecap="round" stroke-linejoin="round"/>
</g>
<defs>
<clipPath id="clip0">
<rect width="2811" height="1999" fill="white"/>
</clipPath>
</defs>
</svg>
