<svg width="2811" height="1999" viewBox="0 0 2811 1999" fill="none" xmlns="http://www.w3.org/2000/svg">
<rect width="2811" height="1999" fill="white"/>
<path fill-rule="evenodd" clip-rule="evenodd" d="M542 1640V1584.37C542 1534.98 578.059 1492.99 626.882 1485.52L669.5 1479L863.873 1072.89C876.51 1046.49 908.158 1035.33 934.561 1047.97C941.215 1051.15 947.132 1055.69 951.931 1061.29L1101.12 1235.47C1108.98 1244.63 1121.44 1248.41 1133.06 1245.14L1239.9 1215.11C1266.23 1207.71 1294.48 1216.1 1312.51 1236.67L1584.48 1547.02C1595.77 1559.9 1615.35 1561.19 1628.23 1549.9C1629.64 1548.67 1630.93 1547.31 1632.1 1545.84L1816.31 1313.24C1838.25 1285.53 1878.51 1280.86 1906.21 1302.81C1909.93 1305.75 1913.3 1309.09 1916.28 1312.78L2036.13 1461.23L2170.5 1489.5V1640H542Z" fill="#EBF2F9"/>
<path d="M2209 328H2130C2005.18 328 1904 429.184 1904 554V732C1904 856.816 2005.18 958 2130 958H2209C2333.82 958 2435 856.816 2435 732V554C2435 429.184 2333.82 328 2209 328Z" fill="#E4EDF6"/>
<path fill-rule="evenodd" clip-rule="evenodd" d="M648 838C733.272 838 803.143 905.694 805.842 990.923L807.968 1058.08C810.661 1143.11 743.909 1214.23 658.875 1216.92C657.251 1216.97 655.625 1217 654 1217C566.187 1217 495 1145.81 495 1058V991C495 906.5 563.5 838 648 838Z" fill="#EBF2F9"/>
<path fill-rule="evenodd" clip-rule="evenodd" d="M648 476C733.272 476 803.143 543.694 805.842 628.923L807.968 696.08C810.661 781.114 743.909 852.23 658.875 854.923C657.251 854.974 655.625 855 654 855C566.187 855 495 783.813 495 696V629C495 544.5 563.5 476 648 476Z" fill="#EBF2F9"/>
<path fill-rule="evenodd" clip-rule="evenodd" d="M2183.81 625C2187.12 625 2189.81 627.686 2189.81 631L2189.81 857.273C2190.32 858.866 2191.22 860.334 2192.47 861.527C2196.56 865.438 2203.04 865.297 2206.95 861.213L2217.27 850.429L2281.45 772.649C2281.6 772.465 2281.76 772.292 2281.94 772.131C2283.98 770.274 2287.14 770.424 2289 772.468L2307.2 792.483C2308.92 794.382 2308.93 797.282 2307.21 799.19L2189.81 929.679L2189.81 1640H2150.9L2150.9 1111.26L2096.84 1058.94C2094.9 1057.06 2094.8 1053.98 2096.62 1051.98L2115.72 1030.97C2117.32 1029.2 2119.95 1028.82 2121.99 1030.05L2123.11 1030.72L2130.07 1040.71C2133.7 1045.92 2140.87 1047.2 2146.08 1043.57C2148.76 1041.71 2150.47 1038.83 2150.9 1035.69L2150.9 808.415L2096.84 756.096C2094.9 754.217 2094.8 751.138 2096.62 749.139L2115.72 728.129C2117.32 726.364 2119.95 725.978 2121.99 727.208L2123.11 727.879L2130.07 737.87C2133.7 743.082 2140.87 744.364 2146.08 740.733C2148.76 738.869 2150.47 735.99 2150.9 732.85L2150.9 631C2150.9 627.686 2153.59 625 2156.9 625H2183.81Z" fill="#DFE9F3"/>
<path fill-rule="evenodd" clip-rule="evenodd" d="M667.493 939C670.806 939 673.493 941.686 673.493 945L673.492 1088.12L673.655 1087.85L673.616 1088.17C673.163 1092.34 675.019 1096.44 678.476 1098.84C683.688 1102.47 690.856 1101.19 694.487 1095.98L701.447 1085.99L702.562 1085.32C704.607 1084.09 707.234 1084.47 708.839 1086.24L727.939 1107.25C729.756 1109.25 729.657 1112.33 727.716 1114.21L673.492 1166.68L673.493 1640H634.584L634.584 1063.41L580.523 1011.1C578.582 1009.22 578.484 1006.14 580.3 1004.14L599.401 983.129C601.005 981.364 603.633 980.978 605.677 982.208L606.792 982.878L613.752 992.87C617.383 998.082 624.551 999.364 629.763 995.733C632.44 993.869 634.157 990.99 634.586 987.849L634.584 945C634.584 941.686 637.271 939 640.584 939H667.493Z" fill="#DFE9F3"/>
<path fill-rule="evenodd" clip-rule="evenodd" d="M1287.5 1640L1420.73 1108.49C1427 1083.47 1442.7 1061.84 1464.54 1048.12L1641.5 937L1541 763L1304.5 819L1083.24 869.505C1054.16 876.142 1025.21 857.952 1018.58 828.876C1018.42 828.193 1018.28 827.506 1018.15 826.816L972.5 583.5H1038.5L1074.5 819L1531.57 710.474C1561.45 703.38 1592.41 716.882 1607.55 743.598L1692.61 893.766C1712.95 929.671 1701.37 975.226 1666.35 997.058L1482 1112L1356.5 1640H1287.5Z" fill="#DFE9F3"/>
<path d="M991.846 434.651L952.454 441.597C923.084 446.776 903.473 474.784 908.651 504.154L915.597 543.546C920.776 572.916 948.784 592.527 978.154 587.349L1017.55 580.403C1046.92 575.224 1066.53 547.216 1061.35 517.846L1054.4 478.454C1049.22 449.084 1021.22 429.472 991.846 434.651Z" fill="#EBF2F9"/>
<path d="M901.816 561.532L873.532 589.816C852.444 610.905 852.444 645.095 873.532 666.184L901.816 694.468C922.904 715.556 957.095 715.556 978.184 694.468L1006.47 666.184C1027.56 645.095 1027.56 610.905 1006.47 589.816L978.184 561.532C957.095 540.444 922.904 540.444 901.816 561.532Z" fill="#EBF2F9"/>
<path d="M1465.05 833.6L1446.27 868.918C1432.27 895.25 1442.27 927.947 1468.6 941.949L1503.92 960.727C1530.25 974.729 1562.95 964.732 1576.95 938.4L1595.73 903.082C1609.73 876.749 1599.73 844.052 1573.4 830.051L1538.08 811.272C1511.75 797.271 1479.05 807.268 1465.05 833.6Z" fill="#EBF2F9"/>
<path d="M1300.05 618.6L1281.27 653.918C1267.27 680.251 1277.27 712.947 1303.6 726.949L1338.92 745.728C1365.25 759.729 1397.95 749.732 1411.95 723.4L1430.73 688.082C1444.73 661.749 1434.73 629.053 1408.4 615.051L1373.08 596.272C1346.75 582.271 1314.05 592.268 1300.05 618.6Z" fill="#EBF2F9"/>
<path d="M1673.05 746.6L1654.27 781.918C1640.27 808.251 1650.27 840.947 1676.6 854.949L1711.92 873.728C1738.25 887.729 1770.95 877.732 1784.95 851.4L1803.73 816.082C1817.73 789.749 1807.73 757.053 1781.4 743.051L1746.08 724.272C1719.75 710.271 1687.05 720.268 1673.05 746.6Z" fill="#EBF2F9"/>
<path d="M1450.05 1297.6L1431.27 1332.92C1417.27 1359.25 1427.27 1391.95 1453.6 1405.95L1488.92 1424.73C1515.25 1438.73 1547.95 1428.73 1561.95 1402.4L1580.73 1367.08C1594.73 1340.75 1584.73 1308.05 1558.4 1294.05L1523.08 1275.27C1496.75 1261.27 1464.05 1271.27 1450.05 1297.6Z" fill="#EBF2F9"/>
<path d="M1450.05 1286.6L1431.27 1321.92C1417.27 1348.25 1427.27 1380.95 1453.6 1394.95L1488.92 1413.73C1515.25 1427.73 1547.95 1417.73 1561.95 1391.4L1580.73 1356.08C1594.73 1329.75 1584.73 1297.05 1558.4 1283.05L1523.08 1264.27C1496.75 1250.27 1464.05 1260.27 1450.05 1286.6Z" fill="#EBF2F9"/>
<path d="M1095 523H1055C1025.18 523 1001 547.177 1001 577V617C1001 646.823 1025.18 671 1055 671H1095C1124.82 671 1149 646.823 1149 617V577C1149 547.177 1124.82 523 1095 523Z" fill="#EBF2F9"/>
<path fill-rule="evenodd" clip-rule="evenodd" d="M2218.99 1076.25C2230.98 1065.39 2247.77 1061.59 2263.27 1066.24C2275.49 1069.91 2285.06 1078.18 2290.66 1088.58C2296.27 1098.99 2297.9 1111.53 2294.23 1123.75L2254.46 1256.32C2249.58 1272.58 2250.14 1290 2256.04 1305.92L2380.17 1640.61C2383.31 1649.08 2384.92 1658.05 2384.92 1667.09C2384.92 1688.13 2376.4 1707.17 2362.61 1720.95C2348.83 1734.74 2329.79 1743.26 2308.75 1743.26H1873.38C1864.77 1743.26 1856.22 1741.8 1848.09 1738.94C1828.25 1731.96 1813.12 1717.6 1804.69 1700.02C1796.27 1682.44 1794.55 1661.65 1801.53 1641.81C1839.54 1533.81 1887.09 1441.12 1944.19 1363.73C2001.36 1286.26 2092.96 1190.43 2218.99 1076.25Z" fill="#66EC36" stroke="black" stroke-width="2.5"/>
<path fill-rule="evenodd" clip-rule="evenodd" d="M2232.19 1336.18C2228.35 1336.18 2225.25 1339.29 2225.25 1343.12V1346.98C2225.25 1350.82 2228.35 1353.92 2232.19 1353.92C2236.02 1353.92 2239.13 1350.82 2239.13 1346.98V1343.12C2239.13 1339.29 2236.02 1336.18 2232.19 1336.18ZM2101.06 1336.18C2097.22 1336.18 2094.11 1339.29 2094.11 1343.12V1346.98C2094.11 1350.82 2097.22 1353.92 2101.06 1353.92C2104.89 1353.92 2108 1350.82 2108 1346.98V1343.12C2108 1339.29 2104.89 1336.18 2101.06 1336.18Z" fill="#FFFFD9" stroke="black" stroke-width="2.5" stroke-linecap="round" stroke-linejoin="round"/>
<path d="M2172.79 1355.47L2172.77 1355.52C2170.64 1361.05 2164.43 1363.8 2158.91 1361.67C2156.06 1360.57 2153.82 1358.32 2152.74 1355.47" stroke="black" stroke-width="2.5" stroke-linecap="round" stroke-linejoin="round"/>
<path d="M2248.39 1343.9L2248.25 1343.71C2241.51 1334.84 2228.87 1333.11 2220 1339.84C2218.48 1341 2217.13 1342.36 2215.99 1343.9" stroke="black" stroke-width="2.5" stroke-linecap="round" stroke-linejoin="round"/>
<path d="M2117.26 1343.9L2117.11 1343.7C2110.05 1334.63 2096.97 1332.99 2087.9 1340.04C2086.46 1341.15 2085.18 1342.45 2084.09 1343.9" stroke="black" stroke-width="2.5" stroke-linecap="round" stroke-linejoin="round"/>
<path fill-rule="evenodd" clip-rule="evenodd" d="M1869.9 643.651C1902.25 643.651 1932.29 653.844 1957.09 671.26C1982.63 689.191 2002.62 714.779 2013.92 744.786C2014.01 745.035 2014.1 745.284 2014.19 745.534C2014.46 745.494 2014.72 745.452 2014.99 745.412C2020.05 744.636 2025.23 744.233 2030.51 744.233C2058.52 744.233 2083.88 755.581 2102.24 773.927C2120.6 792.274 2131.96 817.619 2131.96 845.614C2131.96 873.61 2120.6 898.955 2102.24 917.301C2083.88 935.648 2058.52 946.995 2030.51 946.995C2028.38 946.995 2026.26 946.93 2024.17 946.801L2024.17 1745.23H1715.62L1715.26 945.564C1686.86 945.833 1661.12 934.436 1642.54 915.875C1624.19 897.528 1612.83 872.183 1612.83 844.188C1612.83 816.192 1624.19 790.847 1642.54 772.501C1660.9 754.154 1686.27 742.806 1714.28 742.806C1718.11 742.806 1721.89 743.018 1725.6 743.433C1725.85 743.461 1726.1 743.489 1726.35 743.519C1726.45 743.285 1726.54 743.049 1726.63 742.814C1738.18 713.325 1758.17 688.229 1783.56 670.662C1808.2 653.61 1837.91 643.651 1869.9 643.651Z" fill="#57EFFF" stroke="black" stroke-width="2.5"/>
<path fill-rule="evenodd" clip-rule="evenodd" d="M1867.67 808.75C1865.06 808.75 1862.95 810.865 1862.95 813.473V822.131C1862.95 824.74 1865.06 826.854 1867.67 826.854C1870.28 826.854 1872.39 824.74 1872.39 822.131V813.473C1872.39 810.865 1870.28 808.75 1867.67 808.75ZM1772.43 808.75C1769.82 808.75 1767.7 810.865 1767.7 813.473V822.131C1767.7 824.74 1769.82 826.854 1772.43 826.854C1775.03 826.854 1777.15 824.74 1777.15 822.131V813.473C1777.15 810.865 1775.03 808.75 1772.43 808.75Z" fill="#FFFFD9" stroke="black" stroke-width="2.5" stroke-linecap="round" stroke-linejoin="round"/>
<path d="M1817.29 833.938L1817.32 833.994C1819.3 837.673 1823.88 839.055 1827.56 837.081C1828.89 836.367 1829.97 835.273 1830.67 833.938" stroke="black" stroke-width="2.5" stroke-linecap="round" stroke-linejoin="round"/>
<path d="M1760.62 805.208L1782.66 805.405" stroke="black" stroke-width="2.5" stroke-linecap="round" stroke-linejoin="round"/>
<path d="M1855.86 805.602L1877.9 805.995" stroke="black" stroke-width="2.5" stroke-linecap="round" stroke-linejoin="round"/>
<g clip-path="url(#clip0)">
<path fill-rule="evenodd" clip-rule="evenodd" d="M998.354 1568.51C995.438 1572.25 990.211 1573.26 986.103 1570.89L892.441 1516.82L911.471 1461.52C912.406 1458.81 911.285 1455.81 908.798 1454.38C906.4 1452.99 903.337 1453.73 901.834 1456.06L870.702 1504.27L847.645 1490.95L896.232 1340.46L997.752 1347.99L963.942 1510.12L998.429 1555.4C1001.38 1559.28 1001.35 1564.66 998.354 1568.51Z" fill="black"/>
<path fill-rule="evenodd" clip-rule="evenodd" d="M869.723 1043.74C871.065 1044.55 872.376 1045.42 873.652 1046.34L1040.71 1166.47C1061.21 1181.22 1074.5 1202.52 1079.54 1225.62C1084.57 1248.72 1081.35 1273.61 1068.84 1295.56L973.713 1462.38L855.66 1412.57L975.791 1234.58L852.052 1164.08L811.432 1147.13C796.825 1141.03 786.073 1129.59 780.497 1116.02C774.92 1102.45 774.52 1086.76 780.618 1072.15C781.736 1069.47 783.057 1066.88 784.567 1064.4C793.472 1049.79 807.455 1040.17 822.865 1036.43C838.275 1032.69 855.112 1034.83 869.723 1043.74Z" fill="#66EC36" stroke="black" stroke-width="2.5"/>
<path fill-rule="evenodd" clip-rule="evenodd" d="M1228.22 1207.39L1228.48 1210.53L1179.48 1209.68L1184.27 1221.76L1228.42 1222.51L1230.21 1284.59C1230.55 1296.34 1240.06 1305.75 1251.82 1305.95L1350.44 1307.67C1361.51 1307.87 1370.99 1299.81 1372.59 1288.86L1385.67 1199.25C1387.43 1187.23 1379.11 1176.06 1367.08 1174.3C1365.42 1174.06 1363.74 1174.01 1362.07 1174.15L1248.31 1183.66C1236.21 1184.67 1227.22 1195.29 1228.22 1207.39Z" fill="#FFFFD9" stroke="black" stroke-width="2.5" stroke-linecap="round" stroke-linejoin="round"/>
<path d="M1087 1058.5C1026.04 1060.63 1157.5 1097.73 1135.55 1104.44C1101.25 1114.94 1059.79 1093.13 1033.76 1123.6" stroke="black" stroke-width="15" stroke-linecap="round" stroke-linejoin="round"/>
<path fill-rule="evenodd" clip-rule="evenodd" d="M879.713 942.148L879.972 942.201C889.915 944.233 897.928 951.578 900.817 961.306L923 1036L1025.44 1030.5C1037.71 1029.84 1049.99 1031.45 1061.68 1035.24L1127.17 1056.5C1132.3 1058.16 1135.11 1063.67 1133.44 1068.8C1133.16 1069.67 1132.76 1070.49 1132.25 1071.25C1127.99 1077.57 1119.97 1080.18 1112.81 1077.58L1085 1067.5C1092.17 1076.97 1090.31 1090.45 1080.85 1097.62C1077.32 1100.29 1073.05 1101.81 1068.63 1101.97L919.023 1107.29C907.049 1107.71 896.131 1100.47 891.864 1089.28L850.259 980.105C846.66 970.662 848.128 960.036 854.151 951.923C860.05 943.977 870.017 940.165 879.713 942.148Z" fill="white" stroke="black" stroke-width="2.5" stroke-linecap="round" stroke-linejoin="round"/>
<path fill-rule="evenodd" clip-rule="evenodd" d="M895.3 973.334C895.09 974.747 894.779 976.143 894.369 977.511L885.83 1005.98C882.286 1017.8 874.505 1027.27 864.593 1033.15C854.681 1039.02 842.638 1041.3 830.57 1038.74C818.654 1036.2 808.801 1029.19 802.442 1019.81C796.083 1010.43 793.219 998.681 795.279 986.674L798.952 965.262C800.674 955.23 806.309 946.85 814.084 941.431C821.828 936.033 831.693 933.574 841.929 935.336L870.24 939.538C878.366 940.744 885.234 945.13 889.769 951.246C894.304 957.362 896.506 965.207 895.3 973.334Z" fill="#FF75AA" stroke="black" stroke-width="2.5"/>
<path fill-rule="evenodd" clip-rule="evenodd" d="M1307.5 1349.56C1416.57 1349.56 1505 1437.75 1505 1546.56C1505 1655.36 1416.57 1743.56 1307.5 1743.56C1198.43 1743.56 1110 1655.36 1110 1546.56C1110 1437.75 1198.43 1349.56 1307.5 1349.56ZM1307.5 1361.56C1205.05 1361.56 1122 1444.39 1122 1546.56C1122 1648.73 1205.05 1731.56 1307.5 1731.56C1409.95 1731.56 1493 1648.73 1493 1546.56C1493 1444.39 1409.95 1361.56 1307.5 1361.56Z" fill="white" stroke="black" stroke-width="2.5" stroke-linecap="round" stroke-linejoin="round"/>
<path fill-rule="evenodd" clip-rule="evenodd" d="M601.5 1349.56C710.573 1349.56 799 1437.75 799 1546.56C799 1655.36 710.573 1743.56 601.5 1743.56C492.427 1743.56 404 1655.36 404 1546.56C404 1437.75 492.427 1349.56 601.5 1349.56ZM601.5 1361.56C499.048 1361.56 416 1444.39 416 1546.56C416 1648.73 499.048 1731.56 601.5 1731.56C703.952 1731.56 787 1648.73 787 1546.56C787 1444.39 703.952 1361.56 601.5 1361.56Z" fill="white" stroke="black" stroke-width="2.5" stroke-linecap="round" stroke-linejoin="round"/>
<path fill-rule="evenodd" clip-rule="evenodd" d="M892 1517C920.719 1517 944 1540.28 944 1569C944 1597.72 920.719 1621 892 1621C863.281 1621 840 1597.72 840 1569C840 1540.28 863.281 1517 892 1517ZM892 1529C869.909 1529 852 1546.91 852 1569C852 1591.09 869.909 1609 892 1609C914.091 1609 932 1591.09 932 1569C932 1546.91 914.091 1529 892 1529Z" fill="#D8D8D8" stroke="black" stroke-width="2.5" stroke-linecap="round" stroke-linejoin="round"/>
<path fill-rule="evenodd" clip-rule="evenodd" d="M601.5 1526.56C612.546 1526.56 621.5 1535.51 621.5 1546.56C621.5 1557.6 612.546 1566.56 601.5 1566.56C590.454 1566.56 581.5 1557.6 581.5 1546.56C581.5 1535.51 590.454 1526.56 601.5 1526.56ZM601.5 1538.56C597.082 1538.56 593.5 1542.14 593.5 1546.56C593.5 1550.97 597.082 1554.56 601.5 1554.56C605.918 1554.56 609.5 1550.97 609.5 1546.56C609.5 1542.14 605.918 1538.56 601.5 1538.56Z" fill="black"/>
<path fill-rule="evenodd" clip-rule="evenodd" d="M1312 1526.56C1323.05 1526.56 1332 1535.51 1332 1546.56C1332 1557.6 1323.05 1566.56 1312 1566.56C1300.95 1566.56 1292 1557.6 1292 1546.56C1292 1535.51 1300.95 1526.56 1312 1526.56ZM1312 1538.56C1307.58 1538.56 1304 1542.14 1304 1546.56C1304 1550.97 1307.58 1554.56 1312 1554.56C1316.42 1554.56 1320 1550.97 1320 1546.56C1320 1542.14 1316.42 1538.56 1312 1538.56Z" fill="black"/>
<path fill-rule="evenodd" clip-rule="evenodd" d="M759.467 1155.45C755.931 1156.79 754.118 1160.7 755.332 1164.25L882.958 1585.05C884.774 1589.82 890.897 1591.08 894.456 1587.5L894.632 1587.32L1195.13 1263.32C1197.14 1261.16 1197.52 1258.07 1196.33 1255.56C1196.93 1254.29 1197.16 1252.83 1196.89 1251.34C1196.24 1247.62 1192.74 1245.1 1189.02 1245.62L1188.79 1245.66L812.575 1302.21C812.229 1302.27 811.894 1302.36 811.571 1302.46L768.5 1159.5C767.124 1155.89 763.081 1154.07 759.467 1155.45ZM1177.75 1261.47L892.033 1569.53L815.622 1315.91L1177.75 1261.47Z" fill="#D8D8D8" stroke="black" stroke-width="2.5" stroke-linecap="round" stroke-linejoin="round"/>
<path fill-rule="evenodd" clip-rule="evenodd" d="M445.989 1353.56C442.821 1355.78 442.048 1360.14 444.263 1363.31C446.479 1366.48 450.843 1367.25 454.011 1365.03C525.145 1315.3 600.063 1300.23 679.189 1319.94L594.948 1544.09L594.865 1544.33C593.666 1547.88 595.496 1551.78 599.038 1553.11C602.656 1554.47 606.693 1552.64 608.053 1549.02L692.751 1323.64C728.046 1334.14 764.174 1351.47 801.17 1375.66C804.406 1377.77 808.744 1376.86 810.859 1373.63C812.975 1370.39 812.066 1366.05 808.83 1363.94C679.045 1279.1 557.62 1275.51 445.989 1353.56Z" fill="#D8D8D8" stroke="black" stroke-width="2.5" stroke-linecap="round" stroke-linejoin="round"/>
<path fill-rule="evenodd" clip-rule="evenodd" d="M1138.47 1110.32C1136.21 1111.36 1134.39 1112.09 1133 1112.5C1131.61 1112.91 1129.28 1113.41 1126 1114L1305.54 1549.24C1307.02 1552.81 1311.11 1554.5 1314.68 1553.02C1318.18 1551.57 1319.87 1547.62 1318.56 1544.1L1318.47 1543.87L1138.47 1110.32Z" fill="#D8D8D8" stroke="black" stroke-width="2.5" stroke-linecap="round" stroke-linejoin="round"/>
<path d="M717.5 1146H796.5C808.374 1146 818 1155.63 818 1167.5C818 1179.37 808.374 1189 796.5 1189H717.5C705.626 1189 696 1179.37 696 1167.5C696 1155.63 705.626 1146 717.5 1146Z" fill="black"/>
<path fill-rule="evenodd" clip-rule="evenodd" d="M977.394 1667.98C976.354 1672.29 972.146 1675.04 967.785 1674.27L860.888 1655.42L859.859 1596.96C859.809 1594.09 857.731 1591.65 854.903 1591.15C852.175 1590.67 849.55 1592.42 848.933 1595.12L836.167 1651.06L809.947 1646.44L804.131 1488.4L902.106 1460.76L925.786 1624.68L972.691 1655.95C976.627 1658.58 978.506 1663.38 977.394 1667.98Z" fill="black"/>
<path fill-rule="evenodd" clip-rule="evenodd" d="M843.025 1044.83C846.875 1048.56 849.933 1053.02 852.017 1057.96L873.783 1109.54L897.653 1287.57C897.724 1288.1 897.791 1288.63 897.854 1289.16L930.568 1567.52L801.713 1548.42L788.238 1164.85L775.077 1142.45C765.913 1126.87 762.515 1109.18 764.553 1092.14C766.591 1075.1 774.066 1058.71 786.648 1045.72C794.308 1037.82 804.449 1033.76 814.651 1033.6C824.853 1033.44 835.117 1037.17 843.025 1044.83Z" fill="#66EC36" stroke="black" stroke-width="2.5"/>
<path fill-rule="evenodd" clip-rule="evenodd" d="M840.248 946.717C840.528 947.21 840.789 947.713 841.029 948.225C846.861 960.64 854.24 975.579 863.168 993.04C878.058 1022.16 888.698 1044.49 895.089 1060.03L1024.02 1054.49C1026.52 1054.38 1028.94 1054.69 1031.21 1055.36C1036.1 1055.14 1040.97 1057.51 1043.73 1061.97L1068.37 1101.76C1072.35 1108.19 1070.36 1116.63 1063.93 1120.61C1063.89 1120.63 1063.85 1120.66 1063.81 1120.68C1057.25 1124.65 1048.72 1122.6 1044.69 1116.08L1026.15 1086.15L1025.48 1086.46L1043.34 1115.31C1047.32 1121.74 1045.33 1130.18 1038.91 1134.16C1038.86 1134.19 1038.82 1134.21 1038.78 1134.24C1032.22 1138.2 1023.69 1136.15 1019.66 1129.63L1000.18 1098.17L999.502 1098.49L1018.31 1128.86C1022.29 1135.29 1020.31 1143.73 1013.88 1147.71C1013.84 1147.74 1013.8 1147.76 1013.76 1147.79C1007.2 1151.75 998.667 1149.7 994.632 1143.18L974.205 1110.19L955.634 1118.79C940.454 1125.82 923.754 1128.92 907.063 1127.83L889.101 1126.64C862.904 1124.92 840.411 1107.38 832.352 1082.4L797.134 973.21C792.851 959.932 798.473 945.47 810.6 938.571C821.036 932.633 834.31 936.281 840.248 946.717Z" fill="white" stroke="black" stroke-width="2.5" stroke-linecap="round" stroke-linejoin="round"/>
<path fill-rule="evenodd" clip-rule="evenodd" d="M1280.5 1255.5C1281.6 1255.5 1282.5 1256.4 1282.5 1257.5V1270.5C1282.5 1271.6 1281.6 1272.5 1280.5 1272.5C1279.4 1272.5 1278.5 1271.6 1278.5 1270.5V1257.5C1278.5 1256.4 1279.4 1255.5 1280.5 1255.5ZM1306.5 1255.5C1307.6 1255.5 1308.5 1256.4 1308.5 1257.5V1270.5C1308.5 1271.6 1307.6 1272.5 1306.5 1272.5C1305.4 1272.5 1304.5 1271.6 1304.5 1270.5V1257.5C1304.5 1256.4 1305.4 1255.5 1306.5 1255.5ZM1335.5 1255.5C1336.6 1255.5 1337.5 1256.4 1337.5 1257.5V1270.5C1337.5 1271.6 1336.6 1272.5 1335.5 1272.5C1334.4 1272.5 1333.5 1271.6 1333.5 1270.5V1257.5C1333.5 1256.4 1334.4 1255.5 1335.5 1255.5ZM1280.5 1212.5C1281.6 1212.5 1282.5 1213.4 1282.5 1214.5V1227.5C1282.5 1228.6 1281.6 1229.5 1280.5 1229.5C1279.4 1229.5 1278.5 1228.6 1278.5 1227.5V1214.5C1278.5 1213.4 1279.4 1212.5 1280.5 1212.5ZM1306.5 1212.5C1307.6 1212.5 1308.5 1213.4 1308.5 1214.5V1227.5C1308.5 1228.6 1307.6 1229.5 1306.5 1229.5C1305.4 1229.5 1304.5 1228.6 1304.5 1227.5V1214.5C1304.5 1213.4 1305.4 1212.5 1306.5 1212.5ZM1335.5 1212.5C1336.6 1212.5 1337.5 1213.4 1337.5 1214.5V1227.5C1337.5 1228.6 1336.6 1229.5 1335.5 1229.5C1334.4 1229.5 1333.5 1228.6 1333.5 1227.5V1214.5C1333.5 1213.4 1334.4 1212.5 1335.5 1212.5Z" stroke="black" stroke-width="2.5" stroke-linecap="round" stroke-linejoin="round"/>
<path fill-rule="evenodd" clip-rule="evenodd" d="M805.111 1651.76C805.781 1648.04 809.283 1645.53 813.001 1646.07L813.239 1646.11L935.739 1668.11C939.544 1668.79 942.074 1672.43 941.391 1676.24C940.722 1679.96 937.219 1682.47 933.501 1681.93L933.264 1681.89L810.764 1659.89C806.959 1659.21 804.428 1655.57 805.111 1651.76Z" fill="#D8D8D8" stroke="black" stroke-width="2.5" stroke-linecap="round" stroke-linejoin="round"/>
</g>
<path fill-rule="evenodd" clip-rule="evenodd" d="M874.938 749.791C892.121 752.512 903.844 768.648 901.122 785.831C899.244 797.687 890.98 806.944 880.391 810.65C892.943 816.377 900.672 829.944 898.408 844.235C895.687 861.418 879.551 873.141 862.369 870.42C845.186 867.698 833.463 851.562 836.184 834.38C838.062 822.523 846.327 813.266 856.915 809.561C844.363 803.834 836.634 790.267 838.898 775.975C841.619 758.792 857.755 747.069 874.938 749.791Z" fill="black"/>
<path fill-rule="evenodd" clip-rule="evenodd" d="M874.758 941.56L876.566 913.602L848.577 904.901L840.78 940.56C845.599 942.987 851.733 944.51 859.18 945.13C866.627 945.75 871.82 944.56 874.758 941.56Z" fill="white" stroke="black" stroke-width="2.5" stroke-linecap="round" stroke-linejoin="round"/>
<path fill-rule="evenodd" clip-rule="evenodd" d="M874.987 938.945L852.683 914.078L876.807 915.818L874.987 938.945Z" fill="black"/>
<path d="M866.451 867.016C851.127 874.356 842.047 881.837 839.212 889.459C838.704 889.308 838.175 889.196 837.631 889.129C832.149 888.456 827.133 892.576 826.426 898.332C825.719 904.088 829.59 909.3 835.072 909.973C836.66 910.168 838.21 909.96 839.627 909.427C842.921 918.069 850.167 925.139 859.829 927.909C873.468 931.82 884.12 925.617 889.865 914.014C890.143 914.074 890.427 914.122 890.716 914.158C896.197 914.831 901.214 910.71 901.921 904.955C902.587 899.532 899.189 894.592 894.209 893.476C893.259 886.851 888.712 882.234 880.406 874.795C877.727 872.396 873.075 869.803 866.451 867.016Z" fill="white"/>
<path d="M866.451 867.016C851.127 874.356 842.047 881.837 839.212 889.459C838.704 889.308 838.175 889.196 837.631 889.129C832.149 888.456 827.133 892.576 826.426 898.332C825.719 904.088 829.59 909.3 835.072 909.973C836.66 910.168 838.21 909.96 839.627 909.427C842.921 918.069 850.167 925.139 859.829 927.909C873.468 931.82 884.12 925.617 889.865 914.014C890.143 914.074 890.427 914.122 890.716 914.158C896.197 914.831 901.214 910.71 901.921 904.955C902.587 899.532 899.189 894.592 894.209 893.476C893.259 886.851 888.712 882.234 880.406 874.795C877.727 872.396 873.075 869.803 866.451 867.016Z" fill="white" stroke="black" stroke-width="2.5" stroke-linecap="round" stroke-linejoin="round"/>
<mask id="mask0" mask-type="alpha" maskUnits="userSpaceOnUse" x="825" y="865" width="79" height="66">
<path d="M866.451 867.016C851.127 874.356 842.047 881.837 839.212 889.459C838.704 889.308 838.175 889.196 837.631 889.129C832.149 888.456 827.133 892.576 826.426 898.332C825.719 904.088 829.59 909.3 835.072 909.973C836.66 910.168 838.21 909.96 839.627 909.427C842.921 918.069 850.167 925.139 859.829 927.909C873.468 931.82 884.12 925.617 889.865 914.014C890.143 914.074 890.427 914.122 890.716 914.158C896.197 914.831 901.214 910.71 901.921 904.955C902.587 899.532 899.189 894.592 894.209 893.476C893.259 886.851 888.712 882.234 880.406 874.795C877.727 872.396 873.075 869.803 866.451 867.016Z" fill="white" stroke="black" stroke-width="2.5" stroke-linecap="round" stroke-linejoin="round"/>
</mask>
<g mask="url(#mask0)">
<path fill-rule="evenodd" clip-rule="evenodd" d="M842.62 878.715L838.929 888.497L877.676 885.412L899.504 896.276C901.845 879.2 898.353 868.956 889.028 865.546C875.041 860.43 855.308 851.951 849.008 861.325C844.809 867.574 842.679 873.371 842.62 878.715Z" fill="black"/>
</g>
<path fill-rule="evenodd" clip-rule="evenodd" d="M862.286 898.594C863.922 898.853 865.039 900.39 864.779 902.026L864.623 903.014C864.364 904.65 862.827 905.767 861.191 905.508C859.554 905.248 858.438 903.712 858.697 902.075L858.853 901.087C859.112 899.451 860.649 898.335 862.286 898.594ZM883.184 900.891C884.82 901.15 885.936 902.687 885.677 904.324L885.521 905.311C885.262 906.948 883.725 908.064 882.088 907.805C880.452 907.546 879.336 906.009 879.595 904.373L879.751 903.385C880.01 901.748 881.547 900.632 883.184 900.891Z" stroke="black" stroke-width="2" stroke-linecap="round" stroke-linejoin="round"/>
<path d="M870.129 912.998C871.566 914.576 873.213 914.836 875.067 913.78" stroke="black" stroke-width="2" stroke-linecap="round" stroke-linejoin="round"/>
<path d="M874.451 898.495L875.693 909.829L872.73 909.36" stroke="black" stroke-width="2" stroke-linecap="round" stroke-linejoin="round"/>
<path fill-rule="evenodd" clip-rule="evenodd" d="M1217.96 1128.42C1226.24 1128.01 1233.16 1129.28 1238.52 1134.82C1243.03 1139.5 1246.68 1147.74 1247.02 1154.74C1247.4 1162.39 1244.65 1169.47 1239.88 1174.73C1235.12 1179.99 1228.35 1183.43 1220.7 1183.81C1213.18 1184.18 1205.6 1181.67 1200.36 1177.05C1194.95 1172.27 1192.03 1165.25 1191.64 1157.49C1191.24 1149.39 1192.95 1140.53 1198.26 1135.17C1202.97 1130.42 1210.77 1128.78 1217.96 1128.42Z" fill="#FFE13D" stroke="black" stroke-width="2.5"/>
<mask id="mask1" mask-type="alpha" maskUnits="userSpaceOnUse" x="1219" y="1062" width="138" height="123">
<path d="M1289.88 1062.56C1255.53 1080.88 1238.94 1102.35 1240.12 1126.97C1241.2 1149.75 1234.39 1168.05 1219.68 1181.87C1218.98 1182.53 1218.95 1183.64 1219.61 1184.34C1219.96 1184.71 1220.46 1184.91 1220.97 1184.89L1273.09 1182.3C1277.12 1177.06 1281.01 1170.31 1284.76 1162.05C1288.51 1153.8 1293.42 1141.17 1299.49 1124.16L1302.62 1172.23C1302.93 1176.99 1307 1180.62 1311.77 1180.39L1333.79 1179.29C1336.68 1179.15 1338.91 1176.69 1338.76 1173.8C1338.75 1173.59 1338.73 1173.37 1338.69 1173.16C1338.28 1170.82 1337.73 1168.87 1337.04 1167.33C1335.84 1164.65 1336.52 1160.68 1339.08 1155.43L1356.82 1090.11L1289.88 1062.56Z" fill="white"/>
</mask>
<g mask="url(#mask1)">
<path fill-rule="evenodd" clip-rule="evenodd" d="M1289.95 1063.77L1355.52 1090.75L1338.05 1155.04C1335.32 1160.69 1334.77 1164.91 1336.05 1167.78C1336.71 1169.25 1337.23 1171.11 1337.62 1173.35C1337.65 1173.52 1337.67 1173.69 1337.67 1173.86C1337.73 1175 1337.32 1176.06 1336.61 1176.85C1335.89 1177.63 1334.88 1178.15 1333.74 1178.2L1311.71 1179.3C1309.63 1179.4 1307.69 1178.66 1306.25 1177.37C1304.8 1176.08 1303.84 1174.24 1303.71 1172.16L1300.24 1118.8C1293.36 1138.31 1287.87 1152.58 1283.77 1161.6C1280.15 1169.56 1276.41 1176.11 1272.53 1181.24L1220.91 1183.8C1220.72 1183.81 1220.53 1183.73 1220.4 1183.59C1220.28 1183.46 1220.22 1183.29 1220.23 1183.12C1220.23 1182.95 1220.3 1182.79 1220.43 1182.67C1235.37 1168.63 1242.31 1150.06 1241.21 1126.92C1240.63 1114.86 1244.42 1103.58 1252.54 1093.07C1260.68 1082.53 1273.16 1072.77 1289.95 1063.77Z" fill="#ADF7FF" stroke="black" stroke-width="2.5"/>
<path fill-rule="evenodd" clip-rule="evenodd" d="M1350.24 1115.97L1351.3 1181.49L1293.41 1186.54L1311.95 1102.13L1342.63 1103.67L1350.24 1115.97Z" fill="black"/>
</g>
<path fill-rule="evenodd" clip-rule="evenodd" d="M1305.78 1029.93C1311.37 1026.16 1317.81 1024.2 1324.28 1024.05C1330.75 1023.91 1337.27 1025.58 1343.03 1029.09L1349.42 1032.99L1349.91 1033.29C1365.73 1043.14 1376.36 1059.54 1378.88 1078.03L1383.1 1109.1C1388.2 1109.61 1392.77 1112.01 1396.07 1115.63C1399.13 1118.99 1401.09 1123.4 1401.34 1128.3C1401.55 1132.57 1400.42 1136.6 1398.33 1139.98C1396.03 1143.69 1392.57 1146.62 1388.42 1148.23L1389.31 1154.77L1390.28 1155.39C1394.55 1158.14 1397.89 1160.75 1400.28 1163.24C1401.2 1164.2 1402.23 1165.39 1403.35 1166.8C1404.21 1167.89 1404.55 1169.22 1404.4 1170.5C1404.25 1171.78 1403.62 1173 1402.53 1173.86C1401.71 1174.51 1400.71 1174.89 1399.66 1174.94L1378.67 1175.97C1376.89 1176.01 1375.16 1175.54 1373.68 1174.66C1372.2 1173.78 1370.95 1172.5 1370.13 1170.9L1341.04 1114.64C1339.75 1112.28 1337.85 1110.39 1335.59 1109.12C1333.33 1107.86 1330.73 1107.22 1328.05 1107.35C1325.36 1107.48 1322.89 1108.53 1320.97 1110.2C1319.05 1111.87 1317.68 1114.17 1317.18 1116.81L1306.19 1174.6C1305.86 1176.08 1305.05 1177.36 1303.95 1178.29C1302.84 1179.22 1301.44 1179.81 1299.92 1179.88L1274.95 1181.11C1273.61 1181.13 1272.37 1180.61 1271.46 1179.76C1270.54 1178.9 1269.94 1177.7 1269.88 1176.34C1269.83 1175.32 1270.09 1174.31 1270.63 1173.44C1271.65 1171.8 1272.57 1170.5 1273.39 1169.57C1275.56 1167.1 1278.44 1164.7 1282.04 1162.35L1281.32 1158.68C1276.29 1158.12 1271.78 1155.71 1268.53 1152.11C1265.49 1148.76 1263.56 1144.38 1263.32 1139.51C1263.12 1135.61 1264.04 1131.91 1265.8 1128.72C1267.61 1125.43 1270.32 1122.68 1273.61 1120.82C1273.82 1120.7 1274.02 1120.59 1274.23 1120.49C1274.2 1120.25 1274.18 1120.01 1274.16 1119.77C1273.4 1111.06 1273.98 1102.27 1275.87 1093.69L1282.37 1064.29L1282.5 1063.73C1285.69 1049.93 1294.01 1037.84 1305.78 1029.93Z" fill="#ADF7FF" stroke="black" stroke-width="2.5"/>
<path fill-rule="evenodd" clip-rule="evenodd" d="M1308.18 1029.56C1322.23 1029.58 1332.79 1029.62 1339.88 1029.7C1343.48 1029.74 1346.18 1029.79 1347.98 1029.85C1348.87 1029.87 1349.53 1029.9 1350.02 1029.94C1350.95 1032.01 1353.6 1037.51 1358.04 1046.41C1347.25 1052.1 1337.83 1055.16 1329.76 1055.56C1321.68 1055.96 1312 1053.84 1300.71 1049.25L1308.18 1029.56Z" fill="#FF75AA" stroke="black" stroke-width="2.5"/>
<path fill-rule="evenodd" clip-rule="evenodd" d="M1416.98 1014.45C1426.41 1021.5 1431.41 1029.52 1431.86 1038.57C1432.24 1046.21 1429.4 1053.7 1424.51 1059.33C1419.78 1064.77 1413.13 1068.48 1405.32 1068.9C1400.69 1070.41 1384.22 1070.17 1370.01 1062.49C1357.54 1055.76 1349.89 1044.02 1346.99 1027.35C1346.92 1026.95 1346.86 1026.55 1346.79 1026.15C1346.41 1026.26 1346.02 1026.37 1345.63 1026.48C1340.49 1027.88 1335.18 1028.75 1329.75 1029.02C1324.26 1029.3 1318.84 1028.94 1313.54 1028.03C1313.21 1027.98 1312.88 1027.92 1312.56 1027.86C1312.47 1028.18 1312.38 1028.5 1312.3 1028.82C1307.55 1046.42 1300.82 1058.97 1292.03 1066.42C1279.47 1077.08 1262.36 1077.26 1257.34 1076.2C1249.81 1076.57 1242.83 1073.54 1237.58 1068.59C1232.16 1063.48 1228.59 1056.3 1228.21 1048.66C1227.75 1039.39 1232.16 1030.72 1240.93 1022.38L1240.77 1022.8C1238.23 1029.96 1237.44 1035.62 1238.29 1039.78C1238.74 1042.02 1239.66 1043.84 1241.02 1045.27C1242.38 1046.69 1244.17 1047.73 1246.43 1048.36C1250.01 1049.36 1252.86 1049.28 1255.12 1048.5C1257.78 1047.58 1259.67 1045.69 1260.97 1043.23C1265.02 1035.57 1263.1 1022.18 1262.64 1019.09C1262.6 1018.83 1262.57 1018.65 1262.57 1018.57C1262.01 1013.04 1255.17 998.206 1241.9 974.046C1230.54 955.451 1223.42 934.231 1222.4 913.827C1220.93 884.026 1232.08 848.029 1251.3 820.443C1268.11 796.31 1291.1 778.572 1317.27 777.274C1343.45 775.977 1368.08 791.355 1387.19 813.707C1409.04 839.259 1423.7 873.976 1425.18 903.777C1426.34 927.091 1419.65 952.257 1407.35 974.004C1398.89 994.419 1394.71 1007.09 1394.7 1012.02C1394.7 1012.11 1394.69 1012.28 1394.68 1012.55C1394.53 1015.67 1393.94 1029.18 1398.73 1036.4C1400.27 1038.72 1402.33 1040.42 1405.07 1041.07C1407.39 1041.62 1410.24 1041.42 1413.7 1040.07C1415.89 1039.22 1417.57 1038.01 1418.78 1036.46C1419.99 1034.9 1420.73 1033 1420.96 1030.73C1421.38 1026.58 1420.09 1021.15 1416.98 1014.45Z" fill="#FFE13D" stroke="black" stroke-width="2.5"/>
<path d="M1316.18 778.022C1334.15 832.882 1343.33 867.458 1343.73 881.749C1344.33 903.186 1338.97 928.387 1320.02 921.632C1301.06 914.876 1308.26 896.099 1318.61 894.337C1328.95 892.575 1329.17 901.35 1326.79 906.299C1325.2 909.599 1322.76 910.313 1319.48 908.442" stroke="black" stroke-width="2.5" stroke-linecap="round" stroke-linejoin="round"/>
<path d="M1290.43 958.931C1286.65 947.235 1279.02 934.571 1267.57 920.939C1250.38 900.492 1243.51 841.283 1261.89 806.467" stroke="black" stroke-width="2.5" stroke-linecap="round" stroke-linejoin="round"/>
<path d="M1366.2 961.734C1369.7 938.263 1377.81 919.686 1390.54 906.002C1403.27 892.317 1401.71 861.025 1385.89 812.125" stroke="black" stroke-width="2.5" stroke-linecap="round" stroke-linejoin="round"/>
<path d="M1363.69 1116.8C1360.96 1120.6 1359.44 1125.32 1359.69 1130.36C1360.02 1136.99 1363.33 1142.77 1368.27 1146.45" stroke="black" stroke-width="2.5" stroke-linecap="round" stroke-linejoin="round"/>
<path d="M1302.83 1148.5C1304.79 1144.25 1305.37 1139.33 1304.17 1134.43C1302.58 1127.99 1298.22 1122.95 1292.68 1120.27" stroke="black" stroke-width="2.5" stroke-linecap="round" stroke-linejoin="round"/>
<path fill-rule="evenodd" clip-rule="evenodd" d="M1287.05 970.166C1288.25 961.981 1292.65 955.057 1298.8 950.479C1304.94 945.901 1312.84 943.668 1321.02 944.866L1326.05 945.602L1330.99 944.372C1337.36 942.782 1344.08 943.333 1350.12 945.939C1357.71 949.221 1363.25 955.269 1366.08 962.395C1368.9 969.521 1369.01 977.725 1365.73 985.318L1345.16 1032.92C1343.92 1035.8 1341.91 1038.2 1339.43 1039.92C1336.95 1041.64 1334 1042.67 1330.87 1042.83C1327.74 1042.98 1324.7 1042.24 1322.07 1040.78C1319.43 1039.31 1317.2 1037.12 1315.68 1034.38L1290.5 989.046C1287.31 983.302 1286.1 976.667 1287.05 970.166Z" fill="#ADF7FF" stroke="black" stroke-width="2.5"/>
<path fill-rule="evenodd" clip-rule="evenodd" d="M1328.9 998.911C1333.07 991.384 1338.01 985.806 1343.73 982.179C1350.06 978.16 1359.06 976 1363.77 973.283C1376.56 965.898 1380.98 960.127 1380.98 960.127C1380.98 960.127 1378.78 966.469 1374.38 979.155C1376.36 981.568 1377.17 983.994 1376.81 986.433C1376.44 988.873 1375.23 990.897 1373.19 992.506C1373.4 996.661 1370.91 1000.48 1367.02 1001.96C1356.37 1006.03 1347.94 1007.05 1341.73 1005.01C1334.3 1002.57 1330.03 1000.54 1328.9 998.911Z" fill="white" stroke="black" stroke-width="2.5" stroke-linecap="round" stroke-linejoin="round"/>
<path fill-rule="evenodd" clip-rule="evenodd" d="M1336.02 997.729C1344.58 1000.14 1350.19 1000.86 1352.83 999.895C1361.27 996.806 1366.55 992.051 1368.67 985.629L1368.67 985.629C1368.82 985.173 1368.58 984.68 1368.12 984.527C1362.32 982.584 1355.56 983.028 1347.82 985.859C1344.98 986.899 1340.91 990.382 1335.6 996.306L1335.6 996.306C1335.28 996.666 1335.31 997.218 1335.67 997.539C1335.77 997.628 1335.89 997.693 1336.02 997.729Z" fill="black"/>
<path fill-rule="evenodd" clip-rule="evenodd" d="M1329.3 998.891C1324.05 991.83 1318.17 986.79 1311.65 983.769C1304.43 980.422 1294.53 979.198 1289.19 976.979C1274.69 970.947 1269.34 965.66 1269.34 965.66C1269.34 965.66 1272.36 971.744 1278.39 983.912C1276.51 986.517 1275.89 989.014 1276.54 991.403C1277.18 993.792 1278.68 995.682 1281.04 997.073C1281.25 1001.19 1284.11 1004.7 1288.11 1005.71C1300.24 1008.8 1309.58 1008.99 1316.14 1006.28C1323.87 1003.09 1328.26 1000.63 1329.3 998.891Z" fill="white" stroke="black" stroke-width="2.5" stroke-linecap="round" stroke-linejoin="round"/>
<path fill-rule="evenodd" clip-rule="evenodd" d="M1321.53 998.447C1312.57 1001.73 1306.62 1003.02 1303.69 1002.33C1294.32 1000.13 1288.16 995.953 1285.21 989.802L1285.21 989.802C1285 989.367 1285.18 988.845 1285.62 988.637C1285.63 988.631 1285.65 988.625 1285.66 988.619C1291.69 986.084 1299.01 985.828 1307.62 987.852C1310.78 988.593 1315.5 991.629 1321.79 996.961L1321.79 996.961C1322.16 997.273 1322.21 997.824 1321.9 998.192C1321.8 998.307 1321.67 998.395 1321.53 998.447Z" fill="black"/>
<path d="M1341.13 1038.17C1338.34 1039.76 1336.3 1040.44 1335.01 1040.22C1333.73 1040 1332.23 1038.62 1330.54 1036.07C1329.38 1038.7 1328.08 1040.22 1326.64 1040.63C1325.21 1041.05 1323.06 1040.57 1320.2 1039.21" stroke="black" stroke-width="2.5" stroke-linecap="round" stroke-linejoin="round"/>
<path fill-rule="evenodd" clip-rule="evenodd" d="M1330.39 1036.08L1324.63 1029.2C1323.71 1028.09 1323.85 1026.44 1324.96 1025.51C1325.4 1025.14 1325.94 1024.93 1326.51 1024.9L1333.33 1024.56C1334.77 1024.49 1336 1025.61 1336.07 1027.05C1336.1 1027.64 1335.94 1028.21 1335.6 1028.69L1330.39 1036.08Z" fill="black"/>
<path d="M1402.54 1165.83L1381.17 1166.89" stroke="black" stroke-width="2.5" stroke-linecap="round" stroke-linejoin="round"/>
<path d="M1392.97 1166.74L1392.94 1175.05" stroke="black" stroke-width="2.5" stroke-linecap="round" stroke-linejoin="round"/>
<path d="M1325.48 986.921C1319.63 974.679 1310.66 970.169 1298.58 973.391" stroke="black" stroke-width="2.5" stroke-linecap="round" stroke-linejoin="round"/>
<path d="M1331.58 986.618C1336.2 973.858 1344.67 968.483 1357.01 970.495" stroke="black" stroke-width="2.5" stroke-linecap="round" stroke-linejoin="round"/>
<path fill-rule="evenodd" clip-rule="evenodd" d="M1331.97 1086.95L1342.91 1074.38C1345.47 1071.43 1345.88 1067.19 1343.93 1063.81C1342.48 1061.31 1339.28 1060.45 1336.77 1061.9C1336.44 1062.09 1336.14 1062.31 1335.86 1062.57L1330.91 1067.1L1326.35 1063.51C1324.11 1061.74 1320.87 1062.13 1319.11 1064.36C1318.94 1064.57 1318.8 1064.79 1318.67 1065.02C1316.91 1068.12 1317.42 1072.01 1319.9 1074.56L1331.97 1086.95Z" fill="white" stroke="black" stroke-width="2.5" stroke-linecap="round" stroke-linejoin="round"/>
<path d="M1330.76 1067.1L1330.68 1056.61" stroke="black" stroke-width="2.5" stroke-linecap="round" stroke-linejoin="round"/>
<defs>
<clipPath id="clip0">
<path d="M318 523H1506V1938H318V523Z" fill="white"/>
</clipPath>
</defs>
</svg>
