<svg width="2811" height="1999" viewBox="0 0 2811 1999" fill="none" xmlns="http://www.w3.org/2000/svg">
<g clip-path="url(#clip0)">
<rect width="2811" height="1999" fill="white"/>
<path fill-rule="evenodd" clip-rule="evenodd" d="M1042 300H1489C1510.54 300 1528 317.461 1528 339V833C1528 888.228 1483.23 933 1428 933H1103C1047.77 933 1003 888.228 1003 833V339C1003 317.461 1020.46 300 1042 300Z" fill="#EBF2F9"/>
<path fill-rule="evenodd" clip-rule="evenodd" d="M1266.66 690C1269.97 690 1272.66 692.686 1272.66 696L1272.66 881.734C1273.08 883.063 1273.83 884.287 1274.87 885.281C1278.24 888.509 1283.59 888.393 1286.82 885.021L1295.34 876.118L1347.68 812.678C1347.84 812.494 1348 812.321 1348.18 812.16C1350.22 810.303 1353.38 810.453 1355.24 812.497L1369.05 827.693C1370.78 829.593 1370.79 832.492 1369.07 834.4L1272.66 941.561L1272.66 1528H1240.66L1240.66 1091.57L1196.52 1048.85C1194.58 1046.97 1194.48 1043.89 1196.3 1041.9L1211.02 1025.7C1212.62 1023.94 1215.25 1023.55 1217.3 1024.78L1217.6 1024.97L1223.35 1033.22C1226.35 1037.52 1232.26 1038.58 1236.57 1035.58C1239.41 1033.6 1240.94 1030.24 1240.59 1026.81L1240.55 1026.5L1240.66 1026.69V841.537L1196.52 798.822C1194.58 796.944 1194.48 793.864 1196.3 791.866L1211.02 775.675C1212.62 773.91 1215.25 773.524 1217.3 774.753L1217.6 774.938L1223.35 783.187C1226.35 787.49 1232.26 788.548 1236.57 785.551C1239.41 783.572 1240.94 780.21 1240.59 776.783L1240.55 776.471L1240.66 776.66L1240.66 696C1240.66 692.686 1243.34 690 1246.66 690H1266.66Z" fill="#DFE9F3"/>
<path fill-rule="evenodd" clip-rule="evenodd" d="M1951.5 411C1974.42 411 1993 429.58 1993 452.5V456.5C1993 461.903 1991.97 467.065 1990.09 471.799C2045.72 485.901 2089.47 529.802 2103.36 585.518C2108.44 583.257 2114.07 582 2120 582C2142.64 582 2161 600.356 2161 623V627C2161 649.644 2142.64 668 2120 668C2115.29 668 2110.77 667.207 2106.57 665.748C2100.16 712.931 2072.73 753.431 2034.02 777.501C2078.43 805.114 2108 854.354 2108 910.5V929.784C2111.8 928.624 2115.82 928 2120 928C2142.64 928 2161 946.356 2161 969V974C2161 996.644 2142.64 1015 2120 1015C2115.82 1015 2111.8 1014.38 2108 1013.22V1483.5C2108 1569.93 2037.93 1640 1951.5 1640C1865.07 1640 1795 1569.93 1795 1483.5L1795 1013.39C1791.35 1014.44 1787.49 1015 1783.5 1015C1760.58 1015 1742 996.42 1742 973.5V969.5C1742 946.58 1760.58 928 1783.5 928C1787.49 928 1791.35 928.563 1795 929.614L1795 910.5C1795 854.354 1824.57 805.114 1868.98 777.499C1830.32 753.463 1802.91 713.039 1796.46 665.937C1792.38 667.275 1788.03 668 1783.5 668C1760.58 668 1742 649.42 1742 626.5V623.5C1742 600.58 1760.58 582 1783.5 582C1789.25 582 1794.73 583.169 1799.7 585.283C1813.65 529.678 1857.36 485.881 1912.91 471.794C1911.03 467.065 1910 461.903 1910 456.5V452.5C1910 429.58 1928.58 411 1951.5 411Z" fill="#EBF2F9"/>
<path d="M1993 623.5C1993 600.58 1974.42 582 1951.5 582C1928.58 582 1910 600.58 1910 623.5V626.5C1910 649.42 1928.58 668 1951.5 668C1974.42 668 1993 649.42 1993 626.5V623.5Z" fill="#DFE9F3"/>
<path d="M1993 969.5C1993 946.58 1974.42 928 1951.5 928C1928.58 928 1910 946.58 1910 969.5V973.5C1910 996.42 1928.58 1015 1951.5 1015C1974.42 1015 1993 996.42 1993 973.5V969.5Z" fill="#DFE9F3"/>
<path fill-rule="evenodd" clip-rule="evenodd" d="M910.755 1640H766V1489.7L766.094 1489.7C766.031 1488.47 766 1487.24 766 1485.99C766 1446.03 798.405 1413.63 838.378 1413.63C877.418 1413.63 909.24 1444.53 910.703 1483.21L911.028 1483.21C913.322 1502.54 929.774 1517.54 949.728 1517.54C971.252 1517.54 988.7 1500.09 988.7 1478.57C988.7 1478.16 988.694 1477.74 988.681 1477.33L988.657 1476.71L988.7 1476.71L988.7 1356.71L988.7 1356.71L988.7 1339.41L988.818 1339.41C988.74 1338.18 988.7 1336.94 988.7 1335.7C988.7 1303.93 1014.46 1278.17 1046.23 1278.17C1078 1278.17 1103.76 1303.93 1103.76 1335.7C1103.76 1336.94 1103.72 1338.18 1103.64 1339.41L1103.76 1339.41V1385.79L1103.83 1385.79C1103.78 1386.41 1103.76 1387.03 1103.76 1387.65C1103.76 1402 1115.39 1413.63 1129.74 1413.63C1144.09 1413.63 1155.73 1402 1155.73 1387.65C1155.73 1387.23 1155.72 1386.82 1155.7 1386.41L1155.66 1385.79L1155.73 1385.79L1155.72 1358.48L1155.73 1358.48L1155.73 1287.45L1156 1287.45C1155.82 1284.69 1155.73 1281.91 1155.73 1279.1C1155.73 1208.91 1212.64 1152 1282.85 1152C1353.06 1152 1409.97 1208.91 1409.97 1279.1C1409.97 1281.91 1409.88 1284.69 1409.7 1287.45L1409.97 1287.45L1409.97 1453.52L1410.39 1453.52C1412.58 1465.65 1423.19 1474.86 1435.96 1474.86C1448.72 1474.86 1459.34 1465.65 1461.53 1453.52L1461.94 1453.52L1461.94 1437.75L1462.06 1437.75C1461.98 1436.52 1461.94 1435.28 1461.94 1434.04C1461.94 1402.27 1487.7 1376.52 1519.47 1376.52C1551.24 1376.52 1577 1402.27 1577 1434.04C1577 1435.28 1576.96 1436.52 1576.88 1437.75L1577 1437.75V1640H1461.94L1461.94 1640H1409.97L1409.97 1640H1155.73L1155.73 1640H1103.76L1103.76 1640H988.7L988.7 1640H910.755L910.755 1640Z" fill="#E4EDF6"/>
<path fill-rule="evenodd" clip-rule="evenodd" d="M1948.2 1152C2018.41 1152 2075.33 1208.91 2075.33 1279.1C2075.33 1281.91 2075.24 1284.69 2075.06 1287.45L2075.33 1287.45L2075.33 1453.52L2075.74 1453.52C2077.93 1465.65 2088.54 1474.86 2101.31 1474.86C2114.07 1474.86 2124.69 1465.65 2126.88 1453.52L2130.67 1453.52C2128.48 1447.44 2127.29 1440.88 2127.29 1434.04C2127.29 1402.27 2153.05 1376.52 2184.82 1376.52C2216.59 1376.52 2242.35 1402.27 2242.35 1434.04C2242.35 1435.28 2242.31 1436.52 2242.23 1437.75L2242.35 1437.75V1540C2242.35 1583.59 2214.46 1620.67 2175.54 1634.36L2175.54 1640L2075.33 1640L2075.33 1640H1821.08L1821.08 1640H1769.11L1769.11 1640H1654.05L1654.05 1640L1526 1640V1483.21L1576.38 1483.21C1578.67 1502.54 1595.13 1517.54 1615.08 1517.54C1636.6 1517.54 1654.05 1500.09 1654.05 1478.57C1654.05 1478.16 1654.05 1477.74 1654.03 1477.33L1654.01 1476.71L1654.05 1476.71L1654.05 1356.71V1356.71L1654.05 1339.41L1654.17 1339.41C1654.09 1338.18 1654.05 1336.94 1654.05 1335.7C1654.05 1303.93 1679.81 1278.17 1711.58 1278.17C1743.36 1278.17 1769.11 1303.93 1769.11 1335.7C1769.11 1336.94 1769.07 1338.18 1769 1339.41L1769.11 1339.41V1385.79L1769.18 1385.79C1769.14 1386.41 1769.11 1387.03 1769.11 1387.65C1769.11 1402 1780.75 1413.63 1795.1 1413.63C1809.45 1413.63 1821.08 1402 1821.08 1387.65C1821.08 1387.23 1821.07 1386.82 1821.05 1386.41L1821.01 1385.79L1821.08 1385.79V1287.45L1821.35 1287.45C1821.17 1284.69 1821.08 1281.91 1821.08 1279.1C1821.08 1208.91 1877.99 1152 1948.2 1152Z" fill="#E4EDF6"/>
<path fill-rule="evenodd" clip-rule="evenodd" d="M702.5 1062C802.187 1062 883 1142.81 883 1242.5V1640H522V1242.5C522 1142.81 602.813 1062 702.5 1062Z" fill="#DFE9F3"/>
<path d="M843 874.5C843 795.799 779.201 732 700.5 732C621.799 732 558 795.799 558 874.5V926.5C558 1005.2 621.799 1069 700.5 1069C779.201 1069 843 1005.2 843 926.5V874.5Z" fill="#E4EDF6"/>
<path d="M915 740.5C915 694.384 877.616 657 831.5 657C785.384 657 748 694.384 748 740.5V772.5C748 818.616 785.384 856 831.5 856C877.616 856 915 818.616 915 772.5V740.5Z" fill="#E4EDF6"/>
<path fill-rule="evenodd" clip-rule="evenodd" d="M1116 1545.5L1226.92 1667.9L1281.49 1670.54C1287.1 1670.81 1291.82 1674.82 1293 1680.31C1294.13 1685.52 1290.96 1690.69 1285.81 1692.07L1140.43 1731.03C1136.31 1732.13 1131.95 1730.51 1129.56 1726.98L1029.46 1579.19L1116 1545.5ZM629.42 1468.87L626.348 1559.67L433.536 1608.3L405.758 1668.06C403.968 1671.91 399.741 1674 395.597 1673.08C391.573 1672.18 388.888 1668.38 389.397 1664.29L409.25 1504.67C409.813 1500.14 413.373 1496.56 417.902 1495.98L629.42 1468.87Z" fill="black"/>
<path fill-rule="evenodd" clip-rule="evenodd" d="M908.373 1258.25L762.864 1258.4L687.91 1456.88L513.75 1482.08V1590.95L714.452 1546.9C743.942 1540.43 768.852 1520.82 782.069 1493.68L850.233 1353.69L967.488 1497.73L1069.38 1635.91L1157.11 1592.05L1051.49 1450.23L908.373 1258.25Z" fill="#57EFFF" stroke="black" stroke-width="2.5"/>
<path d="M850.58 1356.07L866 1324.65" stroke="black" stroke-width="2.5" stroke-linecap="round" stroke-linejoin="round"/>
<path fill-rule="evenodd" clip-rule="evenodd" d="M1102.22 854.555C1093.49 855.937 1087.54 864.133 1088.92 872.861L1096.91 923.323L1074.09 1075.32L963.398 1058.09C962.384 1057.94 961.366 1057.81 960.344 1057.72C934.884 1055.48 912.427 1074.3 910.184 1099.76C907.734 1127.58 927.076 1152.62 954.616 1157.27L1070.77 1176.88C1073.06 1177.27 1075.36 1177.56 1077.67 1177.76C1125.54 1181.95 1167.73 1146.54 1171.92 1098.68L1184.65 953.201L1234.57 962.906C1243.25 964.592 1251.65 958.927 1253.33 950.253C1254.6 943.712 1251.69 937.327 1246.47 933.86C1248.36 931.678 1249.67 928.952 1250.14 925.886L1250.17 925.713C1251.39 916.962 1245.3 908.871 1236.55 907.641L1124.33 891.871L1120.53 867.855C1119.14 859.127 1110.95 853.172 1102.22 854.555Z" fill="white" stroke="black" stroke-width="2.5" stroke-linecap="round" stroke-linejoin="round"/>
<path fill-rule="evenodd" clip-rule="evenodd" d="M814.263 1038.09C800.883 1022.62 778.765 1018.11 760.4 1027.11L645.048 1083.58C623.846 1093.96 606.999 1111.5 597.49 1133.11L541.274 1260.85L532.196 1273.63L468.357 1349.76C468.241 1349.9 468.128 1350.04 468.018 1350.18C462.931 1356.71 464.1 1366.13 470.63 1371.22C477.47 1376.55 487.3 1375.51 492.87 1368.86L538.299 1314.69L539.137 1315.35L495.354 1372.27C495.289 1372.35 495.224 1372.44 495.16 1372.53C489.978 1379.56 491.476 1389.46 498.505 1394.64C505.723 1399.96 515.87 1398.53 521.337 1391.42L564.424 1335.41L565.875 1336.56L523.473 1391.53C523.398 1391.63 523.325 1391.73 523.252 1391.82C518.094 1398.84 519.602 1408.72 526.622 1413.88C533.856 1419.19 544.01 1417.76 549.493 1410.65L591.169 1356.62L591.328 1356.75L592.808 1354.5L597.21 1348.79L591.691 1384.39C590.231 1393.82 596.65 1402.65 606.063 1404.17C606.1 1404.18 606.138 1404.19 606.176 1404.19C615.518 1405.64 624.264 1399.24 625.712 1389.9L641.95 1285.12L679.869 1173.29L801.739 1126.35C817.254 1120.37 828.613 1106.85 831.817 1090.53C835.066 1073.99 830.518 1056.87 819.484 1044.12L814.263 1038.09Z" fill="white" stroke="black" stroke-width="2.5" stroke-linecap="round" stroke-linejoin="round"/>
<path fill-rule="evenodd" clip-rule="evenodd" d="M787.295 1136.16L758.086 1257.75L916.034 1257.75L941.099 1161.45L978.913 1170.5L991.653 1054.81C966.97 1045.07 938.559 1039.22 906.424 1037.25C902.333 1037 898.433 1036.96 894.654 1036.92C884.594 1036.82 875.377 1036.7 865.729 1032.82C819.302 1014.18 768.549 1016.52 713.472 1039.77L787.295 1136.16Z" fill="#FFE13D" stroke="black" stroke-width="2.5"/>
<path d="M1246.5 933.5L1190 925" stroke="black" stroke-width="2.5" stroke-linecap="round" stroke-linejoin="round"/>
<path fill-rule="evenodd" clip-rule="evenodd" d="M894.004 1035.38L891.262 1013.3L857.285 1007.89L853.499 1033.51C859.763 1041.8 867.055 1045.73 875.377 1045.29C883.699 1044.86 889.908 1041.56 894.004 1035.38Z" fill="white" stroke="black" stroke-width="2.5" stroke-linecap="round" stroke-linejoin="round"/>
<path fill-rule="evenodd" clip-rule="evenodd" d="M894.061 1036.69L866.099 1018.82L893.05 1013.52L894.061 1036.69Z" fill="black"/>
<path d="M870.5 886L854.414 886.731C851.135 886.88 848.584 889.637 848.69 892.918C850.426 946.862 851.704 979.798 852.525 991.726C851.909 991.598 851.273 991.533 850.623 991.533C845.1 991.533 840.623 996.234 840.623 1002.03C840.623 1007.83 845.1 1012.53 850.623 1012.53C851.93 1012.53 853.178 1012.27 854.322 1011.79C855.647 1018.76 858.896 1023.75 868.916 1027.11C873.834 1028.75 892.004 1028.22 895.932 1026.69C902.719 1024.06 905.188 1019.09 906.78 1011.81L906.865 1011.81L907.141 1011.81C912.663 1011.81 917.141 1007.11 917.141 1001.31C917.141 996.374 913.893 992.231 909.517 991.111C911.028 973.125 912.924 940.483 915.204 893.184C915.207 893.121 915.209 893.059 915.21 892.996C915.265 889.682 912.624 886.952 909.311 886.896L876.168 886.342L875.168 890.342L870.5 886Z" fill="white"/>
<path d="M876.168 886.342L854.414 886.731C851.135 886.88 848.584 889.637 848.69 892.918C850.426 946.862 851.704 979.798 852.525 991.726C851.909 991.598 851.273 991.533 850.623 991.533C845.1 991.533 840.623 996.234 840.623 1002.03C840.623 1007.83 845.1 1012.53 850.623 1012.53C851.93 1012.53 853.178 1012.27 854.322 1011.79C855.647 1018.76 858.896 1023.75 868.916 1027.11C873.834 1028.75 892.004 1028.22 895.932 1026.69C902.719 1024.06 905.188 1019.09 906.78 1011.81L906.865 1011.81L907.141 1011.81C912.663 1011.81 917.141 1007.11 917.141 1001.31C917.141 996.374 913.893 992.231 909.517 991.111C911.028 973.125 912.924 940.483 915.204 893.184C915.207 893.121 915.209 893.059 915.21 892.996C915.265 889.682 912.624 886.952 909.311 886.896L876.168 886.342Z" fill="white" stroke="black" stroke-width="2.5" stroke-linecap="round" stroke-linejoin="round"/>
<mask id="mask0" mask-type="alpha" maskUnits="userSpaceOnUse" x="839" y="885" width="80" height="145">
<path d="M876.168 886.343L854.414 886.731C851.135 886.88 848.584 889.637 848.69 892.918C850.426 946.862 851.704 979.798 852.525 991.726C851.909 991.598 851.273 991.533 850.623 991.533C845.1 991.533 840.623 996.234 840.623 1002.03C840.623 1007.83 845.1 1012.53 850.623 1012.53C851.93 1012.53 853.178 1012.27 854.322 1011.79C855.647 1018.76 858.896 1023.75 868.916 1027.11C873.834 1028.75 892.004 1028.22 895.932 1026.69C902.719 1024.06 905.188 1019.09 906.78 1011.81L906.865 1011.81L907.141 1011.81C912.663 1011.81 917.141 1007.11 917.141 1001.31C917.141 996.374 913.893 992.231 909.517 991.111C911.028 973.126 912.924 940.483 915.204 893.185C915.207 893.122 915.209 893.059 915.21 892.996C915.265 889.683 912.624 886.952 909.311 886.896L876.168 886.343Z" fill="white" stroke="black" stroke-width="2.5" stroke-linecap="round" stroke-linejoin="round"/>
</mask>
<g mask="url(#mask0)">
<path fill-rule="evenodd" clip-rule="evenodd" d="M845.5 983.5L853 991.5C858.649 988.751 864.816 986.085 871.5 983.5C878.185 980.915 884.518 978.748 890.5 977L910.5 991.5L927 958.5C946.438 893.583 951.438 859.583 942 856.5C927.843 851.875 833.469 860.912 827.5 870.5C823.521 876.892 829.521 914.559 845.5 983.5Z" fill="black"/>
</g>
<path fill-rule="evenodd" clip-rule="evenodd" d="M876.626 996.424C878.282 996.481 879.577 997.871 879.52 999.527L879.485 1000.53C879.427 1002.18 878.038 1003.48 876.382 1003.42C874.726 1003.36 873.431 1001.97 873.488 1000.32L873.523 999.317C873.581 997.661 874.97 996.366 876.626 996.424ZM899.638 996.053C901.294 996.111 902.59 997.5 902.532 999.156L902.497 1000.16C902.439 1001.81 901.05 1003.11 899.394 1003.05C897.738 1002.99 896.443 1001.6 896.501 999.946L896.535 998.946C896.593 997.29 897.982 995.995 899.638 996.053Z" stroke="black" stroke-width="2" stroke-linecap="round" stroke-linejoin="round"/>
<path d="M885.229 1012.52C886.848 1013.91 888.513 1013.97 890.225 1012.69" stroke="black" stroke-width="2" stroke-linecap="round" stroke-linejoin="round"/>
<path d="M887.441 995.595L895.042 1009.72L887.448 1008.11" stroke="black" stroke-width="2" stroke-linecap="round" stroke-linejoin="round"/>
<path fill-rule="evenodd" clip-rule="evenodd" d="M1914.5 767.31C1910.22 769.598 1907.15 773.626 1906.07 778.353C1900.77 801.605 1896.17 817.354 1892.31 825.611C1888.33 834.136 1880.73 844.121 1869.49 855.547L1868.87 856.177C1864.64 860.445 1862.54 866.021 1862.57 871.587C1862.59 877.154 1864.74 882.71 1869.01 886.938C1869.98 887.899 1871.03 888.766 1872.17 889.529C1886.78 899.368 1895.93 906.884 1899.68 912.027C1909.93 926.103 1919.37 940.061 1928.01 953.898L1929.3 955.971C1931.16 958.967 1934.05 960.926 1937.22 961.673C1940.4 962.421 1943.86 961.956 1946.85 960.103C1949.29 958.595 1951.15 956.308 1952.13 953.614C1961.08 928.973 1966.91 914.274 1969.61 909.509C1972.3 904.766 1980.66 894.388 1994.7 878.391L1995.18 877.841C1999.15 873.329 2000.91 867.638 2000.55 862.083C2000.19 856.528 1997.72 851.11 1992.83 846.826C1978.2 834.536 1967.78 824.161 1961.57 815.712C1956.33 808.58 1948.33 794.991 1937.58 774.938L1937.17 774.176C1934.99 770.098 1931.36 767.29 1927.26 766.048C1923.15 764.805 1918.58 765.128 1914.5 767.31Z" fill="#5E69FF" stroke="black" stroke-width="2.5"/>
<path fill-rule="evenodd" clip-rule="evenodd" d="M1918.88 849.815C1921.02 849.632 1922.9 851.161 1923.19 853.261L1923.21 853.46L1923.8 860.435C1923.99 862.636 1922.36 864.572 1920.16 864.76C1918.03 864.942 1916.14 863.413 1915.86 861.314L1915.83 861.115L1915.24 854.14C1915.05 851.939 1916.68 850.002 1918.88 849.815ZM1946.78 847.433C1948.92 847.251 1950.8 848.78 1951.09 850.879L1951.11 851.078L1951.7 858.053C1951.89 860.254 1950.26 862.191 1948.06 862.379C1945.86 862.566 1943.92 860.934 1943.73 858.733L1943.73 858.733L1943.14 851.758C1942.95 849.557 1944.58 847.621 1946.78 847.433Z" fill="#FFFFD9" stroke="black" stroke-width="2.5" stroke-linecap="round" stroke-linejoin="round"/>
<path d="M1910.8 837.457L1910.99 837.441C1922.55 836.454 1932.72 845.023 1933.7 856.579L1934.04 860.51L1965.62 879.949L1938.42 882.27" stroke="black" stroke-width="2.5" stroke-linecap="round" stroke-linejoin="round"/>
<path fill-rule="evenodd" clip-rule="evenodd" d="M2161.98 1569.55L1972.64 1616.81L2103.67 1676.13H2157.67L2154.76 1721.18C2154.41 1726.56 2158.5 1731.21 2163.88 1731.56C2164.51 1731.6 2165.13 1731.58 2165.75 1731.5C2172.93 1730.58 2178.95 1725.63 2181.23 1718.76L2193.37 1682.12C2198.15 1667.72 2199.03 1652.3 2195.92 1637.45L2193.28 1624.89C2192.15 1619.48 2186.85 1616.02 2181.45 1617.15C2181.34 1617.17 2181.23 1617.19 2181.13 1617.22L2134.68 1628.54C2131.9 1629.22 2129.03 1627.81 2127.87 1625.19C2126.74 1622.65 2127.78 1619.67 2130.24 1618.38L2172.64 1596.19C2177.31 1593.75 2179.28 1588.09 2177.14 1583.27L2173.54 1575.19C2171.57 1570.75 2166.69 1568.38 2161.98 1569.55ZM1724.5 1605L1714.27 1688.81L1654.71 1710.15C1649.87 1711.89 1646.74 1716.58 1646.99 1721.72C1647.23 1726.56 1651.22 1730.36 1656.07 1730.36H1763.57C1768.8 1730.36 1773.14 1726.33 1773.54 1721.12L1776.99 1675.58C1777.2 1672.8 1779.52 1670.65 1782.31 1670.65C1785.17 1670.65 1787.62 1672.7 1788.13 1675.52L1796.47 1722.12C1797.32 1726.89 1801.47 1730.36 1806.31 1730.36H1814.87C1820.27 1730.36 1824.7 1726.07 1824.86 1720.67L1827 1650.5L1724.5 1605Z" fill="black"/>
<path fill-rule="evenodd" clip-rule="evenodd" d="M1662.21 1433.59C1661.77 1441.32 1662.52 1449.08 1664.44 1456.59L1715.47 1655.76L1829.87 1657.23L1764.72 1468.17L1875.76 1472.8L1873.78 1653.01C1873.59 1670.56 1880.52 1686.52 1891.89 1698.15C1903.26 1709.77 1919.07 1717.06 1936.61 1717.25L1937.3 1717.25L1937.99 1717.25C1969.3 1716.92 2031.62 1705.85 2124.95 1684.08L2095.12 1576L1977 1604.59L1977 1443.69C1977 1425.35 1969.94 1408.55 1958.3 1396C1946.66 1383.45 1930.45 1375.13 1912.16 1373.75L1847.07 1368.82C1846.47 1368.77 1845.87 1368.73 1845.27 1368.7L1741.68 1362.75C1720.93 1361.56 1701.66 1368.89 1687.28 1381.71C1672.89 1394.53 1663.4 1412.83 1662.21 1433.59Z" fill="#66EC36" stroke="black" stroke-width="2.5"/>
<path d="M1876 1441.75V1473.25" stroke="black" stroke-width="2.5" stroke-linecap="round" stroke-linejoin="round"/>
<path fill-rule="evenodd" clip-rule="evenodd" d="M1908.67 1279.29L1920.42 1267.35C1927.18 1261.34 1954.36 1266 2001.97 1281.33C2048.63 1296.35 2072.3 1304.03 2072.98 1304.36L2072.99 1304.37L2109.19 1172.46L2078.5 1157.59C2071.62 1154.26 2068.6 1146.1 2071.65 1139.09C2074.54 1132.45 2082.26 1129.42 2088.9 1132.31C2089.07 1132.38 2089.24 1132.46 2089.41 1132.54L2128.82 1151.78L2135.44 1138.03L2139.67 1113.53C2140.9 1106.38 2147.68 1101.57 2154.84 1102.77C2162.07 1103.99 2167.06 1110.7 2166.14 1117.98L2164.87 1127.99C2163.4 1139.68 2159.87 1151.02 2154.45 1161.48L2156.78 1162.35L2165.31 1145.55L2168.68 1120.92C2169.66 1113.73 2176.27 1108.69 2183.47 1109.64C2190.74 1110.61 2195.95 1117.14 2195.29 1124.44L2194.38 1134.49C2193.25 1146.93 2189.8 1159.04 2184.21 1170.21L2183.21 1172.2L2184.44 1172.66L2194.68 1154.15L2198.9 1129.65C2200.14 1122.5 2206.92 1117.69 2214.08 1118.9C2221.31 1120.11 2226.29 1126.82 2225.38 1134.1L2224.06 1144.48C2222.53 1156.63 2218.74 1168.37 2212.88 1179.12L2206.69 1190.48L2139.14 1364.4C2133.84 1378.06 2118.9 1385.32 2104.88 1381.05L1924.12 1325.98C1914.34 1323 1906.51 1315.63 1902.94 1306.05C1899.49 1296.78 1901.73 1286.34 1908.67 1279.29Z" fill="white" stroke="black" stroke-width="2.5" stroke-linecap="round" stroke-linejoin="round"/>
<path d="M2072.73 1304.5L2082.41 1307.45" stroke="black" stroke-width="2.5" stroke-linecap="round" stroke-linejoin="round"/>
<path fill-rule="evenodd" clip-rule="evenodd" d="M2194.6 1177.11L2140.86 1155.89L2194.6 1177.11Z" stroke="black" stroke-width="2.5" stroke-linecap="round" stroke-linejoin="round"/>
<path fill-rule="evenodd" clip-rule="evenodd" d="M1899.09 1290.89L1891.34 1276.04C1886.63 1268.31 1859.28 1264.82 1809.27 1265.56C1759.25 1266.3 1734.37 1266.72 1734.61 1266.84L1740.26 1146.74C1740.86 1133.96 1733.01 1122.3 1720.95 1118.03C1703.76 1111.96 1688.52 1108.45 1675.23 1107.5C1658.72 1106.32 1630.79 1100.51 1591.44 1090.06C1584.68 1088.27 1577.74 1092.29 1575.94 1099.06C1575.86 1099.37 1575.79 1099.68 1575.73 1100C1574.33 1107.56 1579.11 1114.89 1586.59 1116.66L1614.48 1123.25C1638.65 1128.96 1655.73 1150.55 1655.73 1175.39L1655.72 1302.81C1655.74 1318.27 1668.26 1330.8 1683.72 1330.84L1870.66 1331.02C1880.88 1331.03 1890.53 1326.28 1896.74 1318.16C1902.75 1310.3 1903.67 1299.66 1899.09 1290.89Z" fill="white" stroke="black" stroke-width="2.5" stroke-linecap="round"/>
<path fill-rule="evenodd" clip-rule="evenodd" d="M1708.5 1114C1708.49 1114 1682.32 1103.87 1629.98 1083.63C1622.83 1081.45 1615.25 1085.47 1613.05 1092.61C1610.85 1099.72 1614.83 1107.27 1621.94 1109.46C1621.96 1109.47 1621.98 1109.47 1622 1109.48L1664.54 1126.8" fill="white"/>
<path d="M1708.5 1114C1708.49 1114 1682.32 1103.87 1629.98 1083.63C1622.83 1081.45 1615.25 1085.47 1613.05 1092.61C1610.85 1099.72 1614.83 1107.27 1621.94 1109.46C1621.96 1109.47 1621.98 1109.47 1622 1109.48L1664.54 1126.8" stroke="black" stroke-width="2.5" stroke-linecap="round" stroke-linejoin="round"/>
<path fill-rule="evenodd" clip-rule="evenodd" d="M1847.73 1299.28C1847.65 1300.54 1847.65 1301.79 1847.74 1303.05L1849.89 1334.2C1850.74 1346.46 1856.26 1357.35 1864.64 1365.17C1873.02 1372.99 1884.26 1377.75 1896.55 1377.75C1908.94 1377.75 1920.31 1373.04 1928.89 1365.25C1937.46 1357.47 1943.23 1346.59 1944.42 1334.26L1947.28 1304.5C1948.04 1296.59 1945.52 1289.13 1940.84 1283.45C1936.16 1277.78 1929.31 1273.89 1921.41 1273.13C1918.98 1272.89 1916.53 1272.97 1914.12 1273.36L1908.5 1274.26L1878.2 1272.37C1870.28 1271.88 1862.91 1274.65 1857.39 1279.52C1851.88 1284.39 1848.22 1291.36 1847.73 1299.28Z" fill="#FF75AA" stroke="black" stroke-width="2.5"/>
<path d="M1627 1111.5C1624.38 1101.71 1619.4 1096.53 1612.06 1095.96" stroke="black" stroke-width="2.5" stroke-linecap="round" stroke-linejoin="round"/>
<path d="M1591.07 1117.51C1588.46 1107.72 1583.48 1102.55 1576.13 1101.98" stroke="black" stroke-width="2.5" stroke-linecap="round" stroke-linejoin="round"/>
<path fill-rule="evenodd" clip-rule="evenodd" d="M1865 1243C1865 1243.26 1865.4 1247.55 1866.21 1255.87C1866.66 1260.48 1870.53 1264 1875.17 1264H1919.67C1924.64 1264 1928.67 1259.97 1928.67 1255C1928.67 1254.45 1928.62 1253.9 1928.52 1253.35L1922.5 1221C1884.17 1235.33 1865 1242.67 1865 1243Z" fill="black"/>
<path fill-rule="evenodd" clip-rule="evenodd" d="M1881.28 1271.15L1881.43 1243.14L1909.95 1236.41L1915.25 1272.52C1910.27 1274.61 1904.04 1275.7 1896.57 1275.8C1889.1 1275.9 1884 1274.35 1881.28 1271.15Z" fill="white" stroke="black" stroke-width="2.5" stroke-linecap="round" stroke-linejoin="round"/>
<path fill-rule="evenodd" clip-rule="evenodd" d="M1881.23 1268.53L1905.22 1245.28L1881.03 1245.33L1881.23 1268.53Z" fill="black"/>
<path d="M1887.85 1201.55C1902.4 1198.46 1916.7 1207.4 1920.39 1221.65C1920.91 1221.54 1921.43 1221.47 1921.97 1221.44C1927.49 1221.15 1932.21 1225.61 1932.51 1231.4C1932.81 1237.19 1928.59 1242.12 1923.07 1242.41C1921.47 1242.49 1919.94 1242.18 1918.57 1241.55C1914.68 1249.94 1906.96 1256.49 1897.12 1258.58C1883.25 1261.53 1873.05 1254.59 1868.13 1242.62C1867.85 1242.66 1867.56 1242.69 1867.27 1242.7C1861.76 1242.99 1857.04 1238.53 1856.74 1232.74C1856.46 1227.53 1859.85 1223.02 1864.55 1221.96C1865.12 1213.77 1869.45 1208.3 1880.3 1204.16C1881.06 1203.87 1881.87 1203.54 1882.75 1203.16C1884.4 1202.46 1886.11 1201.92 1887.85 1201.55Z" fill="white" stroke="black" stroke-width="2.5" stroke-linecap="round" stroke-linejoin="round"/>
<mask id="mask1" mask-type="alpha" maskUnits="userSpaceOnUse" x="1855" y="1199" width="79" height="62">
<path d="M1887.85 1201.55C1902.4 1198.46 1916.7 1207.4 1920.39 1221.65C1920.91 1221.54 1921.43 1221.47 1921.97 1221.44C1927.49 1221.15 1932.21 1225.61 1932.51 1231.4C1932.81 1237.19 1928.59 1242.12 1923.07 1242.41C1921.47 1242.49 1919.94 1242.18 1918.57 1241.55C1914.68 1249.94 1906.96 1256.49 1897.12 1258.58C1883.25 1261.53 1873.05 1254.59 1868.13 1242.62C1867.85 1242.66 1867.56 1242.69 1867.27 1242.7C1861.76 1242.99 1857.04 1238.53 1856.74 1232.74C1856.46 1227.53 1859.85 1223.02 1864.55 1221.96C1865.12 1213.77 1869.45 1208.3 1880.3 1204.16C1881.06 1203.87 1881.87 1203.54 1882.75 1203.16C1884.4 1202.46 1886.11 1201.92 1887.85 1201.55Z" fill="white" stroke="black" stroke-width="2.5" stroke-linecap="round" stroke-linejoin="round"/>
</mask>
<g mask="url(#mask1)">
<path fill-rule="evenodd" clip-rule="evenodd" d="M1927.41 1212.14L1921.25 1221.71C1907.73 1221.34 1898.84 1220.3 1894.57 1218.57C1890.31 1216.84 1887.04 1212.96 1884.78 1206.93C1882.74 1212.58 1880.51 1216.36 1878.08 1218.28C1875.64 1220.2 1871.29 1221.63 1865 1222.55C1861.42 1206.14 1864.43 1196.64 1874.01 1194.05C1888.39 1190.18 1908.79 1183.45 1914.25 1193.34C1917.89 1199.93 1922.28 1206.2 1927.41 1212.14Z" fill="black"/>
</g>
<path fill-rule="evenodd" clip-rule="evenodd" d="M1875.71 1229.99C1877.36 1229.85 1878.82 1231.07 1878.96 1232.72L1879.05 1233.72C1879.19 1235.37 1877.97 1236.82 1876.32 1236.97C1874.67 1237.11 1873.22 1235.89 1873.07 1234.24L1872.98 1233.24C1872.84 1231.59 1874.06 1230.14 1875.71 1229.99ZM1896.72 1229.16C1898.37 1229.02 1899.82 1230.24 1899.97 1231.89L1900.06 1232.88C1900.2 1234.53 1898.98 1235.99 1897.33 1236.13C1895.68 1236.28 1894.22 1235.06 1894.08 1233.41L1893.99 1232.41C1893.85 1230.76 1895.07 1229.3 1896.72 1229.16Z" stroke="black" stroke-width="2" stroke-linecap="round" stroke-linejoin="round"/>
<path d="M1887.89 1242.98C1886.35 1244.46 1884.69 1244.6 1882.91 1243.42" stroke="black" stroke-width="2" stroke-linecap="round" stroke-linejoin="round"/>
<path d="M1884.59 1228.21L1882.56 1239.43L1885.55 1239.17" stroke="black" stroke-width="2" stroke-linecap="round" stroke-linejoin="round"/>
<g clip-path="url(#clip1)">
<path fill-rule="evenodd" clip-rule="evenodd" d="M1788.42 1058.13L1885.56 1036.96C1893.38 1035.25 1901.13 1040.09 1903.04 1047.86C1904.89 1055.37 1900.29 1062.96 1892.78 1064.8C1892.66 1064.83 1892.54 1064.86 1892.42 1064.89L1795.29 1086.06C1787.47 1087.76 1779.71 1082.92 1777.8 1075.15C1775.95 1067.64 1780.55 1060.06 1788.06 1058.21C1788.18 1058.18 1788.3 1058.15 1788.42 1058.13Z" fill="white" stroke="black" stroke-width="1.5" stroke-linecap="round"/>
<path d="M1836.4 1061.17L1847.24 1116.11" stroke="black" stroke-width="2.5" stroke-linecap="round" stroke-linejoin="round"/>
<path d="M2224.14 1024.18L1664.58 905.523L1627.45 1080.63L2187.01 1199.28L2224.14 1024.18Z" fill="#FFFFD9" stroke="black" stroke-width="2.5" stroke-linecap="round" stroke-linejoin="round"/>
<path fill-rule="evenodd" clip-rule="evenodd" d="M1667.3 907.483L2186.25 1197.74L1667.3 907.483ZM2223.93 1025.16L1627.45 1080.63L2223.93 1025.16Z" fill="white"/>
<path d="M2223.93 1025.16L1627.45 1080.63M1667.3 907.483L2186.25 1197.74L1667.3 907.483Z" stroke="black" stroke-width="2.5" stroke-linecap="round" stroke-linejoin="round"/>
</g>
<g clip-path="url(#clip2)">
<path fill-rule="evenodd" clip-rule="evenodd" d="M1209.13 808.716L1305.67 784.992C1313.45 783.083 1321.33 787.712 1323.44 795.431C1325.49 802.89 1321.09 810.595 1313.63 812.639C1313.52 812.672 1313.4 812.703 1313.28 812.732L1216.73 836.456C1208.96 838.366 1201.08 833.737 1198.97 826.018C1196.92 818.558 1201.31 810.853 1208.77 808.809C1208.89 808.777 1209.01 808.746 1209.13 808.716Z" fill="white" stroke="black" stroke-width="1.5" stroke-linecap="round"/>
<path d="M1257.18 810.49L1269.46 865.128" stroke="black" stroke-width="2.5" stroke-linecap="round" stroke-linejoin="round"/>
<path d="M1345.84 708.273L1081.31 659.435L1035.38 908.23L1299.91 957.069L1345.84 708.273Z" fill="#FFFFD9" stroke="black" stroke-width="2.5" stroke-linecap="round" stroke-linejoin="round"/>
<path fill-rule="evenodd" clip-rule="evenodd" d="M1082.51 661.182L1298.7 955.321L1082.51 661.182ZM1344.09 709.476L1035.38 908.23L1344.09 709.476Z" fill="white"/>
<path d="M1344.09 709.476L1035.38 908.23M1082.51 661.182L1298.7 955.321L1082.51 661.182Z" stroke="black" stroke-width="2.5" stroke-linecap="round" stroke-linejoin="round"/>
</g>
<path fill-rule="evenodd" clip-rule="evenodd" d="M1933.98 633.33L2022.32 587.714C2029.43 584.042 2038.17 586.703 2042.03 593.714C2045.76 600.491 2043.29 609.007 2036.51 612.737C2036.4 612.797 2036.29 612.855 2036.18 612.912L1947.85 658.528C1940.74 662.2 1932 659.539 1928.14 652.528C1924.41 645.751 1926.88 637.235 1933.65 633.505C1933.76 633.445 1933.87 633.387 1933.98 633.33Z" fill="white" stroke="black" stroke-width="1.5" stroke-linecap="round"/>
<path d="M1981.12 623.833L2005.82 674.091" stroke="black" stroke-width="2.5" stroke-linecap="round" stroke-linejoin="round"/>
<path d="M2043.45 503.736L1774.83 518.031L1788.28 770.674L2056.9 756.379L2043.45 503.736Z" fill="#FFFFD9" stroke="black" stroke-width="2.5" stroke-linecap="round" stroke-linejoin="round"/>
<path fill-rule="evenodd" clip-rule="evenodd" d="M1776.41 519.449L2055.32 754.961L1776.41 519.449ZM2042.03 505.314L1788.28 770.673L2042.03 505.314Z" fill="white"/>
<path d="M2042.03 505.314L1788.28 770.673M1776.41 519.449L2055.32 754.961L1776.41 519.449Z" stroke="black" stroke-width="2.5" stroke-linecap="round" stroke-linejoin="round"/>
</g>
<defs>
<clipPath id="clip0">
<rect width="2811" height="1999" fill="white"/>
</clipPath>
<clipPath id="clip1">
<path d="M1647.45 861L2256.89 990.234L2205.45 1232.84L1596 1103.61L1647.45 861Z" fill="white"/>
</clipPath>
<clipPath id="clip2">
<path d="M1048.01 636L1388.26 698.818L1333.25 996.783L993 933.964L1048.01 636Z" fill="white"/>
</clipPath>
</defs>
</svg>
