<svg width="2811" height="1999" viewBox="0 0 2811 1999" fill="none" xmlns="http://www.w3.org/2000/svg">
<g clip-path="url(#clip0)">
<rect width="2811" height="1999" fill="white"/>
<path d="M2111 1269H1031V1319H2111V1269Z" fill="#EBF2F9"/>
<path d="M2111 1173H1031V1223H2111V1173Z" fill="#EBF2F9"/>
<path fill-rule="evenodd" clip-rule="evenodd" d="M972 500.5L705 361V1269H972V500.5Z" fill="#DFE9F3"/>
<path fill-rule="evenodd" clip-rule="evenodd" d="M621 964.5L1056 732V1640H621V964.5Z" fill="#E4EDF6"/>
<path d="M839 1154H444V1640H839V1154Z" fill="#EBF2F9"/>
<path fill-rule="evenodd" clip-rule="evenodd" d="M1479.5 1251.5L1274 815H1777V1640H1242L1479.5 1251.5Z" fill="#DFE9F3"/>
<path d="M1414 503H1274V1113H1414V503Z" fill="#E4EDF6"/>
<path fill-rule="evenodd" clip-rule="evenodd" d="M1614 503H1719C1774.23 503 1819 547.772 1819 603V1113H1614V503Z" fill="#E4EDF6"/>
<path fill-rule="evenodd" clip-rule="evenodd" d="M1614 1379H1819V1588H1614V1379Z" fill="#EBF2F9"/>
<path fill-rule="evenodd" clip-rule="evenodd" d="M1192 577H1344V616H1192V577Z" fill="#EBF2F9"/>
<path fill-rule="evenodd" clip-rule="evenodd" d="M621 896V744H660V896H621Z" fill="#EBF2F9"/>
<path fill-rule="evenodd" clip-rule="evenodd" d="M621 714V656H660V714H621Z" fill="#EBF2F9"/>
<path fill-rule="evenodd" clip-rule="evenodd" d="M621 626V568H660V626H621Z" fill="#EBF2F9"/>
<path fill-rule="evenodd" clip-rule="evenodd" d="M1192 645H1344V684H1192V645Z" fill="#EBF2F9"/>
<path fill-rule="evenodd" clip-rule="evenodd" d="M1192 713H1344V752H1192V713Z" fill="#EBF2F9"/>
<path fill-rule="evenodd" clip-rule="evenodd" d="M2087 732H2292V1640H2087V732Z" fill="#DFE9F3"/>
<mask id="mask0" mask-type="alpha" maskUnits="userSpaceOnUse" x="1945" y="658" width="490" height="256">
<path d="M2307 658H2073C2002.31 658 1945 715.308 1945 786C1945 856.692 2002.31 914 2073 914H2307C2377.69 914 2435 856.692 2435 786C2435 715.308 2377.69 658 2307 658Z" fill="white"/>
</mask>
<g mask="url(#mask0)">
<path d="M2307 658H2073C2002.31 658 1945 715.308 1945 786C1945 856.692 2002.31 914 2073 914H2307C2377.69 914 2435 856.692 2435 786C2435 715.308 2377.69 658 2307 658Z" fill="#E4EDF6"/>
<path d="M2310 732H1945V840H2310V732Z" fill="#EBF2F9"/>
</g>
<mask id="mask1" mask-type="alpha" maskUnits="userSpaceOnUse" x="2212" y="1077" width="197" height="192">
<path d="M2313 1077H2308C2254.98 1077 2212 1119.98 2212 1173C2212 1226.02 2254.98 1269 2308 1269H2313C2366.02 1269 2409 1226.02 2409 1173C2409 1119.98 2366.02 1077 2313 1077Z" fill="white"/>
</mask>
<g mask="url(#mask1)">
<path d="M2313 1077H2308C2254.98 1077 2212 1119.98 2212 1173C2212 1226.02 2254.98 1269 2308 1269H2313C2366.02 1269 2409 1226.02 2409 1173C2409 1119.98 2366.02 1077 2313 1077Z" fill="#E4EDF6"/>
<path d="M2358 1133H2212V1214H2358V1133Z" fill="#EBF2F9"/>
</g>
<mask id="mask2" mask-type="alpha" maskUnits="userSpaceOnUse" x="1980" y="1327" width="197" height="192">
<path d="M2081 1327H2076C2022.98 1327 1980 1369.98 1980 1423C1980 1476.02 2022.98 1519 2076 1519H2081C2134.02 1519 2177 1476.02 2177 1423C2177 1369.98 2134.02 1327 2081 1327Z" fill="white"/>
</mask>
<g mask="url(#mask2)">
<path d="M2081 1327H2076C2022.98 1327 1980 1369.98 1980 1423C1980 1476.02 2022.98 1519 2076 1519H2081C2134.02 1519 2177 1476.02 2177 1423C2177 1369.98 2134.02 1327 2081 1327Z" fill="#E4EDF6"/>
<path d="M2119 1383H1973V1464H2119V1383Z" fill="#EBF2F9"/>
</g>
<g clip-path="url(#clip1)">
<path fill-rule="evenodd" clip-rule="evenodd" d="M1899.34 885.159L1899.45 884.711L1932.88 752.65L1933 752.686L1935.28 743.141L1943.94 708.925L1952.98 674.704L1968.68 605.785C1968.72 605.634 1968.75 605.483 1968.78 605.33C1970.17 598.082 1965.42 591.08 1958.17 589.692C1950.68 588.26 1943.4 592.91 1941.53 600.257L1941.45 600.569L1929.02 654.195L1927.63 653.909L1938.72 600.177C1938.74 600.069 1938.76 599.96 1938.78 599.852C1940.17 592.222 1935.11 584.913 1927.48 583.526C1919.72 582.115 1912.24 587.07 1910.49 594.723L1910.43 595.035L1899.48 648.093L1897.98 647.783L1907.83 595.79C1907.86 595.669 1907.88 595.547 1907.9 595.425C1909.14 587.79 1903.95 580.596 1896.32 579.357C1888.52 578.092 1881.13 583.181 1879.51 590.87L1879.44 591.183L1869.14 645.56L1866.47 657.051L1855.11 619.791C1855.11 619.783 1855.11 619.775 1855.11 619.767C1852.63 611.687 1844.07 607.145 1835.99 609.622C1828 612.07 1823.46 620.439 1825.7 628.439L1825.8 628.777L1847.46 699.821L1835.88 826.288L1702.19 798.592C1693.75 796.844 1685.12 799.602 1679.27 805.67L1651.71 808.19L1617.68 805.323C1607.37 804.454 1597.22 808.052 1589.77 815.145C1584.39 819.493 1580.7 825.899 1579.95 833.25L1566.28 966.125L1496.97 1000.2C1496.22 1000.41 1495.49 1000.71 1494.77 1001.08L1488.89 1004.17L1486.9 1005.15L1486.88 1005.23L1418.5 1041.17L1456.91 1105.93C1457.5 1106.93 1458.23 1107.82 1459.05 1108.56L1455.93 1120.12L1593.57 1041.7C1607.05 1034.03 1618.08 1023.26 1626 1010.6L1727.56 1023.01C1721.87 952.696 1718.53 907.976 1717.52 888.856C1717.18 882.213 1716.88 874.395 1716.65 865.403L1865.11 904.9C1865.22 904.929 1865.33 904.957 1865.44 904.985C1880.28 908.741 1895.36 899.883 1899.34 885.159Z" fill="white" stroke="black" stroke-width="2.5" stroke-linecap="round" stroke-linejoin="round"/>
<path d="M1656.12 970.998C1655.98 969.348 1657.2 967.893 1658.85 967.748C1660.5 967.604 1661.96 968.825 1662.1 970.475L1662.19 971.472C1662.33 973.122 1661.11 974.577 1659.46 974.722C1657.81 974.866 1656.35 973.645 1656.21 971.995L1656.12 970.998Z" stroke="black" stroke-width="2.5" stroke-linecap="round" stroke-linejoin="round"/>
<path d="M1697.9 967.432L1702.9 1000.43" stroke="black" stroke-width="2.5" stroke-linecap="round" stroke-linejoin="round"/>
<path d="M1630.25 971.24L1626.11 1005.82" stroke="black" stroke-width="2.5" stroke-linecap="round" stroke-linejoin="round"/>
<path d="M1718.34 894.822L1598.66 904.098" stroke="black" stroke-width="2" stroke-linecap="round" stroke-linejoin="round"/>
<path d="M1668.95 812.293L1684.12 891.608" stroke="black" stroke-width="2" stroke-linecap="round" stroke-linejoin="round"/>
<path d="M1625.59 806.555L1630.04 872.412" stroke="black" stroke-width="2" stroke-linecap="round" stroke-linejoin="round"/>
<path fill-rule="evenodd" clip-rule="evenodd" d="M1648.51 899.983L1629.91 869.915L1612.64 903.365L1648.51 899.983ZM1702.88 896.132L1678.74 865.354L1666.96 898.515L1702.88 896.132Z" fill="black"/>
<path fill-rule="evenodd" clip-rule="evenodd" d="M1627.67 807.912L1633.04 781.535L1662.31 780.54L1660.77 815.571" fill="white"/>
<path d="M1627.67 807.912L1633.04 781.535L1662.31 780.54L1660.77 815.571" stroke="black" stroke-width="2.5" stroke-linecap="round" stroke-linejoin="round"/>
<path fill-rule="evenodd" clip-rule="evenodd" d="M1690.61 848.273C1696.2 845.939 1698.84 839.515 1696.51 833.924C1682.86 801.217 1674.62 782.055 1671.79 776.439C1671.69 775.1 1671.59 774.303 1671.49 774.049C1670.81 772.36 1666.2 770.618 1657.66 768.826L1657.34 774.861C1656.92 774.932 1656.49 775.007 1656.05 775.086L1657.12 778.949L1653.86 839.192C1653.56 844.676 1657.59 849.422 1663.01 850.048L1663.3 850.077C1663.6 850.103 1663.9 850.115 1664.2 850.111C1669.21 850.055 1673.22 845.947 1673.17 840.936C1673.15 839.504 1673.14 838.094 1673.12 836.708L1674.05 840.083C1674.05 840.088 1674.06 840.092 1674.06 840.097C1675.89 846.695 1682.73 850.555 1689.33 848.718C1689.77 848.597 1690.19 848.448 1690.61 848.273Z" fill="black"/>
<path fill-rule="evenodd" clip-rule="evenodd" d="M1655.63 787.911L1627.58 806.05L1633.07 782.495L1655.63 787.911Z" fill="black"/>
<path fill-rule="evenodd" clip-rule="evenodd" d="M1619.11 782.216C1624.62 781.83 1628.76 776.829 1628.36 771.044C1627.95 765.259 1622.88 763.441 1617.65 761.267C1614.95 760.146 1608.72 756.837 1598.96 751.34C1605.14 763.782 1608.29 770.815 1608.41 772.439C1608.81 778.224 1613.6 782.601 1619.11 782.216Z" fill="white" stroke="black" stroke-width="2.5" stroke-linecap="round" stroke-linejoin="round"/>
<path d="M1629.64 732.265L1629.16 732.558C1614.11 741.95 1614.4 755.567 1618.13 771.729C1621.86 787.89 1633.32 798.089 1649.71 794.304C1659.81 791.973 1666.34 785.154 1669.76 776.354C1671.41 777.329 1673.33 777.829 1675.35 777.688C1680.86 777.303 1685 772.301 1684.6 766.516C1684.46 764.597 1685.71 756.601 1688.33 742.526C1681.71 747.915 1676.47 752.52 1672.63 756.342C1672.46 740.939 1660 728.421 1644.52 728.25C1639.28 728.192 1634.13 729.583 1629.64 732.265Z" fill="white" stroke="black" stroke-width="2.5" stroke-linecap="round" stroke-linejoin="round"/>
<mask id="mask3" mask-type="alpha" maskUnits="userSpaceOnUse" x="1614" y="726" width="76" height="71">
<path d="M1629.64 732.265L1629.16 732.558C1614.11 741.95 1614.4 755.567 1618.13 771.729C1621.86 787.89 1633.32 798.089 1649.71 794.304C1659.81 791.973 1666.34 785.154 1669.76 776.354C1671.41 777.329 1673.33 777.829 1675.35 777.688C1680.86 777.303 1685 772.301 1684.6 766.516C1684.46 764.597 1685.71 756.601 1688.33 742.526C1681.71 747.915 1676.47 752.52 1672.63 756.342C1672.46 740.939 1660 728.421 1644.52 728.25C1639.28 728.192 1634.13 729.583 1629.64 732.265Z" fill="white" stroke="black" stroke-width="2.5" stroke-linecap="round" stroke-linejoin="round"/>
</mask>
<g mask="url(#mask3)">
<path fill-rule="evenodd" clip-rule="evenodd" d="M1672.54 753.804L1638.92 747.39L1615.55 754.799C1611.57 741.516 1614.32 733.416 1623.81 730.498C1638.05 726.121 1658.2 718.686 1664 728.377C1667.87 734.838 1670.71 743.313 1672.54 753.804Z" fill="black"/>
</g>
<path d="M1646.12 768.197C1645.95 766.549 1647.14 765.073 1648.79 764.9C1650.44 764.727 1651.91 765.922 1652.09 767.57L1652.19 768.565C1652.37 770.212 1651.17 771.688 1649.52 771.862C1647.87 772.035 1646.4 770.839 1646.22 769.192L1646.12 768.197Z" stroke="black" stroke-width="2" stroke-linecap="round" stroke-linejoin="round"/>
<path d="M1625.13 769.398C1624.96 767.75 1626.15 766.274 1627.8 766.101C1629.45 765.928 1630.92 767.123 1631.1 768.771L1631.2 769.765C1631.38 771.413 1630.18 772.889 1628.53 773.062C1626.88 773.236 1625.41 772.04 1625.24 770.392L1625.13 769.398Z" stroke="black" stroke-width="2" stroke-linecap="round" stroke-linejoin="round"/>
<path d="M1640.2 778.874C1638.69 780.374 1637.03 780.548 1635.23 779.397" stroke="black" stroke-width="2" stroke-linecap="round" stroke-linejoin="round"/>
<path d="M1636.65 764.165L1631.42 776.025L1637.8 775.105" stroke="black" stroke-width="2" stroke-linecap="round" stroke-linejoin="round"/>
<path d="M1879.5 643.686L1938.5 656.686" stroke="black" stroke-width="2.5" stroke-linecap="round" stroke-linejoin="round"/>
<path d="M1357.7 903.91L1400.24 986.493L1383.74 987.87C1380.16 988.168 1377.5 991.31 1377.8 994.888C1378.1 998.465 1381.24 1001.12 1384.82 1000.83L1405.75 999.08C1406.06 999.054 1406.36 999.007 1406.65 998.941L1459.16 1100.88C1467.11 1116.32 1478.71 1129.58 1492.96 1139.5L1493.72 1140.03L1504.92 1147.68C1507.88 1149.71 1511.93 1148.95 1513.95 1145.99C1515.94 1143.09 1515.25 1139.15 1512.45 1137.09L1512.26 1136.95L1501.06 1129.3C1488.25 1120.54 1477.82 1108.73 1470.71 1094.93L1418.4 993.362C1419.42 992.936 1420.35 992.242 1421.07 991.295L1433.78 974.571C1435.95 971.713 1435.4 967.635 1432.54 965.463C1429.68 963.291 1425.6 963.847 1423.43 966.705L1412.25 981.418L1369.26 897.958C1367.62 894.766 1363.7 893.512 1360.5 895.155C1357.31 896.799 1356.06 900.719 1357.7 903.91Z" fill="black"/>
<path fill-rule="evenodd" clip-rule="evenodd" d="M1292.54 877.61C1291.92 873.34 1292.59 869.089 1294.34 865.334C1296.08 861.579 1298.89 858.321 1302.55 856.037L1319.79 845.284L1331.72 828.839C1334.25 825.346 1337.7 822.768 1341.57 821.291C1345.43 819.814 1349.72 819.44 1353.94 820.355L1372.68 824.423L1391.09 820.864C1395.59 819.994 1400.12 820.581 1404.11 822.369C1408.1 824.157 1411.56 827.146 1413.9 831.082L1422.91 846.198L1437.36 856.24C1441.12 858.855 1443.87 862.509 1445.37 866.616C1446.88 870.723 1447.15 875.283 1445.96 879.71L1441.13 897.821L1443.88 916.805C1444.5 921.075 1443.83 925.327 1442.08 929.081C1440.34 932.836 1437.53 936.094 1433.87 938.378L1416.63 949.131L1404.7 965.576C1402.17 969.069 1398.72 971.648 1394.85 973.124C1390.99 974.601 1386.7 974.976 1382.48 974.06L1363.74 969.992L1345.33 973.551C1340.83 974.421 1336.3 973.835 1332.31 972.047C1328.32 970.258 1324.86 967.269 1322.52 963.333L1313.51 948.217L1299.06 938.175C1295.3 935.56 1292.55 931.906 1291.05 927.799C1289.54 923.692 1289.28 919.132 1290.46 914.705L1295.29 896.594L1292.54 877.61Z" fill="#FF75AA" stroke="black" stroke-width="2.5"/>
<path fill-rule="evenodd" clip-rule="evenodd" d="M1354.13 879.912C1358.31 876.015 1364.32 873.555 1369.74 873.748C1375.46 873.953 1380.55 877.081 1384.85 881.692C1388.87 886.004 1391.28 891.664 1391.38 897.023C1391.49 902.822 1388.95 908.293 1384.48 912.457C1381.28 915.439 1376.28 918.172 1372.19 918.757C1365.28 919.746 1359.02 916.309 1353.77 910.677C1349.79 906.418 1345.94 901.309 1345.8 895.994C1345.64 890.11 1349.62 884.124 1354.13 879.912Z" fill="#FFE13D" stroke="black" stroke-width="2.5"/>
<path fill-rule="evenodd" clip-rule="evenodd" d="M1383.9 914.029L1403.67 935.238L1383.9 914.029ZM1332.41 858.812L1352.18 880.021L1332.41 858.812ZM1352.51 911.164L1333.5 928.896L1352.51 911.164ZM1404.44 862.742L1385.42 880.474L1404.44 862.742ZM1344.84 897.807L1332.7 900.921L1344.84 897.807ZM1368.46 920.565L1368.67 934.723L1368.46 920.565ZM1372.61 862.338L1370.12 872.864L1372.61 862.338ZM1404.75 894.239L1391.96 895.914L1404.75 894.239Z" fill="white"/>
<path d="M1404.75 894.239L1391.96 895.914M1383.9 914.029L1403.67 935.238L1383.9 914.029ZM1332.41 858.812L1352.18 880.021L1332.41 858.812ZM1352.51 911.164L1333.5 928.896L1352.51 911.164ZM1404.44 862.742L1385.42 880.474L1404.44 862.742ZM1344.84 897.807L1332.7 900.921L1344.84 897.807ZM1368.46 920.565L1368.67 934.723L1368.46 920.565ZM1372.61 862.338L1370.12 872.864L1372.61 862.338Z" stroke="black" stroke-width="2.5" stroke-linecap="round" stroke-linejoin="round"/>
<path fill-rule="evenodd" clip-rule="evenodd" d="M1457.66 1050.28L1421.85 1072.86C1414.87 1077.26 1412.71 1086.44 1416.99 1093.5C1421.19 1100.4 1430.18 1102.6 1437.08 1098.4C1437.15 1098.36 1437.22 1098.32 1437.29 1098.28L1473.09 1075.7C1480.07 1071.3 1482.24 1062.11 1477.95 1055.06C1473.76 1048.16 1464.77 1045.96 1457.87 1050.15C1457.8 1050.2 1457.73 1050.24 1457.66 1050.28Z" fill="white" stroke="black" stroke-width="2.5" stroke-linecap="round" stroke-linejoin="round"/>
<path fill-rule="evenodd" clip-rule="evenodd" d="M1474.32 1076.44L1440.2 1096.24C1433.56 1100.1 1431.31 1108.6 1435.16 1115.24C1435.23 1115.36 1435.3 1115.47 1435.37 1115.59C1439.57 1122.36 1448.4 1124.57 1455.29 1120.57L1489.4 1100.76C1496.04 1096.91 1498.3 1088.4 1494.45 1081.76C1494.38 1081.65 1494.31 1081.53 1494.24 1081.41C1490.04 1074.64 1481.21 1072.44 1474.32 1076.44Z" fill="white" stroke="black" stroke-width="2.5" stroke-linecap="round" stroke-linejoin="round"/>
<path fill-rule="evenodd" clip-rule="evenodd" d="M1448.62 1023.08L1409.61 1045.6C1402.33 1049.8 1399.48 1058.89 1403.06 1066.5C1406.27 1073.33 1414.42 1076.27 1421.26 1073.06C1421.6 1072.89 1421.94 1072.71 1422.27 1072.52L1461.28 1050.01C1468.56 1045.8 1471.41 1036.72 1467.83 1029.11C1464.62 1022.27 1456.47 1019.34 1449.64 1022.55C1449.29 1022.71 1448.95 1022.89 1448.62 1023.08Z" fill="white" stroke="black" stroke-width="2.5" stroke-linecap="round" stroke-linejoin="round"/>
<path fill-rule="evenodd" clip-rule="evenodd" d="M1484.97 1016.76L1461.11 1002.84C1454.11 998.759 1445.12 1001.13 1441.03 1008.13C1441.02 1008.15 1441.01 1008.17 1441 1008.19C1436.92 1015.25 1439.32 1024.29 1446.37 1028.39L1470.23 1042.31C1477.23 1046.39 1486.22 1044.03 1490.31 1037.02C1490.32 1037 1490.33 1036.98 1490.34 1036.96C1494.42 1029.9 1492.02 1020.87 1484.97 1016.76Z" fill="white" stroke="black" stroke-width="2.5" stroke-linecap="round" stroke-linejoin="round"/>
<path d="M1607 997.186L1595 860.686" stroke="black" stroke-width="2.5" stroke-linecap="round" stroke-linejoin="round"/>
<path fill-rule="evenodd" clip-rule="evenodd" d="M1760.58 811.148C1762.33 818.136 1764.26 823.235 1766.39 826.445C1773.52 837.2 1773.65 844.976 1768.81 850.406C1765.67 853.928 1767.33 863.303 1773.79 878.53C1773.92 878.852 1774.15 879.124 1774.45 879.31C1775.21 879.784 1776.19 879.595 1776.72 878.899L1776.81 878.771L1776.85 878.706C1777.94 877.164 1786.91 869.538 1787.27 859.198C1787.64 848.705 1778.92 848.72 1779.16 841.724C1779.41 834.729 1772.57 818.41 1771.19 814.859C1771.06 814.515 1770.91 814.012 1770.74 813.349L1770.67 813.093L1760.58 811.148ZM1733.5 804.556C1732.69 807.38 1732.53 812.42 1733.03 819.675C1733.36 824.437 1736.79 831.027 1743.32 839.447C1750.89 849.21 1752.92 862.164 1748.73 873.76L1748.55 874.249L1748.49 874.403L1760.92 877.088C1762.22 870.667 1762.8 863.472 1762.66 855.504C1762.45 843.552 1746.63 825.177 1744.49 817.084C1743.09 811.815 1743.3 808.579 1745.11 807.377L1745.25 807.295L1733.5 804.556ZM1724.15 827.451C1722 831.703 1721.36 836.923 1722.21 843.11C1723.61 853.249 1726.88 851.819 1729.32 859.095C1730.06 861.305 1729.79 864.57 1728.5 868.89L1738.29 871.549L1737.27 864.624C1736.6 860.07 1734.73 855.775 1731.86 852.178C1729.1 848.728 1727.42 845.558 1726.8 842.666C1725.97 838.761 1726.05 833.814 1727.05 827.825C1727.16 827.178 1726.72 826.565 1726.07 826.458C1726.05 826.455 1726.04 826.453 1726.02 826.45C1725.25 826.356 1724.5 826.756 1724.15 827.451ZM1777.59 854.757C1778.89 854.731 1780.54 857.496 1780.48 860.809C1780.42 864.122 1778.6 866.738 1777.38 866.756C1776.17 866.773 1774.44 864.018 1774.5 860.704C1774.55 857.391 1776.3 854.784 1777.59 854.757Z" fill="black"/>
</g>
<g clip-path="url(#clip2)">
<path fill-rule="evenodd" clip-rule="evenodd" d="M2054.53 1085.51C2089.07 1037.92 2126.08 1033.3 2165.56 1071.66C2224.79 1129.2 2196.57 1345.76 2198.05 1377.93C2199 1398.55 2206.09 1440.41 2219.32 1503.54C2220.42 1508.77 2221.09 1514.07 2221.34 1519.41L2227.39 1649.74L2128.52 1526.1C2067.85 1491.48 2040.26 1456.87 2045.74 1422.25C2053.97 1370.32 2137.03 1165.49 2071.97 1119.2C2028.6 1088.33 2022.79 1077.1 2054.53 1085.51Z" fill="white" stroke="black" stroke-width="2.5" stroke-linecap="round" stroke-linejoin="round"/>
<mask id="mask4" mask-type="alpha" maskUnits="userSpaceOnUse" x="1788" y="1218" width="207" height="517">
<path d="M1994.83 1220.54C1952.56 1217.55 1921.52 1217.51 1901.71 1220.43C1881.91 1223.34 1865.06 1223.27 1851.17 1220.23L1811.32 1419.2C1807.62 1437.66 1809.21 1456.79 1815.9 1474.39L1837.86 1532.11C1846.5 1554.82 1846.57 1579.9 1838.07 1602.66L1832.8 1616.76L1832.72 1616.75L1832.36 1617.94L1832.27 1618.18L1832.28 1618.18L1823.7 1646.4C1821.72 1652.9 1825.1 1659.81 1831.39 1662.28L1831.69 1662.39C1839.15 1665.11 1842.64 1667.41 1842.15 1669.3C1839.5 1679.59 1812.65 1676.85 1802.98 1688.49C1797.02 1695.67 1792.02 1710.84 1788 1734L1875.5 1734L1898.93 1633.45L1911.96 1588.07C1916.02 1573.95 1916.91 1559.12 1914.59 1544.63L1914.44 1543.72L1898.74 1451.34L1994.83 1220.54Z" fill="white"/>
</mask>
<g mask="url(#mask4)">
<path fill-rule="evenodd" clip-rule="evenodd" d="M1789.49 1732.75C1793.41 1710.74 1798.18 1696.22 1803.94 1689.29C1808.58 1683.71 1817.33 1681.64 1825.24 1679.67C1830.14 1678.45 1834.75 1677.28 1838.05 1675.52C1840.83 1674.05 1842.71 1672.15 1843.36 1669.61C1843.57 1668.82 1843.43 1667.97 1842.77 1667.06C1842.32 1666.44 1841.59 1665.77 1840.53 1665.09C1838.7 1663.89 1835.82 1662.57 1831.85 1661.12C1829 1660 1826.81 1657.88 1825.56 1655.3C1824.32 1652.72 1824.01 1649.7 1824.9 1646.76L1833.54 1618.35L1833.97 1617.2L1839.24 1603.1L1839.52 1602.34C1847.84 1579.49 1847.68 1554.41 1839.03 1531.67L1817.07 1473.94L1816.76 1473.11C1810.42 1455.97 1808.95 1437.38 1812.55 1419.44L1852.15 1221.71L1852.15 1221.71C1865.92 1224.52 1882.5 1224.51 1901.9 1221.66C1921.37 1218.8 1951.74 1218.81 1993.01 1221.66L1897.45 1451.19L1913.2 1543.93L1913.35 1544.83C1915.65 1559.14 1914.77 1573.78 1910.76 1587.72L1897.72 1633.14L1874.51 1732.75L1789.49 1732.75Z" fill="#66EC36" stroke="black" stroke-width="2.5"/>
<path fill-rule="evenodd" clip-rule="evenodd" d="M1891.53 1670.45L1813.24 1669.8L1796.84 1670.08L1785.7 1736.29L1884.07 1734.57L1891.53 1670.45Z" fill="black"/>
</g>
<path d="M1898.02 1451.73C1885.7 1478.6 1879.04 1492.85 1878.04 1494.47C1861.46 1521.49 1845.51 1525.82 1830.18 1507.47" stroke="black" stroke-width="2" stroke-linecap="round" stroke-linejoin="round"/>
<mask id="mask5" mask-type="alpha" maskUnits="userSpaceOnUse" x="1482" y="1062" width="272" height="463">
<path d="M1621.17 1062.23L1491.85 1249.77C1477.15 1271.09 1480.76 1300.04 1500.25 1317.1C1514.01 1329.13 1529.3 1342.86 1546.13 1358.26C1575.54 1385.18 1603.89 1410.82 1631.2 1435.16L1649.89 1452.54C1654.94 1457.24 1662.8 1457.17 1667.77 1452.37C1673.48 1446.86 1677.08 1444.73 1678.56 1446C1686.65 1452.89 1672.41 1475.83 1678.63 1489.61C1682.48 1498.13 1694.57 1509.65 1714.92 1524.19L1751.9 1444.89L1671.3 1379.31L1579.01 1294.53L1753.42 1113.83L1621.17 1062.23Z" fill="white"/>
</mask>
<g mask="url(#mask5)">
<path fill-rule="evenodd" clip-rule="evenodd" d="M1714.43 1522.3C1695.09 1508.37 1683.49 1497.33 1679.77 1489.1C1676.79 1482.49 1678.77 1473.71 1680.46 1465.74C1681.51 1460.81 1682.49 1456.15 1682.36 1452.41C1682.25 1449.27 1681.37 1446.74 1679.37 1445.05C1678.75 1444.52 1677.93 1444.27 1676.84 1444.45C1676.09 1444.58 1675.18 1444.94 1674.11 1445.57C1672.26 1446.66 1669.85 1448.63 1666.9 1451.47C1664.65 1453.64 1661.76 1454.74 1658.85 1454.77C1655.94 1454.79 1653.02 1453.75 1650.74 1451.62L1632.04 1434.24C1604.74 1409.89 1576.38 1384.26 1546.97 1357.34C1530.14 1341.93 1514.84 1328.2 1501.08 1316.16C1491.57 1307.84 1485.94 1296.62 1484.47 1284.88C1483.01 1273.14 1485.71 1260.87 1492.88 1250.48L1621.64 1063.75L1751.22 1114.31L1577.22 1294.58L1670.49 1380.25L1750.36 1445.24L1714.43 1522.3Z" fill="#66EC36" stroke="black" stroke-width="2.5"/>
<path fill-rule="evenodd" clip-rule="evenodd" d="M1753.22 1440.83L1727.65 1536.16L1662 1486L1708 1398.5L1753.22 1440.83Z" fill="black"/>
</g>
<path d="M1825.22 1034.66C1725.38 1035.97 1609.43 980.283 1602.84 1021.86C1598.98 1046.23 1581.25 1099.08 1579.19 1148.52L1420.73 1221.58C1420.4 1221.73 1420.08 1221.88 1419.77 1222.03C1390.72 1236.06 1378.38 1270.78 1391.89 1299.94L1392.3 1300.82L1458.94 1438.77L1468.38 1463.25C1470.82 1469.59 1477.73 1472.96 1484.21 1471.03L1484.52 1470.94C1492.07 1468.48 1496.24 1468.15 1497.02 1469.94C1501.27 1479.68 1478.41 1494.05 1477.96 1509.17C1477.69 1518.41 1483.38 1533.83 1495.04 1555.44L1495.42 1556.16L1563.42 1501.09L1517.32 1401.63L1517.5 1401.5L1464.23 1290.41L1637.46 1245.65C1690.65 1252.01 1790.15 1238.97 1792.99 1238.18C1846.87 1223.16 1879.59 1226.5 1901.05 1234.77L1900.8 1234.81L1948.8 1429.77C1949.42 1432.28 1950.14 1434.78 1950.95 1437.24L1951.37 1438.47L1985.29 1536.78C1991.15 1553.78 1992.32 1572.04 1988.68 1589.64L1988.5 1590.5L1980.19 1628.99L1975.07 1645.84C1973.09 1652.35 1976.46 1659.26 1982.76 1661.72L1983.05 1661.84C1990.51 1664.55 1994 1666.86 1993.52 1668.74C1990.87 1679.04 1964.01 1676.29 1954.34 1687.93C1948.38 1695.12 1943.26 1710.31 1939 1733.5L2026.5 1733.5L2047.92 1642.84L2048.02 1642.86L2063.02 1581.12C2066.63 1566.24 2066.78 1550.74 2063.46 1535.81L2063.26 1534.93L2034.98 1412.89L2077.81 1206.38L2077.14 1206.49L2077.26 1205.75C2090.39 1122.84 2067.79 1084.74 2012.16 1054.6L2010.46 1053.69C1961.67 1027.71 1925.06 1033.34 1825.22 1034.66Z" fill="#66EC36"/>
<path fill-rule="evenodd" clip-rule="evenodd" d="M1940.5 1732.25C1944.65 1710.2 1949.54 1695.67 1955.31 1688.73C1959.94 1683.15 1968.69 1681.08 1976.6 1679.11C1981.5 1677.89 1986.11 1676.73 1989.42 1674.97C1992.19 1673.49 1994.07 1671.59 1994.73 1669.06C1994.93 1668.27 1994.79 1667.41 1994.14 1666.51C1993.68 1665.89 1992.95 1665.22 1991.89 1664.53C1990.06 1663.33 1987.18 1662.01 1983.21 1660.56C1980.36 1659.44 1978.18 1657.32 1976.93 1654.74C1975.68 1652.17 1975.37 1649.14 1976.26 1646.2L1981.4 1629.3L1989.72 1590.76L1989.91 1589.89C1993.59 1572.07 1992.4 1553.58 1986.47 1536.37L1952.55 1438.06L1952.14 1436.84C1951.34 1434.42 1950.63 1431.95 1950.02 1429.47L1902.11 1233.84C1880.51 1225.34 1847.45 1221.7 1792.65 1236.97C1789.82 1237.76 1690.34 1250.79 1637.38 1244.38L1462.45 1289.58L1516.19 1402.16L1561.88 1500.73L1495.81 1554.24C1484.53 1533.24 1478.94 1518.24 1479.21 1509.21C1479.43 1501.96 1485.05 1494.94 1490.07 1488.52C1493.18 1484.54 1496.1 1480.79 1497.62 1477.37C1498.9 1474.49 1499.21 1471.84 1498.16 1469.44C1497.84 1468.69 1497.2 1468.1 1496.13 1467.79C1495.39 1467.58 1494.4 1467.51 1493.15 1467.62C1490.97 1467.8 1487.88 1468.53 1483.86 1469.83C1480.92 1470.71 1477.89 1470.38 1475.32 1469.12C1472.76 1467.85 1470.65 1465.66 1469.54 1462.8L1460.09 1438.28L1393.43 1300.28L1393.02 1299.4C1386.4 1285.13 1386.12 1269.48 1391.06 1255.7C1395.98 1241.93 1406.11 1230.02 1420.31 1223.16C1420.62 1223.01 1420.94 1222.86 1421.25 1222.71L1580.41 1149.33C1581.71 1115.36 1590.53 1079.69 1597.18 1052.74C1600.25 1040.34 1602.85 1029.77 1604.07 1022.06C1604.81 1017.4 1607.03 1014.05 1610.54 1011.79C1614.47 1009.25 1619.96 1008.03 1626.7 1007.74C1644.26 1006.97 1670.17 1012.48 1699.99 1018.81C1738.39 1026.96 1783.23 1036.46 1825.24 1035.91C1840.39 1035.71 1854.09 1035.41 1866.59 1035.14C1936.17 1033.62 1968.66 1032.85 2009.88 1054.79L2011.57 1055.7C2040.03 1071.12 2059.8 1088.62 2070.43 1113.29C2080.39 1136.42 2082.32 1165.8 2076.02 1205.55L2075.63 1208L2076.21 1207.9L2033.7 1412.91L2062.04 1535.21L2062.24 1536.08C2065.52 1550.83 2065.37 1566.13 2061.8 1580.82L2046.71 1642.55L2025.51 1732.25L1940.5 1732.25Z" stroke="black" stroke-width="2.5"/>
<mask id="mask6" mask-type="alpha" maskUnits="userSpaceOnUse" x="1386" y="1006" width="695" height="728">
<path d="M1580.44 1148.57L1580.41 1149.33L1579.71 1149.65L1421.25 1222.71C1421.04 1222.81 1420.83 1222.91 1420.63 1223C1420.52 1223.05 1420.42 1223.11 1420.31 1223.16C1391.88 1236.89 1379.8 1270.86 1393.02 1299.41C1393.02 1299.41 1393.02 1299.41 1393.02 1299.41L1393.43 1300.28L1393.43 1300.29L1460.07 1438.23L1460.09 1438.28L1460.11 1438.32L1469.54 1462.8C1471.75 1468.53 1477.99 1471.58 1483.85 1469.84C1483.85 1469.83 1483.85 1469.83 1483.86 1469.83L1484.14 1469.75C1484.14 1469.75 1484.14 1469.74 1484.14 1469.74C1487.94 1468.51 1490.98 1467.78 1493.21 1467.6C1494.32 1467.51 1495.32 1467.55 1496.15 1467.8C1497 1468.05 1497.78 1468.55 1498.16 1469.44C1499.46 1472.4 1498.61 1475.57 1497 1478.63C1495.39 1481.71 1492.84 1484.98 1490.24 1488.31L1490.09 1488.49C1487.51 1491.8 1484.86 1495.19 1482.8 1498.67C1480.71 1502.21 1479.32 1505.73 1479.21 1509.21C1479.08 1513.59 1480.37 1519.57 1483.2 1527.23C1485.96 1534.72 1490.16 1543.72 1495.81 1554.24L1561.88 1500.73L1516.19 1402.15L1515.75 1401.21L1515.92 1401.09L1463.11 1290.96L1462.45 1289.58L1463.92 1289.2L1637.15 1244.44L1637.38 1244.38L1637.61 1244.41C1664.07 1247.57 1702.13 1245.91 1734.01 1243.35C1749.93 1242.07 1764.28 1240.56 1774.82 1239.33C1780.1 1238.71 1784.42 1238.17 1787.5 1237.75C1789.05 1237.54 1790.28 1237.36 1791.17 1237.22C1791.61 1237.16 1791.96 1237.1 1792.23 1237.05C1792.36 1237.03 1792.46 1237.01 1792.54 1237C1792.61 1236.98 1792.64 1236.97 1792.65 1236.97L1792.65 1236.97C1846.71 1221.91 1879.72 1225.21 1901.5 1233.6L1905.8 1235.26L1902.34 1235.82L1950.02 1429.47C1950.63 1431.95 1951.34 1434.42 1952.14 1436.85C1952.14 1436.85 1952.14 1436.85 1952.14 1436.85L1952.55 1438.06L1952.55 1438.07L1986.47 1536.37C1992.4 1553.58 1993.59 1572.07 1989.91 1589.89L1989.91 1589.89L1989.72 1590.76L1989.72 1590.76L1981.41 1629.25L1981.4 1629.3L1981.39 1629.35L1976.26 1646.2C1974.47 1652.08 1977.52 1658.32 1983.2 1660.56C1983.21 1660.56 1983.21 1660.56 1983.21 1660.56L1983.48 1660.66C1983.48 1660.66 1983.49 1660.66 1983.49 1660.67C1987.24 1662.03 1990.09 1663.33 1991.95 1664.56C1992.88 1665.17 1993.65 1665.82 1994.15 1666.52C1994.67 1667.24 1994.97 1668.12 1994.73 1669.06C1993.92 1672.19 1991.3 1674.17 1988.15 1675.59C1984.99 1677.01 1980.96 1678.03 1976.86 1679.05L1976.64 1679.1C1972.56 1680.12 1968.38 1681.16 1964.63 1682.63C1960.8 1684.14 1957.53 1686.05 1955.31 1688.73C1952.47 1692.15 1949.76 1697.57 1947.22 1705.11C1944.8 1712.31 1942.56 1721.35 1940.5 1732.25L2025.51 1732.25L2046.7 1642.56L2046.96 1641.47L2047.06 1641.48L2061.8 1580.82C2065.37 1566.13 2065.52 1550.83 2062.24 1536.08C2062.24 1536.08 2062.24 1536.08 2062.24 1536.08L2062.04 1535.21L2062.04 1535.21L2033.76 1413.17L2033.7 1412.91L2033.75 1412.64L2076.21 1207.9L2075.63 1208L2075.9 1206.29L2076.02 1205.55C2076.02 1205.55 2076.02 1205.55 2076.02 1205.55C2082.57 1164.22 2080.18 1134.25 2069.36 1110.91C2058.56 1087.59 2039.26 1070.7 2011.57 1055.7C2011.57 1055.7 2011.57 1055.7 2011.57 1055.7L2009.88 1054.79C2009.88 1054.79 2009.88 1054.79 2009.87 1054.79C1968.79 1032.92 1936.54 1033.62 1866.64 1035.14C1854.13 1035.41 1840.42 1035.71 1825.24 1035.91C1783.17 1036.46 1738.26 1026.93 1699.96 1018.8C1692.65 1017.25 1685.57 1015.75 1678.81 1014.38C1657.64 1010.1 1639.56 1007.11 1626.38 1007.75C1619.8 1008.07 1614.58 1009.29 1610.85 1011.59C1607.17 1013.85 1604.84 1017.21 1604.07 1022.06C1602.85 1029.8 1600.23 1040.42 1597.16 1052.83C1595.38 1060.04 1593.45 1067.86 1591.56 1076.07C1586.39 1098.49 1581.46 1123.97 1580.44 1148.57Z" fill="#66EC36" stroke="black" stroke-width="2.5"/>
</mask>
<g mask="url(#mask6)">
<path fill-rule="evenodd" clip-rule="evenodd" d="M2054 1672L1962.5 1671L1927.5 1737L2027.5 1735.5L2054 1672ZM1546.5 1437.5L1483.5 1482L1463 1515.5L1493 1566L1570 1506.5L1546.5 1437.5Z" fill="black"/>
</g>
<path d="M1902.03 1233.92L1894.26 1187.07" stroke="black" stroke-width="2.5" stroke-linecap="round" stroke-linejoin="round"/>
<path fill-rule="evenodd" clip-rule="evenodd" d="M1605.9 984.477L1720.05 1021.59L1763.3 1050.45C1763.47 1050.57 1763.58 1050.74 1763.62 1050.93C1763.65 1051.12 1763.62 1051.32 1762.63 1051.78L1688.15 1025.35L1691.66 1052.25C1691.72 1052.73 1691.58 1053.19 1691.31 1053.54C1691.04 1053.9 1690.63 1054.15 1690.15 1054.21C1689.72 1054.27 1689.28 1054.16 1688.93 1053.91L1634.32 1016.12L1637.55 1048.6C1626.24 1046.51 1616.7 1040.21 1610.31 1031.58C1603.61 1022.56 1600.36 1010.98 1602.14 998.979C1602.42 997.083 1602.83 995.208 1603.36 993.364L1605.9 984.477Z" fill="#66EC36" stroke="black" stroke-width="2.5"/>
<path d="M2128.52 1526.1C2111.48 1478.12 2107.14 1427.75 2115.49 1375C2123.85 1322.25 2149.02 1241.07 2191.02 1131.46" stroke="black" stroke-width="2" stroke-linecap="round" stroke-linejoin="round"/>
<path d="M2191.02 1131.46C2168.67 1076.55 2123.83 1061.34 2056.51 1085.82" stroke="black" stroke-width="2" stroke-linecap="round" stroke-linejoin="round"/>
<path d="M2197.79 1376.37C2166.67 1472.73 2161.04 1544.5 2180.9 1591.68" stroke="black" stroke-width="2" stroke-linecap="round" stroke-linejoin="round"/>
<path d="M2034.25 1412.5C2031.95 1434.09 2030.1 1449.35 2028.69 1458.29C2028.31 1460.75 2031.46 1460.9 2038.14 1458.73C2029.95 1469.24 2025.68 1475.38 2025.32 1477.13C2015.51 1525.1 2001.34 1541.03 1982.8 1524.93" stroke="black" stroke-width="2" stroke-linecap="round" stroke-linejoin="round"/>
</g>
<g clip-path="url(#clip3)">
<path fill-rule="evenodd" clip-rule="evenodd" d="M1029.27 1056.34L924.967 973.804L891.147 1016.54L995.445 1099.08C995.599 1099.2 995.794 1099.26 995.988 1099.24C996.194 1099.21 996.372 1099.11 996.493 1098.96C996.614 1098.81 996.678 1098.62 996.657 1098.41L992.907 1062.32L1028.9 1057.67C1029.09 1057.65 1029.27 1057.55 1029.39 1057.39C1029.52 1057.23 1029.57 1057.03 1029.54 1056.84C1029.52 1056.65 1029.43 1056.47 1029.27 1056.34Z" fill="#66EC36" stroke="black" stroke-width="2.5"/>
<path d="M762.424 1179.61L923.767 975.723" stroke="black" stroke-width="2.5" stroke-linecap="round" stroke-linejoin="round"/>
</g>
<path fill-rule="evenodd" clip-rule="evenodd" d="M1094.5 1597.55H807.028C804.542 1597.55 802.528 1599.56 802.528 1602.05C802.528 1604.53 804.542 1606.55 807.028 1606.55H1099C1101.49 1606.55 1103.5 1604.53 1103.5 1602.05L1103.47 1183.94C1103.47 1176.48 1109.52 1170.44 1116.97 1170.44H1208C1210.49 1170.44 1212.5 1168.42 1212.5 1165.94C1212.5 1163.45 1210.49 1161.44 1208 1161.44H1116.97C1104.55 1161.44 1094.47 1171.51 1094.47 1183.94L1094.5 1597.55Z" fill="#D8D8D8" stroke="black" stroke-width="2.5" stroke-linecap="round" stroke-linejoin="round"/>
<path d="M1209 1151.94H1160C1152.27 1151.94 1146 1158.21 1146 1165.94C1146 1173.67 1152.27 1179.94 1160 1179.94H1209C1216.73 1179.94 1223 1173.67 1223 1165.94C1223 1158.21 1216.73 1151.94 1209 1151.94Z" fill="#FFFFD9" stroke="black" stroke-width="2.5" stroke-linecap="round" stroke-linejoin="round"/>
<path fill-rule="evenodd" clip-rule="evenodd" d="M811.5 1708.05V1363.94C811.5 1356.48 817.544 1350.44 825 1350.44H1097C1099.49 1350.44 1101.5 1348.42 1101.5 1345.94C1101.5 1343.45 1099.49 1341.44 1097 1341.44H825C812.574 1341.44 802.5 1351.51 802.5 1363.94V1708.05C802.5 1710.53 804.515 1712.55 807 1712.55C809.485 1712.55 811.5 1710.53 811.5 1708.05Z" fill="#D8D8D8" stroke="black" stroke-width="2.5" stroke-linecap="round" stroke-linejoin="round"/>
<path d="M1101 1735.05C1176.66 1735.05 1238 1673.93 1238 1598.55C1238 1523.16 1176.66 1462.05 1101 1462.05C1025.34 1462.05 964 1523.16 964 1598.55C964 1673.93 1025.34 1735.05 1101 1735.05Z" fill="white" stroke="black" stroke-width="2.5" stroke-linecap="round" stroke-linejoin="round"/>
<path d="M1198 1735.05C1273.66 1735.05 1335 1673.93 1335 1598.55C1335 1523.16 1273.66 1462.05 1198 1462.05C1122.34 1462.05 1061 1523.16 1061 1598.55C1061 1673.93 1122.34 1735.05 1198 1735.05Z" fill="white" stroke="black" stroke-width="2.5" stroke-linecap="round" stroke-linejoin="round"/>
<path d="M1086 1324.94H879C871.268 1324.94 865 1331.21 865 1338.94V1345.94C865 1353.67 871.268 1359.94 879 1359.94H1086C1093.73 1359.94 1100 1353.67 1100 1345.94V1338.94C1100 1331.21 1093.73 1324.94 1086 1324.94Z" stroke="black" stroke-width="2.5" stroke-linecap="round" stroke-linejoin="round"/>
<path fill-rule="evenodd" clip-rule="evenodd" d="M905 1359.94H1197V1414.94C1197 1434.27 1181.33 1449.94 1162 1449.94H905V1359.94Z" fill="#FFFFD9" stroke="black" stroke-width="2.5" stroke-linecap="round" stroke-linejoin="round"/>
<path fill-rule="evenodd" clip-rule="evenodd" d="M1026.23 1129.29L949.604 1191.94L882.104 1111.44L774.992 1122.05L874.249 1226.59C909.044 1263.23 966.957 1264.73 1003.6 1229.94C1005.21 1228.41 1006.76 1226.83 1008.25 1225.19L1058.17 1170.37C1067.62 1159.99 1068.29 1144.33 1059.75 1133.19C1051.86 1122.89 1037.11 1120.94 1026.81 1128.83C1026.61 1128.98 1026.42 1129.13 1026.23 1129.29Z" fill="white" stroke="black" stroke-width="2.5" stroke-linecap="round" stroke-linejoin="round"/>
<path fill-rule="evenodd" clip-rule="evenodd" d="M840.276 1109.92L811.239 1081.09C805.58 1075.47 796.458 1075.43 790.75 1081C785.155 1086.46 785.046 1095.42 790.506 1101.01C790.558 1101.07 790.61 1101.12 790.662 1101.17L819.698 1130.01C825.358 1135.63 834.48 1135.67 840.188 1130.09C845.782 1124.63 845.891 1115.67 840.432 1110.08C840.38 1110.03 840.328 1109.97 840.276 1109.92Z" fill="white" stroke="black" stroke-width="2.5" stroke-linecap="round" stroke-linejoin="round"/>
<path fill-rule="evenodd" clip-rule="evenodd" d="M819.272 1131.32L793.209 1103.47C788.144 1098.06 779.649 1097.78 774.237 1102.84C774.138 1102.94 774.04 1103.03 773.944 1103.13C768.478 1108.56 768.319 1117.36 773.587 1122.99L799.65 1150.84C804.715 1156.25 813.209 1156.53 818.622 1151.47C818.721 1151.37 818.819 1151.28 818.915 1151.18C824.381 1145.75 824.539 1136.95 819.272 1131.32Z" fill="white" stroke="black" stroke-width="2.5" stroke-linecap="round" stroke-linejoin="round"/>
<path fill-rule="evenodd" clip-rule="evenodd" d="M863.922 1095.49L834.24 1063.61C828.701 1057.67 819.527 1056.96 813.141 1061.99C807.397 1066.51 806.407 1074.83 810.929 1080.58C811.155 1080.86 811.393 1081.14 811.642 1081.41L841.324 1113.28C846.863 1119.23 856.038 1119.94 862.423 1114.91C868.167 1110.39 869.157 1102.06 864.635 1096.32C864.409 1096.03 864.171 1095.76 863.922 1095.49Z" fill="white" stroke="black" stroke-width="2.5" stroke-linecap="round" stroke-linejoin="round"/>
<path fill-rule="evenodd" clip-rule="evenodd" d="M877.774 1128.39L885.696 1102.85C888.018 1095.36 883.83 1087.4 876.34 1085.08C876.322 1085.07 876.305 1085.07 876.287 1085.06C868.751 1082.76 860.769 1086.98 858.435 1094.51L850.513 1120.05C848.19 1127.54 852.379 1135.5 859.868 1137.82C859.886 1137.82 859.904 1137.83 859.921 1137.83C867.458 1140.14 875.439 1135.92 877.774 1128.39Z" fill="white" stroke="black" stroke-width="2.5" stroke-linecap="round" stroke-linejoin="round"/>
<path fill-rule="evenodd" clip-rule="evenodd" d="M1121 1185.94H1159C1179.99 1185.94 1197 1202.95 1197 1223.94V1359.94H1121V1185.94Z" fill="#FFFFD9" stroke="black" stroke-width="2.5" stroke-linecap="round" stroke-linejoin="round"/>
<path fill-rule="evenodd" clip-rule="evenodd" d="M1124.74 1274.04L891.458 1265.97C875.677 1265.43 861.047 1271.07 849.985 1280.78C838.922 1290.48 831.427 1304.26 829.918 1319.97L812.221 1504.23L883.138 1522.13L908.615 1343.49L1092.3 1347.2C1099.23 1347.34 1105.64 1344.82 1110.51 1340.54C1115.37 1336.26 1118.69 1330.22 1119.43 1323.32L1124.74 1274.04Z" fill="#5E69FF" stroke="black" stroke-width="2.5"/>
<path fill-rule="evenodd" clip-rule="evenodd" d="M719.641 1559.46C718.42 1563.76 720.607 1568.3 724.734 1570.02L852.913 1623.48L888.091 1496.96L813.5 1478.44L793.681 1553.53L729.618 1552.1C725.003 1551.99 720.902 1555.02 719.641 1559.46Z" fill="black"/>
<path fill-rule="evenodd" clip-rule="evenodd" d="M1133.33 1283.68L901.191 1308.16C885.488 1309.82 871.786 1317.44 862.182 1328.6C852.578 1339.75 847.073 1354.43 847.766 1370.21L855.884 1555.13L928.603 1562.99L928.97 1382.54L1111.38 1360.65C1118.27 1359.83 1124.27 1356.44 1128.49 1351.52C1132.71 1346.61 1135.15 1340.16 1134.93 1333.23L1133.33 1283.68Z" fill="#5E69FF" stroke="black" stroke-width="2.5"/>
<path fill-rule="evenodd" clip-rule="evenodd" d="M766.957 1641.92C767.262 1646.74 771.263 1650.5 776.097 1650.51L933.203 1650.62C938.726 1650.62 943.207 1646.15 943.211 1640.63C943.211 1640.25 943.19 1639.87 943.147 1639.49L929.5 1519.5L840.292 1507.02L834.114 1609.08L774.507 1630.44C769.714 1632.16 766.635 1636.84 766.957 1641.92Z" fill="black"/>
<path fill-rule="evenodd" clip-rule="evenodd" d="M1191.5 1597.55H904C901.515 1597.55 899.5 1599.56 899.5 1602.05C899.5 1604.53 901.515 1606.55 904 1606.55H1196C1198.49 1606.55 1200.5 1604.53 1200.5 1602.05L1200.47 1184.05C1200.47 1176.59 1206.52 1170.55 1213.97 1170.55H1305C1307.49 1170.55 1309.5 1168.53 1309.5 1166.05C1309.5 1163.56 1307.49 1161.55 1305 1161.55H1213.97C1201.55 1161.55 1191.47 1171.62 1191.47 1184.05L1191.5 1597.55Z" fill="#D8D8D8" stroke="black" stroke-width="2.5" stroke-linecap="round" stroke-linejoin="round"/>
<path d="M1197.5 1630.05C1215.45 1630.05 1230 1615.5 1230 1597.55C1230 1579.6 1215.45 1565.05 1197.5 1565.05C1179.55 1565.05 1165 1579.6 1165 1597.55C1165 1615.5 1179.55 1630.05 1197.5 1630.05Z" fill="black"/>
<path fill-rule="evenodd" clip-rule="evenodd" d="M907.5 1700.05V1393.94C907.5 1386.48 913.544 1380.44 921 1380.44H1193C1195.49 1380.44 1197.5 1378.42 1197.5 1375.94C1197.5 1373.45 1195.49 1371.44 1193 1371.44H921C908.574 1371.44 898.5 1381.51 898.5 1393.94V1700.05C898.5 1702.53 900.515 1704.55 903 1704.55C905.485 1704.55 907.5 1702.53 907.5 1700.05Z" fill="#D8D8D8" stroke="black" stroke-width="2.5" stroke-linecap="round" stroke-linejoin="round"/>
<path fill-rule="evenodd" clip-rule="evenodd" d="M1020.87 1154.09C1020.84 1155.17 1020.87 1156.25 1020.96 1157.32L1032.41 1297.58L1134.37 1293.48L1144.68 1138.91L1102.97 1128.76C1096.21 1127.12 1089.29 1126.19 1082.33 1126.01L1051.42 1125.16C1043.21 1124.94 1035.68 1128.07 1030.16 1133.3C1024.63 1138.54 1021.1 1145.88 1020.87 1154.09Z" fill="#FF7C25" stroke="black" stroke-width="2.5"/>
<path fill-rule="evenodd" clip-rule="evenodd" d="M1118.07 1156.58L1106.57 1294.69L1003.29 1280.81C986.122 1278.5 969.419 1287.51 961.913 1303.12L940.791 1347.05C939.475 1349.79 940.627 1353.08 943.366 1354.4C944.11 1354.75 944.925 1354.94 945.75 1354.94C950.933 1354.94 955.707 1352.12 958.214 1347.59C965.818 1333.82 973.913 1326.94 982.5 1326.94C986.5 1326.94 990.5 1326.94 994.5 1326.94C997.261 1326.94 999.5 1329.18 999.5 1331.94L986.735 1331.94C978.587 1331.94 971.981 1338.54 971.981 1346.69C971.981 1349.63 972.858 1352.5 974.5 1354.94L1106.7 1360.14C1134.64 1361.24 1158.92 1341.1 1163 1313.44C1165.75 1294.83 1166.76 1245.13 1166.06 1164.33C1165.94 1150.88 1156.18 1139.46 1142.91 1137.25C1131.25 1135.31 1120.23 1143.19 1118.29 1154.84C1118.19 1155.42 1118.12 1156 1118.07 1156.58ZM1106.5 1294.44L1118 1294.44L1106.5 1294.44Z" fill="white"/>
<path d="M1106.5 1294.44L1118 1294.44M1118.07 1156.58L1106.57 1294.69L1003.29 1280.81C986.122 1278.5 969.419 1287.51 961.913 1303.12L940.791 1347.05C939.475 1349.79 940.627 1353.08 943.366 1354.4C944.11 1354.75 944.925 1354.94 945.75 1354.94C950.933 1354.94 955.707 1352.12 958.214 1347.59C965.818 1333.82 973.913 1326.94 982.5 1326.94C986.5 1326.94 990.5 1326.94 994.5 1326.94C997.261 1326.94 999.5 1329.18 999.5 1331.94L986.735 1331.94C978.587 1331.94 971.981 1338.54 971.981 1346.69C971.981 1349.63 972.858 1352.5 974.5 1354.94L1106.7 1360.14C1134.64 1361.24 1158.92 1341.1 1163 1313.44C1165.75 1294.83 1166.76 1245.13 1166.06 1164.33C1165.94 1150.88 1156.18 1139.46 1142.91 1137.25C1131.25 1135.31 1120.23 1143.19 1118.29 1154.84C1118.19 1155.42 1118.12 1156 1118.07 1156.58Z" stroke="black" stroke-width="2.5" stroke-linecap="round" stroke-linejoin="round"/>
<path d="M1306 1151.94H1257C1249.27 1151.94 1243 1158.21 1243 1165.94C1243 1173.67 1249.27 1179.94 1257 1179.94H1306C1313.73 1179.94 1320 1173.67 1320 1165.94C1320 1158.21 1313.73 1151.94 1306 1151.94Z" fill="#FFFFD9" stroke="black" stroke-width="2.5" stroke-linecap="round" stroke-linejoin="round"/>
<path d="M1156 1354.94H949C941.268 1354.94 935 1361.21 935 1368.94V1375.94C935 1383.67 941.268 1389.94 949 1389.94H1156C1163.73 1389.94 1170 1383.67 1170 1375.94V1368.94C1170 1361.21 1163.73 1354.94 1156 1354.94Z" fill="#FFFFD9" stroke="black" stroke-width="2.5" stroke-linecap="round" stroke-linejoin="round"/>
<path d="M1102.5 1294.44L1117.5 1295.44" stroke="black" stroke-width="2.5" stroke-linecap="round" stroke-linejoin="round"/>
<path fill-rule="evenodd" clip-rule="evenodd" d="M807.5 1674.05C790.655 1674.05 777 1687.7 777 1704.55C777 1721.39 790.655 1735.05 807.5 1735.05C824.345 1735.05 838 1721.39 838 1704.55C838 1687.7 824.345 1674.05 807.5 1674.05ZM903.5 1674.05C886.655 1674.05 873 1687.7 873 1704.55C873 1721.39 886.655 1735.05 903.5 1735.05C920.345 1735.05 934 1721.39 934 1704.55C934 1687.7 920.345 1674.05 903.5 1674.05Z" fill="black"/>
<path fill-rule="evenodd" clip-rule="evenodd" d="M735.5 1660.05H977.5C979.985 1660.05 982 1658.03 982 1655.55C982 1653.06 979.985 1651.05 977.5 1651.05H735.5C733.015 1651.05 731 1653.06 731 1655.55C731 1658.03 733.015 1660.05 735.5 1660.05Z" fill="#D8D8D8" stroke="black" stroke-width="2.5" stroke-linecap="round" stroke-linejoin="round"/>
<path fill-rule="evenodd" clip-rule="evenodd" d="M1099.55 1127.13L1099.41 1099.12L1070.88 1092.39L1065.59 1128.51C1070.56 1130.59 1076.79 1131.68 1084.26 1131.78C1091.73 1131.88 1096.83 1130.33 1099.55 1127.13Z" fill="white" stroke="black" stroke-width="2.5" stroke-linecap="round" stroke-linejoin="round"/>
<path fill-rule="evenodd" clip-rule="evenodd" d="M1099.6 1124.51L1075.61 1101.26L1099.8 1101.31L1099.6 1124.51Z" fill="black"/>
<path d="M1089.38 1053C1088.49 1052.9 1087.59 1052.85 1086.7 1052.84C1072.61 1052.69 1061 1063.67 1060.2 1077.58C1059.76 1077.5 1059.31 1077.44 1058.86 1077.42C1053.34 1077.13 1048.63 1081.59 1048.32 1087.38C1048.02 1093.17 1052.24 1098.1 1057.76 1098.39C1059.79 1098.5 1061.71 1097.96 1063.34 1096.95C1066.92 1105.69 1073.57 1112.4 1083.71 1114.56C1097.59 1117.51 1107.78 1110.58 1112.7 1098.6C1112.98 1098.64 1113.27 1098.67 1113.56 1098.68C1119.07 1098.97 1123.79 1094.51 1124.1 1088.72C1124.36 1083.67 1121.18 1079.28 1116.7 1078.04C1116.76 1069.56 1113.62 1063.22 1104.28 1055.96C1103 1054.97 1098.03 1053.98 1089.38 1053Z" fill="white" stroke="black" stroke-width="2.5" stroke-linecap="round" stroke-linejoin="round"/>
<mask id="mask7" mask-type="alpha" maskUnits="userSpaceOnUse" x="1047" y="1051" width="79" height="66">
<path d="M1089.38 1053C1088.49 1052.9 1087.59 1052.85 1086.7 1052.84C1072.61 1052.7 1061 1063.67 1060.2 1077.59C1059.76 1077.5 1059.31 1077.45 1058.86 1077.42C1053.34 1077.13 1048.63 1081.59 1048.32 1087.38C1048.02 1093.17 1052.24 1098.1 1057.76 1098.39C1059.79 1098.5 1061.71 1097.96 1063.34 1096.95C1066.92 1105.7 1073.57 1112.4 1083.71 1114.56C1097.59 1117.51 1107.78 1110.58 1112.7 1098.6C1112.98 1098.64 1113.27 1098.67 1113.56 1098.69C1119.07 1098.97 1123.79 1094.51 1124.1 1088.72C1124.36 1083.67 1121.18 1079.28 1116.7 1078.05C1116.76 1069.56 1113.62 1063.22 1104.28 1055.96C1103 1054.97 1098.03 1053.98 1089.38 1053Z" fill="white" stroke="black" stroke-width="2.5" stroke-linecap="round" stroke-linejoin="round"/>
</mask>
<g mask="url(#mask7)">
<path fill-rule="evenodd" clip-rule="evenodd" d="M1054.78 1067.46L1060.78 1077.13L1104.78 1076.96L1117.28 1076.96C1120.96 1061.95 1118.03 1053.06 1108.49 1050.31C1094.18 1046.18 1073.9 1039.1 1068.27 1048.89C1064.51 1055.42 1060.02 1061.61 1054.78 1067.46Z" fill="black"/>
</g>
<path d="M1086.84 1088.39C1086.98 1086.74 1085.76 1085.29 1084.11 1085.14C1082.46 1085 1081.01 1086.22 1080.86 1087.87L1080.78 1088.87C1080.63 1090.52 1081.85 1091.97 1083.5 1092.12C1085.15 1092.26 1086.61 1091.04 1086.75 1089.39L1086.84 1088.39Z" stroke="black" stroke-width="2" stroke-linecap="round" stroke-linejoin="round"/>
<path d="M1107.85 1089.23C1107.99 1087.58 1106.77 1086.12 1105.12 1085.98C1103.47 1085.83 1102.01 1087.05 1101.87 1088.7L1101.78 1089.7C1101.64 1091.35 1102.86 1092.81 1104.51 1092.95C1106.16 1093.09 1107.62 1091.87 1107.76 1090.22L1107.85 1089.23Z" stroke="black" stroke-width="2" stroke-linecap="round" stroke-linejoin="round"/>
<path d="M1092.94 1098.96C1094.49 1100.44 1096.15 1100.58 1097.92 1099.4" stroke="black" stroke-width="2" stroke-linecap="round" stroke-linejoin="round"/>
<path d="M1096.24 1084.2L1098.27 1095.42L1095.28 1095.15" stroke="black" stroke-width="2" stroke-linecap="round" stroke-linejoin="round"/>
<path fill-rule="evenodd" clip-rule="evenodd" d="M1086.28 1076.96H1117.78C1121.31 1076.27 1123.61 1072.85 1122.93 1069.32C1122.56 1067.44 1121.38 1065.81 1119.7 1064.88L1117.64 1063.73C1121.05 1061.25 1121.79 1056.49 1119.31 1053.09C1117.76 1050.95 1115.21 1049.78 1112.58 1049.98L1086.28 1051.96V1076.96Z" fill="black"/>
</g>
<defs>
<clipPath id="clip0">
<rect width="2811" height="1999" fill="white"/>
</clipPath>
<clipPath id="clip1">
<path d="M2469 553H1175V1741H2469V553Z" fill="white"/>
</clipPath>
<clipPath id="clip2">
<path d="M2469 553H1175V1741H2469V553Z" fill="white"/>
</clipPath>
<clipPath id="clip3">
<path d="M862.221 899.601L1116.29 1100.66L925.782 1341.4L671.712 1140.34L862.221 899.601Z" fill="white"/>
</clipPath>
</defs>
</svg>
