<svg width="2811" height="1999" viewBox="0 0 2811 1999" fill="none" xmlns="http://www.w3.org/2000/svg">
<rect width="2811" height="1999" fill="white"/>
<path fill-rule="evenodd" clip-rule="evenodd" d="M1912 1012H2342C2346.97 1012 2351 1016.03 2351 1021V1056H1903V1021C1903 1016.03 1907.03 1012 1912 1012Z" fill="#DFE9F3"/>
<path d="M1248 773H730V1640H1248V773Z" fill="#E4EDF6"/>
<path d="M1180 1494H1081V1640H1180V1494Z" fill="#EBF2F9"/>
<path fill-rule="evenodd" clip-rule="evenodd" d="M1111 1028V1640H546V1146.11H650.19L764.795 1028V1146.11H765.989L880.595 1028V1146.11H881.789L996.394 1028V1146.11L1111 1028Z" fill="#EBF2F9"/>
<path d="M594 308H444V1640H594V308Z" fill="#E4EDF6"/>
<path d="M853 308H732V773H853V308Z" fill="#DFE9F3"/>
<path d="M1026 440H905V773H1026V440Z" fill="#DFE9F3"/>
<path d="M1171 526H1077V773H1171V526Z" fill="#DFE9F3"/>
<path d="M1466 969H1359V1199H1466V969Z" fill="#EBF2F9"/>
<path d="M1621 969H1514V1199H1621V969Z" fill="#EBF2F9"/>
<path fill-rule="evenodd" clip-rule="evenodd" d="M1995.15 1056H2351.02L2435 1591H1912L1995.15 1056Z" fill="#DFE9F3"/>
<path d="M2226.41 1371C2264.18 1371 2294.81 1340.33 2294.81 1302.5C2294.81 1264.67 2264.18 1234 2226.41 1234C2188.63 1234 2158 1264.67 2158 1302.5C2158 1340.33 2188.63 1371 2226.41 1371Z" fill="#E4EDF6"/>
<path d="M2227 1310.24C2231.6 1310.24 2235.33 1306.51 2235.33 1301.9C2235.33 1297.3 2231.6 1293.57 2227 1293.57C2222.4 1293.57 2218.67 1297.3 2218.67 1301.9C2218.67 1306.51 2222.4 1310.24 2227 1310.24Z" fill="#DFE9F3"/>
<path fill-rule="evenodd" clip-rule="evenodd" d="M2226.72 1315.01L2196.07 1356.96C2205.66 1361.56 2215.88 1363.85 2226.72 1363.85C2237.56 1363.85 2247.57 1361.56 2256.74 1356.96L2226.72 1315.01Z" fill="#DFE9F3"/>
<path fill-rule="evenodd" clip-rule="evenodd" d="M2238.28 1295.44L2290.04 1293.8C2287.76 1283.47 2283.29 1274.05 2276.63 1265.54C2269.97 1257.04 2262.02 1250.59 2252.78 1246.21L2238.28 1295.44Z" fill="#DFE9F3"/>
<path fill-rule="evenodd" clip-rule="evenodd" d="M2215.86 1295.44L2164.1 1293.8C2166.38 1283.47 2170.86 1274.05 2177.51 1265.54C2184.17 1257.04 2192.12 1250.59 2201.36 1246.21L2215.86 1295.44Z" fill="#DFE9F3"/>
<path fill-rule="evenodd" clip-rule="evenodd" d="M1696.77 918H2145.18L2251 1591H1592L1696.77 918Z" fill="#E4EDF6"/>
<path d="M1918.4 1418C1982.14 1418 2033.8 1366.51 2033.8 1303C2033.8 1239.49 1982.14 1188 1918.4 1188C1854.67 1188 1803 1239.49 1803 1303C1803 1366.51 1854.67 1418 1918.4 1418Z" fill="#EBF2F9"/>
<path d="M1919 1316.7C1926.93 1316.7 1933.35 1310.3 1933.35 1302.4C1933.35 1294.51 1926.93 1288.1 1919 1288.1C1911.07 1288.1 1904.65 1294.51 1904.65 1302.4C1904.65 1310.3 1911.07 1316.7 1919 1316.7Z" fill="#DFE9F3"/>
<path fill-rule="evenodd" clip-rule="evenodd" d="M1918.93 1325.05L1867.58 1394.65C1883.65 1402.27 1900.76 1406.08 1918.93 1406.08C1937.09 1406.08 1953.86 1402.27 1969.23 1394.65L1918.93 1325.05Z" fill="#DFE9F3"/>
<path fill-rule="evenodd" clip-rule="evenodd" d="M1937.96 1291.15L2024.98 1288.4C2021.14 1271.05 2013.62 1255.23 2002.43 1240.95C1991.24 1226.67 1977.87 1215.85 1962.34 1208.49L1937.96 1291.15Z" fill="#DFE9F3"/>
<path fill-rule="evenodd" clip-rule="evenodd" d="M1900.28 1291.15L1813.26 1288.4C1817.1 1271.05 1824.61 1255.23 1835.81 1240.95C1847 1226.67 1860.36 1215.85 1875.9 1208.49L1900.28 1291.15Z" fill="#DFE9F3"/>
<path fill-rule="evenodd" clip-rule="evenodd" d="M1371 970L1391.03 923H1420.84C1423.88 923 1426.66 924.729 1428.01 927.46L1449 970H1371Z" fill="#DFE9F3"/>
<path fill-rule="evenodd" clip-rule="evenodd" d="M1531 970L1551.01 923H1579.68C1583.42 923 1586.85 925.091 1588.57 928.418L1610 970H1531Z" fill="#DFE9F3"/>
<path fill-rule="evenodd" clip-rule="evenodd" d="M1548 864.5C1563.04 864.5 1575.25 876.567 1575.5 891.545L1575.5 892V924H1550.5V892C1550.5 890.675 1549.47 889.59 1548.16 889.505L1548 889.5H1248V864.5H1548Z" fill="#DFE9F3"/>
<path fill-rule="evenodd" clip-rule="evenodd" d="M1575.5 1199V1239C1575.5 1254.58 1562.99 1267.24 1547.47 1267.5L1547 1267.5H1248V1242.5H1547C1548.87 1242.5 1550.4 1241.04 1550.49 1239.19L1550.5 1239V1199H1575.5Z" fill="#DFE9F3"/>
<path fill-rule="evenodd" clip-rule="evenodd" d="M1268 1124C1296.43 1124 1319.53 1146.82 1319.99 1175.14L1320 1176V1610H1288V1176C1288 1165.07 1279.23 1156.19 1268.34 1156L1268 1156H1246V1124H1268Z" fill="#DFE9F3"/>
<path d="M2435 1590H1245V1640H2435V1590Z" fill="#DFE9F3"/>
<path fill-rule="evenodd" clip-rule="evenodd" d="M1416.5 877V924H1391.5V877H1416.5Z" fill="#DFE9F3"/>
<path fill-rule="evenodd" clip-rule="evenodd" d="M1416.5 1199V1255H1391.5V1199H1416.5Z" fill="#DFE9F3"/>
<path fill-rule="evenodd" clip-rule="evenodd" d="M1706 876H2137C2141.97 876 2146 880.029 2146 885V920H1697V885C1697 880.029 1701.03 876 1706 876Z" fill="#DFE9F3"/>
<path fill-rule="evenodd" clip-rule="evenodd" d="M1471.95 560.25C1430.89 560.25 1393.71 576.899 1366.8 603.818C1339.89 630.736 1323.25 667.924 1323.25 709C1323.25 743.06 1334.69 774.447 1353.94 799.521C1373.63 825.166 1401.49 844.21 1433.62 852.758C1434.03 852.868 1434.44 852.976 1434.86 853.082C1434.74 853.493 1434.62 853.904 1434.5 854.315C1428.5 874.975 1425.13 896.751 1424.76 919.259L1424.73 923.356V1757.75H1918.75V923.356L1918.72 919.259C1917.62 851.915 1889.6 791.12 1844.94 747.184C1800.36 703.322 1739.21 676.262 1671.74 676.262C1653.81 676.262 1636.32 678.173 1619.48 681.808C1619.06 681.898 1618.65 681.99 1618.23 682.082C1618.15 681.663 1618.07 681.242 1617.99 680.821C1611.35 646.184 1592.7 615.816 1566.55 594.222C1540.84 572.999 1507.89 560.25 1471.95 560.25Z" fill="#FFE13D" stroke="black" stroke-width="2.5"/>
<path fill-rule="evenodd" clip-rule="evenodd" d="M1381 699C1384.31 699 1387 701.686 1387 705V716C1387 719.314 1384.31 722 1381 722C1377.69 722 1375 719.314 1375 716V705C1375 701.686 1377.69 699 1381 699ZM1503 699C1506.31 699 1509 701.686 1509 705V716C1509 719.314 1506.31 722 1503 722C1499.69 722 1497 719.314 1497 716V705C1497 701.686 1499.69 699 1503 699Z" fill="#FFFFD9" stroke="black" stroke-width="2.5" stroke-linecap="round" stroke-linejoin="round"/>
<path d="M1364 688C1367.49 678.996 1377.61 674.524 1386.62 678.012C1390.06 679.345 1392.99 681.735 1395 684.838L1397 687.946" stroke="black" stroke-width="2.5" stroke-linecap="round" stroke-linejoin="round"/>
<path d="M1487 688C1490.49 678.996 1500.61 674.524 1509.62 678.012C1513.06 679.345 1515.99 681.735 1518 684.838L1520 687.946" stroke="black" stroke-width="2.5" stroke-linecap="round" stroke-linejoin="round"/>
<path d="M1430 722.5H1457" stroke="black" stroke-width="2.5" stroke-linecap="round" stroke-linejoin="round"/>
<path fill-rule="evenodd" clip-rule="evenodd" d="M894.156 1104.65C894.266 1106.45 894.303 1108.26 894.267 1110.06L889.497 1346.25C889.331 1354.47 890.167 1362.68 891.986 1370.7L929.468 1535.9L857.943 1543.15L834.747 1452.83L827.817 1107.25L822.256 1438.6L750.259 1542.65L701.141 1500.76C740.793 1438.93 770.101 1392.39 789.068 1361.15C793.84 1353.29 797.377 1347.35 799.679 1343.34C800.842 1341.31 801.692 1339.77 802.231 1338.71C802.664 1337.87 802.864 1337.21 802.647 1336.38L802.095 1334.24L800.547 1335.81C800.331 1336.03 800.028 1336.38 799.641 1336.86C798.933 1337.75 797.911 1339.13 796.578 1340.99C794.279 1344.2 791.039 1348.87 786.86 1355.01L759.906 1118.49C757.765 1099.7 763.442 1081.82 774.351 1068.11C785.26 1054.39 801.402 1044.84 820.19 1042.7C821.374 1042.56 822.56 1042.46 823.749 1042.38C842.067 1041.26 859.107 1047.67 871.848 1058.93C884.589 1070.2 893.031 1086.33 894.156 1104.65Z" fill="#FFE13D" stroke="black" stroke-width="2.5"/>
<path fill-rule="evenodd" clip-rule="evenodd" d="M909.277 1370.06L967.643 1469.05C905.558 1477.83 856.301 1480.96 819.872 1478.42C783.444 1475.89 735.26 1467.43 675.32 1453.06L752.039 1364.09C725.47 1281.6 714.355 1216.59 718.692 1169.05C720.914 1144.71 727.097 1120.81 737.24 1097.37C754.468 1057.55 795.404 1033.39 838.589 1037.54L871.577 1040.71C916.782 1045.06 953.382 1079.32 960.699 1124.14C964.595 1148 964.881 1170.42 961.557 1191.41C954.861 1233.68 937.435 1293.23 909.277 1370.06Z" fill="#A057FF" stroke="black" stroke-width="2.5" stroke-linecap="round" stroke-linejoin="round"/>
<path fill-rule="evenodd" clip-rule="evenodd" d="M1017.57 1651.25L1032.52 1703.4C1034.04 1708.71 1030.97 1714.24 1025.66 1715.77L949.988 1737.46C945.373 1738.79 940.468 1736.64 938.304 1732.36L911.469 1679.18C910.176 1676.62 907.246 1675.34 904.488 1676.13C901.718 1676.92 899.885 1679.55 900.093 1682.42L904.499 1743.13C904.805 1747.34 902.116 1751.19 898.055 1752.36C894.604 1753.35 891.003 1751.35 890.014 1747.9C889.949 1747.67 889.896 1747.44 889.856 1747.21L851.237 1522.87L923.331 1502.2L971.83 1656.82L975.166 1648.8C979.941 1637.33 993.112 1631.9 1004.58 1636.68C1010.9 1639.31 1015.68 1644.67 1017.57 1651.25Z" fill="black"/>
<path fill-rule="evenodd" clip-rule="evenodd" d="M720.196 1672.16L694.421 1713.58C691.556 1718.18 685.545 1719.66 680.869 1716.92L641.896 1694.05C637.306 1691.35 632.938 1688.3 628.835 1684.91L622.77 1679.9C619.446 1677.16 618.255 1672.59 619.815 1668.57L641.758 1612.06C642.796 1609.39 641.787 1606.35 639.354 1604.83C636.911 1603.31 633.732 1603.7 631.736 1605.78L589.705 1649.54C586.813 1652.55 582.073 1652.78 578.903 1650.06C575.772 1647.37 575.38 1642.67 578.023 1639.51L718.913 1470.78L775.139 1509.13L698.765 1641.96C709.586 1639.54 720.321 1646.35 722.743 1657.17C723.892 1662.31 722.978 1667.69 720.196 1672.16Z" fill="black"/>
<path fill-rule="evenodd" clip-rule="evenodd" d="M1153.55 810.615C1156.79 807.85 1160.85 806.66 1164.78 806.972C1168.72 807.283 1172.53 809.097 1175.3 812.337C1178.37 815.94 1179.75 820.434 1179.5 824.833C1179.24 829.232 1177.35 833.536 1173.88 836.759C1127.31 880.024 1101.49 902.158 1096.35 902.607C1095.29 902.7 1094.34 902.32 1093.49 901.52C1092.46 900.55 1091.58 899.024 1090.79 896.977C1089.12 892.615 1087.98 885.998 1087.34 877.135L1152.62 811.473C1152.92 811.175 1153.23 810.888 1153.55 810.615Z" fill="#ADF7FF" stroke="black" stroke-width="2.5"/>
<path fill-rule="evenodd" clip-rule="evenodd" d="M1095.04 877.201L1141.53 818.923C1141.96 818.388 1141.87 817.607 1141.34 817.18C1141.33 817.178 1141.33 817.176 1141.33 817.174C1140.76 816.728 1139.95 816.756 1139.42 817.24L1097.61 855.006C1091.3 860.707 1090.2 870.205 1095.04 877.201Z" fill="black"/>
<path fill-rule="evenodd" clip-rule="evenodd" d="M1086.98 858.134C1089.48 855.633 1092.76 854.381 1096.04 854.381C1099.33 854.381 1102.61 855.633 1105.12 858.138C1105.25 858.27 1105.38 858.404 1105.5 858.542C1107.79 861.05 1108.85 864.249 1108.71 867.393C1108.56 870.538 1107.22 873.628 1104.71 875.918C1066.92 910.424 1045.5 928.157 1040.35 928.607C1039.88 928.648 1039.47 928.608 1039.11 928.453C1038.79 928.315 1038.54 928.082 1038.33 927.77C1037.72 926.873 1037.49 925.458 1037.49 923.575C1037.49 919.269 1038.88 912.717 1041.6 903.917L1086.98 858.134Z" fill="#ADF7FF" stroke="black" stroke-width="2.5"/>
<path fill-rule="evenodd" clip-rule="evenodd" d="M1167 844.665L1217.45 789.773C1217.91 789.269 1217.88 788.484 1217.37 788.021C1217.37 788.019 1217.37 788.017 1217.36 788.014C1216.83 787.53 1216.02 787.501 1215.45 787.947L1171.12 822.705C1164.43 827.952 1162.66 837.349 1167 844.665Z" fill="black"/>
<path d="M1093.54 833.373L1236.08 809.642C1236.62 809.552 1237.14 809.92 1237.23 810.464L1239.28 822.795C1239.37 823.34 1239 823.855 1238.46 823.945L1095.92 847.676C1095.38 847.766 1094.86 847.398 1094.77 846.853L1092.72 834.523C1092.63 833.978 1093 833.463 1093.54 833.373Z" fill="white" stroke="black" stroke-width="2.5"/>
<path d="M1093.54 833.373L1236.08 809.642C1236.62 809.552 1237.14 809.92 1237.23 810.464L1239.28 822.795C1239.37 823.34 1239.01 823.855 1238.46 823.945L1095.92 847.676C1095.38 847.766 1094.86 847.398 1094.77 846.853L1092.72 834.523C1092.63 833.978 1093 833.463 1093.54 833.373Z" fill="white" stroke="black" stroke-width="2.5"/>
<path d="M1228.61 811.282L1234.5 810.137C1235.59 809.926 1236.64 810.634 1236.85 811.719L1238.95 822.517C1239.16 823.601 1238.45 824.651 1237.36 824.861L1231.47 826.006C1230.39 826.217 1229.34 825.509 1229.13 824.425L1227.03 813.627C1226.82 812.542 1227.53 811.493 1228.61 811.282Z" fill="black"/>
<path d="M1093.49 832.839L1142 825L1146 839.5L1095.99 847.835C1095.44 847.926 1094.93 847.558 1094.84 847.013L1092.67 833.991C1092.57 833.444 1092.94 832.928 1093.49 832.839Z" fill="#FFE13D" stroke="black" stroke-width="2.5"/>
<path fill-rule="evenodd" clip-rule="evenodd" d="M917.474 981.565C911.977 990.815 910.75 1001.42 913.209 1011.08C915.669 1020.75 921.815 1029.47 931.065 1034.97L1061.91 1112.73C1065.22 1114.69 1068.91 1115.92 1072.73 1116.33C1080.08 1117.11 1087.04 1114.85 1092.37 1110.55C1097.7 1106.25 1101.39 1099.92 1102.17 1092.58L1121.3 913.694L1153.03 880.904C1164.13 869.438 1168.98 853.307 1166.06 837.622L1163.61 824.517C1162.99 821.18 1161.22 818.302 1158.76 816.258C1156.3 814.214 1153.14 813.004 1149.75 813.004C1146.57 813.004 1143.7 814.292 1141.62 816.373C1139.54 818.454 1138.25 821.329 1138.25 824.504L1138.25 855.767L1105.57 888.955L1074.14 891.997L1060.23 893.724C1051.68 894.785 1044.34 899.153 1039.35 905.397C1034.35 911.642 1031.7 919.763 1032.54 928.33L1041.47 1019.44C995.76 979.351 963.768 960.282 945.461 962.897C933.788 964.565 923.498 971.429 917.474 981.565Z" fill="#ADF7FF" stroke="black" stroke-width="2.5"/>
<path fill-rule="evenodd" clip-rule="evenodd" d="M743.211 1006.69C747.184 1001.03 752.947 997.264 759.258 995.703C765.564 994.144 772.418 994.788 778.584 997.95C790.625 1004.13 797.986 1012.76 800.586 1023.9C804.794 1041.94 812.498 1073.39 823.699 1118.24L959.854 1069.39C964.868 1066.56 970.84 1065.54 976.717 1066.76L1020.23 1075.81C1022.29 1076.3 1024.06 1077.38 1025.4 1078.83C1027.02 1080.59 1028.02 1082.9 1028.12 1085.37L1042.83 1084.79C1046.42 1084.73 1049.73 1086.09 1052.2 1088.36C1054.67 1090.63 1056.3 1093.81 1056.54 1097.42C1056.78 1100.95 1055.55 1104.24 1053.34 1106.69C1051.14 1109.14 1047.97 1110.76 1044.3 1111L1003.56 1112.62L983.602 1113.53L1048.98 1114.97C1052.56 1115.01 1055.82 1116.47 1058.21 1118.81C1060.59 1121.15 1062.11 1124.38 1062.21 1127.98C1062.32 1131.52 1060.97 1134.77 1058.67 1137.15C1056.38 1139.52 1053.16 1141.03 1049.49 1141.14L984.194 1142.14L1041.6 1145.09C1045.05 1145.23 1048.16 1146.71 1050.43 1149.02C1052.69 1151.33 1054.11 1154.47 1054.18 1157.94C1054.24 1161.27 1052.95 1164.32 1050.82 1166.54C1048.68 1168.77 1045.69 1170.18 1041.89 1170.25L985.299 1169.26L791.479 1197.84C784.632 1198.74 777.995 1196.95 772.692 1193.25C767.394 1189.56 763.426 1183.95 761.905 1177.19L733.559 1051.28L733.422 1050.65C730.363 1036.28 733.299 1021.27 741.571 1009.1L743.211 1006.69Z" fill="#ADF7FF" stroke="black" stroke-width="2.5"/>
<path fill-rule="evenodd" clip-rule="evenodd" d="M1032.86 1084.17C1037.79 1082.66 1046.84 1083.36 1060 1086.25C1072.87 1089.09 1088.11 1093.69 1105.72 1100.05C1106.39 1100.29 1106.77 1101 1106.61 1101.69C1106.45 1102.4 1105.82 1102.91 1105.08 1102.91L1053.15 1102.8C1042.59 1102.77 1033.79 1094.7 1032.86 1084.17Z" fill="black"/>
<path fill-rule="evenodd" clip-rule="evenodd" d="M1032.86 1113.96C1037.79 1112.45 1046.84 1113.14 1060 1116.04C1072.87 1118.87 1088.11 1123.47 1105.72 1129.83C1106.39 1130.07 1106.77 1130.78 1106.61 1131.48C1106.45 1132.19 1105.82 1132.69 1105.08 1132.69L1053.15 1132.58C1042.59 1132.56 1033.79 1124.48 1032.86 1113.96Z" fill="black"/>
<path fill-rule="evenodd" clip-rule="evenodd" d="M1032.86 1144.96C1037.79 1143.45 1046.84 1144.14 1060 1147.04C1072.87 1149.87 1088.11 1154.47 1105.72 1160.83C1106.39 1161.07 1106.77 1161.78 1106.61 1162.48C1106.45 1163.19 1105.82 1163.69 1105.08 1163.69L1053.15 1163.58C1042.59 1163.56 1033.79 1155.48 1032.86 1144.96Z" fill="black"/>
<path d="M859 1187.75L870 1208.75M779 1208.75L823 1116.75L779 1208.75Z" stroke="black" stroke-width="2.5" stroke-linecap="round" stroke-linejoin="round"/>
<path fill-rule="evenodd" clip-rule="evenodd" d="M778.786 1208H869.767L910.869 1281.5H743.487L778.786 1208Z" fill="#FF75AA" stroke="black" stroke-width="2.5"/>
<path d="M869.5 1207.75L848.484 1233.11C837.559 1246.29 818.016 1248.12 804.834 1237.2C803.391 1236 802.058 1234.68 800.854 1233.24L779.5 1207.75" stroke="black" stroke-width="2.5" stroke-linecap="round" stroke-linejoin="round"/>
<path d="M821 1238.25H829C831.209 1238.25 833 1240.05 833 1242.25V1250.25C833 1252.46 831.209 1254.25 829 1254.25H821C818.791 1254.25 817 1252.46 817 1250.25V1242.25C817 1240.05 818.791 1238.25 821 1238.25Z" fill="black"/>
<path fill-rule="evenodd" clip-rule="evenodd" d="M1167.69 839.211L1150.39 766.693C1150.23 766.027 1149.57 765.615 1148.9 765.774C1148.9 765.775 1148.89 765.776 1148.89 765.777C1148.19 765.95 1147.71 766.603 1147.77 767.323L1151.79 823.515C1152.4 831.998 1159.2 838.714 1167.69 839.211Z" fill="black"/>
<path d="M1028.5 1085.25L975.5 1084.75" stroke="black" stroke-width="2.5" stroke-linecap="round" stroke-linejoin="round"/>
<path d="M730.5 1032.46L723.227 1019.39" stroke="black" stroke-width="2.5" stroke-linecap="round" stroke-linejoin="round"/>
<path fill-rule="evenodd" clip-rule="evenodd" d="M949 1045.96C966.245 1045.96 984.839 1037.08 997.039 1026.74C1012.19 1013.9 1019 997.374 1019 975.959C1019 954.177 1009.9 931.837 994.294 918.998C982.205 909.05 965.878 905.959 949 905.959C910.34 905.959 879 937.299 879 975.959C879 1014.62 910.34 1045.96 949 1045.96Z" fill="#A057FF" stroke="black" stroke-width="2.5" stroke-linecap="round" stroke-linejoin="round"/>
<path d="M748 905.755C765.123 905.755 783.17 910.067 795.794 919.725C801.093 923.779 805.638 928.649 809.411 934.126L847.871 934.471L876.468 933.693C893.582 933.228 907.834 946.725 908.299 963.839C908.339 965.327 908.273 966.816 908.099 968.295L904.635 997.819C901.683 1022.97 879.927 1041.66 854.616 1040.77C837.078 1040.16 822.074 1029.92 814.627 1015.22C802.146 1039.3 776.995 1055.75 748 1055.75C728.337 1055.75 713.581 1045.34 700.206 1032.96C685.406 1019.26 673 1002.51 673 980.755C673 961.837 682.032 943.949 693.588 930.755C707.335 915.059 725.496 905.755 748 905.755Z" fill="#A057FF"/>
<path fill-rule="evenodd" clip-rule="evenodd" d="M748 904.505C725.109 904.505 706.633 913.964 692.648 929.931C680.902 943.342 671.75 961.533 671.75 980.755C671.75 1002.87 684.297 1019.94 699.357 1033.88C712.97 1046.48 728.006 1057 748 1057C762.491 1057 776.037 1052.96 787.574 1045.94C798.839 1039.09 808.188 1029.4 814.627 1017.86C818.484 1024.62 823.942 1030.36 830.495 1034.54C837.481 1039.01 845.712 1041.71 854.572 1042.02C867.553 1042.47 879.622 1037.91 888.825 1030.01C898.027 1022.11 904.362 1010.86 905.876 997.964L909.341 968.441C909.521 966.903 909.59 965.353 909.548 963.806C909.306 954.903 905.479 946.942 899.486 941.266C893.494 935.591 885.336 932.202 876.434 932.444L847.86 933.221L810.068 932.882C806.295 927.514 801.784 922.734 796.554 918.732C783.729 908.921 765.403 904.505 748 904.505Z" stroke="black" stroke-width="2.5"/>
<path fill-rule="evenodd" clip-rule="evenodd" d="M820.445 933L889.944 935.5C891.945 934 902.871 943.13 901.944 946C894.48 969.117 889.597 983.029 881.427 1008.33C881.362 1008.53 881.223 1008.68 881.052 1008.76C880.88 1008.85 880.676 1008.87 880.126 1008.56L820.445 933Z" fill="#ADF7FF" stroke="black" stroke-width="2.5"/>
<path fill-rule="evenodd" clip-rule="evenodd" d="M841.804 748.279C836.709 748.26 831.984 750.092 828.326 753.186C824.668 756.28 822.078 760.636 821.252 765.663C813.173 814.818 806.152 849.369 800.198 869.316C796.967 880.138 798.687 890.752 805.305 901.163C812.011 911.713 823.69 922.037 840.299 932.177L884.66 928.234C895.639 922.857 903.885 914.908 909.392 904.379C914.978 893.701 917.75 880.39 917.75 864.459C917.75 858.163 909.573 824.604 893.291 763.78C891.978 758.876 888.885 754.863 880.17 752.146C872.443 749.737 860.481 748.348 841.804 748.279Z" fill="#FF75AA" stroke="black" stroke-width="2.5"/>
<path fill-rule="evenodd" clip-rule="evenodd" d="M870 749.959C876.333 752.959 879.833 755.292 880.5 760.959C881.167 766.625 882 773.292 883 780.959C851.333 778.292 835.5 776.959 835.5 776.959C835.5 776.959 835.709 765.325 841 753.959C842.073 751.654 844.74 749.654 849 747.959L870 749.959Z" fill="black"/>
<path fill-rule="evenodd" clip-rule="evenodd" d="M851.772 770.942C856.174 767.484 861.204 766.073 866.862 766.701C870.292 767.082 873.323 768.725 875.781 770.736C879.347 773.654 881.744 777.364 882.298 779.302C882.78 780.99 887.669 804.083 890.253 839.051C890.89 847.668 890.578 861.258 889.325 879.82L836.611 885.092C834.154 862.097 832.866 845.715 832.75 835.944C832.497 814.595 833.591 795.633 836.036 779.057C836.173 778.127 836.436 777.22 836.818 776.361C837.98 773.746 840.091 771.851 842.566 770.899C845.04 769.947 847.878 769.939 850.492 771.101C850.724 771.204 850.949 771.314 851.169 771.431C851.366 771.266 851.567 771.103 851.772 770.942Z" fill="#FFE13D" stroke="black" stroke-width="2.5"/>
<path fill-rule="evenodd" clip-rule="evenodd" d="M874.766 932.417L850.782 909.167L874.969 909.219L874.766 932.417Z" fill="black"/>
<path d="M860.347 922.613C849.269 920.858 840.851 909.113 835.094 887.379L836.198 884.782C842.483 869.997 859.01 862.451 874.298 867.387C880.025 869.235 885.167 873.212 889.723 879.315C889.823 885.68 889.465 891.438 888.649 896.589C886.054 912.972 876.965 925.245 860.347 922.613Z" fill="#ADF7FF"/>
<path fill-rule="evenodd" clip-rule="evenodd" d="M873.913 868.576C879.319 870.321 884.163 874.059 888.479 879.741C888.557 885.866 888.203 891.417 887.415 896.393C886.088 904.766 883.043 912.056 878.041 916.656C873.707 920.641 867.899 922.543 860.543 921.378C855.298 920.547 850.716 917.306 846.741 911.76C842.655 906.059 839.222 897.958 836.412 887.472L837.348 885.271C840.341 878.231 845.753 872.902 852.295 869.915C858.807 866.942 866.436 866.291 873.913 868.576Z" stroke="black" stroke-width="2.5"/>
<path d="M868.5 894.959L870.041 903.068L867.053 902.807" stroke="black" stroke-width="2" stroke-linecap="round" stroke-linejoin="round"/>
<path fill-rule="evenodd" clip-rule="evenodd" d="M876.85 922.219C882.99 925.406 887.184 929.31 889.367 933.987C891.455 938.46 892.55 945.536 892.728 955.332C872.712 939.218 862.09 930.198 861.526 927.788C862.082 927.285 863 926.769 864.258 926.209C866.976 924.999 871.174 923.672 876.85 922.219Z" fill="#FF75AA" stroke="black" stroke-width="2.5"/>
<path fill-rule="evenodd" clip-rule="evenodd" d="M844.204 927.556C842.049 932.173 840.639 941.406 839.879 955.403C847.295 949.967 852.738 945.831 856.208 942.991C866.103 934.896 867.972 927.53 868.553 925.195C868.631 924.884 868.691 924.649 868.67 924.399C868.351 924.081 867.79 923.828 867.033 923.576C865.097 922.931 862.028 922.459 857.78 922.131C854.251 921.708 851.325 921.943 849.013 922.898C846.832 923.799 845.231 925.355 844.204 927.556Z" fill="#FF75AA" stroke="black" stroke-width="2.5"/>
<path d="M875.5 867.459C877.167 835.792 870.5 821.626 855.5 824.959C833 829.959 838.5 852.459 850 855.959C861.5 859.459 863 849.459 861 843.459C859.667 839.459 857 838.292 853 839.959" stroke="black" stroke-width="2.5" stroke-linecap="round" stroke-linejoin="round"/>
<path d="M865.25 923.209H866.75C869.511 923.209 871.75 925.447 871.75 928.209V928.709C871.75 931.47 869.511 933.709 866.75 933.709H865.25C862.489 933.709 860.25 931.47 860.25 928.709V928.209C860.25 925.447 862.489 923.209 865.25 923.209Z" fill="#FF75AA" stroke="black" stroke-width="2.5"/>
<path d="M916.5 855.959C910.167 896.68 895.667 918.612 873 921.754" stroke="black" stroke-width="2.5" stroke-linecap="round" stroke-linejoin="round"/>
<path d="M854.5 921.754C829.833 914.257 812.5 894.325 802.5 861.959" stroke="black" stroke-width="2.5" stroke-linecap="round" stroke-linejoin="round"/>
<path fill-rule="evenodd" clip-rule="evenodd" d="M868.607 894.998C871.175 890.283 874.163 886.829 877.57 884.637C881.346 882.207 886.646 881.021 889.445 879.388C897.055 874.948 899.742 871.359 899.742 871.359C899.742 871.359 898.343 875.36 895.545 883.363C896.662 884.945 897.091 886.511 896.833 888.06C896.575 889.609 895.835 890.876 894.613 891.859C894.66 894.546 893.001 896.969 890.478 897.897C884.348 900.151 879.521 900.574 875.995 899.166C871.698 897.451 869.235 896.062 868.607 894.998Z" fill="white" stroke="black" stroke-width="2.5" stroke-linecap="round" stroke-linejoin="round"/>
<path fill-rule="evenodd" clip-rule="evenodd" d="M873.421 894.613C878.031 896.167 881.082 896.675 882.575 896.139C887.397 894.408 890.521 891.621 891.95 887.778L891.95 887.778C892.142 887.261 891.878 886.685 891.361 886.493C891.358 886.492 891.356 886.491 891.353 886.49C888.093 885.308 884.275 885.502 879.9 887.073C878.295 887.65 875.992 889.626 872.993 893.002L872.993 893.002C872.626 893.414 872.663 894.046 873.076 894.413C873.176 894.502 873.294 894.57 873.421 894.613Z" fill="black"/>
<path fill-rule="evenodd" clip-rule="evenodd" d="M868.607 894.998C865.379 890.384 861.701 887.047 857.573 884.986C852.999 882.702 846.664 881.719 843.279 880.193C834.078 876.047 830.752 872.563 830.752 872.563C830.752 872.563 832.565 876.508 836.191 884.398C834.926 886.023 834.477 887.604 834.842 889.142C835.208 890.68 836.134 891.918 837.622 892.854C837.668 895.485 839.426 897.778 841.956 898.504C849.703 900.728 855.717 901.042 859.997 899.446C865.032 897.567 867.902 896.085 868.607 894.998Z" fill="white" stroke="black" stroke-width="2.5" stroke-linecap="round" stroke-linejoin="round"/>
<path fill-rule="evenodd" clip-rule="evenodd" d="M862.881 894.796C857.468 896.525 853.864 897.15 852.072 896.672C846.332 895.139 842.533 892.505 840.674 888.769L840.674 888.769C840.428 888.275 840.629 887.674 841.123 887.428C841.162 887.409 841.202 887.392 841.243 887.378C845.076 886.058 849.629 886.101 854.901 887.509C856.813 888.02 859.592 889.881 863.238 893.093L863.238 893.093C863.653 893.458 863.693 894.09 863.327 894.505C863.208 894.64 863.054 894.741 862.881 894.796Z" fill="black"/>
<path d="M851 770.959C852.667 785.625 855 794.459 858 797.459" stroke="black" stroke-width="2.5" stroke-linecap="round" stroke-linejoin="round"/>
<path fill-rule="evenodd" clip-rule="evenodd" d="M876.25 909.316C873.43 912.88 870.397 914.591 867.152 914.452C863.907 914.312 860.939 912.6 858.25 909.316L864.926 906.459L867.152 908.058L870.119 906.459L876.25 909.316Z" fill="#FF7C25" stroke="black" stroke-width="2.5" stroke-linejoin="round"/>
<path fill-rule="evenodd" clip-rule="evenodd" d="M901 1010.25L931 982.255L904 946.755" fill="#A057FF"/>
<path d="M901 1010.25L931 982.255L904 946.755" stroke="black" stroke-width="2.5" stroke-linecap="round" stroke-linejoin="round"/>
<path d="M812.143 1022.01C814.92 1017.88 816.639 1014.49 817.297 1011.84C817.956 1009.19 818.142 1004.91 817.857 998.998" stroke="black" stroke-width="2.5" stroke-linecap="round" stroke-linejoin="round"/>
<path d="M886.25 994.505L875.75 976.005" stroke="black" stroke-width="2.5" stroke-linecap="round" stroke-linejoin="round"/>
<path d="M869 910.755H866" stroke="black" stroke-width="2" stroke-linecap="round" stroke-linejoin="round"/>
<path d="M870.5 976.255L866.071 990.905C862.303 1003.37 849.147 1010.41 836.685 1006.65C836.286 1006.53 835.891 1006.4 835.5 1006.25" stroke="black" stroke-width="2.5" stroke-linecap="round" stroke-linejoin="round"/>
<path fill-rule="evenodd" clip-rule="evenodd" d="M1671 1555.09C1709.71 1521.64 1735.97 1521.64 1749.8 1555.09C1759.46 1578.47 1764.5 1618.74 1764.91 1675.89L1805.43 1536.02L1905.32 1581.17L1873.77 1712.24C1893.91 1728.54 1906.41 1738.37 1911.27 1741.74C1912.5 1742.59 1913.8 1743.54 1915.2 1744.6C1918.67 1747.24 1919.35 1752.19 1916.71 1755.67C1915.46 1757.32 1913.61 1758.41 1911.56 1758.71L1911.27 1758.74L1894.96 1758.8C1875.67 1758.88 1856.77 1753.37 1840.54 1742.94L1819.81 1729.62C1816.2 1727.3 1814.47 1722.94 1815.51 1718.78L1826.14 1676.31C1826.81 1673.65 1825.21 1670.94 1822.56 1670.23C1819.71 1669.47 1816.69 1670.61 1815.05 1673.07L1793.51 1705.46C1790.88 1709.41 1785.84 1710.97 1781.44 1709.2L1766.38 1703.12C1765.82 1702.89 1765.28 1702.62 1764.79 1702.31C1764.6 1714.54 1764.23 1727.42 1763.69 1740.96C1763.27 1751.16 1754.88 1759.21 1744.68 1759.2L1688.74 1759.13C1687.05 1759.12 1685.37 1758.9 1683.75 1758.45C1673.63 1755.68 1667.66 1745.23 1670.43 1735.11C1674.96 1718.56 1681.15 1701.72 1689 1684.59C1700.68 1659.12 1694.68 1615.95 1671 1555.09Z" fill="black"/>
<path fill-rule="evenodd" clip-rule="evenodd" d="M1825.78 1097.24C1808.66 1087.46 1788.45 1083.11 1767.86 1085.74C1747.55 1088.33 1729.52 1097.8 1716.09 1111.72C1702.66 1125.64 1693.84 1144.01 1691.98 1164.39L1644.57 1683.25L1779.44 1683.25L1779.79 1630.07L1779.85 1620.31L1779.48 1620.22L1779.86 1618.56L1783 1218.5L1835.39 1387.5L1782.18 1619.62L1891.8 1651.04L1950.94 1388.62C1955.52 1368.3 1953.55 1347.06 1945.33 1327.92L1865.11 1141.29C1856.92 1122.22 1842.9 1107.02 1825.78 1097.24Z" fill="#66EC36" stroke="black" stroke-width="2.5"/>
<path d="M1783.07 1219.25L1793.82 1214.75" stroke="black" stroke-width="2.5" stroke-linecap="round" stroke-linejoin="round"/>
<path fill-rule="evenodd" clip-rule="evenodd" d="M1784.5 1219.5L1794 1215L1835.5 1387.5L1784.5 1219.5Z" fill="black"/>
<g clip-path="url(#clip0)">
<path fill-rule="evenodd" clip-rule="evenodd" d="M2024.02 1231.65L1924.96 1142.9L1888.59 1183.49L1987.65 1272.24C1987.8 1272.37 1987.99 1272.44 1988.18 1272.43C1988.39 1272.43 1988.57 1272.33 1988.7 1272.19C1988.83 1272.05 1988.91 1271.86 1988.9 1271.65L1987.36 1235.4L2023.57 1232.96C2023.76 1232.95 2023.95 1232.86 2024.08 1232.71C2024.21 1232.56 2024.28 1232.36 2024.27 1232.17C2024.26 1231.98 2024.17 1231.79 2024.02 1231.65Z" fill="#66EC36" stroke="black" stroke-width="2.5"/>
<path d="M1750.14 1338.38L1923.64 1144.74" stroke="black" stroke-width="2.5" stroke-linecap="round" stroke-linejoin="round"/>
</g>
<path fill-rule="evenodd" clip-rule="evenodd" d="M1794.43 983.3L1797.43 981.394C1805.5 976.268 1815.56 975.442 1824.35 979.185C1832.59 982.693 1841.14 987.769 1850 994.415C1864.67 1005.42 1884.89 1022.3 1910.67 1045.06L1995.9 936.597L2001.96 879.359C2002.85 870.937 2010.4 864.828 2018.82 865.707C2027.23 866.583 2033.33 874.108 2032.46 882.515C2032.45 882.523 2032.45 882.531 2032.45 882.539L2028.53 919.543L2050.34 899.72L2081.83 871.1C2087.76 865.717 2096.89 866.032 2102.43 871.811C2107.78 877.395 2107.59 886.26 2102.01 891.612C2101.92 891.698 2101.83 891.782 2101.74 891.866L2071.55 919.302L2062.64 927.399L2105.97 890.234C2112.03 885.036 2121.13 885.648 2126.45 891.609C2131.6 897.399 2131.09 906.274 2125.3 911.432C2125.22 911.506 2125.14 911.579 2125.05 911.65L2106.67 927.258L2119.05 917.255C2125.06 912.399 2133.83 913.158 2138.92 918.975C2143.83 924.594 2143.26 933.132 2137.64 938.045C2137.56 938.114 2137.48 938.183 2137.4 938.251L2093.98 974.442L1963.72 1121.09C1954.21 1131.8 1938.16 1133.6 1926.51 1125.28L1798.13 1033.6C1789.71 1027.59 1784.17 1018.35 1782.84 1008.09C1781.56 998.275 1786.08 988.609 1794.43 983.3Z" fill="white" stroke="black" stroke-width="2.5" stroke-linecap="round" stroke-linejoin="round"/>
<path d="M2033.39 929.869L2078.86 963.627" stroke="black" stroke-width="2.5" stroke-linecap="round" stroke-linejoin="round"/>
<path fill-rule="evenodd" clip-rule="evenodd" d="M1831.37 1006.2C1831.42 1007.25 1831.4 1008.3 1831.33 1009.35L1829.08 1042.2C1828.24 1054.46 1822.73 1065.35 1814.35 1073.17C1805.98 1080.99 1794.74 1085.75 1782.45 1085.75C1770.22 1085.75 1759.06 1080.96 1750.79 1073.12C1742.53 1065.28 1737.16 1054.39 1736.52 1042.17L1734.85 1010.43C1734.43 1002.5 1737.27 995.152 1742.19 989.683C1747.12 984.215 1754.12 980.624 1762.05 980.207C1762.22 980.198 1762.39 980.191 1762.56 980.185L1775.04 979.749L1801.46 978.659C1809.4 978.331 1816.71 981.25 1822.12 986.234C1827.54 991.217 1831.05 998.266 1831.37 1006.2Z" fill="#FF75AA" stroke="black" stroke-width="2.5"/>
<path fill-rule="evenodd" clip-rule="evenodd" d="M1826.58 1207.61L1859 1237.57C1863.68 1241.89 1863.97 1249.19 1859.65 1253.86C1859.17 1254.37 1858.66 1254.84 1858.11 1255.26C1851.37 1260.32 1842.3 1261.01 1834.88 1257.03L1788.41 1232.1C1781.74 1228.51 1779.23 1220.2 1782.81 1213.53C1784.22 1210.91 1786.44 1208.82 1789.13 1207.57L1798.55 1203.2C1807.92 1198.86 1818.99 1200.6 1826.58 1207.61Z" fill="white" stroke="black" stroke-width="2.5" stroke-linecap="round" stroke-linejoin="round"/>
<path fill-rule="evenodd" clip-rule="evenodd" d="M1739.13 971.774C1751.11 973.344 1759.55 984.329 1757.98 996.311C1757.92 996.8 1757.84 997.287 1757.74 997.77C1752.73 1022.74 1747.67 1047.43 1742.56 1071.82C1735.89 1103.66 1732.28 1125.38 1731.73 1136.97L1787.42 1189.08C1788.25 1189.56 1789.03 1190.15 1789.74 1190.86L1845.27 1246L1857.09 1256.48C1863.05 1261.77 1863.69 1270.85 1858.53 1276.91C1853.5 1282.82 1844.64 1283.54 1838.74 1278.51C1838.66 1278.45 1838.59 1278.39 1838.52 1278.32L1829.88 1270.66L1829.07 1271.4L1835.76 1278.7C1841.14 1284.57 1840.82 1293.66 1835.05 1299.15C1829.41 1304.5 1820.5 1304.27 1815.14 1298.64C1815.08 1298.57 1815.03 1298.51 1814.97 1298.45L1807.89 1290.73L1806.99 1291.56L1812.1 1297.42C1817.16 1303.22 1816.7 1311.98 1811.08 1317.23C1805.68 1322.26 1797.23 1321.96 1792.21 1316.57C1792.11 1316.46 1792.01 1316.35 1791.91 1316.24L1783.51 1306.61L1682.63 1204.09C1657.23 1178.28 1649.34 1139.96 1662.47 1106.21L1707.47 990.528C1712.45 977.734 1725.52 969.991 1739.13 971.774Z" fill="white" stroke="black" stroke-width="2.5" stroke-linecap="round" stroke-linejoin="round"/>
<path fill-rule="evenodd" clip-rule="evenodd" d="M1787.99 930.531L1855.05 934.891C1870.09 935.869 1883.07 924.472 1884.05 909.435C1884.29 905.699 1883.76 901.953 1882.5 898.43C1877.23 883.777 1861.07 876.17 1846.42 881.441C1843.05 882.653 1839.94 884.495 1837.26 886.87L1787.99 930.531Z" fill="black"/>
<path fill-rule="evenodd" clip-rule="evenodd" d="M1764.28 978.151L1764.43 950.136L1792.95 943.408L1798.25 979.524C1793.27 981.609 1787.04 982.701 1779.57 982.799C1772.1 982.898 1767 981.349 1764.28 978.151Z" fill="white" stroke="black" stroke-width="2.5" stroke-linecap="round"/>
<path fill-rule="evenodd" clip-rule="evenodd" d="M1764.23 975.527L1788.22 952.276L1764.03 952.329L1764.23 975.527Z" fill="black"/>
<path d="M1772.32 908.239C1787.01 905.913 1800.82 915.595 1803.77 930.02C1804.28 929.933 1804.81 929.888 1805.35 929.888C1810.88 929.888 1815.35 934.589 1815.35 940.388C1815.35 946.187 1810.88 950.888 1805.35 950.888C1803.75 950.888 1802.24 950.493 1800.9 949.791C1796.58 957.967 1788.52 964.101 1778.6 965.674C1764.58 967.893 1754.76 960.438 1750.48 948.221C1750.19 948.247 1749.91 948.26 1749.61 948.26C1744.09 948.26 1739.61 943.559 1739.61 937.76C1739.61 932.546 1743.24 928.219 1747.98 927.4C1748.98 919.259 1753.59 914.016 1764.64 910.448C1765.41 910.199 1766.25 909.911 1767.14 909.583C1768.82 908.969 1770.56 908.519 1772.32 908.239Z" fill="white"/>
<path d="M1770.86 908.548C1785.4 905.457 1799.7 914.402 1803.39 928.653C1803.91 928.539 1804.43 928.466 1804.97 928.438C1810.49 928.149 1815.21 932.609 1815.51 938.4C1815.81 944.191 1811.59 949.12 1806.07 949.409C1804.47 949.493 1802.94 949.178 1801.57 948.547C1797.68 956.938 1789.96 963.486 1780.13 965.575C1766.25 968.525 1756.05 961.594 1751.13 949.619C1750.85 949.659 1750.56 949.687 1750.27 949.703C1744.76 949.992 1740.04 945.531 1739.74 939.74C1739.46 934.533 1742.85 930.022 1747.55 928.956C1748.12 920.774 1752.45 915.297 1763.3 911.155C1764.06 910.867 1764.88 910.535 1765.75 910.161C1767.4 909.46 1769.11 908.919 1770.86 908.548Z" fill="white" stroke="black" stroke-width="2.5" stroke-linejoin="round"/>
<mask id="mask0" mask-type="alpha" maskUnits="userSpaceOnUse" x="1738" y="906" width="79" height="62">
<path d="M1770.86 908.548C1785.4 905.457 1799.7 914.402 1803.39 928.653C1803.91 928.539 1804.43 928.466 1804.97 928.438C1810.49 928.149 1815.21 932.609 1815.51 938.4C1815.81 944.191 1811.59 949.12 1806.07 949.409C1804.47 949.493 1802.94 949.178 1801.57 948.547C1797.68 956.938 1789.96 963.486 1780.13 965.575C1766.25 968.525 1756.05 961.594 1751.13 949.619C1750.85 949.659 1750.56 949.687 1750.27 949.703C1744.76 949.992 1740.04 945.531 1739.74 939.74C1739.46 934.533 1742.85 930.022 1747.55 928.956C1748.12 920.774 1752.45 915.297 1763.3 911.155C1764.06 910.867 1764.88 910.535 1765.75 910.161C1767.4 909.46 1769.11 908.919 1770.86 908.548Z" fill="white" stroke="black" stroke-width="2.5" stroke-linejoin="round"/>
</mask>
<g mask="url(#mask0)">
<path fill-rule="evenodd" clip-rule="evenodd" d="M1800.72 917.701L1803.55 929.151L1791.05 919.651C1789.26 924.745 1784.44 928.151 1779.04 928.151L1759.43 928.151C1756.67 928.151 1754.43 925.913 1754.43 923.151C1754.43 922.415 1754.59 921.688 1754.91 921.022L1755.55 919.651L1748.05 929.151C1743.38 913.354 1745.81 904.079 1755.35 901.327C1769.66 897.2 1789.93 890.117 1795.56 899.908C1799.32 906.435 1801.04 912.366 1800.72 917.701Z" fill="black"/>
</g>
<path fill-rule="evenodd" clip-rule="evenodd" d="M1758.71 936.994C1760.36 936.85 1761.82 938.071 1761.96 939.721L1762.05 940.717C1762.19 942.368 1760.97 943.823 1759.32 943.967C1757.67 944.112 1756.22 942.891 1756.07 941.24L1755.98 940.244C1755.84 938.594 1757.06 937.139 1758.71 936.994ZM1779.72 936.16C1781.37 936.016 1782.82 937.237 1782.97 938.887L1783.06 939.883C1783.2 941.534 1781.98 942.989 1780.33 943.133C1778.68 943.278 1777.22 942.057 1777.08 940.406L1776.99 939.41C1776.85 937.76 1778.07 936.304 1779.72 936.16Z" stroke="black" stroke-width="2" stroke-linecap="round" stroke-linejoin="round"/>
<path d="M1770.89 949.982C1769.35 951.455 1767.69 951.601 1765.91 950.418" stroke="black" stroke-width="2" stroke-linecap="round" stroke-linejoin="round"/>
<path d="M1767.59 935.213L1765.56 946.433L1768.55 946.172" stroke="black" stroke-width="2" stroke-linecap="round" stroke-linejoin="round"/>
<defs>
<clipPath id="clip0">
<path d="M1866.86 1065L2108.17 1281.21L1903.31 1509.86L1662 1293.65L1866.86 1065Z" fill="white"/>
</clipPath>
</defs>
</svg>
