<svg width="2811" height="1999" viewBox="0 0 2811 1999" fill="none" xmlns="http://www.w3.org/2000/svg">
<rect width="2811" height="1999" fill="white"/>
<path fill-rule="evenodd" clip-rule="evenodd" d="M1705.13 989.292C1625.76 1069.39 1515.67 1119 1394 1119C1272.33 1119 1162.24 1069.39 1082.87 989.292H1705.13ZM1771.34 903.529C1759.87 922.93 1746.95 941.37 1732.73 958.7H1055.27C1041.05 941.37 1028.13 922.93 1016.66 903.529H1771.34ZM1805.3 831.937C1798.16 851.384 1789.68 870.184 1779.97 888.226H1008.03C998.319 870.184 989.84 851.384 982.702 831.937H1805.3ZM1823.76 766C1820.36 783.267 1815.95 800.17 1810.59 816.644H977.409C972.048 800.17 967.638 783.267 964.242 766H1823.76ZM1831.74 696.298C1831.1 714.747 1829.33 732.906 1826.48 750.707H961.516C958.67 732.906 956.895 714.747 956.262 696.298H1831.74ZM1394 243C1635.9 243 1832 439.099 1832 681H956L956.059 673.757C959.927 435.197 1154.52 243 1394 243Z" fill="#EBF2F9"/>
<path fill-rule="evenodd" clip-rule="evenodd" d="M926 1028H1042V1269L1164 1334V1519H926V1028Z" fill="#DFE9F3"/>
<path fill-rule="evenodd" clip-rule="evenodd" d="M2014 315C2027.81 315 2039 326.193 2039 340V526H1989V340C1989 326.193 2000.19 315 2014 315Z" fill="#DFE9F3"/>
<path d="M2435 1590H444V1640H2435V1590Z" fill="#DFE9F3"/>
<path fill-rule="evenodd" clip-rule="evenodd" d="M1241 526L1504.24 625.115C1543.2 639.787 1569 677.066 1569 718.701V1590H1241V526Z" fill="#E4EDF6"/>
<path d="M1329 650H1293V1591H1329V650Z" fill="#EBF2F9"/>
<path d="M1394 681H1358V1591H1394V681Z" fill="#EBF2F9"/>
<path fill-rule="evenodd" clip-rule="evenodd" d="M2013 471C2148.31 471 2256.5 536.396 2256.5 622C2256.5 671.991 2215.58 729.985 2133.73 795.983C2110.19 814.967 2096.5 843.585 2096.5 873.828V1591L1930.59 1594.23L1930.51 873.915C1930.5 843.623 1916.77 814.965 1893.16 795.986C1817.91 735.499 1777.14 681.735 1770.86 634.694C1770.81 634.367 1770.77 634.039 1770.73 633.71C1770.68 633.292 1770.63 632.875 1770.59 632.459C1770.54 632.043 1770.49 631.625 1770.45 631.207C1770.43 630.975 1770.41 630.744 1770.39 630.513C1770.33 629.869 1770.27 629.223 1770.23 628.575C1770.21 628.258 1770.19 627.942 1770.17 627.626C1770.15 627.297 1770.13 626.967 1770.11 626.636C1770.09 626.007 1770.06 625.379 1770.04 624.753C1770.01 623.838 1770 622.92 1770 622L1770.02 624.136C1770.01 623.422 1770 622.71 1770 622C1770 536.396 1877.69 471 2013 471Z" fill="#DFE9F3"/>
<path fill-rule="evenodd" clip-rule="evenodd" d="M1862 596C1876.36 596 1888 607.641 1888 622C1888 636.359 1876.36 648 1862 648C1847.64 648 1836 636.359 1836 622C1836 607.641 1847.64 596 1862 596ZM1963 596C1977.36 596 1989 607.641 1989 622C1989 636.359 1977.36 648 1963 648C1948.64 648 1937 636.359 1937 622C1937 607.641 1948.64 596 1963 596ZM2064 596C2078.36 596 2090 607.641 2090 622C2090 636.359 2078.36 648 2064 648C2049.64 648 2038 636.359 2038 622C2038 607.641 2049.64 596 2064 596ZM2165 596C2179.36 596 2191 607.641 2191 622C2191 636.359 2179.36 648 2165 648C2150.64 648 2139 636.359 2139 622C2139 607.641 2150.64 596 2165 596Z" fill="#EBF2F9"/>
<path fill-rule="evenodd" clip-rule="evenodd" d="M1694.5 1058V1591H1989V945.5L1694.5 1058Z" fill="#E4EDF6"/>
<path fill-rule="evenodd" clip-rule="evenodd" d="M564 1590V856.5L768.5 596V1419.5H971.5V1494H1241V1590H564Z" fill="#E4EDF6"/>
<path d="M984 1121C1050.83 1121 1105 1066.83 1105 1000C1105 933.174 1050.83 879 984 879C917.174 879 863 933.174 863 1000C863 1066.83 917.174 1121 984 1121Z" fill="#DFE9F3"/>
<path d="M1951 1289H1909V1594H1951V1289Z" fill="#EBF2F9"/>
<path d="M1741.5 1206.5V1164.5H1660.5V1206.5H1741.5Z" fill="#EBF2F9"/>
<path d="M1741.5 1289.5V1247.5H1660.5V1289.5H1741.5Z" fill="#EBF2F9"/>
<path fill-rule="evenodd" clip-rule="evenodd" d="M1584.28 1551L1599.7 1713.67L1540.25 1734.98C1535.47 1736.69 1532.6 1741.57 1533.42 1746.58C1534.25 1751.57 1538.56 1755.22 1543.61 1755.22H1648.44C1653.9 1755.22 1658.35 1750.85 1658.44 1745.39L1659.12 1704.27C1659.16 1701.53 1661.4 1699.33 1664.14 1699.33C1667.05 1699.33 1669.59 1701.3 1670.31 1704.12L1681.45 1747.7C1682.58 1752.13 1686.57 1755.22 1691.14 1755.22H1698.81C1704.33 1755.22 1708.81 1750.75 1708.81 1745.22C1708.81 1744.85 1708.79 1744.47 1708.75 1744.1L1686.97 1551H1584.28ZM1951.5 1551L1867 1558L1912.55 1740.71C1914.66 1749.18 1922.27 1755.12 1931 1755.11L1997.2 1755.05C2001.86 1755.04 2006.36 1753.32 2009.84 1750.22C2017.66 1743.23 2018.34 1731.22 2011.35 1723.39C1998.76 1709.3 1989.15 1695 1982.5 1680.5C1970.82 1655.03 1960.49 1611.86 1951.5 1551Z" fill="black"/>
<path fill-rule="evenodd" clip-rule="evenodd" d="M1584.1 1353.14C1581.88 1361.45 1580.75 1370.02 1580.75 1378.63V1651.25L1722.17 1651.18L1705.25 1386.97L1727 1212.5L1870.41 1654.25L2019.19 1654.31L1825.43 1145.23C1818.53 1127.11 1806.65 1111.85 1791.65 1100.81C1776.66 1089.78 1758.55 1082.98 1739.19 1081.8L1730.25 1081.25C1717.68 1080.48 1693.7 1082.3 1681 1092C1668 1100.81 1655.82 1111.12 1644 1133C1622.57 1172.65 1613.77 1242.12 1584.1 1353.14Z" fill="#66EC36" stroke="black" stroke-width="2.5"/>
<path d="M1727.12 1214.25L1714.5 1208.5" stroke="black" stroke-width="2.5" stroke-linecap="round" stroke-linejoin="round"/>
<path fill-rule="evenodd" clip-rule="evenodd" d="M1713.43 1209.9L1705 1385.5L1726 1213.5L1714.8 1209.02C1714.29 1208.82 1713.71 1209.07 1713.5 1209.58C1713.46 1209.68 1713.44 1209.79 1713.43 1209.9Z" fill="black"/>
<path fill-rule="evenodd" clip-rule="evenodd" d="M1709.38 1013.55C1710 1012.49 1710.54 1011.39 1711 1010.25C1717.32 994.602 1711.2 976.69 1696.63 968.179L1609 917L1677.6 898.925L1680.58 882.793L1721.78 876.152L1722.68 892.188C1723.09 899.433 1729.11 905.08 1736.37 905.014C1743.55 904.948 1749.34 899.114 1749.35 891.932L1749.48 814.629C1749.5 806.071 1742.57 799.122 1734.01 799.108C1732.81 799.105 1731.61 799.244 1730.44 799.52L1711.7 803.932C1711.47 803.987 1711.24 804.049 1711.01 804.118C1693 809.559 1674.32 815.53 1654.95 822.03C1635.45 828.571 1619.16 834.345 1606.05 839.35L1605.86 839.62L1530.07 865.585C1510.21 872.387 1499.63 893.995 1506.43 913.849C1509.39 922.479 1515.35 929.758 1523.23 934.356L1674.62 1022.69C1686.74 1029.77 1702.31 1025.67 1709.38 1013.55Z" fill="white" stroke="black" stroke-width="2.5" stroke-linecap="round" stroke-linejoin="round"/>
<path fill-rule="evenodd" clip-rule="evenodd" d="M1648 906.5C1653.84 906.143 1660.59 904.108 1666.5 903.5C1678.24 902.292 1689.24 902.141 1701.26 899.942C1711.38 898.091 1718.47 893.229 1718.1 883.689C1717.76 874.792 1709.3 867.551 1699.84 868.9C1699.73 868.916 1685.06 871.264 1671.03 872.981" fill="white"/>
<path d="M1648 906.5C1653.84 906.143 1660.59 904.108 1666.5 903.5C1678.24 902.292 1689.24 902.141 1701.26 899.942C1711.38 898.091 1718.47 893.229 1718.1 883.689C1717.76 874.792 1709.3 867.551 1699.84 868.9C1699.73 868.916 1685.06 871.264 1671.03 872.981" stroke="black" stroke-width="2.5" stroke-linecap="round" stroke-linejoin="round"/>
<path d="M1706.97 891.298C1710.58 890.309 1712.71 886.58 1711.72 882.968C1711.28 881.364 1710.27 879.977 1708.87 879.072L1707.39 878.111" stroke="black" stroke-width="2.5" stroke-linecap="round" stroke-linejoin="round"/>
<path d="M1748.27 887.792C1744.54 888.009 1741.68 891.215 1741.9 894.953C1741.99 896.613 1742.7 898.181 1743.87 899.356L1745.12 900.604" stroke="black" stroke-width="2.5" stroke-linecap="round" stroke-linejoin="round"/>
<path d="M1721.95 876.055L1720.86 841.941L1694.84 849.832" stroke="black" stroke-width="2.5" stroke-linecap="round" stroke-linejoin="round"/>
<path fill-rule="evenodd" clip-rule="evenodd" d="M1678.95 1002.98C1678.91 1004.41 1678.98 1005.84 1679.14 1007.26L1682.61 1036.78C1684.04 1049.04 1690.06 1059.71 1698.8 1067.22C1707.55 1074.73 1719.01 1079.06 1731.34 1078.63C1743.52 1078.21 1754.44 1073.01 1762.33 1064.88C1770.22 1056.74 1775.08 1045.67 1775.14 1033.49L1775.41 974.496L1738.12 974.831L1709.5 974.053C1701.29 973.829 1693.76 976.956 1688.23 982.191C1682.7 987.427 1679.17 994.771 1678.95 1002.98Z" fill="#FF75AA" stroke="black" stroke-width="2.5"/>
<path fill-rule="evenodd" clip-rule="evenodd" d="M1785 968.75C1771.1 969.887 1760.76 982.075 1761.9 995.972C1761.96 996.716 1762.05 997.457 1762.18 998.192L1773.93 1066.51L1767.77 1067.77L1744.73 991.122C1742.42 983.458 1734.43 979.024 1726.71 981.125C1719.25 983.155 1714.84 990.851 1716.87 998.315C1716.9 998.434 1716.94 998.553 1716.97 998.671L1733.19 1052.62L1730.85 1053.36L1725.6 1036.85C1723.17 1029.23 1715.11 1024.94 1707.44 1027.18C1699.99 1029.36 1695.73 1037.16 1697.9 1044.6C1697.93 1044.71 1697.97 1044.81 1698 1044.92L1703.47 1062.09L1702.15 1062.51L1697.01 1047.64C1694.49 1040.33 1686.64 1036.33 1679.25 1038.57C1672.21 1040.7 1668.23 1048.13 1670.36 1055.16C1670.41 1055.33 1670.47 1055.49 1670.52 1055.65L1680.83 1085.5L1680.74 1085.52L1694.2 1125.2L1701.82 1148.59C1702.12 1149.51 1702.52 1150.36 1703.01 1151.14L1730.85 1233.19C1737.37 1252.4 1757.83 1263.1 1777.33 1257.5L1793 1253C1822.15 1244.63 1840.98 1216.43 1837.55 1186.3L1815.62 993.914C1813.88 978.635 1800.33 967.496 1785 968.75ZM1784.18 1125.96L1792.5 1174.5L1784.16 1126.01C1784.17 1125.99 1784.18 1125.97 1784.18 1125.96ZM1774 1066.5L1780.73 1105.8L1780.64 1105.53L1773.93 1066.51L1774 1066.5Z" fill="white" stroke="black" stroke-width="2.5" stroke-linecap="round" stroke-linejoin="round"/>
<path fill-rule="evenodd" clip-rule="evenodd" d="M1784 1126C1784 1125.99 1784 1123.49 1784 1118.5L1802 1026.48C1803.61 1018.17 1798.18 1010.12 1789.87 1008.5C1781.58 1006.88 1773.54 1012.29 1771.92 1020.59C1771.92 1020.59 1771.92 1020.6 1771.92 1020.61L1764 1060" fill="white"/>
<path d="M1784 1126C1784 1125.99 1784 1123.49 1784 1118.5L1802 1026.48C1803.61 1018.17 1798.18 1010.12 1789.87 1008.5C1781.58 1006.88 1773.54 1012.29 1771.92 1020.59C1771.92 1020.59 1771.92 1020.6 1771.92 1020.61L1764 1060" stroke="black" stroke-width="2.5" stroke-linecap="round" stroke-linejoin="round"/>
<path d="M1735.88 990.745C1733.61 987.767 1729.36 987.193 1726.38 989.463C1725.05 990.472 1724.15 991.931 1723.83 993.564L1723.5 995.297" stroke="black" stroke-width="2.5" stroke-linecap="round" stroke-linejoin="round"/>
<path d="M1793.6 1022.33C1793.32 1018.6 1790.06 1015.8 1786.33 1016.08C1784.67 1016.2 1783.11 1016.94 1781.96 1018.13L1780.73 1019.4" stroke="black" stroke-width="2.5" stroke-linecap="round" stroke-linejoin="round"/>
<path d="M1610.5 916.5L1582.5 924.5" stroke="black" stroke-width="2.5" stroke-linecap="round" stroke-linejoin="round"/>
<path fill-rule="evenodd" clip-rule="evenodd" d="M1697 945C1697 945.259 1697.4 949.548 1698.21 957.868C1698.66 962.481 1702.53 966 1707.17 966H1751.67C1756.64 966 1760.67 961.971 1760.67 957C1760.67 956.448 1760.62 955.897 1760.52 955.354L1754.5 923C1716.17 937.333 1697 944.667 1697 945Z" fill="black"/>
<path fill-rule="evenodd" clip-rule="evenodd" d="M1713.28 973.152L1713.43 945.136L1741.95 938.408L1747.25 974.524C1742.27 976.609 1736.04 977.701 1728.57 977.8C1721.1 977.898 1716 976.349 1713.28 973.152Z" fill="white" stroke="black" stroke-width="2.5" stroke-linecap="round" stroke-linejoin="round"/>
<path fill-rule="evenodd" clip-rule="evenodd" d="M1713.23 970.527L1737.22 947.276L1713.03 947.329L1713.23 970.527Z" fill="black"/>
<path d="M1719.85 903.548C1734.4 900.457 1748.7 909.403 1752.39 923.653C1752.91 923.539 1753.43 923.467 1753.97 923.438C1759.49 923.149 1764.21 927.61 1764.51 933.401C1764.81 939.192 1760.59 944.12 1755.07 944.41C1753.47 944.493 1751.94 944.178 1750.57 943.547C1746.68 951.939 1738.96 958.486 1729.12 960.576C1715.25 963.526 1705.05 956.594 1700.13 944.619C1699.85 944.66 1699.56 944.688 1699.27 944.703C1693.76 944.992 1689.04 940.532 1688.74 934.741C1688.46 929.533 1691.85 925.023 1696.55 923.956C1697.12 915.775 1701.45 910.297 1712.3 906.155C1713.06 905.867 1713.87 905.536 1714.75 905.161C1716.4 904.46 1718.11 903.92 1719.85 903.548Z" fill="white" stroke="black" stroke-width="2.5" stroke-linecap="round" stroke-linejoin="round"/>
<mask id="mask0" mask-type="alpha" maskUnits="userSpaceOnUse" x="1687" y="901" width="79" height="62">
<path d="M1719.85 903.548C1734.4 900.457 1748.7 909.403 1752.39 923.653C1752.91 923.539 1753.43 923.467 1753.97 923.438C1759.49 923.149 1764.21 927.61 1764.51 933.401C1764.81 939.192 1760.59 944.12 1755.07 944.41C1753.47 944.493 1751.94 944.178 1750.57 943.547C1746.68 951.939 1738.96 958.486 1729.12 960.576C1715.25 963.526 1705.05 956.594 1700.13 944.619C1699.85 944.66 1699.56 944.688 1699.27 944.703C1693.76 944.992 1689.04 940.532 1688.74 934.741C1688.46 929.533 1691.85 925.023 1696.55 923.956C1697.12 915.775 1701.45 910.297 1712.3 906.155C1713.06 905.867 1713.87 905.536 1714.75 905.161C1716.4 904.46 1718.11 903.92 1719.85 903.548Z" fill="white" stroke="black" stroke-width="2.5" stroke-linecap="round" stroke-linejoin="round"/>
</mask>
<g mask="url(#mask0)">
<path fill-rule="evenodd" clip-rule="evenodd" d="M1759.41 914.14L1753.25 923.706C1739.73 923.342 1730.84 922.296 1726.57 920.568C1722.31 918.84 1719.04 914.962 1716.78 908.934C1714.74 914.576 1712.51 918.359 1710.08 920.28C1707.64 922.202 1703.29 923.626 1697 924.553C1693.42 908.138 1696.43 898.638 1706.01 896.053C1720.39 892.176 1740.79 885.448 1746.25 895.336C1749.89 901.927 1754.28 908.195 1759.41 914.14Z" fill="black"/>
</g>
<path fill-rule="evenodd" clip-rule="evenodd" d="M1707.71 931.994C1709.36 931.85 1710.82 933.071 1710.96 934.721L1711.05 935.717C1711.19 937.368 1709.97 938.823 1708.32 938.967C1706.67 939.112 1705.22 937.891 1705.07 936.24L1704.98 935.244C1704.84 933.594 1706.06 932.139 1707.71 931.994ZM1728.72 931.16C1730.37 931.016 1731.82 932.237 1731.97 933.887L1732.06 934.883C1732.2 936.534 1730.98 937.989 1729.33 938.133C1727.68 938.278 1726.22 937.057 1726.08 935.406L1725.99 934.41C1725.85 932.76 1727.07 931.304 1728.72 931.16Z" stroke="black" stroke-width="2" stroke-linecap="round" stroke-linejoin="round"/>
<path d="M1719.89 944.982C1718.35 946.456 1716.69 946.601 1714.91 945.418" stroke="black" stroke-width="2" stroke-linecap="round" stroke-linejoin="round"/>
<path d="M1716.59 930.214L1714.56 941.433L1717.55 941.172" stroke="black" stroke-width="2" stroke-linecap="round" stroke-linejoin="round"/>
<path fill-rule="evenodd" clip-rule="evenodd" d="M975.413 1116L1088.43 1119.44L1128.87 1377.32C1130.11 1385.25 1130.38 1393.31 1129.68 1401.3L1106.86 1659.95L1037.31 1658.43L1050.75 1392.67L1025.41 1210.47L978.211 1379.2L1024.04 1574.47L961.325 1600.03L904.676 1398.28C899.537 1379.97 899.791 1360.58 905.407 1342.41L975.413 1116Z" fill="#5E69FF"/>
<path d="M975.413 1116L974.219 1115.63L974.5 1114.72L975.451 1114.75L975.413 1116ZM1088.43 1119.44L1088.46 1118.19L1089.5 1118.22L1089.66 1119.24L1088.43 1119.44ZM1128.87 1377.32L1130.1 1377.13H1130.1L1128.87 1377.32ZM1129.68 1401.3L1128.43 1401.19L1129.68 1401.3ZM1106.86 1659.95L1108.1 1660.06L1108 1661.22L1106.83 1661.2L1106.86 1659.95ZM1037.31 1658.43L1037.29 1659.68L1036 1659.65L1036.07 1658.37L1037.31 1658.43ZM1050.75 1392.67L1051.99 1392.5L1052.01 1392.61L1052 1392.73L1050.75 1392.67ZM1025.41 1210.47L1024.21 1210.14C1024.37 1209.57 1024.9 1209.19 1025.5 1209.23C1026.09 1209.27 1026.57 1209.72 1026.65 1210.3L1025.41 1210.47ZM978.211 1379.2L976.994 1379.48L976.92 1379.17L977.007 1378.86L978.211 1379.2ZM1024.04 1574.47L1025.26 1574.18L1025.5 1575.22L1024.51 1575.62L1024.04 1574.47ZM961.325 1600.03L961.797 1601.19L960.5 1601.72L960.122 1600.37L961.325 1600.03ZM904.676 1398.28L905.88 1397.94L904.676 1398.28ZM905.407 1342.41L906.601 1342.78L905.407 1342.41ZM975.451 1114.75L1088.46 1118.19L1088.39 1120.69L975.375 1117.25L975.451 1114.75ZM1089.66 1119.24L1130.1 1377.13L1127.63 1377.52L1087.19 1119.63L1089.66 1119.24ZM1130.1 1377.13C1131.36 1385.16 1131.64 1393.31 1130.92 1401.41L1128.43 1401.19C1129.13 1393.3 1128.86 1385.35 1127.63 1377.52L1130.1 1377.13ZM1130.92 1401.41L1108.1 1660.06L1105.61 1659.84L1128.43 1401.19L1130.92 1401.41ZM1106.83 1661.2L1037.29 1659.68L1037.34 1657.18L1106.89 1658.7L1106.83 1661.2ZM1036.07 1658.37L1049.51 1392.6L1052 1392.73L1038.56 1658.5L1036.07 1658.37ZM1049.52 1392.84L1024.17 1210.65L1026.65 1210.3L1051.99 1392.5L1049.52 1392.84ZM1026.62 1210.81L979.415 1379.53L977.007 1378.86L1024.21 1210.14L1026.62 1210.81ZM979.428 1378.91L1025.26 1574.18L1022.82 1574.75L976.994 1379.48L979.428 1378.91ZM1024.51 1575.62L961.797 1601.19L960.853 1598.88L1023.57 1573.31L1024.51 1575.62ZM960.122 1600.37L903.473 1398.62L905.88 1397.94L962.529 1599.7L960.122 1600.37ZM903.473 1398.62C898.269 1380.08 898.525 1360.44 904.213 1342.04L906.601 1342.78C901.056 1360.72 900.806 1379.87 905.88 1397.94L903.473 1398.62ZM904.213 1342.04L974.219 1115.63L976.608 1116.37L906.601 1342.78L904.213 1342.04Z" fill="black"/>
<path d="M1016.5 1205.5L1025.5 1211.5" stroke="black" stroke-width="2.5" stroke-linecap="round" stroke-linejoin="round"/>
<path fill-rule="evenodd" clip-rule="evenodd" d="M1011 1516L1045.51 1614L1111.5 1614C1110.17 1651.67 1113.67 1683.33 1122 1709C1127.25 1725.17 1129.19 1738.83 1127.83 1749.98C1126.64 1759.69 1118.27 1766.91 1108.49 1766.66L1043.05 1765.01C1032.56 1764.74 1024.28 1756.02 1024.54 1745.53C1024.55 1745.19 1024.57 1744.85 1024.59 1744.5L1031.71 1655.31L924.328 1717.54C920.455 1719.79 915.555 1719.01 912.56 1715.72L912.368 1715.51C909.373 1712.01 909.227 1706.9 912.016 1703.23L950.8 1652.29L944.5 1542.5L1011 1516Z" fill="black"/>
<path fill-rule="evenodd" clip-rule="evenodd" d="M1016 1205L978 1378.5L1025 1212L1016 1205Z" fill="black"/>
<path fill-rule="evenodd" clip-rule="evenodd" d="M1079.59 947.488L1096.34 947.358C1105.37 947.885 1121.3 970.4 1144.13 1014.9C1166.5 1058.52 1177.8 1080.68 1178.05 1081.4L1178.05 1081.42L1264.71 1027.9L1312.87 966.36C1318.09 959.69 1327.72 958.507 1334.4 963.716C1341.07 968.914 1342.25 978.53 1337.06 985.194C1337.05 985.201 1337.05 985.207 1337.04 985.214L1313.03 1015.89L1323.98 1011.48L1374.43 988.736C1381.73 985.447 1390.32 988.569 1393.8 995.775C1397.16 1002.74 1394.24 1011.11 1387.28 1014.48C1387.17 1014.53 1387.05 1014.58 1386.94 1014.63L1338.7 1036.38L1339.31 1037.79L1389.05 1016.33C1396.39 1013.16 1404.91 1016.43 1408.25 1023.69C1411.49 1030.74 1408.41 1039.07 1401.36 1042.31C1401.26 1042.36 1401.16 1042.4 1401.06 1042.45L1350.69 1064.19L1351.25 1065.49L1402.31 1044.91C1409.48 1042.03 1417.64 1045.32 1420.81 1052.37C1423.82 1059.08 1420.82 1066.95 1414.11 1069.96C1413.95 1070.03 1413.79 1070.1 1413.64 1070.16L1346.8 1097.09L1182.44 1170.47C1169.01 1176.46 1153.23 1171.05 1146.32 1158.07L1057.5 991.429C1052.69 982.408 1052.37 971.66 1056.62 962.364C1060.74 953.365 1069.69 947.565 1079.59 947.488Z" fill="white" stroke="black" stroke-width="2.5" stroke-linecap="round" stroke-linejoin="round"/>
<path d="M1331.37 1022.61L1353.37 1074.11" stroke="black" stroke-width="2.5" stroke-linecap="round" stroke-linejoin="round"/>
<path fill-rule="evenodd" clip-rule="evenodd" d="M1105.64 976.246C1105.63 977.123 1105.59 978 1105.5 978.873L1091.87 1120.15L985.229 1111.35L982.271 951.129L1033.97 945.942L1076.12 946.267C1084.34 946.331 1091.75 949.718 1097.09 955.143C1102.43 960.568 1105.7 968.031 1105.64 976.246Z" fill="#FF7C25" stroke="black" stroke-width="2.5"/>
<path fill-rule="evenodd" clip-rule="evenodd" d="M1025.5 972.5C1037.5 1025.17 1048.17 1057 1057.5 1068C1066.83 1079 1081.67 1090.17 1102 1101.5L1023 1129.32L1025.5 972.5Z" fill="black"/>
<path fill-rule="evenodd" clip-rule="evenodd" d="M1033.89 971.226C1033.92 971.542 1033.94 971.859 1033.95 972.177C1034.58 984.658 1034.75 1000.78 1034.46 1020.55C1033.73 1069.56 1033.31 1094.45 1033.19 1095.2L1033.18 1095.21L1134.82 1088.64L1206.24 1056.91C1213.98 1053.47 1223.04 1056.95 1226.49 1064.69C1229.94 1072.41 1226.47 1081.45 1218.75 1084.9C1218.75 1084.9 1218.74 1084.9 1218.73 1084.91L1183.13 1100.72L1194.86 1101.97L1250.09 1105.57C1258.08 1106.09 1264.19 1112.88 1263.88 1120.88C1263.58 1128.61 1257.08 1134.63 1249.35 1134.33C1249.22 1134.33 1249.1 1134.32 1248.98 1134.31L1196.17 1130.86L1196.05 1132.39L1250.04 1136.79C1258.01 1137.44 1264 1144.33 1263.54 1152.31C1263.1 1160.05 1256.46 1165.97 1248.72 1165.52C1248.61 1165.51 1248.5 1165.51 1248.39 1165.5L1193.7 1161.04L1193.59 1162.45L1248.33 1168.26C1256.01 1169.08 1261.68 1175.82 1261.16 1183.53C1260.67 1190.86 1254.33 1196.41 1246.99 1195.92C1246.82 1195.91 1246.65 1195.89 1246.48 1195.87L1174.81 1188.27L995.698 1175.93C980.845 1174.91 969.39 1162.44 969.626 1147.55L972.406 972.524C972.655 956.875 984.745 943.973 1000.34 942.709C1017.48 941.32 1032.5 954.088 1033.89 971.226Z" fill="white" stroke="black" stroke-width="2.5" stroke-linecap="round" stroke-linejoin="round"/>
<path fill-rule="evenodd" clip-rule="evenodd" d="M1068.55 944.134L1068.41 916.118L1039.88 909.39L1034.59 945.506C1039.56 947.591 1045.79 948.683 1053.26 948.782C1060.73 948.88 1065.83 947.331 1068.55 944.134Z" fill="white" stroke="black" stroke-width="2.5" stroke-linecap="round" stroke-linejoin="round"/>
<path fill-rule="evenodd" clip-rule="evenodd" d="M1068.6 941.509L1044.61 918.258L1068.8 918.311L1068.6 941.509Z" fill="black"/>
<path d="M1058.38 870.003C1057.49 869.903 1056.59 869.848 1055.7 869.838C1041.61 869.694 1030 880.665 1029.2 894.584C1028.76 894.499 1028.31 894.444 1027.86 894.42C1022.34 894.131 1017.63 898.591 1017.32 904.382C1017.02 910.173 1021.24 915.102 1026.76 915.391C1028.79 915.498 1030.71 914.961 1032.34 913.951C1035.92 922.694 1042.57 929.402 1052.71 931.558C1066.59 934.508 1076.78 927.576 1081.7 915.602C1081.98 915.641 1082.27 915.669 1082.56 915.685C1088.07 915.974 1092.79 911.513 1093.1 905.722C1093.36 900.672 1090.18 896.277 1085.7 895.044C1085.76 886.561 1082.62 880.219 1073.28 872.962C1072 871.967 1067.03 870.981 1058.38 870.003Z" fill="white" stroke="black" stroke-width="2.5" stroke-linecap="round" stroke-linejoin="round"/>
<mask id="mask1" mask-type="alpha" maskUnits="userSpaceOnUse" x="1016" y="868" width="79" height="66">
<path d="M1058.38 870.004C1057.49 869.904 1056.59 869.849 1055.7 869.839C1041.61 869.695 1030 880.666 1029.19 894.585C1028.76 894.5 1028.31 894.445 1027.86 894.421C1022.34 894.132 1017.63 898.592 1017.32 904.383C1017.02 910.174 1021.24 915.103 1026.76 915.392C1028.79 915.499 1030.71 914.962 1032.34 913.952C1035.92 922.695 1042.57 929.403 1052.71 931.559C1066.59 934.509 1076.78 927.577 1081.7 915.603C1081.98 915.642 1082.27 915.67 1082.56 915.686C1088.07 915.975 1092.79 911.514 1093.09 905.723C1093.36 900.673 1090.18 896.278 1085.7 895.045C1085.76 886.562 1082.62 880.22 1073.28 872.963C1072 871.968 1067.03 870.982 1058.38 870.004Z" fill="white" stroke="black" stroke-width="2.5" stroke-linecap="round" stroke-linejoin="round"/>
</mask>
<g mask="url(#mask1)">
<path fill-rule="evenodd" clip-rule="evenodd" d="M1023.78 884.463L1029.78 894.134L1073.78 893.963L1086.28 893.963C1089.96 878.946 1087.03 870.062 1077.49 867.31C1063.18 863.182 1042.9 856.1 1037.27 865.891C1033.51 872.418 1029.02 878.608 1023.78 884.463Z" fill="black"/>
</g>
<path d="M1055.84 905.392C1055.98 903.742 1054.76 902.286 1053.11 902.142C1051.46 901.998 1050.01 903.219 1049.86 904.869L1049.78 905.865C1049.63 907.516 1050.85 908.971 1052.5 909.115C1054.15 909.26 1055.61 908.039 1055.75 906.388L1055.84 905.392Z" stroke="black" stroke-width="2" stroke-linecap="round" stroke-linejoin="round"/>
<path d="M1076.85 906.226C1076.99 904.576 1075.77 903.12 1074.12 902.976C1072.47 902.832 1071.01 904.053 1070.87 905.703L1070.78 906.699C1070.64 908.35 1071.86 909.805 1073.51 909.949C1075.16 910.094 1076.62 908.873 1076.76 907.222L1076.85 906.226Z" stroke="black" stroke-width="2" stroke-linecap="round" stroke-linejoin="round"/>
<path d="M1061.94 915.964C1063.49 917.438 1065.15 917.583 1066.92 916.4" stroke="black" stroke-width="2" stroke-linecap="round" stroke-linejoin="round"/>
<path d="M1065.24 901.196L1067.27 912.415L1064.28 912.154" stroke="black" stroke-width="2" stroke-linecap="round" stroke-linejoin="round"/>
<path fill-rule="evenodd" clip-rule="evenodd" d="M1055.28 893.962H1086.78C1090.31 893.274 1092.61 889.855 1091.93 886.325C1091.56 884.44 1090.38 882.814 1088.7 881.88L1086.64 880.735C1090.05 878.255 1090.79 873.488 1088.31 870.087C1086.76 867.955 1084.21 866.778 1081.58 866.977L1055.28 868.962V893.962Z" fill="black"/>
<path fill-rule="evenodd" clip-rule="evenodd" d="M1400.82 409.652C1394.99 411.973 1390.64 416.44 1388.34 421.787C1386.03 427.134 1385.77 433.36 1388.09 439.198C1389.24 442.1 1390.98 444.734 1393.2 446.934L1485.45 538.546C1486.95 540.033 1488.9 540.772 1490.86 540.766C1492.82 540.759 1494.77 540.006 1496.26 538.508C1497.25 537.512 1497.92 536.286 1498.25 534.972C1498.58 533.659 1498.56 532.258 1498.15 530.915L1488.12 497.644C1488.05 497.406 1487.97 497.169 1487.9 496.932L1478.03 465.077L1492.64 464.505C1492.85 464.497 1493.04 464.405 1493.17 464.264C1493.3 464.123 1493.37 463.933 1493.37 463.726C1493.36 463.52 1493.26 463.326 1493.11 463.19L1480.65 452.305L1491.22 412.813C1492.85 406.745 1491.86 400.592 1488.95 395.55C1486.03 390.508 1481.2 386.578 1475.13 384.953C1470.19 383.629 1464.91 384.171 1400.82 409.652Z" fill="#66EC36" stroke="black" stroke-width="2.5"/>
<path fill-rule="evenodd" clip-rule="evenodd" d="M1450.76 453.019C1452.75 452.227 1455 453.146 1455.88 455.074L1455.96 455.258L1458.54 461.763C1459.36 463.815 1458.36 466.141 1456.31 466.957C1454.31 467.749 1452.07 466.83 1451.19 464.902L1451.11 464.718L1448.52 458.213C1447.71 456.161 1448.71 453.835 1450.76 453.019ZM1482.36 440.456C1484.35 439.665 1486.6 440.583 1487.47 442.512L1487.55 442.695L1490.14 449.2C1490.95 451.253 1489.95 453.579 1487.9 454.395C1485.85 455.211 1483.52 454.209 1482.7 452.156L1482.7 452.156L1480.12 445.651C1479.3 443.598 1480.3 441.273 1482.36 440.456Z" fill="#FFFFD9" stroke="black" stroke-width="2.5" stroke-linecap="round" stroke-linejoin="round"/>
<path d="M1481.31 452.71L1471.21 444.935C1466.59 441.385 1461.56 438.091 1455.79 437.342C1448.84 436.441 1442.54 438.087 1437.74 442.481L1429.23 450.281L1428.76 450.467M1478.22 465.174L1470.68 465.132" stroke="black" stroke-width="2.5" stroke-linecap="round" stroke-linejoin="round"/>
<path fill-rule="evenodd" clip-rule="evenodd" d="M2140.1 1067.23C2143.77 1070.4 2145.89 1075 2145.91 1079.85C2145.99 1103.7 2147.03 1120.07 2148.99 1128.97C2151.02 1138.16 2156.24 1149.57 2164.71 1163.17L2165.18 1163.93C2168.38 1169.02 2169.2 1174.92 2167.96 1180.34C2166.72 1185.77 2163.41 1190.72 2158.32 1193.91C2157.16 1194.64 2155.94 1195.25 2154.67 1195.75C2138.26 1202.15 2127.68 1207.48 2122.9 1211.68C2109.82 1223.18 2097.55 1234.73 2086.09 1246.34L2084.38 1248.08C2081.92 1250.6 2078.67 1251.88 2075.4 1251.91C2072.14 1251.95 2068.87 1250.74 2066.35 1248.28C2064.3 1246.27 2062.99 1243.63 2062.62 1240.79C2059.28 1214.79 2056.8 1199.17 2055.21 1193.93C2053.62 1188.71 2047.74 1176.76 2037.54 1158.08L2037.19 1157.43C2034.3 1152.16 2033.83 1146.22 2035.4 1140.88C2036.96 1135.54 2040.56 1130.8 2046.26 1127.68C2063.23 1118.89 2075.66 1111.05 2083.58 1104.16C2090.25 1098.35 2101.03 1086.84 2115.91 1069.62L2116.47 1068.97C2119.49 1065.47 2123.65 1063.52 2127.92 1063.21C2132.2 1062.89 2136.6 1064.21 2140.1 1067.23Z" fill="#5E69FF" stroke="black" stroke-width="2.5"/>
<path fill-rule="evenodd" clip-rule="evenodd" d="M2117.77 1146.78C2115.73 1146.13 2113.55 1147.21 2112.82 1149.2L2112.75 1149.39L2110.64 1156.06C2109.98 1158.17 2111.15 1160.42 2113.26 1161.08C2115.3 1161.73 2117.47 1160.65 2118.21 1158.66L2118.27 1158.47L2120.38 1151.79C2121.04 1149.69 2119.88 1147.44 2117.77 1146.78ZM2091.07 1138.35C2089.02 1137.7 2086.85 1138.78 2086.11 1140.77L2086.05 1140.96L2083.94 1147.64C2083.28 1149.74 2084.45 1151.99 2086.55 1152.65C2088.66 1153.32 2090.91 1152.15 2091.57 1150.04L2091.57 1150.04L2093.68 1143.37C2094.34 1141.26 2093.17 1139.01 2091.07 1138.35Z" fill="#FFFFD9" stroke="black" stroke-width="2.5" stroke-linecap="round" stroke-linejoin="round"/>
<path d="M2128.36 1136.49L2128.18 1136.43C2117.12 1132.94 2105.32 1139.07 2101.83 1150.13L2100.64 1153.9L2065.58 1165.96L2091.61 1174.17" stroke="black" stroke-width="2.5" stroke-linecap="round" stroke-linejoin="round"/>
<path fill-rule="evenodd" clip-rule="evenodd" d="M769.641 1416.89L735.507 1426.87L738.742 1447.77C738.954 1449.14 738.592 1450.46 737.836 1451.49C737.08 1452.52 735.93 1453.27 734.566 1453.48C733.193 1453.69 731.833 1453.44 730.669 1452.82C729.505 1452.2 728.537 1451.21 727.948 1449.95L719.383 1431.63L680.745 1441.22L682.172 1459.6C682.281 1461 681.916 1462.36 681.192 1463.49C680.468 1464.61 679.385 1465.51 678.061 1465.99C676.739 1466.48 675.34 1466.43 674.111 1465.95C672.882 1465.47 671.822 1464.56 671.178 1463.31L662.535 1446.51L627.979 1455.65L683.335 1581.26C687.651 1591.05 694.988 1598.79 703.889 1603.66C712.791 1608.54 723.257 1610.56 733.833 1608.92C744.121 1607.33 753.061 1602.1 759.429 1594.68C765.797 1587.25 769.594 1577.62 769.597 1567.21L769.641 1416.89Z" fill="#FFE13D" stroke="black" stroke-width="2.5"/>
<path fill-rule="evenodd" clip-rule="evenodd" d="M703.317 1514.73C705.434 1514.4 707.42 1515.8 707.846 1517.87L707.882 1518.07L708.952 1524.99C709.29 1527.17 707.794 1529.21 705.611 1529.55C703.494 1529.88 701.509 1528.48 701.082 1526.41L701.047 1526.21L699.976 1519.29C699.638 1517.11 701.134 1515.07 703.317 1514.73ZM737.905 1509.38C740.022 1509.05 742.008 1510.44 742.435 1512.52L742.47 1512.72L743.541 1519.63C743.878 1521.82 742.383 1523.86 740.2 1524.2C738.016 1524.54 735.973 1523.04 735.635 1520.86L735.635 1520.86L734.564 1513.94C734.226 1511.76 735.722 1509.71 737.905 1509.38Z" fill="#FFFFD9" stroke="black" stroke-width="2.5" stroke-linecap="round" stroke-linejoin="round"/>
<path d="M683.546 1511.21L693.587 1505.51C701.471 1501.03 711.34 1502.11 718.061 1508.2L723.232 1512.89L747.217 1541.17L720.643 1534.93" stroke="black" stroke-width="2.5" stroke-linecap="round" stroke-linejoin="round"/>
<path fill-rule="evenodd" clip-rule="evenodd" d="M1400.29 903.11C1400.64 903.395 1400.87 903.806 1400.93 904.256L1407.4 956.215L1470.85 960.365C1471.34 960.397 1471.76 960.621 1472.06 960.958C1472.35 961.294 1472.52 961.744 1472.49 962.226C1472.45 962.788 1472.14 963.298 1471.67 963.596L1425.45 992.419L1458.59 1025.44C1458.94 1025.78 1459.11 1026.22 1459.11 1026.67C1459.11 1027.12 1458.94 1027.57 1458.6 1027.91C1458.24 1028.27 1457.74 1028.46 1457.23 1028.42L1408.54 1024.94L1419.09 1077.33C1419.18 1077.81 1419.08 1078.27 1418.83 1078.65C1418.58 1079.02 1418.19 1079.3 1417.72 1079.39C1417.14 1079.51 1416.54 1079.33 1416.12 1078.9L1371.92 1033.81L1325.16 1067.37C1324.77 1067.65 1324.3 1067.74 1323.86 1067.67C1323.41 1067.6 1323 1067.36 1322.72 1066.96C1322.43 1066.56 1322.32 1066.06 1322.43 1065.58L1334.56 1008.74L1294.9 1005.49C1294.42 1005.45 1294 1005.22 1293.71 1004.88C1293.42 1004.54 1293.26 1004.08 1293.3 1003.6C1293.34 1003.07 1293.63 1002.59 1294.07 1002.3L1334.94 974.643L1315.32 930.034C1315.13 929.592 1315.13 929.113 1315.3 928.695C1315.46 928.278 1315.78 927.923 1316.22 927.728C1316.66 927.535 1317.16 927.531 1317.6 927.717L1362.88 946.734L1397.83 903.374C1398.13 902.998 1398.56 902.78 1399 902.732C1399.45 902.685 1399.91 902.807 1400.29 903.11Z" fill="#FF7C25" stroke="black" stroke-width="2.5"/>
<path fill-rule="evenodd" clip-rule="evenodd" d="M1388.96 981.365C1386.86 980.918 1384.8 982.2 1384.26 984.248L1384.21 984.442L1382.75 991.288C1382.29 993.449 1383.67 995.574 1385.83 996.035C1387.92 996.482 1389.99 995.2 1390.53 993.152L1390.58 992.957L1392.04 986.111C1392.5 983.951 1391.12 981.826 1388.96 981.365ZM1362.55 975.731C1360.46 975.284 1358.4 976.566 1357.85 978.614L1357.81 978.808L1356.35 985.654C1355.89 987.815 1357.26 989.94 1359.42 990.401C1361.58 990.862 1363.71 989.484 1364.17 987.324L1364.17 987.323L1365.63 980.477C1366.09 978.317 1364.71 976.192 1362.55 975.731Z" fill="#FFFFD9" stroke="black" stroke-width="2.5" stroke-linecap="round" stroke-linejoin="round"/>
<path d="M1403.37 967.382L1391.99 965.407C1383.06 963.855 1374.14 968.214 1369.87 976.216L1366.59 982.373L1353.57 1017.09L1376.47 1002.25" stroke="black" stroke-width="2.5" stroke-linecap="round" stroke-linejoin="round"/>
</svg>
