<svg width="2811" height="1999" viewBox="0 0 2811 1999" fill="none" xmlns="http://www.w3.org/2000/svg">
<g clip-path="url(#clip0)">
<rect width="2811" height="1999" fill="white"/>
<path fill-rule="evenodd" clip-rule="evenodd" d="M791 332H992V1640H791V332Z" fill="#DFE9F3"/>
<path fill-rule="evenodd" clip-rule="evenodd" d="M1793 716H2114V1640H1793V716Z" fill="#E4EDF6"/>
<path d="M992 242H901V287H992V242Z" fill="#DFE9F3"/>
<path fill-rule="evenodd" clip-rule="evenodd" d="M2114 1079L2435 1307.32V1640H2114V1079Z" fill="#E4EDF6"/>
<path fill-rule="evenodd" clip-rule="evenodd" d="M1792 716H1951V1640H1792V716Z" fill="#DFE9F3"/>
<path d="M1861 716H1840V1371H1861V716Z" fill="#E4EDF6"/>
<path fill-rule="evenodd" clip-rule="evenodd" d="M444 929H792V1640H444V929Z" fill="#E4EDF6"/>
<path d="M516 980H480V1596H516V980Z" fill="#DFE9F3"/>
<path d="M603 980H567V1596H603V980Z" fill="#DFE9F3"/>
<path d="M690 980H654V1596H690V980Z" fill="#DFE9F3"/>
<path d="M516 1061H480V1109H516V1061Z" fill="#EBF2F9"/>
<path d="M516 1239H480V1287H516V1239Z" fill="#EBF2F9"/>
<path d="M603 983H567V1031H603V983Z" fill="#EBF2F9"/>
<path d="M690 1155H654V1203H690V1155Z" fill="#EBF2F9"/>
<path fill-rule="evenodd" clip-rule="evenodd" d="M1430.1 177V504.27H1376V1409.52V1640H1651V504.27H1514.25V249.059L1430.1 177Z" fill="#DFE9F3"/>
<path d="M1651 671H1483V716H1651V671Z" fill="#EBF2F9"/>
<path d="M1630 440H1537V485H1630V440Z" fill="#EBF2F9"/>
<path fill-rule="evenodd" clip-rule="evenodd" d="M1930.5 693.5V533.5H1975.5V693.5H1930.5Z" fill="#E4EDF6"/>
<path fill-rule="evenodd" clip-rule="evenodd" d="M1292.5 1043.5V883.5H1337.5V1043.5H1292.5Z" fill="#E4EDF6"/>
<path fill-rule="evenodd" clip-rule="evenodd" d="M1930.5 510.5V462.5H1975.5V510.5H1930.5Z" fill="#E4EDF6"/>
<path d="M2160 890H2069V935H2160V890Z" fill="#E4EDF6"/>
<path d="M2160 961H2069V1006H2160V961Z" fill="#E4EDF6"/>
<path fill-rule="evenodd" clip-rule="evenodd" d="M957 809V1250H918V809H957ZM957 740V785H918V740H957ZM957 671V716H918V671H957ZM957 602V647H918V602H957ZM957 533V578H918V533H957ZM957 464V509H918V464H957ZM957 395V440H918V395H957Z" fill="#EBF2F9"/>
<path d="M1651 758H1483V803H1651V758Z" fill="#EBF2F9"/>
<path d="M1651 845H1483V890H1651V845Z" fill="#EBF2F9"/>
<path fill-rule="evenodd" clip-rule="evenodd" d="M638 931V785.118L793 740V931H638Z" fill="#EBF2F9"/>
<path fill-rule="evenodd" clip-rule="evenodd" d="M992 1640H1456V1019.15L1263.79 1190.33L1056.57 872V1436.58H992V1640Z" fill="#E4EDF6"/>
<path fill-rule="evenodd" clip-rule="evenodd" d="M1650 1640H1793V1411L1677 1554.98H1650V1640Z" fill="#E4EDF6"/>
<path fill-rule="evenodd" clip-rule="evenodd" d="M685.5 827.5V641.5H742.5V827.5H685.5Z" fill="#DFE9F3"/>
<path fill-rule="evenodd" clip-rule="evenodd" d="M1293 1573V1268H1338V1573H1293Z" fill="#DFE9F3"/>
<path d="M1338 1328H1293V1376H1338V1328Z" fill="#EBF2F9"/>
<path d="M1338 1441H1293V1489H1338V1441Z" fill="#EBF2F9"/>
<g clip-path="url(#clip1)">
<path fill-rule="evenodd" clip-rule="evenodd" d="M861.262 1137.8C908.724 1137.8 947.199 1176.31 947.199 1223.82C947.199 1242.35 941.346 1259.51 931.39 1273.55L931.409 1273.56L811.046 1445.6L1029.13 1693.58C1039.76 1705.67 1038.58 1724.09 1026.51 1734.73C1021.19 1739.42 1014.35 1742 1007.27 1742H400.561C384.477 1742 371.438 1728.95 371.438 1712.85C371.438 1706.26 373.668 1699.86 377.765 1694.71L790.328 1175.25C805.812 1152.63 831.806 1137.8 861.262 1137.8Z" fill="#A057FF" stroke="black" stroke-width="2.5" stroke-linecap="round" stroke-linejoin="round"/>
<path fill-rule="evenodd" clip-rule="evenodd" d="M690.25 1507.64C693.088 1507.64 695.389 1509.94 695.389 1512.78V1515.64C695.389 1518.48 693.088 1520.78 690.25 1520.78C687.411 1520.78 685.111 1518.48 685.111 1515.64V1512.78C685.111 1509.94 687.411 1507.64 690.25 1507.64ZM625.722 1507.64C628.561 1507.64 630.862 1509.94 630.862 1512.78V1515.64C630.862 1518.48 628.561 1520.78 625.722 1520.78C622.884 1520.78 620.583 1518.48 620.583 1515.64V1512.78C620.583 1509.94 622.884 1507.64 625.722 1507.64Z" fill="#FFFFD9" stroke="black" stroke-width="2.5" stroke-linecap="round" stroke-linejoin="round"/>
<path d="M650.277 1518.5L650.294 1518.54C651.871 1522.64 656.467 1524.68 660.557 1523.1C662.663 1522.28 664.324 1520.61 665.124 1518.5" stroke="black" stroke-width="2.5" stroke-linecap="round" stroke-linejoin="round"/>
</g>
<path fill-rule="evenodd" clip-rule="evenodd" d="M1829.46 1394.49L1806.65 1527.26C1804 1542.65 1805.04 1558.44 1809.69 1573.35L1844.03 1683.64L1801.45 1709.55C1797.74 1711.81 1795.29 1715.36 1794.34 1719.28C1793.38 1723.19 1793.92 1727.47 1796.18 1731.19C1799.04 1735.88 1804.14 1738.75 1809.64 1738.75H2040.82L1954.66 1592.06C1947.82 1580.41 1943.38 1567.52 1941.6 1554.13L1933.24 1491.32L1829.46 1394.49Z" fill="#ADF7FF" stroke="black" stroke-width="2.5"/>
<path fill-rule="evenodd" clip-rule="evenodd" d="M2106.17 1169.79L1714.26 1275.55L1904.26 1491.92C1920.08 1509.94 1943.73 1519.06 1967.56 1516.35C1979.03 1515.04 1989.56 1510.36 1998.03 1503.24C2006.5 1496.11 2012.92 1486.55 2016.19 1475.47L2106.17 1169.79Z" fill="#5E69FF" stroke="black" stroke-width="2.5"/>
<path fill-rule="evenodd" clip-rule="evenodd" d="M2047.01 1370.05C2030.43 1399.9 2018.98 1423.68 2012.68 1441.42C2006.28 1459.43 2001.98 1480.25 1999.77 1503.87L2018.22 1565.4L2048.2 1738.75L2220.88 1738.22L2124.78 1565.89L2119.01 1513.17C2117.54 1499.79 2113.36 1486.86 2106.71 1475.16L2047.01 1370.05Z" fill="#ADF7FF" stroke="black" stroke-width="2.5"/>
<path fill-rule="evenodd" clip-rule="evenodd" d="M1822.62 1644.45C1821.69 1646.78 1821.94 1649.42 1823.29 1651.53L1843.24 1682.55L1984.25 1703.55V1700.85L1832.69 1640.14C1830.71 1639.34 1828.59 1639.43 1826.76 1640.21C1824.94 1640.99 1823.41 1642.46 1822.62 1644.45Z" fill="#ADF7FF" stroke="black" stroke-width="2.5"/>
<path fill-rule="evenodd" clip-rule="evenodd" d="M2041.85 1700.42L2043.39 1708.9C2067.71 1692.77 2091.22 1684.07 2113.93 1682.75C2136.36 1681.45 2164.47 1686.44 2198.25 1697.75L2194.6 1691.43L2105.83 1643.78C2104.32 1642.97 2102.63 1642.7 2101.01 1642.94C2099.4 1643.18 2097.87 1643.93 2096.66 1645.15L2041.85 1700.42Z" fill="#ADF7FF" stroke="black" stroke-width="2.5"/>
<path d="M1992.5 1717.75C2009.21 1717.75 2022.75 1704.21 2022.75 1687.5C2022.75 1670.79 2009.21 1657.25 1992.5 1657.25C1975.79 1657.25 1962.25 1670.79 1962.25 1687.5C1962.25 1704.21 1975.79 1717.75 1992.5 1717.75Z" fill="#ADF7FF" stroke="black" stroke-width="2.5"/>
<path d="M1815 1590.5C1837.46 1587.66 1853.36 1567.15 1850.52 1544.7C1848.83 1531.33 1840.68 1519.65 1828.73 1513.45L1810.5 1504" stroke="black" stroke-width="2.5" stroke-linecap="round" stroke-linejoin="round"/>
<path fill-rule="evenodd" clip-rule="evenodd" d="M2087.45 1559.02C2107.76 1555 2120.97 1535.28 2116.95 1514.96C2113.22 1496.11 2095.84 1483.13 2076.7 1484.91C2071.61 1485.38 2066.42 1485.98 2061.15 1486.69C2040.74 1489.47 2026.44 1508.26 2029.21 1528.67C2031.91 1548.57 2049.88 1562.76 2069.86 1560.77L2087.45 1559.02Z" stroke="black" stroke-width="2.5" stroke-linecap="round" stroke-linejoin="round"/>
<g clip-path="url(#clip2)">
<path fill-rule="evenodd" clip-rule="evenodd" d="M2336.06 992.722L2115.2 1093.32L2318.05 1189.07L2188.09 1282.19L2259.29 1445.68L2458.84 1308.61C2461.36 1306.88 2463.79 1305.03 2466.14 1303.07C2487.09 1285.62 2498.98 1261.32 2501.27 1236.15C2503.56 1210.98 2496.24 1184.94 2478.79 1163.99L2336.06 992.722Z" fill="#5E69FF" stroke="black" stroke-width="2.5"/>
<path d="M2316.12 1191.16L2358.43 1156.9" stroke="black" stroke-width="2.5" stroke-linecap="round" stroke-linejoin="round"/>
<path fill-rule="evenodd" clip-rule="evenodd" d="M2132.06 728.506C2151.56 701.694 2189.11 695.767 2215.92 715.269C2223.71 720.936 2230.02 728.392 2234.32 737.005L2234.64 737.653L2251.09 771.61C2263.38 796.991 2286.62 815.318 2314.13 821.366L2314.97 821.546L2383.79 836.008C2419.12 843.433 2441.74 878.093 2434.31 913.423C2431.31 927.729 2423.59 940.607 2412.42 950.008L2411.88 950.453L2287.06 1053.18L2276.89 1040.82L2401.71 938.099C2410.37 930.972 2416.35 921.108 2418.66 910.132C2424.21 883.716 2407.52 857.797 2381.29 851.841L2380.5 851.666L2311.68 837.204C2279.28 830.396 2251.81 809.111 2237.13 779.484L2236.69 778.584L2220.24 744.626C2217.08 738.108 2212.37 732.469 2206.51 728.209C2187.04 714.048 2159.86 718.166 2145.44 737.332L2145 737.918L2090.97 812.206L2078.03 802.794L2132.06 728.506Z" fill="white" stroke="black" stroke-width="2.5" stroke-linecap="round" stroke-linejoin="round"/>
<path fill-rule="evenodd" clip-rule="evenodd" d="M1339.78 1008.38C1317.11 983.675 1318.75 945.27 1343.45 922.598C1352.81 914.015 1364.61 908.582 1377.2 907.056L1377.88 906.976L1394.23 905.183C1439.31 900.238 1473.55 862.497 1474.25 817.298L1474.26 815.926C1474.27 786.48 1498.15 762.617 1527.59 762.627C1538.42 762.63 1548.98 765.93 1557.88 772.078L1558.41 772.45L1708.11 884.226L1698.85 897.278L1549.16 785.502C1542.85 781.032 1535.32 778.629 1527.59 778.627C1507.18 778.62 1490.6 794.989 1490.26 815.314L1490.26 815.931C1490.24 869.356 1450.43 914.296 1397.58 920.899L1395.97 921.088L1379.63 922.881C1370.17 923.919 1361.28 927.949 1354.27 934.385C1336.26 950.916 1334.9 978.801 1351.07 997.009L1351.57 997.557L1498.12 1157.23L1486.33 1168.05L1339.78 1008.38Z" fill="white" stroke="black" stroke-width="2.5" stroke-linecap="round" stroke-linejoin="round"/>
<path fill-rule="evenodd" clip-rule="evenodd" d="M1510.62 1048.44L1454.35 1223.95L1340.25 1201.03V1354.5L1471.23 1384.43C1496.17 1390.13 1521.22 1385.84 1542 1374.03C1562.79 1362.23 1579.3 1342.91 1587.18 1318.57C1615.23 1231.93 1630.76 1181.65 1633.78 1167.73C1642.21 1128.88 1649.75 1098.52 1656.4 1076.66L1510.62 1048.44Z" fill="#5E69FF" stroke="black" stroke-width="2.5"/>
<path fill-rule="evenodd" clip-rule="evenodd" d="M1640.04 838.542L1673.5 973L1787.83 915.129L1764.42 809.619C1761.68 797.255 1750.71 788.459 1738.04 788.468L1716.99 788.483C1701.86 788.494 1686.93 791.938 1673.32 798.556L1654.44 807.742C1642.97 813.321 1636.96 826.165 1640.04 838.542Z" fill="black"/>
<path fill-rule="evenodd" clip-rule="evenodd" d="M1983.53 777.592L1913.73 901.867L2047.96 962.219L2105.91 841.808C2111.82 829.528 2108.38 814.789 2097.64 806.392C2082.39 794.459 2071.67 786.829 2065.5 783.5C2058.97 779.978 2043.43 773.676 2018.88 764.595C2005.5 759.647 1990.51 765.158 1983.53 777.592Z" fill="black"/>
<path fill-rule="evenodd" clip-rule="evenodd" d="M1543.21 916.053C1501.4 920.447 1465.33 941.429 1440.82 971.799C1416.31 1002.17 1403.35 1041.93 1407.76 1083.88C1411.14 1116.08 1431.62 1152.03 1469.04 1191.8C1506.74 1210.58 1537.47 1221.28 1561.25 1223.88C1589.21 1226.94 1644.97 1226.57 1728.54 1222.78L1710.59 1052.05C1707.02 1018.06 1684.06 973.788 1641.85 919.197C1598.03 914.799 1565.15 913.747 1543.21 916.053Z" fill="#ADF7FF" stroke="black" stroke-width="2.5"/>
<path fill-rule="evenodd" clip-rule="evenodd" d="M1767.87 853.225C1731.76 857.021 1690.14 878.784 1642.97 918.394C1657.79 959.685 1673.55 987.932 1690.34 1003.07C1716.32 1026.51 1725.1 1059.47 1732.92 1089.09C1738.9 1111.71 1744.28 1132.37 1756.77 1144.98C1766.08 1154.38 1779.38 1159.2 1799.81 1157.05C1841.62 1152.66 1877.68 1131.68 1902.19 1101.31C1926.71 1070.93 1939.66 1031.17 1935.25 989.224C1930.85 947.274 1909.91 911.076 1879.61 886.465C1849.32 861.855 1809.68 848.83 1767.87 853.225Z" fill="#ADF7FF" stroke="black" stroke-width="2.5"/>
<path fill-rule="evenodd" clip-rule="evenodd" d="M2091.47 910.762C2083.19 924.328 2077.03 934.647 2073.01 941.724C2067.77 950.938 2059.89 958.837 2052.04 966.683C2039.16 979.56 2026.25 992.279 2026.25 1010.98C2026.25 1045.33 2041.81 1119.99 2072.88 1234.97C2157.69 1213.65 2222.98 1185.83 2268.75 1151.48C2314.52 1117.13 2340.72 1076.26 2347.26 1028.83C2351.83 995.688 2336.94 960.885 2314.29 932.267C2287.83 898.819 2250.72 873.745 2221.33 869.738C2184.95 864.777 2141.67 878.509 2091.47 910.762Z" fill="#ADF7FF" stroke="black" stroke-width="2.5"/>
<path fill-rule="evenodd" clip-rule="evenodd" d="M1942.5 841.25C1900.46 841.25 1862.4 858.347 1834.84 885.988C1807.29 913.631 1790.25 951.819 1790.25 994C1790.25 1037.82 1796.11 1069.88 1813.64 1090.53C1829.78 1109.53 1855.81 1118.75 1896 1118.75C1924.01 1118.75 1954.31 1101.38 1986.98 1066.89C2019.8 1032.25 2054.95 980.351 2092.47 911.206C2048.41 864.589 1998.43 841.25 1942.5 841.25Z" fill="#ADF7FF" stroke="black" stroke-width="2.5"/>
<path fill-rule="evenodd" clip-rule="evenodd" d="M1809.55 922.766C1740.09 936.363 1687.97 959.05 1653.22 990.896C1618.56 1022.66 1601.25 1063.53 1601.25 1113.5C1601.25 1166.26 1616.2 1215.51 1642.09 1257.23C1657.19 1281.58 1684.82 1295.68 1711.79 1309.53C1723.37 1315.47 1734.83 1321.35 1745.17 1327.95C1753.42 1333.2 1761.28 1338.62 1769 1343.93C1800.55 1365.66 1829.6 1385.75 1872.5 1385.75C1947.4 1385.75 2015.22 1355.28 2064.3 1306.01C2113.39 1256.74 2143.75 1188.68 2143.75 1113.5C2143.75 1088.58 2136.83 1065.94 2123 1045.56C2109.11 1025.11 2088.27 1006.95 2060.5 991.06C2004.73 959.139 1921.07 936.392 1809.55 922.766Z" fill="#ADF7FF" stroke="black" stroke-width="2.5"/>
<path fill-rule="evenodd" clip-rule="evenodd" d="M1769.93 999.665L1777.27 975.875L1808.26 942.641L1822.89 954.84C1838.54 967.885 1840.64 991.142 1827.6 1006.79C1823.31 1011.93 1817.69 1015.81 1811.36 1018.01C1804.03 1020.55 1791.69 1014.91 1788.69 1014.22C1779.53 1012.11 1773.28 1007.26 1769.93 999.665Z" fill="black"/>
<path d="M1788.93 938.255C1790.31 938.152 1791.71 938.144 1793.09 938.23C1807.25 939.111 1818.55 949.483 1821.2 962.765C1826 963.981 1829.64 968.397 1829.83 973.781C1830.01 979.125 1826.74 983.755 1822.1 985.337C1822.8 996.115 1822.79 1004.07 1809.5 1009C1804.02 1011.03 1778.49 1013.05 1774 1011.5C1763.88 1008.01 1762.2 996.304 1759.73 983.69C1759.33 981.643 1758.86 979.542 1758.31 977.387C1757.86 975.622 1757.57 973.821 1757.43 972.005C1756.15 954.754 1769.1 939.73 1786.35 938.447L1788.93 938.255Z" fill="white"/>
<path d="M1788.93 938.255C1790.31 938.152 1791.71 938.144 1793.09 938.23C1807.25 939.111 1818.55 949.483 1821.2 962.765C1826 963.981 1829.64 968.397 1829.83 973.781C1830.01 979.125 1826.74 983.755 1822.1 985.337C1822.8 996.115 1822.79 1004.07 1809.5 1009C1804.02 1011.03 1778.49 1013.05 1774 1011.5C1763.88 1008.01 1762.2 996.304 1759.73 983.69C1759.33 981.643 1758.86 979.542 1758.31 977.387C1757.86 975.622 1757.57 973.821 1757.43 972.005C1756.15 954.754 1769.1 939.73 1786.35 938.447L1788.93 938.255Z" fill="white" stroke="black" stroke-width="2.5" stroke-linecap="round" stroke-linejoin="round"/>
<path d="M1797.36 973.348L1798.12 973.294C1799.78 973.178 1801.21 974.425 1801.32 976.077L1801.45 977.902C1801.57 979.555 1800.32 980.988 1798.67 981.104L1797.9 981.158C1796.25 981.273 1794.82 980.027 1794.7 978.374L1794.57 976.55C1794.46 974.897 1795.7 973.463 1797.36 973.348Z" fill="white" stroke="black" stroke-width="2" stroke-linecap="round" stroke-linejoin="round"/>
<path d="M1768.55 973.947L1769.32 973.894C1770.97 973.778 1772.4 975.024 1772.52 976.677L1772.64 978.502C1772.76 980.154 1771.51 981.588 1769.86 981.703L1769.09 981.757C1767.44 981.873 1766.01 980.627 1765.89 978.974L1765.76 977.149C1765.65 975.496 1766.89 974.063 1768.55 973.947Z" stroke="black" stroke-width="2.5" stroke-linecap="round" stroke-linejoin="round"/>
<path d="M1788.66 991.652C1786.89 993.271 1785.02 993.402 1783.04 992.046" stroke="black" stroke-width="2" stroke-linecap="round" stroke-linejoin="round"/>
<path d="M1785.51 972.824L1777.49 988.91L1785.99 986.815" stroke="black" stroke-width="2" stroke-linecap="round" stroke-linejoin="round"/>
<path fill-rule="evenodd" clip-rule="evenodd" d="M1762 996.5C1771.81 993.091 1776.61 985.729 1776.41 974.415C1776.22 963.101 1772.13 954.98 1764.16 950.051C1757.89 955.922 1754.84 963.571 1755 973C1755.16 982.428 1757.5 990.261 1762 996.5Z" fill="black"/>
<path fill-rule="evenodd" clip-rule="evenodd" d="M1765.56 894.397C1762.76 894.861 1760.66 895.25 1759.26 895.565C1758.96 895.635 1758.69 895.698 1758.42 895.787C1759.96 900.555 1764.99 917.846 1773.46 947.693L1781.78 947.299C1783.58 943.836 1785.95 941.428 1788.83 940.031C1791.87 938.562 1796.51 938.35 1802.8 939.576L1805.73 941.209L1806.19 932.47C1806.42 928.023 1804.49 923.739 1801 920.974L1779.72 904.116L1781.7 919.521L1772.11 900.224L1765.56 894.397Z" fill="#66EC36" stroke="black" stroke-width="2.5"/>
<path d="M1764.87 894.513L1781.15 946.936" stroke="black" stroke-width="2.5" stroke-linecap="round" stroke-linejoin="round"/>
<path d="M1766.51 976.195L1765.75 976.262C1764.1 976.407 1762.87 977.862 1763.02 979.512L1763.18 981.334C1763.32 982.985 1764.78 984.206 1766.43 984.061L1767.19 983.994C1768.85 983.85 1770.07 982.395 1769.92 980.744L1769.76 978.922C1769.62 977.272 1768.16 976.051 1766.51 976.195Z" stroke="black" stroke-width="2.5" stroke-linecap="round" stroke-linejoin="round"/>
<path d="M1807 1015.5L1797.69 1157.84C1794.2 1211.3 1833.46 1258.02 1886.73 1263.78C1894.24 1264.59 1902 1265 1910 1265C1957.56 1265 2027.89 1250.67 2121 1222" stroke="black" stroke-width="2.5" stroke-linecap="round" stroke-linejoin="round"/>
<path d="M1807 1015.5L1796.04 1169.49C1792.12 1224.58 1744.29 1266.06 1689.2 1262.14C1687.17 1262 1685.16 1261.79 1683.15 1261.52L1641.5 1256" stroke="black" stroke-width="2.5" stroke-linecap="round" stroke-linejoin="round"/>
<path fill-rule="evenodd" clip-rule="evenodd" d="M2096.45 1329.57C2092.09 1321.97 2091.22 1313.32 2093.32 1305.48C2095.43 1297.63 2100.53 1290.59 2108.11 1286.19L2178.79 1245.25C2186.34 1240.92 2194.94 1240.06 2202.74 1242.17C2210.53 1244.28 2217.52 1249.37 2221.86 1256.92C2226.22 1264.53 2227.1 1273.17 2224.99 1281.02C2222.88 1288.87 2217.78 1295.91 2210.2 1300.3L2139.52 1341.24C2131.97 1345.58 2123.37 1346.44 2115.57 1344.33C2107.78 1342.22 2100.79 1337.13 2096.45 1329.57Z" fill="#ADF7FF" stroke="black" stroke-width="2.5"/>
<path fill-rule="evenodd" clip-rule="evenodd" d="M1220.11 1123.34C1224.5 1114.4 1232.09 1108.08 1240.83 1105.08C1249.56 1102.08 1259.43 1102.4 1268.39 1106.75L1337.38 1140.28C1350.16 1146.56 1359.19 1157.42 1363.45 1169.92C1367.71 1182.41 1367.21 1196.53 1360.93 1209.31L1352.01 1227.48L1236.48 1171.34C1227.6 1166.98 1221.32 1159.42 1218.36 1150.73C1215.39 1142.05 1215.74 1132.23 1220.11 1123.34Z" fill="#ADF7FF" stroke="black" stroke-width="2.5"/>
<path fill-rule="evenodd" clip-rule="evenodd" d="M1325.82 1175.97C1327.62 1176.42 1329.4 1176.92 1331.16 1177.48C1355.01 1185.02 1373.54 1201.51 1384.22 1222.08C1394.91 1242.64 1397.75 1267.29 1390.21 1291.13L1385.95 1304.59C1379.02 1326.51 1364.06 1343.75 1345.28 1354C1326.5 1364.25 1303.9 1367.51 1281.71 1361.49L1150.29 1325.79L1185.89 1202.15L1063.54 1163.28C1057.18 1161.21 1052.25 1156.76 1049.43 1151.23C1046.61 1145.7 1045.91 1139.09 1047.97 1132.72L1051.3 1122.49C1053.36 1116.15 1057.78 1111.23 1063.28 1108.41C1068.78 1105.58 1075.35 1104.85 1081.71 1106.87L1201.1 1144.79L1325.82 1175.97Z" fill="#ADF7FF" stroke="black" stroke-width="2.5"/>
<path fill-rule="evenodd" clip-rule="evenodd" d="M1120.19 1195.42L1247.11 1232.44C1253.5 1234.43 1258.48 1238.81 1261.37 1244.3C1264.26 1249.8 1265.06 1256.39 1263.07 1262.79L1259.88 1273.06C1257.92 1279.38 1253.61 1284.33 1248.2 1287.23C1242.79 1290.14 1236.28 1291 1229.93 1289.15L1103.01 1252.14C1096.62 1250.15 1091.64 1245.76 1088.75 1240.27C1085.86 1234.78 1085.07 1228.19 1087.06 1221.79L1090.25 1211.51C1092.21 1205.2 1096.52 1200.25 1101.93 1197.34C1107.34 1194.44 1113.84 1193.57 1120.19 1195.42Z" fill="#ADF7FF" stroke="black" stroke-width="2.5"/>
<path fill-rule="evenodd" clip-rule="evenodd" d="M1234 1290.17C1234.24 1290.24 1234.49 1290.31 1234.74 1290.39C1240.86 1292.33 1245.61 1296.56 1248.35 1301.84C1251.09 1307.13 1251.82 1313.45 1249.88 1319.57L1246.74 1329.5C1244.85 1335.48 1240.75 1340.17 1235.62 1342.94C1230.5 1345.71 1224.33 1346.56 1218.29 1344.87L1087.99 1308.32C1087.74 1308.25 1087.5 1308.18 1087.25 1308.1C1081.13 1306.16 1076.37 1301.93 1073.63 1296.65C1070.89 1291.37 1070.17 1285.04 1072.1 1278.92L1075.25 1268.99C1077.14 1263.01 1081.23 1258.32 1086.36 1255.55C1091.49 1252.78 1097.66 1251.93 1103.69 1253.62L1234 1290.17Z" fill="#ADF7FF" stroke="black" stroke-width="2.5"/>
<path fill-rule="evenodd" clip-rule="evenodd" d="M2217.73 1482.69L2217.26 1481.99L2194.06 1497.84C2193.85 1497.98 2193.63 1498.12 2193.42 1498.26C2188 1501.7 2181.7 1502.62 2175.89 1501.33C2170.08 1500.03 2164.77 1496.52 2161.33 1491.1L2155.74 1482.31C2152.38 1477.02 2151.42 1470.87 2152.59 1465.16C2153.77 1459.45 2157.08 1454.18 2162.25 1450.65L2185.49 1434.78L2181.95 1429.53L2154.77 1447.68C2149.14 1451.29 2142.58 1452.29 2136.52 1450.97C2130.45 1449.66 2124.89 1446.03 2121.27 1440.39L2115.45 1431.34C2111.87 1425.78 2110.85 1419.3 2112.1 1413.29C2113.35 1407.27 2116.87 1401.73 2122.37 1398.06L2148.87 1380.36L2145.53 1375.4L2120.57 1391.22C2114.9 1394.77 2108.32 1395.68 2102.27 1394.28C2096.22 1392.89 2090.71 1389.19 2087.16 1383.51L2081.45 1374.38C2077.92 1368.73 2077 1362.18 2078.37 1356.15C2079.74 1350.12 2083.4 1344.62 2089.03 1341.05L2120.11 1321.35L2215.79 1251.92C2217.28 1250.84 2218.82 1249.8 2220.38 1248.8C2239.57 1236.59 2261.62 1232.52 2282.48 1235.67L2293.16 1213.98L2293.35 1213.4C2296.1 1205.49 2301.79 1199.4 2308.78 1195.95C2315.76 1192.5 2324.04 1191.69 2332.02 1194.32C2337.25 1196.04 2341.92 1199.14 2345.54 1203.28L2419.01 1287.34L2419.35 1287.74C2424.76 1294.14 2427.11 1302.13 2426.53 1309.9C2425.94 1317.66 2422.42 1325.21 2416.1 1330.74C2411.94 1334.38 2406.87 1336.82 2401.43 1337.83L2365.05 1349.44C2361.22 1371.18 2349.03 1391.41 2329.55 1404.96L2307.11 1420.55C2306.7 1420.88 2306.26 1421.2 2305.82 1421.51L2301.56 1424.42L2217.73 1482.69Z" fill="#ADF7FF" stroke="black" stroke-width="2.5"/>
<path d="M2280.73 1235.34C2271.16 1262.88 2250.05 1267.65 2217.39 1249.67" stroke="black" stroke-width="2.5" stroke-linecap="round" stroke-linejoin="round"/>
<path d="M2325.89 1409.21C2315.64 1375.41 2328.96 1355.86 2365.86 1350.57" stroke="black" stroke-width="2.5" stroke-linecap="round" stroke-linejoin="round"/>
</g>
<g clip-path="url(#clip3)">
<path fill-rule="evenodd" clip-rule="evenodd" d="M787.868 860.979L861.451 920.06L801.008 1076.1L834.539 1131.29C836.771 1134.96 836.168 1139.69 833.086 1142.68C830.064 1145.62 825.343 1145.88 822.012 1143.3L736.112 1076.78C732.215 1073.76 731.098 1068.35 733.482 1064.03L757.525 1020.51C758.909 1018.01 758.297 1014.87 756.074 1013.07C753.911 1011.32 750.762 1011.55 748.871 1013.59L716.19 1048.87C712.612 1052.73 706.652 1053.16 702.561 1049.85L695.664 1044.26C691.892 1041.21 690.858 1035.88 693.212 1031.64L787.868 860.979ZM1072.01 830.316L1150.67 896.326L1089.22 1050.12L1121.82 1105.94C1123.97 1109.61 1123.28 1114.28 1120.16 1117.18C1117.1 1120.03 1112.42 1120.2 1109.15 1117.59L1024.23 1049.57C1020.43 1046.53 1019.37 1041.18 1021.74 1036.92L1045.99 993.15C1047.38 990.638 1046.8 987.493 1044.6 985.647C1042.48 983.866 1039.33 984.063 1037.45 986.093L1004.89 1021.19C1001.26 1025.1 995.212 1025.47 991.129 1022.05L984.168 1016.21C980.577 1013.19 979.561 1008.09 981.724 1003.93L1072.01 830.316Z" fill="black"/>
<path fill-rule="evenodd" clip-rule="evenodd" d="M1214.84 662.156C1231.07 688.582 1233.94 721.095 1222.59 749.955L1132.93 978.036L1029.61 902.626L1124.96 720.905L1040.88 601.458L947.078 791.044C946.944 791.315 946.811 791.587 946.68 791.859L844.058 1004.04L743.091 923.173L857.966 707.887L968.301 507.209C975.811 493.55 986.843 482.582 999.891 475.161C1012.94 467.741 1028.01 463.867 1043.58 464.396C1075.65 465.484 1104.91 483.112 1214.84 662.156Z" fill="#66EC36" stroke="black" stroke-width="2.5"/>
<path fill-rule="evenodd" clip-rule="evenodd" d="M1040.06 603.896L1048.56 586.396C1091.94 666.728 1109.27 700.228 1100.56 686.896C1089.16 669.444 1069 641.777 1040.06 603.896Z" fill="black"/>
</g>
<path fill-rule="evenodd" clip-rule="evenodd" d="M1077.17 367.584L1186.12 288L1253.62 207.5L1360.73 218.112L1250.05 330.867C1243.14 337.91 1235.14 343.794 1226.36 348.295L1100.61 412.74C1089.02 418.68 1074.81 414.1 1068.87 402.51C1068.87 402.507 1068.87 402.503 1068.86 402.5C1062.67 390.403 1066.19 375.6 1077.17 367.584Z" fill="white" stroke="black" stroke-width="2.5" stroke-linecap="round" stroke-linejoin="round"/>
<path fill-rule="evenodd" clip-rule="evenodd" d="M1295.44 205.984L1324.48 177.148C1330.14 171.527 1339.26 171.488 1344.97 177.059C1350.56 182.518 1350.67 191.479 1345.21 197.074C1345.16 197.126 1345.11 197.179 1345.06 197.231L1316.02 226.067C1310.36 231.687 1301.24 231.727 1295.53 226.156C1289.94 220.696 1289.83 211.735 1295.29 206.141C1295.34 206.088 1295.39 206.036 1295.44 205.984Z" fill="white" stroke="black" stroke-width="2.5" stroke-linecap="round" stroke-linejoin="round"/>
<path fill-rule="evenodd" clip-rule="evenodd" d="M1316.45 227.384L1342.51 199.534C1347.58 194.121 1356.07 193.839 1361.48 198.905C1361.58 198.998 1361.68 199.092 1361.78 199.188C1367.24 204.623 1367.4 213.418 1362.13 219.047L1336.07 246.897C1331 252.31 1322.51 252.592 1317.1 247.526C1317 247.434 1316.9 247.339 1316.8 247.244C1311.34 241.808 1311.18 233.013 1316.45 227.384Z" fill="white" stroke="black" stroke-width="2.5" stroke-linecap="round" stroke-linejoin="round"/>
<path fill-rule="evenodd" clip-rule="evenodd" d="M1271.8 191.549L1301.48 159.676C1307.02 153.728 1316.19 153.02 1322.58 158.048C1328.32 162.571 1329.31 170.893 1324.79 176.637C1324.56 176.924 1324.33 177.202 1324.08 177.469L1294.4 209.342C1288.86 215.291 1279.68 215.998 1273.3 210.97C1267.55 206.448 1266.56 198.125 1271.08 192.381C1271.31 192.094 1271.55 191.817 1271.8 191.549Z" fill="white" stroke="black" stroke-width="2.5" stroke-linecap="round" stroke-linejoin="round"/>
<path fill-rule="evenodd" clip-rule="evenodd" d="M1257.95 224.451L1250.02 198.906C1247.7 191.417 1251.89 183.462 1259.38 181.139C1259.4 181.134 1259.41 181.128 1259.43 181.123C1266.97 178.818 1274.95 183.041 1277.28 190.568L1285.21 216.112C1287.53 223.602 1283.34 231.557 1275.85 233.879C1275.83 233.885 1275.82 233.89 1275.8 233.895C1268.26 236.201 1260.28 231.978 1257.95 224.451Z" fill="white" stroke="black" stroke-width="2.5" stroke-linecap="round" stroke-linejoin="round"/>
<path fill-rule="evenodd" clip-rule="evenodd" d="M1096.38 393.018C1096.27 394.441 1096.05 395.854 1095.74 397.246L1089.18 426.221C1086.46 438.248 1079.36 448.225 1069.88 454.763C1060.4 461.302 1048.56 464.402 1036.35 462.675C1024.09 460.942 1013.5 454.692 1006.12 445.784C998.733 436.877 994.552 425.312 995.117 412.949L996.398 384.921C996.76 376.996 1000.3 369.967 1005.73 365.011C1011.16 360.054 1018.48 357.17 1026.41 357.532C1026.85 357.553 1027.3 357.583 1027.74 357.624L1040.56 358.807L1069.07 361.048C1077.25 361.692 1084.4 365.592 1089.34 371.377C1094.29 377.162 1097.02 384.833 1096.38 393.018Z" fill="#FF75AA" stroke="black" stroke-width="2.5"/>
<path fill-rule="evenodd" clip-rule="evenodd" d="M821.218 577.919L818.889 605.886C818.207 614.082 811.008 620.174 802.811 619.491C802.791 619.49 802.772 619.488 802.752 619.486C794.516 618.768 788.411 611.526 789.097 603.288L791.425 575.321C792.108 567.125 799.307 561.033 807.504 561.716C807.524 561.717 807.543 561.719 807.563 561.721C815.799 562.439 821.904 569.681 821.218 577.919Z" fill="white" stroke="black" stroke-width="2.5" stroke-linecap="round" stroke-linejoin="round"/>
<path fill-rule="evenodd" clip-rule="evenodd" d="M757.522 631.487C751.422 626.863 750.225 618.17 754.849 612.07C755.085 611.759 755.333 611.459 755.594 611.169L756.585 610.07L755.175 611.516C749.338 617.511 739.773 617.721 733.679 611.988C728.112 606.752 727.494 598.228 732.004 592.269C726.983 594.712 720.77 594.021 716.376 590.045C716.276 589.955 716.177 589.863 716.079 589.769C710.247 584.179 709.919 574.964 715.339 568.974L735.553 546.633C735.544 546.593 735.535 546.553 735.526 546.512L737.764 544.191L742.17 539.321C742.836 538.585 743.562 537.935 744.334 537.373L829.83 448.667C836.494 441.753 844.199 435.926 852.665 431.396L990.556 357.616C1002.83 351.049 1018.09 355 1025.63 366.7C1033.15 378.357 1030.35 393.845 1019.23 402.135L896.898 493.325L811.463 593.8C811.294 594.057 811.115 594.31 810.926 594.559C810.691 594.87 810.442 595.17 810.181 595.46L779.632 629.389C773.927 635.726 764.318 636.638 757.522 631.487Z" fill="white" stroke="black" stroke-width="2.5" stroke-linecap="round" stroke-linejoin="round"/>
<path fill-rule="evenodd" clip-rule="evenodd" d="M1026.5 394L1005 447C1001.19 440.85 998.69 435.85 997.5 432C996.31 428.15 995.977 423.983 996.5 419.5C1006.55 412.427 1013.88 406.927 1018.5 403C1023.12 399.073 1025.79 396.073 1026.5 394Z" fill="black"/>
<g clip-path="url(#clip4)">
<path fill-rule="evenodd" clip-rule="evenodd" d="M1052.11 313.786L984.913 314.631C969.846 314.82 957.478 302.759 957.288 287.692C957.241 283.948 957.965 280.235 959.415 276.784C965.445 262.426 981.973 255.675 996.33 261.705C999.632 263.092 1002.64 265.095 1005.19 267.607L1052.11 313.786Z" fill="black"/>
<path fill-rule="evenodd" clip-rule="evenodd" d="M1073.3 362.583L1074.62 334.598L1046.48 326.386L1039.31 362.176C1044.17 364.518 1050.33 365.934 1057.78 366.424C1065.24 366.914 1070.41 365.633 1073.3 362.583Z" fill="white" stroke="black" stroke-width="2.5" stroke-linecap="round" stroke-linejoin="round"/>
<path fill-rule="evenodd" clip-rule="evenodd" d="M1073.48 359.964L1050.75 335.49L1074.9 336.809L1073.48 359.964Z" fill="black"/>
<path d="M1068.92 292.345C1054.38 289.254 1040.08 298.2 1036.38 312.45C1035.87 312.336 1035.35 312.263 1034.8 312.235C1029.29 311.946 1024.57 316.406 1024.27 322.197C1023.97 327.988 1028.19 332.917 1033.71 333.206C1035.3 333.29 1036.84 332.975 1038.21 332.344C1042.1 340.736 1049.82 347.283 1059.65 349.373C1073.53 352.323 1083.73 345.391 1088.65 333.416C1088.93 333.456 1089.22 333.484 1089.51 333.5C1095.02 333.789 1099.74 329.328 1100.04 323.537C1100.31 318.33 1096.93 313.82 1092.23 312.753C1091.65 304.571 1087.33 299.094 1076.48 294.952C1075.72 294.664 1074.9 294.333 1074.03 293.958C1072.38 293.257 1070.67 292.717 1068.92 292.345Z" fill="white"/>
<path d="M1070.37 292.73C1056.01 288.882 1041.26 297.067 1036.83 311.105C1036.32 310.964 1035.8 310.864 1035.26 310.807C1029.77 310.23 1024.82 314.437 1024.22 320.205C1023.61 325.972 1027.57 331.115 1033.07 331.692C1034.66 331.86 1036.2 331.625 1037.61 331.067C1041.05 339.651 1048.42 346.593 1058.13 349.194C1071.84 352.867 1082.38 346.478 1087.92 334.777C1088.2 334.832 1088.48 334.875 1088.77 334.906C1094.27 335.483 1099.21 331.276 1099.82 325.508C1100.36 320.322 1097.21 315.641 1092.58 314.33C1092.43 306.13 1088.4 300.433 1077.78 295.729C1077.04 295.402 1076.24 295.028 1075.38 294.608C1073.78 293.822 1072.1 293.193 1070.37 292.73Z" fill="white" stroke="black" stroke-width="2.5" stroke-linecap="round" stroke-linejoin="round"/>
<mask id="mask0" mask-type="alpha" maskUnits="userSpaceOnUse" x="1022" y="290" width="80" height="62">
<path d="M1070.37 292.73C1056.01 288.882 1041.26 297.067 1036.83 311.105C1036.32 310.964 1035.8 310.864 1035.26 310.807C1029.77 310.23 1024.82 314.437 1024.22 320.205C1023.61 325.972 1027.57 331.115 1033.07 331.692C1034.66 331.86 1036.2 331.625 1037.61 331.067C1041.05 339.651 1048.42 346.593 1058.13 349.194C1071.84 352.867 1082.38 346.478 1087.92 334.777C1088.2 334.832 1088.48 334.875 1088.77 334.906C1094.27 335.483 1099.21 331.276 1099.82 325.508C1100.36 320.322 1097.21 315.641 1092.58 314.33C1092.43 306.13 1088.4 300.433 1077.78 295.729C1077.04 295.402 1076.24 295.028 1075.38 294.608C1073.78 293.822 1072.1 293.193 1070.37 292.73Z" fill="white" stroke="black" stroke-width="2.5" stroke-linecap="round" stroke-linejoin="round"/>
</mask>
<g mask="url(#mask0)">
<path fill-rule="evenodd" clip-rule="evenodd" d="M1040.07 300.308L1036.64 311.594L1049.62 302.761C1051.15 307.942 1055.78 311.596 1061.17 311.879L1080.75 312.905C1083.51 313.049 1085.87 310.931 1086.01 308.173C1086.05 307.438 1085.92 306.704 1085.65 306.022L1085.07 304.619L1092.12 313.5C1097.58 298.635 1095.62 289.578 1086.24 286.331C1072.16 281.46 1052.29 273.326 1046.15 282.809C1042.06 289.131 1040.03 294.963 1040.07 300.308Z" fill="black"/>
</g>
<path fill-rule="evenodd" clip-rule="evenodd" d="M1081.01 321.773C1079.37 321.542 1077.85 322.686 1077.62 324.326L1077.48 325.317C1077.25 326.957 1078.4 328.474 1080.04 328.705C1081.68 328.935 1083.19 327.792 1083.43 326.152L1083.56 325.161C1083.79 323.521 1082.65 322.004 1081.01 321.773ZM1060.08 319.841C1058.44 319.61 1056.92 320.753 1056.69 322.394L1056.55 323.384C1056.32 325.025 1057.46 326.542 1059.1 326.772C1060.74 327.003 1062.26 325.86 1062.49 324.219L1062.63 323.229C1062.86 321.588 1061.72 320.071 1060.08 319.841Z" stroke="black" stroke-width="2" stroke-linecap="round" stroke-linejoin="round"/>
<path d="M1068.17 334.105C1069.63 335.658 1071.29 335.89 1073.12 334.801" stroke="black" stroke-width="2" stroke-linecap="round" stroke-linejoin="round"/>
<path d="M1072.24 319.53L1073.68 330.841L1070.71 330.423" stroke="black" stroke-width="2" stroke-linecap="round" stroke-linejoin="round"/>
</g>
</g>
<defs>
<clipPath id="clip0">
<rect width="2811" height="1999" fill="white"/>
</clipPath>
<clipPath id="clip1">
<path d="M218 872H1267V1742H218V872Z" fill="white"/>
</clipPath>
<clipPath id="clip2">
<path d="M701 198H3096V1801H701V198Z" fill="white"/>
</clipPath>
<clipPath id="clip3">
<path d="M516 -56H1704V1359H516V-56Z" fill="white"/>
</clipPath>
<clipPath id="clip4">
<path d="M516 -56H1704V1359H516V-56Z" fill="white"/>
</clipPath>
</defs>
</svg>
