<svg width="2811" height="1999" viewBox="0 0 2811 1999" fill="none" xmlns="http://www.w3.org/2000/svg">
<g clip-path="url(#clip0)">
<rect width="2811" height="1999" fill="white"/>
<path fill-rule="evenodd" clip-rule="evenodd" d="M1352 908H1426.5V1198.47C1426.5 1232.6 1449.67 1262.37 1482.75 1270.75C1511.74 1278.09 1541.19 1260.55 1548.53 1231.56C1548.84 1230.35 1549.11 1229.13 1549.33 1227.9L1574 1091.5H1649L1601.17 1265.16C1587.23 1315.77 1536.53 1346.99 1485.07 1336.65L1444.5 1328.5L1409 1640H1352V1221.5L1264.17 1229.36C1220.15 1233.3 1178.77 1207.89 1162.38 1166.85L1125.5 1074.5L1190 1049L1195.24 1075.54C1205.92 1129.73 1258.51 1164.99 1312.7 1154.3C1318.69 1153.12 1324.56 1151.39 1330.24 1149.14L1352 1140.5V908Z" fill="#E4EDF6"/>
<path fill-rule="evenodd" clip-rule="evenodd" d="M1474.5 668H1312L1122.09 982.084C1118.95 987.283 1120.62 994.045 1125.81 997.189C1127.53 998.227 1129.5 998.776 1131.51 998.776C1146.48 998.776 1161.45 998.776 1176.42 998.776C1182.14 998.776 1192.87 991.709 1208.59 977.576C1212.59 973.985 1218.71 974.192 1222.45 978.045C1235.88 991.865 1247.14 998.776 1256.23 998.776C1265.44 998.776 1278.1 991.68 1294.22 977.488C1298.21 973.97 1304.26 974.198 1307.98 978.006C1321.51 991.852 1333.42 998.776 1343.73 998.776C1354.16 998.776 1366.96 991.695 1382.14 977.532C1385.96 973.962 1391.89 973.946 1395.74 977.494C1411.12 991.682 1424.23 998.776 1435.08 998.776C1445.87 998.776 1458.42 991.751 1472.73 977.703C1476.48 974.024 1482.44 973.871 1486.37 977.352C1502.5 991.634 1514.57 998.776 1522.58 998.776C1532.55 998.776 1546.01 991.481 1562.97 976.891C1566.81 973.581 1572.53 973.678 1576.26 977.116C1590.4 990.136 1601.03 997.356 1608.15 998.776C1614.41 1000.02 1626.37 1000.32 1644.04 999.658C1650.11 999.431 1654.84 994.326 1654.62 988.255C1654.55 986.494 1654.06 984.774 1653.19 983.241L1474.5 668Z" fill="#DFE9F3"/>
<path fill-rule="evenodd" clip-rule="evenodd" d="M1173 1640H2434V1601.87C2434 1561.26 2409.43 1524.68 2371.84 1509.31L2249.75 1459.4C2228.7 1450.8 2211.22 1435.28 2200.17 1415.4L2043.89 1134.09C2017.07 1085.81 1956.19 1068.42 1907.91 1095.24C1889.66 1105.38 1875.04 1120.97 1866.1 1139.84L1776.08 1329.88C1766.18 1350.78 1749.35 1367.6 1728.44 1377.48L1173 1640Z" fill="#E4EDF6"/>
<path fill-rule="evenodd" clip-rule="evenodd" d="M543.094 1640H1568L1341.89 1337.05C1310.84 1295.45 1253.13 1284.52 1209.03 1311.89L1107.14 1375.1L936.914 1130.48C905.369 1085.15 843.046 1073.97 797.714 1105.52C787.01 1112.96 777.867 1122.43 770.799 1133.39L497.716 1556.73C481.55 1581.79 488.761 1615.21 513.822 1631.38C522.548 1637.01 532.711 1640 543.094 1640Z" fill="#EBF2F9"/>
<path fill-rule="evenodd" clip-rule="evenodd" d="M556.151 793.5H840.468C895.697 793.5 940.468 748.729 940.468 693.5C940.468 689.426 940.219 685.355 939.722 681.311L933.38 629.666C926.648 574.85 876.753 535.869 821.937 542.601C808.67 544.23 795.866 548.502 784.279 555.165L695 606.5L604.115 562.834C554.334 538.916 494.59 559.882 470.672 609.663C465.847 619.705 462.734 630.484 461.462 641.552L456.804 682.083C450.499 736.95 489.866 786.541 544.733 792.846C548.524 793.282 552.335 793.5 556.151 793.5Z" fill="#E4EDF6"/>
<path fill-rule="evenodd" clip-rule="evenodd" d="M808.039 908H964.956C1020.18 908 1064.96 863.228 1064.96 808C1064.96 803.922 1064.71 799.848 1064.21 795.8L1060.71 767.343C1054.31 715.301 1008.81 677.037 956.44 679.668L808.562 687.098C759.724 689.552 719.823 726.965 714.235 775.545L711.46 799.675C705.325 853.014 743.591 901.228 796.93 907.363C800.618 907.787 804.327 908 808.039 908Z" fill="#EBF2F9"/>
<path fill-rule="evenodd" clip-rule="evenodd" d="M1994.15 870.5H2136.75C2176.43 870.5 2208.6 838.332 2208.6 798.651C2208.6 776.469 2198.35 755.53 2180.84 741.919C2171.3 734.504 2166.35 729.364 2166 726.5C2165.48 722.288 2173.55 712.011 2190.21 695.67C2219.6 666.834 2220.04 619.634 2191.21 590.245C2176.28 575.026 2155.54 566.929 2134.25 568L2000.15 574.743C1951.31 577.199 1911.41 614.618 1905.82 663.2L1894.8 759.083C1888.5 813.95 1927.87 863.541 1982.73 869.846C1986.52 870.282 1990.34 870.5 1994.15 870.5Z" fill="#EBF2F9"/>
<path fill-rule="evenodd" clip-rule="evenodd" d="M1461.39 523H1320.45L1157.05 794.258C1153.91 799.462 1155.59 806.222 1160.79 809.357C1162.51 810.389 1164.47 810.934 1166.47 810.934C1178.6 810.934 1190.74 810.934 1202.87 810.934C1207.72 810.934 1216.71 805.062 1229.84 793.316C1233.82 789.758 1239.89 789.951 1243.64 793.754C1254.91 805.208 1264.39 810.934 1272.09 810.934C1279.9 810.934 1290.58 805.024 1304.12 793.205C1308.1 789.735 1314.09 789.952 1317.8 793.7C1329.19 805.19 1339.24 810.934 1347.97 810.934C1356.82 810.934 1367.64 805.036 1380.42 793.24C1384.24 789.722 1390.11 789.705 1393.94 793.201C1406.91 805.023 1417.99 810.934 1427.2 810.934C1436.34 810.934 1446.95 805.092 1459.02 793.407C1462.76 789.781 1468.66 789.639 1472.58 793.08C1486.12 804.983 1496.29 810.934 1503.08 810.934C1511.56 810.934 1522.95 804.832 1537.24 792.628V792.628C1541.09 789.35 1546.77 789.449 1550.49 792.86C1562.33 803.702 1571.26 809.727 1577.3 810.934C1582.44 811.962 1592.01 812.246 1606 811.787C1612.07 811.588 1616.83 806.504 1616.63 800.433C1616.58 798.66 1616.09 796.928 1615.22 795.384L1461.39 523Z" fill="#E4EDF6"/>
<path fill-rule="evenodd" clip-rule="evenodd" d="M1378.75 351.694L1236.56 598.558C1233.53 603.822 1235.34 610.548 1240.6 613.58C1240.79 613.688 1240.98 613.79 1241.17 613.886C1250.65 618.629 1258.78 621 1265.57 621C1273.39 621 1283.45 615.148 1295.75 603.443C1299.34 600.026 1304.89 599.756 1308.8 602.808C1324.32 614.936 1336.59 621 1345.61 621C1354.63 621 1366.42 614.946 1381 602.838C1384.73 599.74 1390.14 599.763 1393.84 602.893C1408.13 614.964 1419.94 621 1429.3 621C1438.57 621 1450.27 615.065 1464.39 603.195C1468.25 599.95 1473.93 600.089 1477.63 603.519C1490.19 615.173 1499.85 621 1506.62 621C1512.66 621 1521.2 618.494 1532.23 613.483C1537.76 610.971 1540.21 604.45 1537.69 598.919C1537.56 598.623 1537.41 598.333 1537.25 598.05L1397.85 351.766C1394.86 346.479 1388.15 344.619 1382.86 347.611C1381.15 348.58 1379.73 349.99 1378.75 351.694Z" fill="#EBF2F9"/>
<path fill-rule="evenodd" clip-rule="evenodd" d="M1158.26 1504.84L1254 1640H908L992.553 1508.55C1022.43 1462.1 1084.31 1448.66 1130.75 1478.54C1141.52 1485.46 1150.86 1494.39 1158.26 1504.84Z" fill="#E4EDF6"/>
<path fill-rule="evenodd" clip-rule="evenodd" d="M1669.84 286.148C1636.78 278.95 1603.92 285.828 1577.54 302.766C1551.15 319.705 1531.24 346.704 1524.04 379.749L1398.04 958.155L1397.57 960.359C1382.56 1032.9 1406.34 1108.12 1460.46 1158.89L1646.85 1333.74C1647.25 1334.12 1647.64 1334.5 1648.04 1334.88C1668.11 1354.33 1678.41 1380.09 1678.81 1405.99C1679.22 1431.9 1669.75 1457.97 1650.29 1478.05L1604.09 1525.72L1602.69 1527.19C1579.85 1551.54 1568.86 1582.86 1569.62 1613.9C1570.37 1644.9 1582.83 1675.63 1606.87 1698.9C1631.18 1722.43 1662.73 1733.89 1694.09 1733.39C1725.44 1732.89 1756.61 1720.43 1780.15 1696.14L1920.46 1551.34L1921.62 1550.14L1922.77 1548.93L1925.17 1546.33C1964.24 1503.34 1982.51 1448.56 1980.35 1394.56C1978.19 1340.66 1955.68 1287.53 1913.21 1247.69L1683.23 1031.94C1657.25 1007.57 1645.99 971.349 1653.57 936.548L1763.51 431.887L1763.92 429.895C1770.5 397.165 1763.33 364.765 1746.32 338.775C1729.33 312.827 1702.55 293.268 1669.84 286.148Z" fill="#FFE13D" stroke="black" stroke-width="2.5"/>
<path fill-rule="evenodd" clip-rule="evenodd" d="M1704.17 405.56C1707.28 406.237 1709.28 409.252 1708.72 412.358L1708.68 412.575C1708.68 412.576 1708.68 412.576 1708.68 412.576L1706.37 423.194C1705.67 426.376 1702.53 428.394 1699.35 427.701C1696.24 427.025 1694.24 424.01 1694.8 420.904L1694.84 420.687C1694.84 420.686 1694.84 420.686 1694.84 420.685L1697.16 410.068C1697.85 406.886 1700.99 404.868 1704.17 405.56ZM1580.02 378.6C1583.13 379.276 1585.13 382.291 1584.57 385.398L1584.53 385.614C1584.53 385.615 1584.53 385.615 1584.53 385.616L1582.22 396.233C1581.52 399.415 1578.38 401.433 1575.2 400.741C1572.02 400.048 1570 396.908 1570.69 393.726L1570.69 393.725L1573 383.107C1573.7 379.925 1576.84 377.907 1580.02 378.6Z" fill="#FFFFD9" stroke="black" stroke-width="2.5" stroke-linecap="round" stroke-linejoin="round"/>
<path d="M1566.61 375.253L1568.66 373.311C1574.55 367.745 1583.83 368.003 1589.39 373.887C1591.34 375.946 1592.65 378.526 1593.16 381.314" stroke="black" stroke-width="2.5" stroke-linecap="round" stroke-linejoin="round"/>
<path d="M1690.69 401.796L1692.74 399.854C1698.63 394.288 1707.91 394.546 1713.48 400.43C1715.42 402.489 1716.73 405.069 1717.25 407.857" stroke="black" stroke-width="2.5" stroke-linecap="round" stroke-linejoin="round"/>
<path d="M1623.09 405.172C1630.56 415.222 1644.06 418.649 1655.42 413.38L1657.58 412.379" stroke="black" stroke-width="2.5" stroke-linecap="round" stroke-linejoin="round"/>
<path fill-rule="evenodd" clip-rule="evenodd" d="M1980.33 1207.42L1965.57 1247.91L2164.88 1632.59L2081.05 1633.18L1905.83 1318.08L1845.77 1446.49C1839.04 1460.86 1827.29 1471.35 1813.54 1476.76C1799.79 1482.18 1784.04 1482.52 1769.33 1476.6L1600.37 1408.56L1615.37 1336.94L1787.1 1392.36L1882.22 1186.43L1980.33 1207.42Z" fill="#5E69FF" stroke="black" stroke-width="2.5"/>
<path fill-rule="evenodd" clip-rule="evenodd" d="M2276.67 1648.37C2278.56 1652.7 2276.86 1657.76 2272.74 1660.07L2141.01 1733.95C2136.19 1736.65 2130.1 1734.94 2127.39 1730.12C2127.31 1729.97 2127.23 1729.82 2127.16 1729.67L2073.61 1621.77L2134.5 1571L2202.38 1652.35L2265.14 1642.09C2269.97 1641.3 2274.72 1643.89 2276.67 1648.37Z" fill="black"/>
<path fill-rule="evenodd" clip-rule="evenodd" d="M1646.5 1428L1547.71 1409.77L1504.75 1457.96C1501.79 1461.28 1497.11 1462.47 1492.93 1460.98C1489.23 1459.65 1487.3 1455.59 1488.62 1451.89C1488.65 1451.81 1488.68 1451.74 1488.71 1451.66L1545.13 1309.25C1547.17 1304.12 1552.98 1301.61 1558.12 1303.64C1558.26 1303.7 1558.41 1303.76 1558.56 1303.83L1666 1352.5L1646.5 1428ZM1906 1320.5L1891.5 1351L1845.5 1266.5L1861 1230C1861 1243.67 1862.83 1254 1866.5 1261C1870.17 1268 1883.33 1287.83 1906 1320.5Z" fill="black"/>
<path d="M1906.93 1320.33L1871.03 1267.52C1861.06 1252.84 1859.61 1233.98 1867.22 1217.95L1873.93 1203.83" stroke="black" stroke-width="2.5" stroke-linecap="round" stroke-linejoin="round"/>
<path fill-rule="evenodd" clip-rule="evenodd" d="M2023.84 1050.05C2025.15 1050.67 2026.42 1051.38 2027.62 1052.18C2040.03 1060.47 2055.54 1072.09 2074.13 1087.06C2112.25 1117.75 2131.57 1133.37 2132.09 1133.93L2132.1 1133.94L2189.58 1049.74L2208.56 974.109C2210.62 965.898 2218.93 960.901 2227.15 962.937C2235.34 964.964 2240.33 973.242 2238.3 981.426L2238.29 981.472L2228.81 1019.23L2236.49 1011.31L2273.87 969.426C2279.19 963.463 2288.29 962.822 2294.4 967.981C2300.29 972.963 2301.03 981.782 2296.05 987.678C2295.97 987.774 2295.89 987.869 2295.8 987.964L2260.55 1027.46L2261.67 1028.5L2298.41 988.649C2303.83 982.778 2312.93 982.298 2318.93 987.566C2324.75 992.672 2325.32 1001.53 2320.22 1007.34C2320.14 1007.43 2320.07 1007.51 2319.99 1007.59L2282.78 1047.95L2283.82 1048.91L2322.13 1009.34C2327.5 1003.79 2336.28 1003.48 2342.03 1008.62C2347.5 1013.51 2347.97 1021.91 2343.08 1027.38C2342.96 1027.51 2342.84 1027.64 2342.72 1027.76L2292.16 1079.99L2172.24 1213.42C2162.41 1224.35 2145.8 1225.82 2134.2 1216.79L1996.21 1109.25C1982.47 1098.54 1977.96 1079.75 1985.36 1063.97C1992.14 1049.5 2009.37 1043.27 2023.84 1050.05Z" fill="white" stroke="black" stroke-width="2.5" stroke-linecap="round" stroke-linejoin="round"/>
<path d="M2248.29 1017.9L2289.3 1055.93" stroke="black" stroke-width="2.5" stroke-linecap="round" stroke-linejoin="round"/>
<path fill-rule="evenodd" clip-rule="evenodd" d="M2021.81 1083.63C2021.46 1085.72 2020.89 1087.76 2020.1 1089.73L1963.78 1230.94L1878.46 1202.03L1927.62 1033L1978.99 1046.28L1997.4 1049.37C2005.5 1050.73 2012.28 1055.24 2016.7 1061.45C2021.12 1067.65 2023.17 1075.53 2021.81 1083.63Z" fill="#FF7C25" stroke="black" stroke-width="2.5"/>
<path fill-rule="evenodd" clip-rule="evenodd" d="M1939.17 1067.02C1939.08 1067.31 1938.98 1067.6 1938.87 1067.88C1934.6 1079.57 1928.5 1094.39 1920.56 1112.37C1900.84 1157.05 1890.78 1179.72 1890.37 1180.36L1890.36 1180.37L1986.65 1214.18L2064.42 1213.02C2072.88 1212.89 2079.85 1219.63 2080.02 1228.08C2080.19 1236.49 2073.51 1243.44 2065.11 1243.6L2065.03 1243.6L2026.13 1244.18L2034.96 1249.09L2085.94 1274.82C2093.07 1278.41 2096.04 1287.03 2092.64 1294.25C2089.37 1301.21 2081.07 1304.21 2074.1 1300.93C2073.99 1300.88 2073.87 1300.82 2073.75 1300.76L2026.44 1276.89L2025.74 1278.25L2073.77 1303.46C2080.83 1307.16 2083.64 1315.82 2080.12 1322.96C2076.7 1329.89 2068.32 1332.73 2061.4 1329.31C2061.3 1329.26 2061.19 1329.21 2061.09 1329.15L2012.45 1303.62L2011.8 1304.87L2059.96 1331.67C2066.69 1335.41 2069.27 1343.81 2065.8 1350.68C2062.5 1357.21 2054.53 1359.83 2048 1356.53C2047.84 1356.45 2047.68 1356.37 2047.53 1356.29L1983.33 1320.57L1824.46 1239.76C1811.2 1233.01 1805.53 1217.07 1811.56 1203.46L1882.1 1044.1C1888.44 1029.8 1904.6 1022.65 1919.44 1027.59C1935.78 1033.03 1944.61 1050.69 1939.17 1067.02Z" fill="white" stroke="black" stroke-width="2.5" stroke-linecap="round" stroke-linejoin="round"/>
<path fill-rule="evenodd" clip-rule="evenodd" d="M1997.78 1052.26L2001.53 1024.49L1974.22 1013.86L1963.95 1048.89C1968.59 1051.65 1974.6 1053.59 1981.99 1054.73C1989.37 1055.87 1994.64 1055.04 1997.78 1052.26Z" fill="white" stroke="black" stroke-width="2.5" stroke-linecap="round" stroke-linejoin="round"/>
<path fill-rule="evenodd" clip-rule="evenodd" d="M1998.19 1049.66L1977.67 1023.3L2001.62 1026.72L1998.19 1049.66Z" fill="black"/>
<path d="M1998.85 977.311C1997.82 977.027 1996.78 976.805 1995.73 976.647C1981.63 974.519 1968.46 983.877 1965.7 997.711C1965.28 997.567 1964.85 997.45 1964.4 997.363C1958.98 996.309 1953.69 1000.07 1952.58 1005.76C1951.47 1011.45 1954.97 1016.92 1960.39 1017.98C1962.39 1018.37 1964.36 1018.1 1966.12 1017.33C1968.44 1026.48 1974.1 1034.05 1983.84 1037.6C1997.17 1042.45 2008.23 1037 2014.77 1025.83C2015.04 1025.91 2015.32 1025.98 2015.61 1026.03C2021.03 1027.09 2026.32 1023.33 2027.43 1017.63C2028.38 1012.76 2025.95 1008.05 2021.82 1006.13C2023.49 997.294 2021.66 990.176 2012.08 982.434C2010.25 980.954 2005.84 979.247 1998.85 977.311Z" fill="white" stroke="black" stroke-width="2.5" stroke-linecap="round" stroke-linejoin="round"/>
<mask id="mask0" mask-type="alpha" maskUnits="userSpaceOnUse" x="1951" y="975" width="78" height="66">
<path d="M1998.85 977.31C1997.82 977.027 1996.78 976.805 1995.73 976.646C1981.63 974.518 1968.46 983.877 1965.7 997.71C1965.28 997.566 1964.85 997.449 1964.4 997.362C1958.98 996.309 1953.69 1000.07 1952.58 1005.76C1951.47 1011.45 1954.97 1016.92 1960.39 1017.98C1962.39 1018.36 1964.36 1018.1 1966.12 1017.33C1968.44 1026.48 1974.1 1034.05 1983.84 1037.6C1997.17 1042.45 2008.23 1037 2014.77 1025.83C2015.04 1025.91 2015.32 1025.98 2015.61 1026.03C2021.03 1027.09 2026.32 1023.33 2027.43 1017.63C2028.38 1012.76 2025.95 1008.05 2021.82 1006.13C2023.49 997.294 2021.66 990.175 2012.08 982.433C2010.25 980.954 2005.84 979.246 1998.85 977.31Z" fill="white" stroke="black" stroke-width="2.5" stroke-linecap="round" stroke-linejoin="round"/>
</mask>
<g mask="url(#mask0)">
<path fill-rule="evenodd" clip-rule="evenodd" d="M1961.75 986.933L1966.34 997.346L2004.67 988.461L2022.32 1005.04C2028.05 990.681 2026.38 981.475 2017.32 977.422C2003.72 971.343 1984.63 961.508 1977.69 970.42C1973.06 976.361 1967.75 981.865 1961.75 986.933Z" fill="black"/>
</g>
<path d="M1990.58 1012.12C1990.95 1010.51 1989.95 1008.9 1988.33 1008.52C1986.72 1008.15 1985.11 1009.16 1984.74 1010.77L1984.51 1011.75C1984.14 1013.36 1985.14 1014.97 1986.76 1015.35C1988.37 1015.72 1989.98 1014.71 1990.36 1013.1L1990.58 1012.12Z" stroke="black" stroke-width="2" stroke-linecap="round" stroke-linejoin="round"/>
<path d="M2011.27 1015.87C2011.64 1014.26 2010.63 1012.65 2009.02 1012.27C2007.41 1011.9 2005.8 1012.91 2005.42 1014.52L2005.2 1015.5C2004.82 1017.11 2005.83 1018.72 2007.45 1019.09C2009.06 1019.47 2010.67 1018.46 2011.04 1016.85L2011.27 1015.87Z" stroke="black" stroke-width="2" stroke-linecap="round" stroke-linejoin="round"/>
<path d="M1995.15 1023.44C1996.48 1025.11 1998.1 1025.49 2000.02 1024.57" stroke="black" stroke-width="2" stroke-linecap="round" stroke-linejoin="round"/>
<path d="M2000.48 1009.28L2000.92 1020.67L1998 1019.99" stroke="black" stroke-width="2" stroke-linecap="round" stroke-linejoin="round"/>
<path fill-rule="evenodd" clip-rule="evenodd" d="M1454.26 813.236L1479.47 902.642L1492.48 892.394C1495.3 890.173 1499.38 890.657 1501.61 893.477C1503.83 896.297 1503.34 900.384 1500.52 902.606L1484.02 915.606C1483.78 915.797 1483.53 915.968 1483.27 916.119L1514.39 1026.48C1519.11 1043.2 1519.66 1060.81 1516.01 1077.78L1515.81 1078.69L1512.84 1091.92C1512.06 1095.42 1508.58 1097.63 1505.08 1096.84C1501.65 1096.07 1499.47 1092.73 1500.11 1089.31L1500.16 1089.08L1503.12 1075.84C1506.52 1060.7 1506.09 1044.95 1501.88 1030.01L1470.62 919.163L1449.84 917.796C1446.26 917.56 1443.55 914.465 1443.78 910.883C1444.02 907.301 1447.11 904.589 1450.7 904.824L1466.88 905.888L1441.74 816.764C1440.77 813.309 1442.78 809.718 1446.24 808.744C1449.69 807.77 1453.28 809.781 1454.26 813.236Z" fill="black"/>
<path fill-rule="evenodd" clip-rule="evenodd" d="M1152.19 867.268L1198.5 870.5L1224.72 866.9L1225.34 866.622C1253.05 854.402 1285.58 866.009 1299.24 893.161L1349.8 993.621L1449.72 951.143L1543.32 1011.1L1399.69 1061.31C1353.78 1077.37 1303.3 1054.91 1284.49 1010.05L1258.8 948.802L1253.5 1068L1134 1089C1136 1018.48 1137 973.646 1137 954.5C1137 947.96 1136.88 940.213 1136.65 931.258L1070.1 967.84L1124.16 1027.57C1130.05 1034.08 1133.61 1042.32 1134.36 1051.01L1134.5 1051C1136.1 1064.86 1126.88 1077.65 1113.23 1080.51C1096.62 1084 1082.03 1085.42 1069.45 1084.77C1052.92 1083.93 1024.48 1086.29 984.152 1091.87C977.222 1092.83 970.827 1087.99 969.869 1081.06C969.825 1080.74 969.793 1080.41 969.773 1080.09C969.305 1072.42 974.941 1065.73 982.584 1064.88L1008.52 1062.02L1067 1043.5L992.5 993L991.987 992.479C987.919 988.285 984.652 983.381 982.349 978.006C972.038 953.947 982.968 926.123 1006.77 915.463L1007.49 915.146L1122.57 865.826C1132.2 861.699 1143.13 862.291 1152.19 867.268Z" fill="white" stroke="black" stroke-width="2.5" stroke-linecap="round" stroke-linejoin="round"/>
<path fill-rule="evenodd" clip-rule="evenodd" d="M1489.38 969.682L1529.69 956.766C1537.55 954.248 1545.97 958.496 1548.62 966.311C1551.21 973.958 1547.12 982.26 1539.47 984.853C1539.39 984.88 1539.31 984.905 1539.24 984.93L1498.93 997.846C1491.07 1000.36 1482.65 996.117 1480 988.301C1477.4 980.654 1481.5 972.352 1489.15 969.759C1489.22 969.733 1489.3 969.707 1489.38 969.682Z" fill="white" stroke="black" stroke-width="2.5" stroke-linecap="round" stroke-linejoin="round"/>
<path fill-rule="evenodd" clip-rule="evenodd" d="M1498.71 999.26L1535.81 985.855C1543.03 983.247 1550.99 986.985 1553.6 994.205C1553.65 994.332 1553.69 994.459 1553.73 994.588C1556.22 1002.16 1552.24 1010.34 1544.74 1013.05L1507.64 1026.45C1500.42 1029.06 1492.46 1025.32 1489.85 1018.1C1489.8 1017.97 1489.76 1017.85 1489.71 1017.72C1487.23 1010.15 1491.21 1001.97 1498.71 999.26Z" fill="white" stroke="black" stroke-width="2.5" stroke-linecap="round" stroke-linejoin="round"/>
<path fill-rule="evenodd" clip-rule="evenodd" d="M1474.35 945.278L1516.67 929.87C1524.58 926.993 1533.37 930.649 1536.9 938.283C1540.07 945.139 1537.08 953.266 1530.22 956.437C1529.88 956.597 1529.52 956.743 1529.16 956.874L1486.84 972.282C1478.94 975.16 1470.15 971.503 1466.62 963.869C1463.45 957.013 1466.44 948.886 1473.29 945.715C1473.64 945.555 1473.99 945.409 1474.35 945.278Z" fill="white" stroke="black" stroke-width="2.5" stroke-linecap="round" stroke-linejoin="round"/>
<path fill-rule="evenodd" clip-rule="evenodd" d="M1446.14 969.058L1450.82 941.839C1452.19 933.847 1459.78 928.482 1467.78 929.855C1467.8 929.859 1467.82 929.863 1467.84 929.866C1475.87 931.284 1481.25 938.928 1479.87 946.967L1475.19 974.186C1473.82 982.178 1466.23 987.544 1458.23 986.17C1458.21 986.166 1458.19 986.163 1458.17 986.159C1450.14 984.741 1444.76 977.097 1446.14 969.058Z" fill="white" stroke="black" stroke-width="2.5" stroke-linecap="round" stroke-linejoin="round"/>
<path d="M1203.57 827.419C1203.57 825.762 1202.23 824.419 1200.57 824.419C1198.92 824.419 1197.57 825.762 1197.57 827.419V828.419C1197.57 830.076 1198.92 831.419 1200.57 831.419C1202.23 831.419 1203.57 830.076 1203.57 828.419V827.419Z" stroke="black" stroke-width="2.5" stroke-linecap="round" stroke-linejoin="round"/>
<path fill-rule="evenodd" clip-rule="evenodd" d="M1483.98 749.561C1481.52 746.015 1478.13 743.365 1474.29 741.808C1470.45 740.25 1466.18 739.786 1461.94 740.612L1442 744.504L1422.06 740.612C1417.82 739.786 1413.55 740.25 1409.71 741.808C1405.88 743.365 1402.48 746.015 1400.02 749.561L1389.09 765.321L1373.2 775.269C1369.32 777.701 1366.4 781.22 1364.7 785.25C1363 789.28 1362.52 793.822 1363.49 798.301L1367.21 815.5L1363.49 832.699C1362.52 837.178 1363 841.72 1364.7 845.75C1366.4 849.78 1369.32 853.299 1373.2 855.731L1389.09 865.679L1400.02 881.439C1402.48 884.985 1405.88 887.635 1409.71 889.193C1413.55 890.75 1417.82 891.214 1422.06 890.388L1442 886.496L1461.94 890.388C1466.18 891.214 1470.45 890.75 1474.29 889.193C1478.13 887.635 1481.52 884.985 1483.98 881.439L1494.91 865.679L1510.8 855.731C1514.68 853.299 1517.6 849.78 1519.3 845.75C1521 841.72 1521.48 837.178 1520.51 832.699L1516.79 815.5L1520.51 798.301C1521.48 793.822 1521 789.28 1519.3 785.25C1517.6 781.22 1514.68 777.701 1510.8 775.269L1494.91 765.321L1483.98 749.561Z" fill="#FF75AA" stroke="black" stroke-width="2.5"/>
<path d="M1203.57 827.419C1203.57 825.762 1202.23 824.419 1200.57 824.419C1198.92 824.419 1197.57 825.762 1197.57 827.419V828.419C1197.57 830.076 1198.92 831.419 1200.57 831.419C1202.23 831.419 1203.57 830.076 1203.57 828.419V827.419Z" stroke="black" stroke-width="2.5" stroke-linecap="round" stroke-linejoin="round"/>
<path fill-rule="evenodd" clip-rule="evenodd" d="M1214.72 869.843L1212.13 843.049L1183.12 839L1181 874" fill="white"/>
<path d="M1214.72 869.843L1212.13 843.049L1183.12 839L1181 874" stroke="black" stroke-width="2.5" stroke-linecap="round" stroke-linejoin="round"/>
<path fill-rule="evenodd" clip-rule="evenodd" d="M1188.97 827.835L1185.4 898.214C1185.12 903.794 1180.47 908.146 1174.88 908.053C1174.58 908.048 1174.28 908.028 1173.98 907.993C1169 907.413 1165.44 902.908 1166.02 897.93C1166.25 895.914 1166.48 893.944 1166.71 892.02L1164.81 898.694C1163.27 904.067 1157.76 907.26 1152.34 905.913C1152.05 905.84 1151.76 905.753 1151.47 905.652C1146.76 903.968 1144.29 898.776 1145.98 894.056C1160.44 853.538 1168.23 832.639 1169.34 831.359C1170.13 830.459 1172.51 830.085 1176.49 830.239C1178.73 829.261 1182.89 828.46 1188.97 827.835Z" fill="black"/>
<path fill-rule="evenodd" clip-rule="evenodd" d="M1189 847.029L1215 868L1212 844L1189 847.029Z" fill="black"/>
<path fill-rule="evenodd" clip-rule="evenodd" d="M1171.11 838.223C1176.63 837.934 1180.86 833.005 1180.55 827.214C1180.25 821.423 1175.21 819.517 1170.02 817.252C1167.34 816.084 1161.17 812.667 1151.5 807C1157.47 819.548 1160.49 826.635 1160.58 828.261C1160.88 834.052 1165.6 838.512 1171.11 838.223Z" fill="white" stroke="black" stroke-width="2.5" stroke-linecap="round" stroke-linejoin="round"/>
<path d="M1181.98 791.716L1181.5 792C1166.29 801.128 1166.34 814.748 1169.79 830.973C1173.23 847.197 1184.51 857.594 1200.97 854.096C1211.1 851.941 1217.75 845.237 1221.33 836.498C1222.96 837.502 1224.87 838.036 1226.9 837.93C1232.41 837.641 1236.64 832.712 1236.33 826.921C1236.23 825 1237.62 817.026 1240.48 803C1233.77 808.272 1228.46 812.785 1224.54 816.539C1224.64 801.136 1212.41 788.403 1196.93 787.961C1191.7 787.812 1186.52 789.113 1181.98 791.716Z" fill="white"/>
<path d="M1181.98 791.716L1181.5 792C1166.29 801.128 1166.34 814.748 1169.79 830.973C1173.23 847.197 1184.51 857.594 1200.97 854.096C1211.1 851.941 1217.75 845.237 1221.33 836.498C1222.96 837.502 1224.87 838.036 1226.9 837.93C1232.41 837.641 1236.64 832.712 1236.33 826.921C1236.23 825 1237.62 817.026 1240.48 803C1233.77 808.272 1228.46 812.785 1224.54 816.539C1224.64 801.136 1212.41 788.403 1196.93 787.961C1191.7 787.812 1186.52 789.113 1181.98 791.716Z" fill="white" stroke="black" stroke-width="2.5" stroke-linecap="round" stroke-linejoin="round"/>
<mask id="mask1" mask-type="alpha" maskUnits="userSpaceOnUse" x="1166" y="786" width="76" height="71">
<path d="M1181.98 791.716L1181.5 792C1166.29 801.128 1166.34 814.748 1169.79 830.973C1173.23 847.197 1184.51 857.594 1200.97 854.096C1211.1 851.941 1217.75 845.237 1221.33 836.498C1222.96 837.502 1224.87 838.036 1226.9 837.93C1232.41 837.641 1236.64 832.712 1236.33 826.921C1236.23 825 1237.62 817.026 1240.48 803C1233.77 808.272 1228.46 812.785 1224.54 816.539C1224.64 801.136 1212.41 788.403 1196.93 787.961C1191.7 787.812 1186.52 789.113 1181.98 791.716Z" fill="white" stroke="black" stroke-width="2.5" stroke-linecap="round" stroke-linejoin="round"/>
</mask>
<g mask="url(#mask1)">
<path fill-rule="evenodd" clip-rule="evenodd" d="M1224.5 814L1191 807L1167.5 814C1163.75 800.65 1166.65 792.599 1176.19 789.848C1190.5 785.72 1210.78 778.638 1216.41 788.428C1220.16 794.955 1222.86 803.479 1224.5 814Z" fill="black"/>
</g>
<path d="M1197.83 827.93C1197.69 826.28 1198.91 824.825 1200.56 824.68C1202.21 824.536 1203.67 825.757 1203.81 827.407L1203.9 828.403C1204.04 830.054 1202.82 831.509 1201.17 831.654C1199.52 831.798 1198.07 830.577 1197.92 828.926L1197.83 827.93Z" stroke="black" stroke-width="2" stroke-linecap="round" stroke-linejoin="round"/>
<path d="M1193.97 1027.26C1193.82 1025.61 1195.04 1024.16 1196.7 1024.01C1198.35 1023.87 1199.8 1025.09 1199.95 1026.74L1200.03 1027.74C1200.18 1029.39 1198.96 1030.84 1197.31 1030.99C1195.65 1031.13 1194.2 1029.91 1194.06 1028.26L1193.97 1027.26Z" stroke="black" stroke-width="2" stroke-linecap="round" stroke-linejoin="round"/>
<path d="M1176.83 828.764C1176.68 827.114 1177.9 825.659 1179.55 825.514C1181.2 825.37 1182.66 826.591 1182.8 828.242L1182.89 829.238C1183.04 830.888 1181.81 832.343 1180.16 832.488C1178.51 832.632 1177.06 831.411 1176.91 829.761L1176.83 828.764Z" stroke="black" stroke-width="2" stroke-linecap="round" stroke-linejoin="round"/>
<path d="M1191.73 838.502C1190.19 839.976 1188.53 840.121 1186.75 838.938" stroke="black" stroke-width="2" stroke-linecap="round" stroke-linejoin="round"/>
<path d="M1188.43 823.734L1183 835.5L1189.39 834.692" stroke="black" stroke-width="2" stroke-linecap="round" stroke-linejoin="round"/>
<path d="M1158.36 1027.08L1163.36 1060.08" stroke="black" stroke-width="2" stroke-linecap="round" stroke-linejoin="round"/>
<path d="M1230.58 1024.78L1226.44 1059.35" stroke="black" stroke-width="2" stroke-linecap="round" stroke-linejoin="round"/>
<path d="M1259 949L1252 929" stroke="black" stroke-width="2.5" stroke-linecap="round" stroke-linejoin="round"/>
<path d="M1224.5 867.5L1223.5 933.5M1136.5 960.5L1256.5 963.5L1136.5 960.5ZM1181.5 875.5L1170.5 955.5L1181.5 875.5Z" stroke="black" stroke-width="2" stroke-linecap="round" stroke-linejoin="round"/>
<path fill-rule="evenodd" clip-rule="evenodd" d="M1223.5 931L1242.5 963.5L1206.5 962L1223.5 931ZM1174.5 929L1188 961.5L1152 961L1174.5 929Z" fill="black"/>
<path fill-rule="evenodd" clip-rule="evenodd" d="M1440.5 793.25C1434.79 793.25 1428.71 795.551 1424.88 799.383C1420.84 803.438 1419.25 809.195 1419.25 815.5C1419.25 821.395 1421.35 827.176 1424.93 831.165C1428.8 835.482 1434.39 837.75 1440.5 837.75C1444.87 837.75 1450.4 836.333 1453.79 833.974C1459.52 829.983 1461.75 823.2 1461.75 815.5C1461.75 809.676 1461.08 803.312 1457.56 799.328C1453.67 794.917 1446.68 793.25 1440.5 793.25Z" fill="#FFE13D" stroke="black" stroke-width="2.5"/>
<path fill-rule="evenodd" clip-rule="evenodd" d="M1117.5 868C1117.87 877.072 1117.87 885.406 1117.5 893C1117.25 898.155 1113.71 905.418 1106.89 914.787C1099.72 924.626 1098.02 937.419 1102.35 948.793L1103 950.5L1090.5 957C1089.17 948 1088.5 939.333 1088.5 931C1088.5 918.5 1104 899 1106 890.5C1107.33 884.833 1106.67 879.333 1104 874L1117.5 868ZM1089 880C1089.96 887.748 1088.13 895.248 1083.5 902.5C1076.56 913.378 1076.57 921.155 1081.5 926.5C1084.7 929.967 1083.2 939.369 1077.02 954.706C1076.89 955.03 1076.66 955.307 1076.36 955.498C1075.57 956.013 1074.52 955.791 1074 955L1073.96 954.936C1072.84 953.413 1063.73 945.944 1063.19 935.613C1062.64 925.127 1071.37 924.99 1071 918C1070.63 911.01 1077.19 894.574 1078.5 891C1079.38 888.618 1079.38 886.451 1078.5 884.5L1089 880ZM1127.48 899.154C1129.7 903.368 1130.43 908.576 1129.69 914.777C1128.46 924.939 1125.17 923.565 1122.86 930.884C1122.16 933.105 1122.58 935.475 1124.11 937.992L1114.11 943.492L1115.01 936.55C1115.6 931.985 1117.39 927.658 1120.2 924.012C1122.9 920.514 1124.53 917.315 1125.09 914.413C1125.86 910.494 1125.69 905.549 1124.59 899.578C1124.47 898.933 1124.89 898.313 1125.54 898.194C1125.55 898.191 1125.57 898.189 1125.59 898.186C1126.36 898.078 1127.12 898.465 1127.48 899.154Z" fill="black"/>
<path fill-rule="evenodd" clip-rule="evenodd" d="M1073.21 942.996C1074.43 942.993 1076.11 940.207 1076 936.896C1075.88 933.584 1074.09 931.007 1072.8 931.004C1071.5 931 1069.9 933.793 1070.02 937.104C1070.13 940.416 1072 943 1073.21 942.996Z" fill="white"/>
<path fill-rule="evenodd" clip-rule="evenodd" d="M1442 838.5V867.5V838.5ZM1442 763V792V763ZM1463 815H1489H1463ZM1392 815H1418H1392ZM1459.5 800L1470.5 794L1459.5 800ZM1457.75 832.75L1467.25 843.25L1457.75 832.75ZM1415 793L1424 799L1415 793ZM1413.25 838.25L1423.75 830.75L1413.25 838.25Z" fill="white"/>
<path d="M1413.25 838.25L1423.75 830.75M1442 838.5V867.5V838.5ZM1442 763V792V763ZM1463 815H1489H1463ZM1392 815H1418H1392ZM1459.5 800L1470.5 794L1459.5 800ZM1457.75 832.75L1467.25 843.25L1457.75 832.75ZM1415 793L1424 799L1415 793Z" stroke="black" stroke-width="2.5" stroke-linecap="round" stroke-linejoin="round"/>
<path fill-rule="evenodd" clip-rule="evenodd" d="M1103.26 1082.38C1103.25 1082.38 1076.04 1089.24 1021.63 1102.95C1014.26 1104.24 1007.23 1099.33 1005.91 1091.97C1004.6 1084.65 1009.47 1077.65 1016.79 1076.33C1016.81 1076.33 1016.83 1076.33 1016.85 1076.32L1061.18 1064.31" fill="white"/>
<path d="M1103.26 1082.38C1103.25 1082.38 1076.04 1089.24 1021.63 1102.95C1014.26 1104.24 1007.23 1099.33 1005.91 1091.97C1004.6 1084.65 1009.47 1077.65 1016.79 1076.33C1016.81 1076.33 1016.83 1076.33 1016.85 1076.32L1061.18 1064.31" stroke="black" stroke-width="2.5" stroke-linecap="round" stroke-linejoin="round"/>
<path d="M1022.06 1074.93C1018.27 1084.32 1012.7 1088.86 1005.34 1088.53" stroke="black" stroke-width="2.5" stroke-linecap="round" stroke-linejoin="round"/>
<path d="M987.136 1064.58C983.347 1073.98 977.772 1078.51 970.411 1078.18" stroke="black" stroke-width="2.5" stroke-linecap="round" stroke-linejoin="round"/>
<path fill-rule="evenodd" clip-rule="evenodd" d="M795 1076.5C768.333 1024.17 732.5 1013.83 687.5 1045.5C620 1093 614 1311 607.5 1342.5C603.336 1362.68 589.786 1402.86 566.851 1463.04C564.946 1468.04 563.446 1473.18 562.364 1478.42L536 1606L653 1499.5C718.333 1474.83 751 1445 751 1410C751 1357.5 701 1142.5 772.5 1107C820.167 1083.33 827.667 1073.17 795 1076.5Z" fill="white" stroke="black" stroke-width="2.5" stroke-linecap="round" stroke-linejoin="round"/>
<path d="M874.5 1231.63C914.648 1223.96 944.648 1221.4 964.5 1223.96C984.352 1226.52 1003.19 1235.39 1021.03 1250.54L1058.32 1420.76C1062.36 1439.18 1061.1 1458.38 1054.7 1476.12L1033.77 1534.09C1025.54 1556.89 1025.87 1581.91 1034.7 1604.48L1041.17 1621.01L1041.21 1621L1041.41 1621.61L1042.05 1623.25L1041.95 1623.29L1050.74 1650.49C1052.83 1656.96 1049.58 1663.93 1043.33 1666.5L1043.03 1666.62C1035.62 1669.47 1032.17 1671.83 1032.69 1673.71C1035.52 1683.95 1062.33 1680.74 1072.19 1692.21C1078.28 1699.29 1083.49 1714.89 1087.82 1739L1000.48 1738.98L975.401 1639.28L960.684 1591.27C956.374 1577.21 955.219 1562.37 957.297 1547.82L957.431 1546.91L971.5 1454.46L874.5 1231.63Z" fill="#66EC36"/>
<path fill-rule="evenodd" clip-rule="evenodd" d="M1086.33 1737.75C1082.11 1714.81 1077.13 1699.87 1071.25 1693.03C1066.52 1687.53 1057.73 1685.61 1049.79 1683.78C1044.87 1682.65 1040.24 1681.56 1036.9 1679.86C1034.1 1678.43 1032.19 1676.57 1031.49 1674.04C1031.27 1673.26 1031.39 1672.4 1032.03 1671.48C1032.47 1670.85 1033.2 1670.17 1034.24 1669.47C1036.05 1668.24 1038.91 1666.87 1042.85 1665.35C1045.68 1664.18 1047.83 1662.02 1049.04 1659.42C1050.24 1656.82 1050.5 1653.79 1049.55 1650.87L1040.87 1623.67L1040.24 1622.07L1040.01 1621.46L1033.54 1604.94L1033.25 1604.18C1024.59 1581.52 1024.35 1556.5 1032.59 1533.66L1053.52 1475.69L1053.82 1474.87C1059.88 1457.58 1061.02 1438.94 1057.1 1421.03L1019.9 1251.23L1019.48 1250.87C1002.07 1236.27 983.694 1227.7 964.34 1225.2C944.828 1222.68 915.471 1225.15 876.271 1232.57L972.79 1454.29L958.667 1547.1L958.534 1548.01C956.483 1562.37 957.623 1577.02 961.88 1590.9L976.605 1638.94L1001.46 1737.73L1086.33 1737.75Z" stroke="black" stroke-width="2.5"/>
<mask id="mask2" mask-type="alpha" maskUnits="userSpaceOnUse" x="874" y="1223" width="214" height="516">
<path d="M874.5 1231.63C914.648 1223.96 944.648 1221.4 964.5 1223.96C984.352 1226.52 1003.19 1235.39 1021.03 1250.54L1058.32 1420.76C1062.36 1439.18 1061.1 1458.38 1054.7 1476.12L1033.77 1534.09C1025.54 1556.89 1025.87 1581.91 1034.7 1604.48L1041.17 1621.01L1041.21 1621L1041.41 1621.61L1042.05 1623.25L1041.95 1623.29L1050.74 1650.49C1052.83 1656.96 1049.58 1663.93 1043.33 1666.5L1043.03 1666.62C1035.62 1669.47 1032.17 1671.83 1032.69 1673.71C1035.52 1683.95 1062.33 1680.74 1072.19 1692.21C1078.28 1699.29 1083.49 1714.89 1087.82 1739L1000.48 1738.98L975.401 1639.28L960.684 1591.27C956.374 1577.21 955.219 1562.37 957.297 1547.82L957.431 1546.91L971.5 1454.46L874.5 1231.63Z" fill="#66EC36"/>
</mask>
<g mask="url(#mask2)">
<path fill-rule="evenodd" clip-rule="evenodd" d="M981 1676.5H1050L1093 1680.5L1098.5 1743L995.5 1740.5L981 1676.5Z" fill="black"/>
</g>
<path d="M1155.21 1450L1193.97 1506.62L1171.65 1528.12C1166.67 1532.91 1158.82 1532.97 1153.77 1528.26C1147.96 1522.85 1144.33 1520.79 1142.86 1522.08C1134.9 1529.11 1149.53 1551.8 1143.55 1565.69C1139.86 1574.27 1128.61 1585.6 1109.8 1599.7L1070.08 1521.74L1155.21 1450ZM1248 1147L1359.58 1309.72C1359.77 1310 1359.96 1310.28 1360.15 1310.57C1375.61 1334.11 1369.05 1365.73 1345.51 1381.19C1331.93 1390.1 1317.26 1401.04 1301.5 1414C1278.52 1432.9 1247.29 1459.16 1207.83 1492.78C1193.13 1505.3 1181.92 1486.02 1174.19 1434.94L1279 1346L1130 1182.5L1248 1147Z" fill="#66EC36"/>
<path fill-rule="evenodd" clip-rule="evenodd" d="M1110.24 1597.81C1128.07 1584.32 1138.84 1573.48 1142.4 1565.2C1145.27 1558.54 1143.14 1549.79 1141.31 1541.86C1140.17 1536.94 1139.11 1532.3 1139.18 1528.55C1139.23 1525.41 1140.07 1522.87 1142.04 1521.14C1142.65 1520.6 1143.47 1520.34 1144.55 1520.5C1145.31 1520.62 1146.23 1520.96 1147.3 1521.57C1149.18 1522.63 1151.62 1524.55 1154.62 1527.35C1156.9 1529.48 1159.82 1530.53 1162.73 1530.5C1165.63 1530.48 1168.53 1529.38 1170.78 1527.22L1192.34 1506.46L1154.96 1451.85L1071.64 1522.05L1110.24 1597.81ZM1247.49 1148.46L1132.26 1183.13L1280.8 1346.12L1175.53 1435.44L1175.66 1436.27C1179.48 1461.01 1184.12 1478.05 1189.64 1487.36C1192.19 1491.66 1194.89 1494.28 1197.86 1495.02C1200.74 1495.73 1203.78 1494.58 1207.02 1491.83C1246.49 1458.2 1277.72 1431.93 1300.71 1413.03C1316.51 1400.04 1331.21 1389.08 1344.82 1380.15C1356.31 1372.61 1363.65 1361.12 1366.23 1348.66C1368.81 1336.19 1366.64 1322.74 1359.1 1311.25C1358.92 1310.97 1358.73 1310.7 1358.55 1310.42L1247.49 1148.46Z" stroke="black" stroke-width="2.5"/>
<mask id="mask3" mask-type="alpha" maskUnits="userSpaceOnUse" x="1070" y="1147" width="299" height="453">
<path d="M1155.21 1450L1193.97 1506.62L1171.65 1528.12C1166.67 1532.91 1158.82 1532.97 1153.77 1528.26C1147.96 1522.85 1144.33 1520.79 1142.86 1522.08C1134.9 1529.11 1149.53 1551.8 1143.55 1565.69C1139.86 1574.27 1128.61 1585.6 1109.8 1599.7L1070.08 1521.74L1155.21 1450ZM1248 1147L1359.58 1309.72C1359.77 1310 1359.96 1310.28 1360.15 1310.57C1375.61 1334.11 1369.05 1365.73 1345.51 1381.19C1331.93 1390.1 1317.26 1401.04 1301.5 1414C1278.52 1432.9 1247.29 1459.16 1207.83 1492.78C1193.13 1505.3 1181.92 1486.02 1174.19 1434.94L1279 1346L1130 1182.5L1248 1147Z" fill="#66EC36"/>
</mask>
<g mask="url(#mask3)">
<path fill-rule="evenodd" clip-rule="evenodd" d="M1038 1542.5L1107.5 1619.5L1289.5 1461C1277.83 1442.67 1272 1425.33 1272 1409C1272 1392.67 1274.33 1371.67 1279 1346L1038 1542.5Z" fill="black"/>
</g>
<path d="M1029.44 1062.17C1127.85 1079.06 1251.09 1042.25 1251.09 1084.29C1251.09 1118.02 1268.41 1208.51 1240.99 1263.08L1235.28 1441.96L1256.61 1625.33L1264.42 1649.49C1266.51 1655.96 1263.26 1662.93 1257 1665.5L1256.71 1665.62C1249.3 1668.47 1245.85 1670.83 1246.37 1672.71C1249.2 1682.95 1276 1679.74 1285.87 1691.21C1291.89 1698.21 1296.73 1713.54 1300.38 1737.2L1300.5 1738L1214.16 1737.98L1187.38 1631.52L1187.24 1631.52L1150 1445L1141.02 1294.87C1089.94 1286.21 1031.52 1268.88 1029.44 1267.93C982.21 1246.36 950.52 1243.26 928.228 1246.76L875.226 1433.42C874.517 1435.92 873.71 1438.39 872.809 1440.82L872.35 1442.04L835.362 1538.09C828.698 1555.4 826.979 1574.21 830.39 1592.43L830.556 1593.3L840.049 1641.64L839.818 1641.61L842.928 1651.84C844.907 1658.35 841.536 1665.26 835.237 1667.73L834.94 1667.84C827.479 1670.56 823.992 1672.86 824.478 1674.75C827.126 1685.04 853.986 1682.3 863.649 1693.93C869.615 1701.12 874.609 1716.29 878.631 1739.45H791.131L766.682 1634.54L766.567 1634.53L755.645 1580.33C752.65 1565.47 753.074 1550.13 756.88 1535.46L757.113 1534.58L789.689 1413.59L757.478 1225.74C756.104 1220.56 755.097 1214.75 754.477 1208.24L754.095 1206L754.285 1206.04C753.924 1201.54 753.741 1196.71 753.741 1191.54C753.741 1106.88 782.593 1072.98 843.5 1052C895.757 1034 931.033 1045.27 1029.44 1062.17Z" fill="#66EC36"/>
<path fill-rule="evenodd" clip-rule="evenodd" d="M877.142 1738.2C873.223 1716.18 868.448 1701.67 862.687 1694.73C858.056 1689.15 849.299 1687.08 841.393 1685.11C836.494 1683.89 831.884 1682.73 828.577 1680.97C825.8 1679.49 823.92 1677.59 823.267 1675.06C823.064 1674.27 823.201 1673.41 823.858 1672.51C824.309 1671.89 825.044 1671.22 826.099 1670.53C827.931 1669.34 830.809 1668.01 834.781 1666.56C837.631 1665.45 839.818 1663.32 841.067 1660.74C842.314 1658.17 842.626 1655.13 841.729 1652.19L838.833 1641.93L829.33 1593.54L829.163 1592.66C825.708 1574.21 827.448 1555.16 834.196 1537.64L871.183 1441.59L871.639 1440.38C872.527 1437.99 873.323 1435.55 874.024 1433.08L927.243 1245.66C949.727 1241.93 981.83 1244.82 1029.96 1266.8C1032.05 1267.75 1091.05 1285.22 1142.21 1293.8L1151.24 1444.84L1188.6 1631.25L1215.13 1736.73L1299.04 1736.75C1295.46 1713.81 1290.81 1698.87 1284.92 1692.03C1280.19 1686.53 1271.4 1684.61 1263.46 1682.78C1258.54 1681.65 1253.91 1680.56 1250.58 1678.86C1247.77 1677.43 1245.86 1675.57 1245.16 1673.04C1244.95 1672.26 1245.07 1671.4 1245.71 1670.48C1246.15 1669.85 1246.87 1669.17 1247.92 1668.47C1249.73 1667.24 1252.58 1665.87 1256.53 1664.35C1259.36 1663.18 1261.51 1661.02 1262.71 1658.42C1263.91 1655.82 1264.17 1652.79 1263.23 1649.87L1255.38 1625.6L1234.03 1442.01L1239.75 1262.76C1260.9 1220.96 1255.44 1157.81 1251.84 1115.63C1250.76 1102.92 1249.84 1092.09 1249.84 1084.29C1249.84 1079.58 1248.17 1075.93 1245.06 1073.15C1241.57 1070.03 1236.34 1067.98 1229.73 1066.63C1212.5 1063.13 1186.05 1064.52 1155.6 1066.1C1116.41 1068.14 1070.63 1070.5 1029.23 1063.4C1014.29 1060.83 1000.81 1058.4 988.504 1056.18C920.023 1043.81 888.047 1037.97 843.907 1053.18C812.716 1063.93 789.979 1078.06 775.325 1100.84C761.618 1122.15 754.991 1150.98 754.991 1191.54C754.991 1196.66 755.172 1201.45 755.341 1205.87L755.717 1208.07C756.332 1214.55 757.332 1220.33 758.701 1225.48L790.967 1413.65L758.32 1534.9L758.089 1535.78C754.332 1550.26 753.913 1565.41 756.87 1580.09L767.903 1634.27L792.123 1738.2H877.142Z" stroke="black" stroke-width="2.5"/>
<mask id="mask4" mask-type="alpha" maskUnits="userSpaceOnUse" x="753" y="1042" width="548" height="698">
<path d="M1239.87 1262.52L1239.75 1262.76L1239.74 1263.04L1234.04 1441.92L1234.03 1442.01L1234.04 1442.11L1255.37 1625.48L1255.38 1625.6L1255.42 1625.72L1263.23 1649.87C1265.12 1655.72 1262.18 1662.01 1256.54 1664.34C1256.53 1664.35 1256.53 1664.35 1256.53 1664.35L1256.26 1664.45C1256.26 1664.45 1256.25 1664.46 1256.25 1664.46C1252.52 1665.89 1249.7 1667.23 1247.86 1668.5C1246.94 1669.13 1246.18 1669.79 1245.69 1670.5C1245.19 1671.23 1244.91 1672.11 1245.16 1673.04C1246.02 1676.16 1248.68 1678.09 1251.85 1679.46C1255.04 1680.83 1259.09 1681.77 1263.2 1682.72L1263.43 1682.77C1267.52 1683.71 1271.71 1684.68 1275.5 1686.09C1279.35 1687.53 1282.65 1689.39 1284.92 1692.03C1287.77 1695.34 1290.42 1700.73 1292.82 1708.33C1295.17 1715.78 1297.25 1725.25 1299.04 1736.75L1215.13 1736.73L1188.59 1631.22L1188.36 1630.31L1188.27 1630.3L1151.24 1444.84L1142.27 1294.79L1142.21 1293.8L1141.23 1293.63C1115.74 1289.31 1088.4 1282.83 1067.17 1277.3C1056.56 1274.53 1047.47 1272.01 1040.92 1270.12C1037.64 1269.18 1034.99 1268.39 1033.1 1267.81C1032.16 1267.52 1031.41 1267.29 1030.86 1267.11C1030.74 1267.07 1030.63 1267.03 1030.53 1267C1030.41 1266.96 1030.3 1266.92 1030.21 1266.89C1030.13 1266.86 1030.07 1266.84 1030.02 1266.82C1029.99 1266.81 1029.97 1266.8 1029.96 1266.8C1029.96 1266.8 1029.96 1266.8 1029.96 1266.8C982.581 1245.16 950.639 1241.97 928.034 1245.53L927.244 1245.65L927.026 1246.42L874.024 1433.08C873.324 1435.55 872.528 1437.98 871.638 1440.39C871.637 1440.39 871.637 1440.39 871.636 1440.39L871.183 1441.59L871.18 1441.6L834.196 1537.64C827.448 1555.16 825.708 1574.21 829.161 1592.66L829.163 1592.66L829.329 1593.53L829.33 1593.54L838.5 1640.23L838.079 1640.19L838.622 1641.98L841.732 1652.2C843.52 1658.08 840.477 1664.33 834.788 1666.56C834.786 1666.56 834.784 1666.56 834.781 1666.56L834.512 1666.66C834.509 1666.67 834.506 1666.67 834.504 1666.67C830.752 1668.03 827.907 1669.33 826.04 1670.56C825.11 1671.17 824.344 1671.82 823.842 1672.52C823.325 1673.25 823.026 1674.12 823.267 1675.06C824.073 1678.19 826.691 1680.17 829.843 1681.59C833.008 1683.02 837.035 1684.03 841.131 1685.05L841.356 1685.1C845.431 1686.12 849.608 1687.16 853.367 1688.64C857.195 1690.14 860.464 1692.05 862.687 1694.73C865.523 1698.15 868.204 1703.56 870.682 1711.09C873.048 1718.28 875.203 1727.31 877.142 1738.2H792.123L767.899 1634.26L767.695 1633.38L767.608 1633.37L756.87 1580.09C753.913 1565.41 754.332 1550.26 758.09 1535.77C758.09 1535.77 758.09 1535.77 758.09 1535.77L758.32 1534.9L758.321 1534.9L790.896 1413.91L790.967 1413.65L790.921 1413.38L758.71 1225.53L758.701 1225.48L758.687 1225.42C757.333 1220.32 756.336 1214.57 755.721 1208.12L755.717 1208.07L755.709 1208.03L755.637 1207.61L755.664 1207.61L755.531 1205.94C755.173 1201.48 754.991 1196.68 754.991 1191.54C754.991 1149.33 762.187 1119.98 776.812 1098.6C791.427 1077.23 813.585 1063.63 843.907 1053.18C887.907 1038.02 919.657 1043.75 988.461 1056.17C1000.77 1058.39 1014.27 1060.83 1029.23 1063.4C1070.69 1070.51 1116.54 1068.13 1155.64 1066.1C1163.11 1065.71 1170.32 1065.34 1177.22 1065.04C1198.8 1064.13 1217.12 1064.01 1230.04 1066.69C1236.49 1068.04 1241.45 1070.06 1244.78 1072.91C1248.06 1075.71 1249.84 1079.39 1249.84 1084.29C1249.84 1092.12 1250.76 1102.96 1251.84 1115.61C1251.93 1116.69 1252.03 1117.78 1252.12 1118.89C1253.32 1132.97 1254.62 1149.11 1255.07 1165.9C1255.98 1199.53 1253.44 1235.53 1239.87 1262.52Z" fill="#66EC36" stroke="black" stroke-width="2.5"/>
</mask>
<g mask="url(#mask4)">
<path fill-rule="evenodd" clip-rule="evenodd" d="M1305 1672C1307.22 1672 1305.72 1696 1300.5 1744H1216.5L1163 1676C1255.44 1673.33 1302.78 1672 1305 1672ZM870 1676.5L880.5 1743L788.5 1741L764 1676.5H870Z" fill="black"/>
</g>
<path d="M927.5 1246.5L942.5 1201.5" stroke="black" stroke-width="2.5" stroke-linecap="round" stroke-linejoin="round"/>
<path fill-rule="evenodd" clip-rule="evenodd" d="M1253.92 1046.94L1135.37 1065.71L1088.15 1087.41C1087.96 1087.5 1087.83 1087.65 1087.76 1087.83C1087.69 1088.01 1087.7 1088.22 1088.6 1088.83L1166.28 1074.4L1158.61 1100.38C1158.47 1100.84 1158.54 1101.32 1158.75 1101.71C1158.97 1102.1 1159.33 1102.41 1159.79 1102.55C1160.21 1102.67 1160.66 1102.64 1161.05 1102.45L1220.89 1073.7L1212.62 1105.24C1224.11 1104.93 1234.52 1100.21 1242.18 1092.69C1250.21 1084.82 1255.23 1073.89 1255.35 1061.77C1255.36 1059.85 1255.26 1057.93 1255.02 1056.03L1253.92 1046.94Z" fill="#66EC36" stroke="black" stroke-width="2.5"/>
<path d="M653 1499.5C677.333 1454.83 689.5 1405.83 689.5 1352.5C689.5 1299.17 677.333 1215.17 653 1100.5" stroke="black" stroke-width="2" stroke-linecap="round" stroke-linejoin="round"/>
<path d="M653 1100.5C683.667 1049.83 730.333 1041.83 793 1076.5" stroke="black" stroke-width="2" stroke-linecap="round" stroke-linejoin="round"/>
<path d="M608 1341C623.667 1440.9 618 1512.57 591 1556" stroke="black" stroke-width="2" stroke-linecap="round" stroke-linejoin="round"/>
<path d="M791 1414C792.547 1435.63 793.866 1450.93 794.957 1459.9C795.257 1462.36 792.104 1462.4 785.5 1460C793.315 1470.78 797.371 1477.05 797.669 1478.82C805.797 1527.03 819.407 1543.42 838.5 1528" stroke="black" stroke-width="2" stroke-linecap="round" stroke-linejoin="round"/>
<path d="M1149.5 1418.5C1159.94 1441.32 1167.66 1457.15 1172.65 1466C1173.98 1468.36 1172.5 1475.19 1168.2 1486.5C1177.4 1483.15 1182.57 1482.3 1183.69 1483.96C1205.39 1515.98 1224.99 1524.99 1242.5 1511" stroke="black" stroke-width="2" stroke-linecap="round" stroke-linejoin="round"/>
<path d="M972.228 1454.84C985.021 1481.46 991.929 1495.57 992.952 1497.17C1010 1523.86 1026.03 1527.9 1041.03 1509.31" stroke="black" stroke-width="2" stroke-linecap="round" stroke-linejoin="round"/>
</g>
<defs>
<clipPath id="clip0">
<rect width="2811" height="1999" fill="white"/>
</clipPath>
</defs>
</svg>
