<svg width="2811" height="1999" viewBox="0 0 2811 1999" fill="none" xmlns="http://www.w3.org/2000/svg">
<g clip-path="url(#clip0)">
<rect width="2811" height="1999" fill="white"/>
<path fill-rule="evenodd" clip-rule="evenodd" d="M1548 541H1863C1886.75 541 1906 560.252 1906 584V879C1906 945.826 1851.83 1000 1785 1000H1626C1559.17 1000 1505 945.826 1505 879V584C1505 560.252 1524.25 541 1548 541Z" fill="#E4EDF6"/>
<path d="M1179 227H1100C975.184 227 874 328.184 874 453V631C874 755.816 975.184 857 1100 857H1179C1303.82 857 1405 755.816 1405 631V453C1405 328.184 1303.82 227 1179 227Z" fill="#E4EDF6"/>
<path fill-rule="evenodd" clip-rule="evenodd" d="M1153.81 524C1157.12 524 1159.81 526.686 1159.81 530L1159.81 756.273C1160.32 757.866 1161.22 759.334 1162.47 760.527C1166.55 764.438 1173.04 764.297 1176.95 760.213L1187.27 749.429L1251.44 671.649C1251.6 671.465 1251.76 671.292 1251.94 671.131C1253.98 669.274 1257.14 669.424 1259 671.468L1277.2 691.483C1278.92 693.382 1278.93 696.282 1277.21 698.19L1159.81 828.679L1159.81 1539H1120.9L1120.9 1010.26L1066.84 957.935C1064.9 956.057 1064.8 952.977 1066.62 950.979L1085.72 929.969C1087.32 928.204 1089.95 927.818 1091.99 929.047L1093.11 929.718L1100.07 939.709C1103.7 944.921 1110.87 946.203 1116.08 942.573C1118.75 940.708 1120.47 937.83 1120.9 934.69L1120.9 707.415L1066.84 655.096C1064.9 653.217 1064.8 650.138 1066.62 648.139L1085.72 627.129C1087.32 625.364 1089.95 624.978 1091.99 626.208L1093.11 626.879L1100.07 636.87C1103.7 642.082 1110.87 643.364 1116.08 639.733C1118.75 637.869 1120.47 634.99 1120.9 631.85L1120.9 530C1120.9 526.686 1123.59 524 1126.9 524H1153.81Z" fill="#DFE9F3"/>
<path fill-rule="evenodd" clip-rule="evenodd" d="M1723.31 645C1726.07 645 1728.31 647.239 1728.31 650L1728.31 805.137C1729.08 807.43 1730.57 809.467 1732.63 810.907C1737.85 814.565 1745.05 813.296 1748.71 808.072L1755.75 798.016L1756.91 797.326C1758.94 796.106 1761.56 796.49 1763.16 798.244L1782.38 819.267C1784.21 821.268 1784.11 824.362 1782.15 826.242L1728.31 878.075L1728.31 1600C1728.31 1602.76 1726.07 1605 1723.31 1605H1694.19C1691.43 1605 1689.19 1602.76 1689.19 1600L1689.19 810.025L1634.85 757.714C1632.89 755.834 1632.79 752.739 1634.62 750.738L1653.84 729.715C1655.44 727.962 1658.06 727.578 1660.09 728.797L1661.25 729.487L1668.29 739.544C1671.95 744.768 1679.15 746.037 1684.37 742.378C1687.04 740.509 1688.76 737.634 1689.19 734.497V650C1689.19 647.239 1691.43 645 1694.19 645H1723.31Z" fill="#DFE9F3"/>
<path fill-rule="evenodd" clip-rule="evenodd" d="M910.755 1642H766V1491.7L766.094 1491.7C766.031 1490.47 766 1489.24 766 1487.99C766 1448.03 798.405 1415.63 838.378 1415.63C877.418 1415.63 909.24 1446.53 910.703 1485.21L911.028 1485.21C913.322 1504.54 929.774 1519.54 949.728 1519.54C971.252 1519.54 988.7 1502.09 988.7 1480.57C988.7 1480.16 988.694 1479.74 988.681 1479.33L988.657 1478.71L988.7 1478.71L988.7 1358.71L988.7 1358.71L988.7 1341.41H988.818C988.74 1340.18 988.7 1338.94 988.7 1337.7C988.7 1305.93 1014.46 1280.17 1046.23 1280.17C1078 1280.17 1103.76 1305.93 1103.76 1337.7C1103.76 1338.94 1103.72 1340.18 1103.64 1341.41H1103.76V1387.79L1103.83 1387.79C1103.78 1388.41 1103.76 1389.03 1103.76 1389.65C1103.76 1404 1115.39 1415.63 1129.74 1415.63C1144.09 1415.63 1155.73 1404 1155.73 1389.65C1155.73 1389.23 1155.72 1388.82 1155.7 1388.41L1155.66 1387.79L1155.73 1387.79L1155.72 1360.48L1155.72 1360.48L1155.73 1289.45L1156 1289.45C1155.82 1286.69 1155.73 1283.91 1155.73 1281.1C1155.73 1210.91 1212.64 1154 1282.85 1154C1353.06 1154 1409.97 1210.91 1409.97 1281.1C1409.97 1283.91 1409.88 1286.69 1409.7 1289.45L1409.97 1289.45L1409.97 1455.52L1410.39 1455.52C1412.58 1467.65 1423.19 1476.86 1435.96 1476.86C1448.72 1476.86 1459.34 1467.65 1461.53 1455.52L1461.94 1455.52L1461.94 1439.75L1462.06 1439.75C1461.98 1438.52 1461.94 1437.28 1461.94 1436.04C1461.94 1404.27 1487.7 1378.52 1519.47 1378.52C1551.24 1378.52 1577 1404.27 1577 1436.04C1577 1437.28 1576.96 1438.52 1576.88 1439.75L1577 1439.75V1642H1461.94L1461.94 1642H1409.97L1409.97 1642H1155.73L1155.72 1642H1103.76V1642H988.7L988.7 1642H910.755L910.755 1642Z" fill="#E4EDF6"/>
<path fill-rule="evenodd" clip-rule="evenodd" d="M2075.33 1642L2075.33 1642H1821.08L1821.08 1642H1769.11L1769.11 1642H1654.05L1654.05 1642L1526 1642V1485.21L1576.38 1485.21C1578.67 1504.54 1595.13 1519.54 1615.08 1519.54C1636.6 1519.54 1654.05 1502.09 1654.05 1480.57C1654.05 1480.16 1654.05 1479.74 1654.03 1479.33L1654.01 1478.71L1654.05 1478.71L1654.05 1358.71V1358.71L1654.05 1341.41H1654.17C1654.09 1340.18 1654.05 1338.94 1654.05 1337.7C1654.05 1305.93 1679.81 1280.17 1711.58 1280.17C1743.36 1280.17 1769.11 1305.93 1769.11 1337.7C1769.11 1338.94 1769.07 1340.18 1769 1341.41H1769.11V1387.79L1769.18 1387.79C1769.14 1388.41 1769.11 1389.03 1769.11 1389.65C1769.11 1404 1780.75 1415.63 1795.1 1415.63C1809.45 1415.63 1821.08 1404 1821.08 1389.65C1821.08 1389.23 1821.07 1388.82 1821.05 1388.41L1821.01 1387.79L1821.08 1387.79V1289.45L1821.35 1289.45C1821.17 1286.69 1821.08 1283.91 1821.08 1281.1C1821.08 1210.91 1877.99 1154 1948.2 1154C2018.41 1154 2075.33 1210.91 2075.33 1281.1C2075.33 1283.91 2075.24 1286.69 2075.06 1289.45L2075.33 1289.45L2075.33 1455.52L2075.74 1455.52C2077.93 1467.65 2088.54 1476.86 2101.31 1476.86C2114.07 1476.86 2124.69 1467.65 2126.88 1455.52L2127.29 1455.52L2127.29 1439.75L2127.41 1439.75C2127.33 1438.52 2127.29 1437.28 2127.29 1436.04C2127.29 1404.27 2153.05 1378.52 2184.82 1378.52C2216.59 1378.52 2242.35 1404.27 2242.35 1436.04C2242.35 1437.28 2242.31 1438.52 2242.23 1439.75L2242.35 1439.75V1642L2075.33 1642Z" fill="#E4EDF6"/>
<path d="M807 1425H606V1642H807V1425Z" fill="#EBF2F9"/>
<path fill-rule="evenodd" clip-rule="evenodd" d="M788.977 1129H632.091L449.074 1432.13C445.934 1437.33 447.604 1444.09 452.805 1447.23C454.521 1448.27 456.487 1448.82 458.491 1448.82C472.726 1448.82 486.962 1448.82 501.197 1448.82C506.692 1448.82 516.963 1442.06 532.011 1428.54C536.002 1424.95 542.113 1425.16 545.857 1429C558.724 1442.21 569.521 1448.82 578.248 1448.82C587.094 1448.82 599.239 1442.03 614.684 1428.45C618.675 1424.94 624.713 1425.16 628.431 1428.96C641.396 1442.2 652.828 1448.82 662.725 1448.82C672.74 1448.82 685.024 1442.04 699.578 1428.49H699.578C703.402 1424.93 709.322 1424.91 713.166 1428.45C727.916 1442.03 740.499 1448.82 750.916 1448.82C761.28 1448.82 773.325 1442.1 787.051 1428.66C790.799 1424.99 796.744 1424.84 800.672 1428.31C816.128 1441.98 827.702 1448.82 835.393 1448.82C844.975 1448.82 857.897 1441.83 874.159 1427.85C878.006 1424.55 883.718 1424.65 887.449 1428.08C900.983 1440.54 911.172 1447.45 918.014 1448.82C923.984 1450.01 935.324 1450.3 952.034 1449.69C958.105 1449.47 962.847 1444.37 962.626 1438.3C962.562 1436.54 962.075 1434.82 961.207 1433.28L788.977 1129Z" fill="#DFE9F3"/>
<path fill-rule="evenodd" clip-rule="evenodd" d="M697.418 936.634L536.557 1215.11C533.518 1220.37 535.32 1227.1 540.58 1230.14C540.738 1230.23 540.897 1230.32 541.059 1230.4C552.23 1236.13 561.765 1239 569.665 1239C578.562 1239 590.052 1232.25 604.136 1218.74H604.136C607.732 1215.29 613.319 1215.01 617.237 1218.09C634.972 1232.03 648.961 1239 659.204 1239C669.439 1239 682.88 1232.04 699.527 1218.13C703.265 1215 708.712 1215.03 712.422 1218.18C728.728 1232.06 742.192 1239 752.813 1239C763.356 1239 776.7 1232.16 792.843 1218.49V1218.49C796.713 1215.21 802.424 1215.35 806.131 1218.81C820.547 1232.27 831.603 1239 839.3 1239C846.302 1239 856.297 1236 869.286 1230C874.802 1227.46 877.209 1220.92 874.662 1215.41C874.534 1215.13 874.393 1214.85 874.242 1214.59L716.509 936.706C713.51 931.423 706.796 929.571 701.513 932.57C699.81 933.536 698.397 934.939 697.418 936.634Z" fill="#EBF2F9"/>
<path fill-rule="evenodd" clip-rule="evenodd" d="M653.026 1564.47C656.892 1564.47 660.026 1567.61 660.026 1571.47V1602C660.026 1605.87 656.892 1609 653.026 1609H641C637.134 1609 634 1605.87 634 1602V1571.47C634 1567.61 637.134 1564.47 641 1564.47H653.026ZM712.513 1564.47C716.379 1564.47 719.513 1567.61 719.513 1571.47V1602C719.513 1605.87 716.379 1609 712.513 1609H700.487C696.621 1609 693.487 1605.87 693.487 1602V1571.47C693.487 1567.61 696.621 1564.47 700.487 1564.47H712.513ZM772 1564.47C775.866 1564.47 779 1567.61 779 1571.47V1602C779 1605.87 775.866 1609 772 1609H759.974C756.108 1609 752.974 1605.87 752.974 1602V1571.47C752.974 1567.61 756.108 1564.47 759.974 1564.47H772ZM653.026 1468C656.892 1468 660.026 1471.13 660.026 1475V1540.78C660.026 1544.64 656.892 1547.78 653.026 1547.78H641C637.134 1547.78 634 1544.64 634 1540.78V1475C634 1471.13 637.134 1468 641 1468H653.026ZM712.513 1468C716.379 1468 719.513 1471.13 719.513 1475V1540.78C719.513 1544.64 716.379 1547.78 712.513 1547.78H700.487C696.621 1547.78 693.487 1544.64 693.487 1540.78V1475C693.487 1471.13 696.621 1468 700.487 1468H712.513ZM772 1468C775.866 1468 779 1471.13 779 1475V1540.78C779 1544.64 775.866 1547.78 772 1547.78H759.974C756.108 1547.78 752.974 1544.64 752.974 1540.78V1475C752.974 1471.13 756.108 1468 759.974 1468H772Z" fill="#E4EDF6"/>
<path d="M2274 1276H2073V1642H2274V1276Z" fill="#EBF2F9"/>
<path fill-rule="evenodd" clip-rule="evenodd" d="M2255.98 981H2099.09L1916.07 1284.13C1912.93 1289.33 1914.6 1296.09 1919.81 1299.23C1921.52 1300.27 1923.49 1300.82 1925.49 1300.82C1939.73 1300.82 1953.96 1300.82 1968.2 1300.82C1973.69 1300.82 1983.96 1294.06 1999.01 1280.54C2003 1276.95 2009.11 1277.16 2012.86 1281C2025.72 1294.21 2036.52 1300.82 2045.25 1300.82C2054.09 1300.82 2066.24 1294.03 2081.68 1280.45C2085.67 1276.94 2091.71 1277.16 2095.43 1280.96C2108.4 1294.2 2119.83 1300.82 2129.73 1300.82C2139.74 1300.82 2152.02 1294.04 2166.58 1280.49H2166.58C2170.4 1276.93 2176.32 1276.91 2180.17 1280.45C2194.92 1294.03 2207.5 1300.82 2217.92 1300.82C2228.28 1300.82 2240.33 1294.1 2254.05 1280.66C2257.8 1276.99 2263.74 1276.84 2267.67 1280.31C2283.13 1293.98 2294.7 1300.82 2302.39 1300.82C2311.98 1300.82 2324.9 1293.83 2341.16 1279.85C2345.01 1276.55 2350.72 1276.65 2354.45 1280.08C2367.98 1292.54 2378.17 1299.45 2385.01 1300.82C2390.98 1302.01 2402.32 1302.3 2419.03 1301.69C2425.1 1301.47 2429.85 1296.37 2429.63 1290.3C2429.56 1288.54 2429.08 1286.82 2428.21 1285.28L2255.98 981Z" fill="#DFE9F3"/>
<path fill-rule="evenodd" clip-rule="evenodd" d="M2164.42 787.634L2003.56 1066.11C2000.52 1071.37 2002.32 1078.1 2007.58 1081.14C2007.74 1081.23 2007.9 1081.32 2008.06 1081.4C2019.23 1087.13 2028.77 1090 2036.66 1090C2045.56 1090 2057.05 1083.25 2071.14 1069.74H2071.14C2074.73 1066.29 2080.32 1066.01 2084.24 1069.09C2101.97 1083.03 2115.96 1090 2126.2 1090C2136.44 1090 2149.88 1083.04 2166.53 1069.13C2170.27 1066 2175.71 1066.03 2179.42 1069.18C2195.73 1083.06 2209.19 1090 2219.81 1090C2230.36 1090 2243.7 1083.16 2259.84 1069.49V1069.49C2263.71 1066.21 2269.42 1066.35 2273.13 1069.81C2287.55 1083.27 2298.6 1090 2306.3 1090C2313.3 1090 2323.3 1087 2336.29 1081C2341.8 1078.46 2344.21 1071.92 2341.66 1066.41C2341.53 1066.13 2341.39 1065.85 2341.24 1065.59L2183.51 787.706C2180.51 782.423 2173.8 780.571 2168.51 783.57C2166.81 784.536 2165.4 785.939 2164.42 787.634Z" fill="#EBF2F9"/>
<path fill-rule="evenodd" clip-rule="evenodd" d="M2120.03 1534C2123.89 1534 2127.03 1537.13 2127.03 1541V1607C2127.03 1610.87 2123.89 1614 2120.03 1614H2108C2104.13 1614 2101 1610.87 2101 1607V1541C2101 1537.13 2104.13 1534 2108 1534H2120.03ZM2179.51 1534C2183.38 1534 2186.51 1537.13 2186.51 1541V1607C2186.51 1610.87 2183.38 1614 2179.51 1614H2167.49C2163.62 1614 2160.49 1610.87 2160.49 1607V1541C2160.49 1537.13 2163.62 1534 2167.49 1534H2179.51ZM2239 1534C2242.87 1534 2246 1537.13 2246 1541V1607C2246 1610.87 2242.87 1614 2239 1614H2226.97C2223.11 1614 2219.97 1610.87 2219.97 1607V1541C2219.97 1537.13 2223.11 1534 2226.97 1534H2239ZM2120.03 1423C2123.89 1423 2127.03 1426.13 2127.03 1430V1496C2127.03 1499.87 2123.89 1503 2120.03 1503H2108C2104.13 1503 2101 1499.87 2101 1496V1430C2101 1426.13 2104.13 1423 2108 1423H2120.03ZM2179.51 1423C2183.38 1423 2186.51 1426.13 2186.51 1430V1496C2186.51 1499.87 2183.38 1503 2179.51 1503H2167.49C2163.62 1503 2160.49 1499.87 2160.49 1496V1430C2160.49 1426.13 2163.62 1423 2167.49 1423H2179.51ZM2239 1423C2242.87 1423 2246 1426.13 2246 1430V1496C2246 1499.87 2242.87 1503 2239 1503H2226.97C2223.11 1503 2219.97 1499.87 2219.97 1496V1430C2219.97 1426.13 2223.11 1423 2226.97 1423H2239ZM2120.03 1311C2123.89 1311 2127.03 1314.13 2127.03 1318V1384C2127.03 1387.87 2123.89 1391 2120.03 1391H2108C2104.13 1391 2101 1387.87 2101 1384V1318C2101 1314.13 2104.13 1311 2108 1311H2120.03ZM2179.51 1311C2183.38 1311 2186.51 1314.13 2186.51 1318V1384C2186.51 1387.87 2183.38 1391 2179.51 1391H2167.49C2163.62 1391 2160.49 1387.87 2160.49 1384V1318C2160.49 1314.13 2163.62 1311 2167.49 1311H2179.51ZM2239 1311C2242.87 1311 2246 1314.13 2246 1318V1384C2246 1387.87 2242.87 1391 2239 1391H2226.97C2223.11 1391 2219.97 1387.87 2219.97 1384V1318C2219.97 1314.13 2223.11 1311 2226.97 1311H2239Z" fill="#E4EDF6"/>
<g clip-path="url(#clip1)">
<path fill-rule="evenodd" clip-rule="evenodd" d="M1595.36 695.137C1680.83 695.137 1750.11 764.414 1750.11 849.871C1750.11 883.201 1739.57 914.069 1721.65 939.327L1721.68 939.355L1504.93 1248.82L1897.65 1694.91C1916.79 1716.65 1914.68 1749.78 1892.94 1768.92C1883.36 1777.35 1871.04 1782 1858.28 1782H765.749C736.785 1782 713.306 1758.52 713.306 1729.56C713.306 1717.71 717.321 1706.2 724.698 1696.92L1467.63 762.494C1495.51 721.82 1542.32 695.137 1595.36 695.137Z" fill="#A057FF" stroke="black" stroke-width="2.5" stroke-linecap="round" stroke-linejoin="round"/>
<path fill-rule="evenodd" clip-rule="evenodd" d="M1287.41 1360.42C1292.52 1360.42 1296.66 1364.56 1296.66 1369.67V1374.81C1296.66 1379.92 1292.52 1384.07 1287.41 1384.07C1282.3 1384.07 1278.16 1379.92 1278.16 1374.81V1369.67C1278.16 1364.56 1282.3 1360.42 1287.41 1360.42ZM1171.21 1360.42C1176.32 1360.42 1180.47 1364.56 1180.47 1369.67V1374.81C1180.47 1379.92 1176.32 1384.07 1171.21 1384.07C1166.1 1384.07 1161.96 1379.92 1161.96 1374.81V1369.67C1161.96 1364.56 1166.1 1360.42 1171.21 1360.42Z" fill="#FFFFD9" stroke="black" stroke-width="2.5" stroke-linecap="round" stroke-linejoin="round"/>
<path d="M1215.43 1379.95L1215.46 1380.03C1218.3 1387.4 1226.57 1391.07 1233.94 1388.22C1237.73 1386.76 1240.72 1383.75 1242.16 1379.95" stroke="black" stroke-width="2.5" stroke-linecap="round" stroke-linejoin="round"/>
</g>
<path fill-rule="evenodd" clip-rule="evenodd" d="M1891.96 1640.22L1917.88 1648.6L1913.29 1778.69C1913.26 1779.55 1912.87 1780.35 1912.21 1780.89C1910.94 1781.95 1909.05 1781.78 1907.99 1780.51L1899.7 1770.55L1891.75 1777.22C1891.09 1777.78 1890.23 1778.02 1889.38 1777.89C1887.74 1777.65 1886.61 1776.12 1886.86 1774.48L1894 1727L1891.96 1640.22ZM1761.5 1627.82L1740.11 1778.21C1739.87 1779.85 1738.35 1780.99 1736.71 1780.75C1735.86 1780.63 1735.09 1780.14 1734.62 1779.42L1729.01 1770.77L1717.72 1778.16C1716.33 1779.07 1714.48 1778.68 1713.57 1777.3C1713.13 1776.63 1712.98 1775.81 1713.15 1775.02L1726 1715.5L1734.26 1628.26L1761.5 1627.82ZM1831.72 1627L1815.58 1778.04C1815.41 1779.69 1813.93 1780.88 1812.28 1780.7C1811.42 1780.61 1810.64 1780.15 1810.14 1779.44L1804.23 1771L1793.63 1778.49C1792.27 1779.44 1790.4 1779.12 1789.45 1777.77C1788.96 1777.07 1788.78 1776.2 1788.97 1775.37L1800 1727L1804.51 1628.39L1831.72 1627ZM1935.29 1645.32L1962.5 1646.71L1991.74 1773.56C1991.93 1774.39 1991.76 1775.26 1991.26 1775.96C1990.31 1777.31 1988.44 1777.64 1987.08 1776.68L1976.5 1769.21L1970.34 1778.02C1969.86 1778.69 1969.13 1779.14 1968.31 1779.26C1966.67 1779.5 1965.15 1778.37 1964.91 1776.73L1956 1715.5L1935.29 1645.32Z" fill="black"/>
<path fill-rule="evenodd" clip-rule="evenodd" d="M1930.34 1616.03L1862.85 1631.85L1866.64 1659.05C1867.63 1666.17 1870.86 1672.55 1875.6 1677.47C1880.35 1682.4 1886.62 1685.85 1893.69 1687.1C1900.15 1688.24 1906.46 1686.65 1911.44 1683.16C1916.41 1679.68 1920.06 1674.29 1921.2 1667.83L1930.34 1616.03Z" fill="#FF7C25" stroke="black" stroke-width="2.5"/>
<path fill-rule="evenodd" clip-rule="evenodd" d="M1717.51 1244C1724.37 1231.86 1733.31 1224.36 1744.32 1221.5C1765.44 1216.03 1791.82 1244.5 1823.46 1306.93C1824.2 1308.39 1825.96 1309.01 1827.45 1308.35C1828.98 1307.67 1829.77 1305.95 1829.29 1304.35C1809.31 1237.58 1787.94 1202.08 1765.18 1197.85C1743.68 1193.85 1728.53 1194.58 1719.72 1200.02L1717.51 1244Z" fill="black"/>
<path fill-rule="evenodd" clip-rule="evenodd" d="M1714.17 1355.15L1747.25 1313.68C1733.68 1291.27 1725.21 1273.13 1721.85 1259.29C1718.48 1245.44 1717.95 1225.87 1720.24 1200.59L1715.46 1203.9C1691.22 1220.67 1679.47 1250.38 1685.68 1279.19C1689.85 1298.56 1699.35 1323.88 1714.17 1355.15Z" fill="#FFFFD9" stroke="black" stroke-width="2.5" stroke-linecap="round" stroke-linejoin="round"/>
<path fill-rule="evenodd" clip-rule="evenodd" d="M1762.88 1319.84C1755.84 1310.15 1745.55 1304.17 1734.55 1302.35C1723.58 1300.52 1711.91 1302.84 1702.08 1309.74C1701.5 1310.15 1700.92 1310.58 1700.35 1311.02L1699.66 1311.58C1695.61 1315.02 1690.44 1327.1 1683.96 1347.62L1656.35 1351.7L1655.83 1351.78C1647.46 1353.15 1640.18 1357.45 1635 1363.54C1629.83 1369.63 1626.75 1377.5 1626.75 1386C1626.75 1393.16 1629.65 1399.63 1634.34 1404.32C1639.03 1409.01 1645.51 1411.91 1652.66 1411.91C1653.8 1411.91 1654.94 1411.84 1656.08 1411.69C1677.36 1408.86 1695.03 1406.49 1709.09 1404.58L1719.11 1544L1717.54 1661.17C1717.46 1667.12 1719.44 1672.7 1722.89 1677.15C1726.34 1681.59 1731.26 1684.89 1737.04 1686.28C1742.6 1687.62 1748.21 1686.73 1752.89 1684.15C1757.57 1681.57 1761.32 1677.3 1763.15 1671.88L1770.13 1651.23L1771.41 1663.02C1772.44 1672.48 1776.95 1680.78 1783.57 1686.73C1790.2 1692.67 1798.95 1696.25 1808.45 1696.25C1818.03 1696.25 1826.87 1692.71 1833.64 1686.79C1840.41 1680.88 1845.1 1672.59 1846.38 1663.1L1850.41 1633.25L1890.19 1633.25L1914.81 1672.33C1919.24 1679.37 1925.72 1684.53 1933.1 1687.39C1940.47 1690.24 1948.74 1690.77 1956.76 1688.55C1964.55 1686.38 1971.01 1681.59 1975.34 1675.32C1979.67 1669.06 1981.87 1661.32 1981.14 1653.27L1975.67 1592.98L1983.77 1529C1993.14 1526.65 1999.87 1521.97 2003.91 1514.88C2007.8 1508.07 2011.28 1495.59 2014.4 1477.46L1965.14 1496.43L1963.29 1494.92C1940.42 1476.19 1910.37 1468.7 1881.38 1474.49L1799.74 1490.81L1767.38 1357.42L1769.37 1357.91C1769.9 1358.04 1770.44 1358.16 1770.99 1358.28C1785.49 1361.3 1806.95 1348.02 1835.39 1319.26L1836.33 1318.29C1836.44 1318.15 1836.49 1317.97 1836.48 1317.8C1836.47 1317.62 1836.4 1317.44 1836.26 1317.31C1836.11 1317.17 1835.92 1317.09 1835.72 1317.09C1809.43 1317.53 1791.79 1318.89 1782.81 1321.21C1777.76 1322.52 1773.86 1322.8 1770.68 1323.03C1768.94 1323.15 1767.42 1323.26 1766.06 1323.53C1765.73 1323.59 1765.4 1323.67 1765.06 1323.75C1764.93 1323.41 1764.81 1323.11 1764.68 1322.81C1764.36 1322.12 1763.98 1321.44 1763.31 1320.43L1762.88 1319.84Z" fill="#FF7C25" stroke="black" stroke-width="2.5"/>
<path d="M1717.94 1344.73L1731.94 1344.73" stroke="black" stroke-width="2.5" stroke-linecap="round" stroke-linejoin="round"/>
<path d="M1678.94 1343.73L1692.94 1343.73" stroke="black" stroke-width="2.5" stroke-linecap="round" stroke-linejoin="round"/>
<path fill-rule="evenodd" clip-rule="evenodd" d="M1746.85 1304.18L1750.55 1313.96L1721.9 1310C1717.78 1309.75 1713.98 1310.22 1710.49 1311.4C1707 1312.58 1702.26 1315.01 1696.27 1318.69C1689.04 1317.27 1685.12 1314.03 1684.5 1308.97C1683.73 1302.69 1689.03 1300.72 1700.4 1303.07C1691.92 1296.97 1692.34 1292.22 1701.67 1288.81C1715.66 1283.69 1735.15 1295.71 1741.45 1305.08C1745.65 1311.33 1747.45 1311.03 1746.85 1304.18Z" fill="black"/>
<path d="M1722.01 1343.96C1722.04 1342.3 1723.4 1340.98 1725.06 1341.01C1726.72 1341.04 1728.04 1342.41 1728.01 1344.06L1727.99 1345.06C1727.96 1346.72 1726.6 1348.04 1724.94 1348.01C1723.28 1347.98 1721.96 1346.62 1721.99 1344.96L1722.01 1343.96Z" fill="#FFFFD9" stroke="black" stroke-width="2.5" stroke-linecap="round" stroke-linejoin="round"/>
<path d="M1682.01 1342.96C1682.04 1341.3 1683.4 1339.98 1685.06 1340.01C1686.72 1340.04 1688.04 1341.41 1688.01 1343.06L1687.99 1344.06C1687.96 1345.72 1686.6 1347.04 1684.94 1347.01C1683.28 1346.98 1681.96 1345.62 1681.99 1343.96L1682.01 1342.96Z" fill="#FFFFD9" stroke="black" stroke-width="2.5" stroke-linecap="round" stroke-linejoin="round"/>
<path fill-rule="evenodd" clip-rule="evenodd" d="M1792.07 1247.48C1808.02 1235.41 1822.94 1234.14 1836.85 1243.68C1848.68 1251.78 1862.42 1264.58 1878.08 1282.06C1883.35 1287.94 1887.9 1294.42 1891.64 1301.38C1908.34 1332.39 1921.82 1352.43 1932.07 1361.49C1942.64 1370.83 1952.95 1378.02 1962.99 1383.05C1964.15 1383.63 1965.55 1383.31 1966.35 1382.29C1967.14 1381.27 1967.12 1379.84 1966.32 1378.84C1952.48 1361.55 1939.54 1341.11 1927.51 1317.53C1908.86 1280.97 1876.55 1208.49 1819.75 1201.56C1781.89 1196.95 1772.66 1212.25 1792.07 1247.48Z" fill="black"/>
<path fill-rule="evenodd" clip-rule="evenodd" d="M1732.05 1315.09C1733.48 1278.71 1743.95 1248.93 1763.45 1225.75C1782.96 1202.57 1804.44 1195.38 1827.89 1204.18C1810.95 1218.64 1799.38 1231.79 1793.17 1243.63C1786.97 1255.47 1781.32 1275.18 1776.22 1302.75C1772.08 1319.23 1763.91 1327.19 1751.72 1326.62C1739.52 1326.06 1732.97 1322.21 1732.05 1315.09Z" fill="#FFFFD9" stroke="black" stroke-width="2.5" stroke-linecap="round" stroke-linejoin="round"/>
<path d="M1755.2 1254.63L1746.58 1253.23M1747.39 1286.25L1736.74 1284.49L1747.39 1286.25ZM1750.26 1270.01L1740.58 1267.68L1750.26 1270.01Z" stroke="black" stroke-width="2.5" stroke-linecap="round" stroke-linejoin="round"/>
<path d="M1693.59 1256.43L1684.27 1259.34M1698.19 1286.43L1688.39 1289.62L1698.19 1286.43ZM1694.71 1272.39L1685.39 1275.3L1694.71 1272.39Z" stroke="black" stroke-width="2.5" stroke-linecap="round" stroke-linejoin="round"/>
<path d="M1708.5 1404.5C1712 1404 1728 1402 1739.81 1397C1747.68 1393.67 1752.57 1385.67 1754.5 1373" stroke="black" stroke-width="2.5" stroke-linecap="round" stroke-linejoin="round"/>
<path d="M1715 1339.51C1718.33 1335.67 1721.74 1333.84 1725.22 1334.01C1728.7 1334.19 1731.96 1336.35 1735 1340.51" stroke="black" stroke-width="2.5" stroke-linecap="round" stroke-linejoin="round"/>
<path d="M1677 1339.51C1679.83 1335.67 1682.73 1333.84 1685.69 1334.01C1688.65 1334.19 1691.42 1336.35 1694 1340.51" stroke="black" stroke-width="2.5" stroke-linecap="round" stroke-linejoin="round"/>
<path d="M1629 1374C1635 1378.33 1642.5 1377.33 1651.5 1371" stroke="black" stroke-width="2.5" stroke-linecap="round" stroke-linejoin="round"/>
<path d="M1637.5 1377.5V1391.5" stroke="black" stroke-width="2.5" stroke-linecap="round" stroke-linejoin="round"/>
<path d="M1627.5 1391.5H1637.5L1671.5 1390" stroke="black" stroke-width="2.5" stroke-linecap="round" stroke-linejoin="round"/>
<path fill-rule="evenodd" clip-rule="evenodd" d="M1767.5 1359L1769.5 1361.5L1785.58 1367.48C1786.62 1367.87 1787.77 1367.34 1788.15 1366.31C1788.37 1365.73 1788.3 1365.09 1787.98 1364.57L1785.5 1360.5L1795.53 1360.22C1796.63 1360.19 1797.5 1359.27 1797.47 1358.17C1797.45 1357.43 1797.03 1356.76 1796.37 1356.43L1792.5 1354.5L1782.5 1358L1767.5 1359Z" fill="black"/>
<path d="M1769.5 1655.5C1755.83 1655.5 1744.17 1651 1734.5 1642C1724.83 1633 1719.33 1622.5 1718 1610.5" stroke="black" stroke-width="2.5" stroke-linecap="round" stroke-linejoin="round"/>
<path d="M1889 1633L1864 1601.5" stroke="black" stroke-width="2.5" stroke-linecap="round" stroke-linejoin="round"/>
<path d="M1800 1490C1801.33 1495.67 1803.5 1499.83 1806.5 1502.5" stroke="black" stroke-width="2.5" stroke-linecap="round" stroke-linejoin="round"/>
<path fill-rule="evenodd" clip-rule="evenodd" d="M2013.5 1477C2012.17 1493.33 2009.5 1505.33 2005.5 1513C2001.5 1520.67 1994.33 1526 1984 1529L1983.5 1528L2004.5 1508.5H1997C1998 1507.17 2000 1504.5 2003 1500.5C2006 1496.5 2009.5 1488.67 2013.5 1477ZM1825.5 1485.5C1819.5 1487.83 1815 1490.67 1812 1494C1809 1497.33 1807.17 1500.17 1806.5 1502.5C1804.41 1500.25 1803.08 1498.58 1802.5 1497.5C1800.23 1493.24 1800 1490.24 1800 1490C1800 1489.67 1808.5 1488.17 1825.5 1485.5ZM1730.5 1400C1730.5 1400 1726.18 1402.5 1719.5 1410C1717.58 1412.15 1714.42 1416.48 1710 1423C1708.67 1410 1708.17 1403.5 1708.5 1403.5C1708.74 1403.5 1714.34 1404.33 1719.5 1403.5C1725.2 1402.58 1730.5 1400 1730.5 1400Z" fill="black"/>
<g clip-path="url(#clip2)">
<path d="M1228.76 1058.96C1275.61 999.545 1265.6 913.54 1206.41 866.861C1147.21 820.183 1061.24 830.507 1014.39 889.921C967.543 949.335 977.553 1035.34 1036.75 1082.02C1095.95 1128.7 1181.92 1118.37 1228.76 1058.96Z" fill="white" stroke="black" stroke-width="2.5" stroke-linecap="round" stroke-linejoin="round"/>
<path fill-rule="evenodd" clip-rule="evenodd" d="M939.372 1203.9C937.833 1205.85 938.168 1208.68 940.119 1210.22C942.071 1211.76 944.9 1211.42 946.439 1209.47L1127.22 980.2C1128.76 978.249 1128.43 975.419 1126.48 973.881L858.709 762.738C852.854 758.122 851.85 749.633 856.467 743.778L912.83 672.299C914.369 670.348 914.034 667.518 912.082 665.98C910.131 664.441 907.301 664.775 905.763 666.727L849.4 738.206C841.705 747.964 843.378 762.111 853.136 769.805L1117.37 978.161L939.372 1203.9Z" fill="#D8D8D8" stroke="black" stroke-width="2.5" stroke-linecap="round" stroke-linejoin="round"/>
<path fill-rule="evenodd" clip-rule="evenodd" d="M813.164 979.577L993.966 750.286L1037.15 784.341C1052.33 796.31 1054.94 818.317 1042.97 833.496L883.836 1035.3L813.164 979.577Z" fill="#FFFFD9" stroke="black" stroke-width="2.5" stroke-linecap="round" stroke-linejoin="round"/>
<path d="M1288.83 982.79C1335.68 923.376 1325.67 837.371 1266.47 790.693C1207.27 744.014 1121.3 754.338 1074.45 813.752C1027.6 873.166 1037.61 959.171 1096.81 1005.85C1156.01 1052.53 1241.98 1042.2 1288.83 982.79Z" fill="white" stroke="black" stroke-width="2.5" stroke-linecap="round" stroke-linejoin="round"/>
<path fill-rule="evenodd" clip-rule="evenodd" d="M1176.83 902.756L998.814 1128.51C997.275 1130.47 997.61 1133.3 999.561 1134.83C1001.51 1136.37 1004.34 1136.04 1005.88 1134.09L1186.68 904.795C1188.22 902.844 1187.89 900.014 1185.94 898.475L857.687 639.677C851.832 635.061 850.828 626.572 855.445 620.718L911.808 549.239C913.347 547.287 913.012 544.458 911.061 542.919C909.109 541.38 906.279 541.714 904.741 543.666L848.378 615.145C840.683 624.903 842.356 639.05 852.114 646.745L1176.83 902.756Z" fill="#D8D8D8" stroke="black" stroke-width="2.5" stroke-linecap="round" stroke-linejoin="round"/>
<path d="M1206.07 918.168C1217.18 904.074 1214.76 883.638 1200.67 872.524C1186.57 861.41 1166.14 863.827 1155.02 877.921C1143.91 892.016 1146.33 912.451 1160.42 923.565C1174.52 934.679 1194.95 932.263 1206.07 918.168Z" fill="black"/>
<path fill-rule="evenodd" clip-rule="evenodd" d="M1010.87 1254.54L758.411 1055.47C752.556 1050.86 751.553 1042.37 756.169 1036.51L924.588 822.928C926.127 820.976 925.792 818.147 923.84 816.608C921.889 815.069 919.059 815.404 917.521 817.355L749.102 1030.94C741.408 1040.7 743.081 1054.85 752.838 1062.54L1005.29 1261.61C1007.25 1263.15 1010.08 1262.81 1011.61 1260.86C1013.15 1258.91 1012.82 1256.08 1010.87 1254.54Z" fill="#D8D8D8" stroke="black" stroke-width="2.5" stroke-linecap="round" stroke-linejoin="round"/>
<path d="M897.753 815.777L769.582 978.322C764.794 984.394 765.835 993.197 771.907 997.984L777.403 1002.32C783.475 1007.11 792.278 1006.07 797.065 999.994L925.237 837.448C930.024 831.377 928.983 822.574 922.912 817.786L917.415 813.452C911.344 808.664 902.541 809.705 897.753 815.777Z" stroke="black" stroke-width="2.5" stroke-linecap="round" stroke-linejoin="round"/>
<path d="M838.065 612.072L807.725 650.549C802.938 656.621 803.979 665.424 810.05 670.211C816.122 674.999 824.925 673.958 829.712 667.886L860.052 629.409C864.84 623.338 863.799 614.535 857.727 609.747C851.656 604.96 842.853 606.001 838.065 612.072Z" stroke="black" stroke-width="2.5" stroke-linecap="round" stroke-linejoin="round"/>
<path fill-rule="evenodd" clip-rule="evenodd" d="M734.147 751.485C742.482 761.008 748.353 772.432 751.243 784.752L764.465 841.114C774.577 884.216 751.444 928.192 710.198 944.278L601.036 986.851L587.594 993.778L502.095 1047.05C501.915 1047.16 501.732 1047.27 501.546 1047.38C494.454 1051.38 485.459 1048.88 481.455 1041.78C477.222 1034.28 479.646 1024.78 486.955 1020.23L547.001 982.815L546.471 981.899L483.976 1017.3C483.848 1017.37 483.72 1017.44 483.59 1017.51C475.999 1021.53 466.585 1018.64 462.564 1011.05C458.394 1003.18 461.245 993.415 468.996 989.024L530.449 954.212L529.53 952.623L469.206 986.902C469.066 986.982 468.925 987.059 468.782 987.134C461.204 991.134 451.819 988.232 447.819 980.655C443.657 972.767 446.51 962.999 454.265 958.592L513.506 924.929L513.383 924.718L516.259 923.364L522.14 920.023L486.191 920.557L486.128 920.558C476.705 920.663 468.982 913.11 468.877 903.687C468.772 894.219 476.343 886.449 485.81 886.309L588.608 884.784L683.236 863.7L665.851 778.873C665.8 778.623 665.751 778.371 665.706 778.119C662.722 761.444 673.82 745.507 690.495 742.523L702.481 740.378C714.254 738.271 726.27 742.486 734.147 751.485Z" fill="white" stroke="black" stroke-width="2.5" stroke-linecap="round" stroke-linejoin="round"/>
<path d="M523.689 941.134C525.217 944.861 534.429 960.851 551.324 989.106" stroke="black" stroke-width="2.5" stroke-linecap="round" stroke-linejoin="round"/>
<path fill-rule="evenodd" clip-rule="evenodd" d="M933.983 1251.06C937.431 1252.45 941.363 1250.92 942.976 1247.58L1014.84 1098.49L833.587 1037.21L826.342 1075.29L935.854 1170.91L928.533 1242.04C928.132 1245.92 930.356 1249.61 933.983 1251.06Z" fill="black"/>
<path fill-rule="evenodd" clip-rule="evenodd" d="M1074.24 1182.25L841.41 998.666C835.555 994.05 835.171 984.776 839.787 978.921L1006.04 768.083L998.972 762.511L832.72 973.349C825.026 983.107 826.08 998.039 835.837 1005.73L1068.66 1189.32C1070.61 1190.86 1073.44 1190.53 1074.98 1188.57C1076.52 1186.62 1076.19 1183.79 1074.24 1182.25Z" stroke="black" stroke-width="2.5" stroke-linecap="round" stroke-linejoin="round"/>
<path fill-rule="evenodd" clip-rule="evenodd" d="M911.227 752.876C929.088 767.204 939.594 787.362 942.158 808.484C944.76 829.915 939.185 852.338 924.819 870.675C922.557 873.562 920.108 876.299 917.489 878.868L828.137 966.517L985.309 1087.55L917.651 1156.98L744.784 1015.48C727.529 1001.36 717.632 981.576 715.581 961.012C713.529 940.448 719.322 919.102 733.446 901.847C736.797 897.753 740.554 894.007 911.227 752.876Z" fill="#57EFFF" stroke="black" stroke-width="2.5"/>
<path fill-rule="evenodd" clip-rule="evenodd" d="M981.775 1237.33L1075.68 1118.94C1079.12 1114.61 1078.39 1108.32 1074.06 1104.89C1073.73 1104.63 1073.39 1104.39 1073.02 1104.17L925.793 1015.14L863.459 1081.24L987.245 1171.84L966.389 1211.29C961.806 1219.95 965.117 1230.69 973.784 1235.28C976.249 1236.58 978.987 1237.29 981.775 1237.33Z" fill="black"/>
<path fill-rule="evenodd" clip-rule="evenodd" d="M810.275 702.226L833.804 672.387C846.799 655.907 870.693 653.082 887.173 666.077L993.966 750.286L946.908 809.964L810.275 702.226Z" stroke="black" stroke-width="2.5" stroke-linecap="round" stroke-linejoin="round"/>
<path fill-rule="evenodd" clip-rule="evenodd" d="M911.076 749.03C930.337 761.413 942.893 780.362 947.65 801.101C952.478 822.142 949.278 845.026 936.907 864.763C934.959 867.871 932.81 870.849 930.474 873.678L850.773 970.187L1019.74 1074.12L959.706 1150.25L772.994 1027.59C754.358 1015.35 742.448 996.713 738.258 976.477C734.068 956.24 737.598 934.406 749.841 915.769C752.746 911.347 756.091 907.229 911.076 749.03Z" fill="#57EFFF" stroke="black" stroke-width="2.5"/>
<path fill-rule="evenodd" clip-rule="evenodd" d="M999.133 1251.66C988.704 1264.88 990.971 1284.06 1004.2 1294.49C1017.43 1304.92 1036.6 1302.66 1047.03 1289.43C1057.46 1276.2 1055.2 1257.02 1041.97 1246.59C1028.74 1236.16 1009.56 1238.43 999.133 1251.66ZM1058.58 1176.27C1048.15 1189.5 1050.41 1208.68 1063.64 1219.11C1076.87 1229.54 1096.05 1227.27 1106.48 1214.04C1116.91 1200.82 1114.64 1181.64 1101.41 1171.21C1088.18 1160.78 1069.01 1163.05 1058.58 1176.27Z" fill="black"/>
<path d="M898.126 535.904L867.786 574.381C862.999 580.452 864.04 589.255 870.111 594.043C876.183 598.83 884.986 597.789 889.773 591.718L920.113 553.241C924.901 547.169 923.86 538.366 917.788 533.579C911.717 528.791 902.914 529.832 898.126 535.904Z" fill="#FFFFD9" stroke="black" stroke-width="2.5" stroke-linecap="round" stroke-linejoin="round"/>
<path fill-rule="evenodd" clip-rule="evenodd" d="M943.559 1299.53L1093.4 1109.5C1094.94 1107.55 1094.61 1104.72 1092.65 1103.18C1090.7 1101.64 1087.87 1101.97 1086.33 1103.92L936.492 1293.95C934.953 1295.91 935.288 1298.74 937.239 1300.27C939.191 1301.81 942.02 1301.48 943.559 1299.53Z" fill="#D8D8D8" stroke="black" stroke-width="2.5" stroke-linecap="round" stroke-linejoin="round"/>
<path d="M964.653 779.385L836.482 941.931C831.695 948.002 832.735 956.805 838.807 961.593L844.304 965.927C850.375 970.715 859.178 969.674 863.966 963.602L992.137 801.056C996.925 794.985 995.884 786.182 989.812 781.394L984.315 777.06C978.244 772.273 969.441 773.313 964.653 779.385Z" fill="#FFFFD9" stroke="black" stroke-width="2.5" stroke-linecap="round" stroke-linejoin="round"/>
<path fill-rule="evenodd" clip-rule="evenodd" d="M833.633 695.619L915.468 750.615L819.592 844.453L754.203 808.028L661.546 791.851C656.826 758.137 663.889 730.304 682.823 708.38C690.2 699.839 701.208 686.532 709.452 674.812C737.653 634.717 766.86 610.481 797.15 602.237C827.001 594.112 857.844 601.589 889.699 624.517L833.633 695.619Z" fill="#FFE13D" stroke="black" stroke-width="2.5"/>
<path fill-rule="evenodd" clip-rule="evenodd" d="M825.499 706.338L902.273 741.406L804.964 848.512C793.942 860.643 791.437 878.271 798.641 892.992L825.737 948.362C827.258 951.469 831.01 952.755 834.117 951.235C834.962 950.821 835.703 950.223 836.285 949.484L836.368 949.378C839.974 944.798 840.805 938.62 838.536 933.251C831.521 916.652 831.047 904.501 837.114 896.797C839.931 893.219 842.748 889.641 845.565 886.064C847.512 883.592 851.093 883.166 853.565 885.112C853.567 885.114 853.569 885.115 853.571 885.117L844.583 896.531C838.827 903.841 840.087 914.434 847.397 920.19C850.025 922.26 853.21 923.5 856.546 923.753L1002.86 749.848C1018.58 731.162 1016.17 703.27 997.488 687.549C994.417 684.965 991.008 682.812 987.356 681.147C941.449 660.23 905.762 645.462 880.297 636.843L825.499 706.338Z" fill="white" stroke="black" stroke-width="2.5" stroke-linecap="round" stroke-linejoin="round"/>
</g>
<path fill-rule="evenodd" clip-rule="evenodd" d="M717.157 665.09L698.116 653.566L672.834 676.9L690.602 695.732C700.994 695.95 708.595 692.657 713.405 685.852C718.216 679.047 719.466 672.126 717.157 665.09Z" fill="white" stroke="black" stroke-width="2.5" stroke-linecap="round" stroke-linejoin="round"/>
<path fill-rule="evenodd" clip-rule="evenodd" d="M718.22 665.855L686.874 676.747L699.395 652.298L718.22 665.855Z" fill="black"/>
<path d="M670.593 616.917L643.758 651.379C641.96 653.689 642.09 656.959 644.067 659.118C648.024 663.439 652.399 667.273 657.193 670.621C656.713 671.028 656.266 671.489 655.862 672.002C652.442 676.338 653.361 682.765 657.915 686.356C662.469 689.946 668.932 689.341 672.352 685.005C673.161 683.978 673.727 682.835 674.06 681.64C680.35 684.913 686.287 685.456 695.124 679.664C699.461 676.822 710.29 662.221 711.526 658.194C713.662 651.235 711.29 646.22 706.554 640.457L706.608 640.392L706.782 640.178C710.202 635.842 709.282 629.415 704.729 625.825C700.813 622.737 695.484 622.752 691.894 625.574C687.84 622.11 683.426 618.788 678.653 615.61C676.038 613.869 672.523 614.439 670.593 616.917Z" fill="white"/>
<path d="M670.593 616.917L643.758 651.379C641.96 653.689 642.09 656.959 644.067 659.118C648.024 663.439 652.399 667.273 657.193 670.621C656.713 671.028 656.266 671.489 655.862 672.002C652.442 676.338 653.361 682.765 657.915 686.356C662.469 689.946 668.932 689.341 672.352 685.005C673.161 683.978 673.727 682.835 674.06 681.64C680.35 684.913 686.287 685.456 695.124 679.664C699.461 676.822 710.29 662.221 711.526 658.194C713.662 651.235 711.29 646.22 706.554 640.457L706.608 640.392L706.782 640.178C710.202 635.842 709.282 629.415 704.729 625.825C700.813 622.737 695.484 622.752 691.894 625.574C687.84 622.11 683.426 618.788 678.653 615.61C676.038 613.869 672.523 614.439 670.593 616.917Z" fill="white" stroke="black" stroke-width="2.5" stroke-linecap="round" stroke-linejoin="round"/>
<mask id="mask0" mask-type="alpha" maskUnits="userSpaceOnUse" x="641" y="613" width="73" height="77">
<path d="M670.593 616.917L643.758 651.379C641.96 653.689 642.09 656.959 644.067 659.118C648.024 663.439 652.399 667.273 657.193 670.621C656.713 671.028 656.266 671.489 655.861 672.002C652.442 676.338 653.361 682.765 657.915 686.356C662.468 689.946 668.932 689.341 672.352 685.005C673.161 683.978 673.727 682.835 674.06 681.64C680.349 684.913 686.286 685.456 695.124 679.664C699.461 676.822 710.29 662.221 711.526 658.194C713.662 651.235 711.29 646.22 706.553 640.457L706.608 640.392L706.782 640.178C710.201 635.842 709.282 629.415 704.728 625.825C700.813 622.737 695.484 622.752 691.894 625.574C687.84 622.11 683.426 618.788 678.652 615.61C676.038 613.869 672.523 614.439 670.593 616.917Z" fill="white" stroke="black" stroke-width="2.5" stroke-linecap="round" stroke-linejoin="round"/>
</mask>
<g mask="url(#mask0)">
<path fill-rule="evenodd" clip-rule="evenodd" d="M647.837 668.034L685.076 618.763C676.314 609.822 667.801 608.102 659.536 613.604C647.139 621.858 628.631 632.755 632.464 643.379C635.02 650.461 640.144 658.68 647.837 668.034Z" fill="black"/>
</g>
<path fill-rule="evenodd" clip-rule="evenodd" d="M675.803 654.611C676.874 653.346 678.767 653.189 680.031 654.26L680.795 654.906C682.059 655.977 682.216 657.87 681.145 659.134C680.075 660.399 678.182 660.556 676.917 659.485L676.154 658.839C674.89 657.768 674.733 655.875 675.803 654.611ZM689.761 636.311C690.832 635.047 692.725 634.89 693.989 635.96L694.752 636.606C696.017 637.677 696.174 639.57 695.103 640.835C694.032 642.099 692.139 642.256 690.875 641.185L690.112 640.539C688.847 639.469 688.69 637.576 689.761 636.311Z" stroke="black" stroke-width="2" stroke-linecap="round" stroke-linejoin="round"/>
<path d="M693.768 657.822C695.862 657.411 696.939 656.139 696.999 654.006" stroke="black" stroke-width="2" stroke-linecap="round" stroke-linejoin="round"/>
<path d="M681.849 645.605L697.644 648.381L691.682 653.351" stroke="black" stroke-width="2" stroke-linecap="round" stroke-linejoin="round"/>
<path fill-rule="evenodd" clip-rule="evenodd" d="M643.581 650.377L670.284 606.446C672.327 603.085 676.708 602.017 680.069 604.06C681.424 604.884 682.465 606.136 683.028 607.619L687.355 619.022C687.875 620.394 687.603 621.94 686.645 623.052L650.633 664.851L643.581 650.377Z" fill="black"/>
</g>
<defs>
<clipPath id="clip0">
<rect width="2811" height="1999" fill="white"/>
</clipPath>
<clipPath id="clip1">
<path d="M437 217H2326V1782H437V217Z" fill="white"/>
</clipPath>
<clipPath id="clip2">
<path d="M71.5117 873.597L802.151 -52.9917L1913.27 823.156L1182.63 1749.74L71.5117 873.597Z" fill="white"/>
</clipPath>
</defs>
</svg>
