<svg width="2811" height="1999" viewBox="0 0 2811 1999" fill="none" xmlns="http://www.w3.org/2000/svg">
<rect width="2811" height="1999" fill="white"/>
<path fill-rule="evenodd" clip-rule="evenodd" d="M1491.49 878H2390.5L2390.61 1640L1469.5 1597.5V1528L1430.5 1496.5V889.5L1491.49 878Z" fill="#DFE9F3"/>
<mask id="mask0" mask-type="alpha" maskUnits="userSpaceOnUse" x="1389" y="847" width="1045" height="793">
<path d="M2332.5 1555C2355.97 1555 2375 1574.03 2375 1597.5C2375 1620.97 2355.97 1640 2332.5 1640H1960.5C1937.03 1640 1918 1620.97 1918 1597.5C1918 1574.03 1937.03 1555 1960.5 1555H2332.5ZM1860.5 1555C1883.97 1555 1903 1574.03 1903 1597.5C1903 1620.97 1883.97 1640 1860.5 1640H1488.5C1465.03 1640 1446 1620.97 1446 1597.5C1446 1574.03 1465.03 1555 1488.5 1555H1860.5ZM2097.5 1454C2120.97 1454 2140 1473.03 2140 1496.5C2140 1519.97 2120.97 1539 2097.5 1539H1725.5C1702.03 1539 1683 1519.97 1683 1496.5C1683 1473.03 1702.03 1454 1725.5 1454H2097.5ZM1624.5 1454C1647.97 1454 1667 1473.03 1667 1496.5C1667 1519.97 1647.97 1539 1624.5 1539H1431.5C1408.03 1539 1389 1519.97 1389 1496.5C1389 1473.03 1408.03 1454 1431.5 1454H1624.5ZM2391.5 1454C2414.97 1454 2434 1473.03 2434 1496.5C2434 1519.74 2415.35 1538.62 2392.2 1538.99L2391.5 1539H2198.5C2175.03 1539 2156 1519.97 2156 1496.5C2156 1473.03 2175.03 1454 2198.5 1454H2391.5ZM2332.5 1352C2355.97 1352 2375 1371.03 2375 1394.5C2375 1417.97 2355.97 1437 2332.5 1437H1960.5C1937.03 1437 1918 1417.97 1918 1394.5C1918 1371.03 1937.03 1352 1960.5 1352H2332.5ZM1860.5 1352C1883.97 1352 1903 1371.03 1903 1394.5C1903 1417.97 1883.97 1437 1860.5 1437H1488.5C1465.03 1437 1446 1417.97 1446 1394.5C1446 1371.03 1465.03 1352 1488.5 1352H1860.5ZM2097.5 1252C2120.97 1252 2140 1271.03 2140 1294.5C2140 1317.97 2120.97 1337 2097.5 1337H1725.5C1702.03 1337 1683 1317.97 1683 1294.5C1683 1271.03 1702.03 1252 1725.5 1252H2097.5ZM1624.5 1252C1647.97 1252 1667 1271.03 1667 1294.5C1667 1317.97 1647.97 1337 1624.5 1337H1431.5C1408.03 1337 1389 1317.97 1389 1294.5C1389 1271.03 1408.03 1252 1431.5 1252H1624.5ZM2391.5 1252C2414.97 1252 2434 1271.03 2434 1294.5C2434 1317.74 2415.35 1336.62 2392.2 1336.99L2391.5 1337H2198.5C2175.03 1337 2156 1317.97 2156 1294.5C2156 1271.03 2175.03 1252 2198.5 1252H2391.5ZM2332.5 1151C2355.97 1151 2375 1170.03 2375 1193.5C2375 1216.97 2355.97 1236 2332.5 1236H1960.5C1937.03 1236 1918 1216.97 1918 1193.5C1918 1170.03 1937.03 1151 1960.5 1151H2332.5ZM1860.5 1151C1883.97 1151 1903 1170.03 1903 1193.5C1903 1216.97 1883.97 1236 1860.5 1236H1488.5C1465.03 1236 1446 1216.97 1446 1193.5C1446 1170.03 1465.03 1151 1488.5 1151H1860.5ZM2097.5 1049C2120.97 1049 2140 1068.03 2140 1091.5C2140 1114.97 2120.97 1134 2097.5 1134H1725.5C1702.03 1134 1683 1114.97 1683 1091.5C1683 1068.03 1702.03 1049 1725.5 1049H2097.5ZM1624.5 1049C1647.97 1049 1667 1068.03 1667 1091.5C1667 1114.97 1647.97 1134 1624.5 1134H1431.5C1408.03 1134 1389 1114.97 1389 1091.5C1389 1068.03 1408.03 1049 1431.5 1049H1624.5ZM2391.5 1049C2414.97 1049 2434 1068.03 2434 1091.5C2434 1114.74 2415.35 1133.62 2392.2 1133.99L2391.5 1134H2198.5C2175.03 1134 2156 1114.97 2156 1091.5C2156 1068.03 2175.03 1049 2198.5 1049H2391.5ZM2332.5 949C2355.97 949 2375 968.028 2375 991.5C2375 1014.97 2355.97 1034 2332.5 1034H1960.5C1937.03 1034 1918 1014.97 1918 991.5C1918 968.028 1937.03 949 1960.5 949H2332.5ZM1860.5 949C1883.97 949 1903 968.028 1903 991.5C1903 1014.97 1883.97 1034 1860.5 1034H1488.5C1465.03 1034 1446 1014.97 1446 991.5C1446 968.028 1465.03 949 1488.5 949H1860.5ZM2097.5 847C2120.97 847 2140 866.028 2140 889.5C2140 912.972 2120.97 932 2097.5 932H1725.5C1702.03 932 1683 912.972 1683 889.5C1683 866.028 1702.03 847 1725.5 847H2097.5ZM1624.5 847C1647.97 847 1667 866.028 1667 889.5C1667 912.972 1647.97 932 1624.5 932H1431.5C1408.03 932 1389 912.972 1389 889.5C1389 866.028 1408.03 847 1431.5 847H1624.5ZM2391.5 847C2414.97 847 2434 866.028 2434 889.5C2434 912.737 2415.35 931.619 2392.2 931.994L2391.5 932H2198.5C2175.03 932 2156 912.972 2156 889.5C2156 866.028 2175.03 847 2198.5 847H2391.5Z" fill="white"/>
</mask>
<g mask="url(#mask0)">
<path d="M2332.5 1555C2355.97 1555 2375 1574.03 2375 1597.5C2375 1620.97 2355.97 1640 2332.5 1640H1960.5C1937.03 1640 1918 1620.97 1918 1597.5C1918 1574.03 1937.03 1555 1960.5 1555H2332.5ZM1860.5 1555C1883.97 1555 1903 1574.03 1903 1597.5C1903 1620.97 1883.97 1640 1860.5 1640H1488.5C1465.03 1640 1446 1620.97 1446 1597.5C1446 1574.03 1465.03 1555 1488.5 1555H1860.5ZM2097.5 1454C2120.97 1454 2140 1473.03 2140 1496.5C2140 1519.97 2120.97 1539 2097.5 1539H1725.5C1702.03 1539 1683 1519.97 1683 1496.5C1683 1473.03 1702.03 1454 1725.5 1454H2097.5ZM1624.5 1454C1647.97 1454 1667 1473.03 1667 1496.5C1667 1519.97 1647.97 1539 1624.5 1539H1431.5C1408.03 1539 1389 1519.97 1389 1496.5C1389 1473.03 1408.03 1454 1431.5 1454H1624.5ZM2391.5 1454C2414.97 1454 2434 1473.03 2434 1496.5C2434 1519.74 2415.35 1538.62 2392.2 1538.99L2391.5 1539H2198.5C2175.03 1539 2156 1519.97 2156 1496.5C2156 1473.03 2175.03 1454 2198.5 1454H2391.5ZM2332.5 1352C2355.97 1352 2375 1371.03 2375 1394.5C2375 1417.97 2355.97 1437 2332.5 1437H1960.5C1937.03 1437 1918 1417.97 1918 1394.5C1918 1371.03 1937.03 1352 1960.5 1352H2332.5ZM1860.5 1352C1883.97 1352 1903 1371.03 1903 1394.5C1903 1417.97 1883.97 1437 1860.5 1437H1488.5C1465.03 1437 1446 1417.97 1446 1394.5C1446 1371.03 1465.03 1352 1488.5 1352H1860.5ZM2097.5 1252C2120.97 1252 2140 1271.03 2140 1294.5C2140 1317.97 2120.97 1337 2097.5 1337H1725.5C1702.03 1337 1683 1317.97 1683 1294.5C1683 1271.03 1702.03 1252 1725.5 1252H2097.5ZM1624.5 1252C1647.97 1252 1667 1271.03 1667 1294.5C1667 1317.97 1647.97 1337 1624.5 1337H1431.5C1408.03 1337 1389 1317.97 1389 1294.5C1389 1271.03 1408.03 1252 1431.5 1252H1624.5ZM2391.5 1252C2414.97 1252 2434 1271.03 2434 1294.5C2434 1317.74 2415.35 1336.62 2392.2 1336.99L2391.5 1337H2198.5C2175.03 1337 2156 1317.97 2156 1294.5C2156 1271.03 2175.03 1252 2198.5 1252H2391.5ZM2332.5 1151C2355.97 1151 2375 1170.03 2375 1193.5C2375 1216.97 2355.97 1236 2332.5 1236H1960.5C1937.03 1236 1918 1216.97 1918 1193.5C1918 1170.03 1937.03 1151 1960.5 1151H2332.5ZM1860.5 1151C1883.97 1151 1903 1170.03 1903 1193.5C1903 1216.97 1883.97 1236 1860.5 1236H1488.5C1465.03 1236 1446 1216.97 1446 1193.5C1446 1170.03 1465.03 1151 1488.5 1151H1860.5ZM2097.5 1049C2120.97 1049 2140 1068.03 2140 1091.5C2140 1114.97 2120.97 1134 2097.5 1134H1725.5C1702.03 1134 1683 1114.97 1683 1091.5C1683 1068.03 1702.03 1049 1725.5 1049H2097.5ZM1624.5 1049C1647.97 1049 1667 1068.03 1667 1091.5C1667 1114.97 1647.97 1134 1624.5 1134H1431.5C1408.03 1134 1389 1114.97 1389 1091.5C1389 1068.03 1408.03 1049 1431.5 1049H1624.5ZM2391.5 1049C2414.97 1049 2434 1068.03 2434 1091.5C2434 1114.74 2415.35 1133.62 2392.2 1133.99L2391.5 1134H2198.5C2175.03 1134 2156 1114.97 2156 1091.5C2156 1068.03 2175.03 1049 2198.5 1049H2391.5ZM2332.5 949C2355.97 949 2375 968.028 2375 991.5C2375 1014.97 2355.97 1034 2332.5 1034H1960.5C1937.03 1034 1918 1014.97 1918 991.5C1918 968.028 1937.03 949 1960.5 949H2332.5ZM1860.5 949C1883.97 949 1903 968.028 1903 991.5C1903 1014.97 1883.97 1034 1860.5 1034H1488.5C1465.03 1034 1446 1014.97 1446 991.5C1446 968.028 1465.03 949 1488.5 949H1860.5ZM2097.5 847C2120.97 847 2140 866.028 2140 889.5C2140 912.972 2120.97 932 2097.5 932H1725.5C1702.03 932 1683 912.972 1683 889.5C1683 866.028 1702.03 847 1725.5 847H2097.5ZM1624.5 847C1647.97 847 1667 866.028 1667 889.5C1667 912.972 1647.97 932 1624.5 932H1431.5C1408.03 932 1389 912.972 1389 889.5C1389 866.028 1408.03 847 1431.5 847H1624.5ZM2391.5 847C2414.97 847 2434 866.028 2434 889.5C2434 912.737 2415.35 931.619 2392.2 931.994L2391.5 932H2198.5C2175.03 932 2156 912.972 2156 889.5C2156 866.028 2175.03 847 2198.5 847H2391.5Z" fill="#EBF2F9"/>
</g>
<path fill-rule="evenodd" clip-rule="evenodd" d="M1160.2 1152C1230.41 1152 1287.33 1208.91 1287.33 1279.1C1287.33 1281.91 1287.24 1284.69 1287.06 1287.45L1287.33 1287.45L1287.33 1453.52L1287.74 1453.52C1289.93 1465.65 1300.54 1474.86 1313.31 1474.86C1326.07 1474.86 1336.69 1465.65 1338.88 1453.52L1342.67 1453.52C1340.48 1447.44 1339.29 1440.88 1339.29 1434.04C1339.29 1402.27 1365.05 1376.52 1396.82 1376.52C1428.59 1376.52 1454.35 1402.27 1454.35 1434.04C1454.35 1435.28 1454.31 1436.52 1454.23 1437.75L1454.35 1437.75V1540C1454.35 1564.39 1445.62 1586.74 1431.11 1604.1L1441.5 1640L1287.33 1640L1287.33 1640H1033.08L1033.08 1640H981.114L981.114 1640H866.053L866.052 1640L738 1640L738.118 1489.5L788.107 1385.17L788.108 1476.71L788.151 1476.71C788.122 1477.33 788.108 1477.95 788.108 1478.57C788.108 1500.09 805.556 1517.54 827.08 1517.54C848.604 1517.54 866.053 1500.09 866.053 1478.57C866.053 1478.16 866.046 1477.74 866.033 1477.33L866.009 1476.71L866.053 1476.71L866.052 1356.71V1356.71L866.053 1339.41L866.17 1339.41C866.092 1338.18 866.053 1336.94 866.053 1335.7C866.053 1303.93 891.81 1278.17 923.584 1278.17C955.357 1278.17 981.114 1303.93 981.114 1335.7C981.114 1336.94 981.075 1338.18 980.997 1339.41L981.114 1339.41V1385.79L981.18 1385.79C981.136 1386.41 981.114 1387.03 981.114 1387.65C981.114 1402 992.747 1413.63 1007.1 1413.63C1021.45 1413.63 1033.08 1402 1033.08 1387.65C1033.08 1387.23 1033.07 1386.82 1033.05 1386.41L1033.01 1385.79L1033.08 1385.79V1287.45L1033.35 1287.45C1033.17 1284.69 1033.08 1281.91 1033.08 1279.1C1033.08 1208.91 1089.99 1152 1160.2 1152Z" fill="#DFE9F3"/>
<path fill-rule="evenodd" clip-rule="evenodd" d="M1631.15 1152C1560.94 1152 1504.03 1208.91 1504.03 1279.1C1504.03 1281.91 1504.12 1284.69 1504.3 1287.45L1504.03 1287.45L1504.03 1453.52L1503.61 1453.52C1501.42 1465.65 1490.81 1474.86 1478.04 1474.86C1465.28 1474.86 1454.66 1465.65 1452.47 1453.52L1448.68 1453.52C1450.87 1447.44 1452.06 1440.88 1452.06 1434.04C1452.06 1402.27 1426.3 1376.52 1394.53 1376.52C1362.76 1376.52 1337 1402.27 1337 1434.04C1337 1435.28 1337.04 1436.52 1337.12 1437.75L1337 1437.75V1540C1337 1583.59 1364.9 1620.67 1403.81 1634.36L1403.81 1640L1436.88 1640C1436.92 1640 1436.96 1640 1437 1640H1452.06L1452.06 1640H1504.03L1504.03 1640L1925.44 1640C1925.39 1639.51 1925.34 1639.02 1925.3 1638.52L1925.3 1339.41L1925.18 1339.41C1925.26 1338.18 1925.3 1336.94 1925.3 1335.7C1925.3 1303.93 1899.54 1278.17 1867.77 1278.17C1836 1278.17 1810.24 1303.93 1810.24 1335.7C1810.24 1336.94 1810.28 1338.18 1810.36 1339.41L1810.24 1339.41V1385.79L1810.17 1385.79C1810.22 1386.41 1810.24 1387.03 1810.24 1387.65C1810.24 1402 1798.61 1413.63 1784.26 1413.63C1769.91 1413.63 1758.27 1402 1758.27 1387.65C1758.27 1387.23 1758.28 1386.82 1758.3 1386.41L1758.34 1385.79L1758.27 1385.79L1758.28 1358.48V1358.48L1758.27 1287.45L1758 1287.45C1758.18 1284.69 1758.27 1281.91 1758.27 1279.1C1758.27 1208.91 1701.36 1152 1631.15 1152Z" fill="#DFE9F3"/>
<path fill-rule="evenodd" clip-rule="evenodd" d="M617 690H818L779 1640H659L617 690Z" fill="#E4EDF6"/>
<path fill-rule="evenodd" clip-rule="evenodd" d="M799.977 731H643.091L460.074 1034.13C456.934 1039.33 458.604 1046.09 463.805 1049.23C465.521 1050.27 467.487 1050.82 469.491 1050.82C483.726 1050.82 497.962 1050.82 512.197 1050.82C517.692 1050.82 527.963 1044.06 543.011 1030.54C547.002 1026.95 553.113 1027.16 556.857 1031C569.724 1044.21 580.521 1050.82 589.248 1050.82C598.094 1050.82 610.239 1044.03 625.684 1030.45C629.675 1026.94 635.713 1027.16 639.431 1030.96C652.396 1044.2 663.828 1050.82 673.725 1050.82C683.74 1050.82 696.024 1044.04 710.578 1030.49H710.578C714.402 1026.93 720.322 1026.91 724.166 1030.45C738.916 1044.03 751.499 1050.82 761.916 1050.82C772.28 1050.82 784.325 1044.1 798.051 1030.66C801.799 1026.99 807.744 1026.84 811.672 1030.31C827.128 1043.98 838.702 1050.82 846.393 1050.82C855.975 1050.82 868.897 1043.83 885.159 1029.85C889.006 1026.55 894.718 1026.65 898.449 1030.08C911.983 1042.54 922.172 1049.45 929.014 1050.82C934.984 1052.01 946.324 1052.3 963.034 1051.69C969.105 1051.47 973.847 1046.37 973.626 1040.3C973.562 1038.54 973.075 1036.82 972.207 1035.28L799.977 731Z" fill="#DFE9F3"/>
<path fill-rule="evenodd" clip-rule="evenodd" d="M708.418 537.634L547.557 816.111C544.518 821.372 546.32 828.1 551.58 831.138C551.738 831.229 551.897 831.316 552.059 831.399C563.23 837.133 572.765 840 580.665 840C589.562 840 601.052 833.246 615.136 819.739H615.136C618.732 816.29 624.319 816.015 628.237 819.094C645.972 833.031 659.961 840 670.204 840C680.439 840 693.88 833.042 710.527 819.126C714.265 816.001 719.712 816.025 723.422 819.183C739.728 833.061 753.192 840 763.813 840C774.356 840 787.7 833.163 803.843 819.49V819.49C807.713 816.212 813.424 816.35 817.131 819.811C831.547 833.27 842.603 840 850.3 840C857.302 840 867.297 837.001 880.286 831.004C885.802 828.458 888.209 821.922 885.662 816.407C885.534 816.128 885.393 815.854 885.242 815.587L727.509 537.706C724.51 532.423 717.796 530.571 712.513 533.57C710.81 534.536 709.397 535.939 708.418 537.634Z" fill="#EBF2F9"/>
<path fill-rule="evenodd" clip-rule="evenodd" d="M1440.5 737.278L1466.5 725.236L1483.14 709.598C1492.8 700.522 1507.99 700.994 1517.07 710.654C1518.03 711.676 1518.9 712.78 1519.66 713.953L1549.5 759.58H1641.5L1611.95 809.736C1598.35 832.826 1573.55 847 1546.75 847C1520.78 847 1497.57 830.773 1488.65 806.378L1466.5 745.753L1440.5 737.278Z" fill="#DFE9F3"/>
<path fill-rule="evenodd" clip-rule="evenodd" d="M1190.05 547.25C1231.11 547.25 1268.29 563.899 1295.2 590.818C1322.11 617.736 1338.75 654.924 1338.75 696C1338.75 730.06 1327.31 761.447 1308.06 786.521C1288.37 812.166 1260.51 831.21 1228.38 839.758C1227.97 839.868 1227.56 839.976 1227.14 840.082C1227.26 840.493 1227.38 840.904 1227.5 841.315C1233.5 861.975 1236.87 883.751 1237.24 906.259L1237.27 910.356V1744.75H743.25V910.356L743.283 906.259C744.376 838.915 772.403 778.12 817.057 734.184C861.637 690.322 922.79 663.262 990.261 663.262C1008.19 663.262 1025.68 665.173 1042.52 668.808C1042.94 668.898 1043.35 668.99 1043.77 669.082C1043.85 668.663 1043.93 668.242 1044.01 667.821C1050.65 633.184 1069.3 602.816 1095.45 581.222C1121.16 559.999 1154.11 547.25 1190.05 547.25Z" fill="#FFE13D" stroke="black" stroke-width="2.5"/>
<path fill-rule="evenodd" clip-rule="evenodd" d="M1281 686C1277.69 686 1275 688.686 1275 692V703C1275 706.314 1277.69 709 1281 709C1284.31 709 1287 706.314 1287 703V692C1287 688.686 1284.31 686 1281 686ZM1159 686C1155.69 686 1153 688.686 1153 692V703C1153 706.314 1155.69 709 1159 709C1162.31 709 1165 706.314 1165 703V692C1165 688.686 1162.31 686 1159 686Z" fill="#FFFFD9" stroke="black" stroke-width="2.5" stroke-linecap="round" stroke-linejoin="round"/>
<path d="M1298 675C1294.51 665.996 1284.39 661.524 1275.38 665.011C1271.94 666.345 1269.01 668.735 1267 671.838L1265 674.946" stroke="black" stroke-width="2.5" stroke-linecap="round" stroke-linejoin="round"/>
<path d="M1175 675C1171.51 665.996 1161.39 661.524 1152.38 665.011C1148.94 666.345 1146.01 668.735 1144 671.838L1142 674.946" stroke="black" stroke-width="2.5" stroke-linecap="round" stroke-linejoin="round"/>
<path d="M1232 709.5H1205" stroke="black" stroke-width="2.5" stroke-linecap="round" stroke-linejoin="round"/>
<path fill-rule="evenodd" clip-rule="evenodd" d="M1167.12 1590C1164.25 1593.69 1159.03 1594.54 1155.13 1591.97L1028 1508L1086 1389L1185.77 1371L1121.77 1521.5L1166.99 1577.06C1170.04 1580.82 1170.1 1586.19 1167.12 1590Z" fill="black"/>
<path fill-rule="evenodd" clip-rule="evenodd" d="M1045.74 1049.73C1047.08 1050.55 1048.39 1051.41 1049.66 1052.33L1233.83 1184.7C1242.99 1191.28 1249.14 1200.66 1251.8 1210.94C1254.47 1221.22 1253.64 1232.4 1248.83 1242.6L1154.93 1441.77L1081.11 1401.95L1151.6 1240.47L1028.05 1170.08L987.432 1153.13C972.825 1147.03 962.073 1135.59 956.497 1122.02C950.921 1108.45 950.52 1092.76 956.618 1078.15C957.736 1075.47 959.057 1072.88 960.568 1070.4C969.474 1055.79 983.461 1046.17 998.875 1042.43C1014.29 1038.68 1031.13 1040.82 1045.74 1049.73Z" fill="#5E69FF" stroke="black" stroke-width="2.5"/>
<path d="M1263 1064.5C1202.04 1066.63 1333.5 1103.73 1311.55 1110.44C1277.25 1120.94 1235.8 1099.13 1209.76 1129.6" stroke="black" stroke-width="15" stroke-linecap="round" stroke-linejoin="round"/>
<path fill-rule="evenodd" clip-rule="evenodd" d="M1082.67 912.502L1082.92 912.603C1092.29 916.496 1098.75 925.235 1099.73 935.336L1107.26 1012.89L1208.86 1027.03C1221.03 1028.73 1232.79 1032.65 1243.53 1038.6L1303.76 1071.97C1308.48 1074.58 1310.19 1080.53 1307.57 1085.25C1307.13 1086.04 1306.58 1086.77 1305.94 1087.42C1300.55 1092.81 1292.18 1093.84 1285.65 1089.92L1260.27 1074.72C1265.5 1085.38 1261.1 1098.26 1250.44 1103.5C1246.47 1105.45 1241.99 1106.12 1237.62 1105.43L1089.75 1082.11C1077.92 1080.24 1068.58 1071.05 1066.53 1059.25L1046.52 944.142C1044.79 934.186 1048.25 924.035 1055.72 917.22C1063.02 910.546 1073.53 908.706 1082.67 912.502Z" fill="white" stroke="black" stroke-width="2.5" stroke-linecap="round" stroke-linejoin="round"/>
<path fill-rule="evenodd" clip-rule="evenodd" d="M1483.5 1355.56C1592.57 1355.56 1681 1443.75 1681 1552.56C1681 1661.36 1592.57 1749.56 1483.5 1749.56C1374.43 1749.56 1286 1661.36 1286 1552.56C1286 1443.75 1374.43 1355.56 1483.5 1355.56ZM1483.5 1367.56C1381.05 1367.56 1298 1450.39 1298 1552.56C1298 1654.73 1381.05 1737.56 1483.5 1737.56C1585.95 1737.56 1669 1654.73 1669 1552.56C1669 1450.39 1585.95 1367.56 1483.5 1367.56Z" fill="white" stroke="black" stroke-width="2.5" stroke-linecap="round" stroke-linejoin="round"/>
<path fill-rule="evenodd" clip-rule="evenodd" d="M777.5 1355.56C886.573 1355.56 975 1443.75 975 1552.56C975 1661.36 886.573 1749.56 777.5 1749.56C668.427 1749.56 580 1661.36 580 1552.56C580 1443.75 668.427 1355.56 777.5 1355.56ZM777.5 1367.56C675.048 1367.56 592 1450.39 592 1552.56C592 1654.73 675.048 1737.56 777.5 1737.56C879.952 1737.56 963 1654.73 963 1552.56C963 1450.39 879.952 1367.56 777.5 1367.56Z" fill="white" stroke="black" stroke-width="2.5" stroke-linecap="round" stroke-linejoin="round"/>
<path fill-rule="evenodd" clip-rule="evenodd" d="M1068 1523C1096.72 1523 1120 1546.28 1120 1575C1120 1603.72 1096.72 1627 1068 1627C1039.28 1627 1016 1603.72 1016 1575C1016 1546.28 1039.28 1523 1068 1523ZM1068 1535C1045.91 1535 1028 1552.91 1028 1575C1028 1597.09 1045.91 1615 1068 1615C1090.09 1615 1108 1597.09 1108 1575C1108 1552.91 1090.09 1535 1068 1535Z" fill="#D8D8D8" stroke="black" stroke-width="2.5" stroke-linecap="round" stroke-linejoin="round"/>
<path fill-rule="evenodd" clip-rule="evenodd" d="M777.5 1532.56C788.546 1532.56 797.5 1541.51 797.5 1552.56C797.5 1563.6 788.546 1572.56 777.5 1572.56C766.454 1572.56 757.5 1563.6 757.5 1552.56C757.5 1541.51 766.454 1532.56 777.5 1532.56ZM777.5 1544.56C773.082 1544.56 769.5 1548.14 769.5 1552.56C769.5 1556.97 773.082 1560.56 777.5 1560.56C781.918 1560.56 785.5 1556.97 785.5 1552.56C785.5 1548.14 781.918 1544.56 777.5 1544.56Z" fill="black"/>
<path fill-rule="evenodd" clip-rule="evenodd" d="M1488 1532.56C1499.05 1532.56 1508 1541.51 1508 1552.56C1508 1563.6 1499.05 1572.56 1488 1572.56C1476.95 1572.56 1468 1563.6 1468 1552.56C1468 1541.51 1476.95 1532.56 1488 1532.56ZM1488 1544.56C1483.58 1544.56 1480 1548.14 1480 1552.56C1480 1556.97 1483.58 1560.56 1488 1560.56C1492.42 1560.56 1496 1556.97 1496 1552.56C1496 1548.14 1492.42 1544.56 1488 1544.56Z" fill="black"/>
<path fill-rule="evenodd" clip-rule="evenodd" d="M935.468 1161.45C931.932 1162.79 930.119 1166.7 931.332 1170.25L1058.96 1591.05C1060.77 1595.82 1066.9 1597.08 1070.46 1593.5L1070.63 1593.32L1371.13 1269.32C1373.14 1267.16 1373.52 1264.07 1372.33 1261.56C1372.93 1260.29 1373.16 1258.83 1372.89 1257.34C1372.24 1253.62 1368.74 1251.1 1365.03 1251.62L1364.79 1251.66L988.575 1308.21C988.229 1308.27 987.894 1308.36 987.571 1308.46L944.5 1165.5C943.125 1161.89 939.081 1160.07 935.468 1161.45ZM1353.75 1267.47L1068.03 1575.53L991.622 1321.91L1353.75 1267.47Z" fill="#D8D8D8" stroke="black" stroke-width="2.5" stroke-linecap="round" stroke-linejoin="round"/>
<path fill-rule="evenodd" clip-rule="evenodd" d="M621.989 1359.56C618.821 1361.78 618.048 1366.14 620.263 1369.31C622.478 1372.48 626.843 1373.25 630.011 1371.03C701.145 1321.3 776.063 1306.23 855.189 1325.94L770.947 1550.09L770.865 1550.33C769.666 1553.88 771.495 1557.78 775.037 1559.11C778.656 1560.47 782.692 1558.64 784.052 1555.02L868.751 1329.64C904.046 1340.14 940.173 1357.47 977.17 1381.66C980.406 1383.77 984.744 1382.86 986.859 1379.63C988.974 1376.39 988.066 1372.05 984.83 1369.94C855.045 1285.1 733.619 1281.51 621.989 1359.56Z" fill="#D8D8D8" stroke="black" stroke-width="2.5" stroke-linecap="round" stroke-linejoin="round"/>
<path fill-rule="evenodd" clip-rule="evenodd" d="M1314.46 1116.32C1312.21 1117.36 1310.39 1118.09 1309 1118.5C1307.61 1118.91 1305.28 1119.41 1302 1120L1481.54 1555.24C1483.02 1558.81 1487.11 1560.5 1490.68 1559.02C1494.18 1557.57 1495.87 1553.62 1494.56 1550.1L1494.46 1549.87L1314.46 1116.32Z" fill="#D8D8D8" stroke="black" stroke-width="2.5" stroke-linecap="round" stroke-linejoin="round"/>
<path d="M893.5 1152H972.5C984.374 1152 994 1161.63 994 1173.5C994 1185.37 984.374 1195 972.5 1195H893.5C881.626 1195 872 1185.37 872 1173.5C872 1161.63 881.626 1152 893.5 1152Z" fill="black"/>
<path fill-rule="evenodd" clip-rule="evenodd" d="M1153.39 1673.98C1152.35 1678.29 1148.15 1681.04 1143.78 1680.27L994.009 1653.86C989.32 1653.04 985.864 1649.02 985.748 1644.26L981 1449L1070 1467.5L1094 1622L1148.86 1661.71C1152.72 1664.5 1154.51 1669.35 1153.39 1673.98Z" fill="black"/>
<path fill-rule="evenodd" clip-rule="evenodd" d="M983.241 1025.94L1039.31 1078.59L1061.53 1285.06C1061.68 1286.43 1061.8 1287.79 1061.89 1289.16L1077.17 1521.75L984.17 1521.75L959.743 1151.85L954.168 1118.87C950.078 1094.67 955.143 1069.82 968.376 1049.16L983.241 1025.94Z" fill="#5E69FF" stroke="black" stroke-width="2.5"/>
<path fill-rule="evenodd" clip-rule="evenodd" d="M981.111 1657.76C981.781 1654.04 985.283 1651.53 989.001 1652.07L989.239 1652.11L1111.74 1674.11C1115.54 1674.79 1118.07 1678.43 1117.39 1682.24C1116.72 1685.96 1113.22 1688.47 1109.5 1687.93L1109.26 1687.89L986.764 1665.89C982.959 1665.21 980.428 1661.57 981.111 1657.76Z" fill="#D8D8D8" stroke="black" stroke-width="2.5" stroke-linecap="round" stroke-linejoin="round"/>
<path fill-rule="evenodd" clip-rule="evenodd" d="M1070.95 882.766L1087.15 888.181C1094.95 890.784 1100.95 896.299 1104.35 903.111C1107.75 909.923 1108.55 918.032 1105.95 925.824C1105.89 925.998 1105.83 926.17 1105.77 926.342L1055.73 1067.42L970.472 1038.53L1019.64 874.391L1070.95 882.766Z" fill="#FF7C25" stroke="black" stroke-width="2.5"/>
<path fill-rule="evenodd" clip-rule="evenodd" d="M1031.88 884.521C1032.17 885.283 1032.42 886.061 1032.62 886.85L1068.5 1025.5L1211.17 1065.82C1216.49 1067.33 1221.04 1070.32 1224.44 1074.24C1226.76 1075.8 1228.67 1078.04 1229.84 1080.81L1249.02 1126.5C1252.13 1133.88 1248.65 1142.39 1241.26 1145.49C1241.22 1145.51 1241.17 1145.53 1241.12 1145.55C1233.59 1148.62 1225 1145.05 1221.85 1137.56L1207.16 1102.59L1206.39 1102.78L1220.57 1136.53C1223.67 1143.92 1220.19 1152.42 1212.81 1155.53L1212.66 1155.59C1205.13 1158.65 1196.54 1155.08 1193.39 1147.59L1177.66 1110.13L1176.89 1110.32L1192.11 1146.56C1195.21 1153.95 1191.74 1162.46 1184.35 1165.56C1184.3 1165.58 1184.25 1165.6 1184.2 1165.62C1176.67 1168.68 1168.08 1165.12 1164.93 1157.62L1148.13 1117.62C1127.23 1122.27 1105.35 1120.09 1085.74 1111.36L1047.16 1094.17C1017.06 1080.77 996.428 1052.29 993.067 1019.51L981.368 905.425C979.842 890.548 988.529 876.509 1002.52 871.234C1014.3 866.795 1027.45 872.744 1031.88 884.521Z" fill="white" stroke="black" stroke-width="2.5" stroke-linecap="round" stroke-linejoin="round"/>
<path fill-rule="evenodd" clip-rule="evenodd" d="M1050.11 788.715C1048.75 785.867 1045.34 784.659 1042.49 786.018C1039.34 787.518 1037.98 791.26 1039.41 794.435C1041.63 799.328 1043.61 803.684 1045.36 807.502L1034.05 792.603C1033.95 792.462 1033.83 792.327 1033.71 792.196C1031.58 789.87 1027.97 789.712 1025.64 791.844C1023.07 794.199 1022.86 798.177 1025.16 800.793C1028.27 804.328 1031.09 807.521 1033.62 810.371L1023.94 802.864C1023.8 802.756 1023.66 802.654 1023.51 802.559C1020.85 800.864 1017.32 801.647 1015.62 804.309C1013.75 807.248 1014.57 811.146 1017.47 813.077C1023.09 816.819 1027.95 820.035 1032.05 822.726L1017 816.702C1016.83 816.636 1016.66 816.578 1016.49 816.528C1013.47 815.632 1010.29 817.358 1009.39 820.384C1008.4 823.726 1010.27 827.245 1013.59 828.302C1036.25 835.514 1048.04 839.064 1048.95 838.951C1049.94 838.829 1051.48 836.29 1053.56 831.333L1051.9 830.672C1052.74 829.795 1053.7 828.678 1054.8 827.321C1054.97 827.604 1055.09 827.777 1055.16 827.839C1055.92 828.495 1058.83 827.937 1063.9 826.164L1050.31 789.203C1050.25 789.037 1050.18 788.874 1050.11 788.715Z" fill="black"/>
<path fill-rule="evenodd" clip-rule="evenodd" d="M1080.32 888.386L1084.56 860.692L1057.43 849.585L1046.56 884.428C1051.15 887.266 1057.12 889.318 1064.49 890.585C1071.85 891.851 1077.13 891.118 1080.32 888.386Z" fill="white" stroke="black" stroke-width="2.5" stroke-linecap="round" stroke-linejoin="round"/>
<path fill-rule="evenodd" clip-rule="evenodd" d="M1080.77 885.801L1060.72 859.085L1084.6 862.921L1080.77 885.801Z" fill="black"/>
<path d="M1082.69 813.471C1081.67 813.169 1080.63 812.929 1079.59 812.752C1065.53 810.379 1052.19 819.506 1049.2 833.289C1048.78 833.138 1048.35 833.014 1047.9 832.919C1042.5 831.771 1037.14 835.438 1035.94 841.11C1034.73 846.783 1038.13 852.312 1043.54 853.46C1045.52 853.882 1047.51 853.653 1049.28 852.911C1051.44 862.106 1056.96 869.771 1066.64 873.486C1079.88 878.571 1091.03 873.319 1097.77 862.262C1098.04 862.346 1098.32 862.418 1098.6 862.479C1104.01 863.627 1109.36 859.96 1110.57 854.287C1111.6 849.429 1109.25 844.676 1105.16 842.69C1106.99 833.881 1105.28 826.732 1095.84 818.824C1094.04 817.313 1089.65 815.529 1082.69 813.471Z" fill="white" stroke="black" stroke-width="2.5" stroke-linecap="round" stroke-linejoin="round"/>
<mask id="mask1" mask-type="alpha" maskUnits="userSpaceOnUse" x="1034" y="811" width="79" height="66">
<path d="M1082.69 813.47C1081.67 813.169 1080.63 812.929 1079.59 812.752C1065.53 810.378 1052.19 819.505 1049.2 833.289C1048.78 833.138 1048.35 833.013 1047.9 832.918C1042.5 831.77 1037.14 835.437 1035.94 841.11C1034.73 846.782 1038.13 852.311 1043.54 853.459C1045.52 853.882 1047.51 853.652 1049.28 852.911C1051.44 862.105 1056.96 869.771 1066.64 873.486C1079.88 878.57 1091.03 873.319 1097.77 862.261C1098.04 862.345 1098.32 862.418 1098.6 862.478C1104.01 863.626 1109.36 859.959 1110.57 854.287C1111.6 849.429 1109.25 844.675 1105.16 842.69C1106.99 833.881 1105.28 826.731 1095.84 818.823C1094.04 817.312 1089.65 815.528 1082.69 813.47Z" fill="white" stroke="black" stroke-width="2.5" stroke-linecap="round" stroke-linejoin="round"/>
</mask>
<g mask="url(#mask1)">
<path fill-rule="evenodd" clip-rule="evenodd" d="M1045.43 822.444L1049.12 833.659L1088.32 824.72L1105.68 841.604C1111.66 827.348 1110.15 818.114 1101.16 813.904C1087.67 807.589 1068.75 797.422 1061.66 806.211C1056.93 812.07 1051.52 817.481 1045.43 822.444Z" fill="black"/>
</g>
<path d="M1073.82 848.133C1074.22 846.525 1073.25 844.897 1071.64 844.496C1070.03 844.095 1068.4 845.074 1068 846.681L1067.76 847.652C1067.36 849.259 1068.34 850.888 1069.94 851.288C1071.55 851.689 1073.18 850.711 1073.58 849.103L1073.82 848.133Z" stroke="black" stroke-width="2" stroke-linecap="round" stroke-linejoin="round"/>
<path d="M1094.44 852.243C1094.84 850.635 1093.86 849.007 1092.26 848.606C1090.65 848.206 1089.02 849.184 1088.62 850.792L1088.38 851.762C1087.98 853.369 1088.96 854.998 1090.56 855.398C1092.17 855.799 1093.8 854.821 1094.2 853.213L1094.44 852.243Z" stroke="black" stroke-width="2" stroke-linecap="round" stroke-linejoin="round"/>
<path d="M1078.2 859.529C1079.49 861.226 1081.11 861.629 1083.05 860.739" stroke="black" stroke-width="2" stroke-linecap="round" stroke-linejoin="round"/>
<path d="M1083.77 845.459L1084.02 856.858L1081.1 856.132" stroke="black" stroke-width="2" stroke-linecap="round" stroke-linejoin="round"/>
<path fill-rule="evenodd" clip-rule="evenodd" d="M1071.93 818.367L1052.04 831.025C1052.04 831.025 1052.04 831.026 1052.04 831.026C1049.12 832.886 1048.26 836.76 1050.12 839.679C1052.01 842.639 1055.89 843.597 1058.94 841.854L1088.3 825.061L1098.98 842.503C1100.79 845.456 1104.64 846.382 1107.6 844.574L1107.7 844.507C1110.56 842.676 1111.39 838.876 1109.56 836.02L1104.23 827.707L1086.67 822.395L1087.9 824.412L1071.93 818.367Z" fill="black"/>
<path fill-rule="evenodd" clip-rule="evenodd" d="M1780.62 1117.38C1780.58 1117.95 1780.56 1118.53 1780.53 1119.1L1771.85 1354.14C1771.78 1355.86 1771.76 1357.58 1771.79 1359.29L1774.73 1552.45H1844.19L1833.25 1332.17L1854.66 1140.87L1841.76 1380.04L1891.88 1538.83L1960.32 1529.67L1904.23 1367.87L1921.99 1127.81C1923.44 1108.17 1916.8 1089.81 1904.88 1075.99C1892.97 1062.17 1875.78 1052.9 1856.14 1051.44C1855.85 1051.42 1855.55 1051.4 1855.25 1051.38C1835.83 1050.19 1817.77 1056.98 1804.27 1068.93C1790.76 1080.87 1781.81 1097.97 1780.62 1117.38Z" fill="#FFE13D" stroke="black" stroke-width="2.5"/>
<path fill-rule="evenodd" clip-rule="evenodd" d="M1770.5 1372.5L1702.11 1464.85C1762.93 1480.07 1811.59 1488.33 1848.09 1489.62C1884.58 1490.91 1933.39 1487.53 1994.5 1479.5L1927.5 1383C1962.55 1303.74 1980.4 1240.24 1981.05 1192.52C1981.39 1168.07 1977.74 1143.66 1970.1 1119.29C1957.13 1077.89 1918.94 1049.58 1875.56 1049.19L1842.42 1048.9C1797.01 1048.5 1757.03 1078.75 1745.06 1122.56C1738.7 1145.88 1736.07 1168.15 1737.18 1189.37C1739.42 1232.11 1750.53 1293.15 1770.5 1372.5Z" fill="#A057FF" stroke="black" stroke-width="2.5" stroke-linecap="round" stroke-linejoin="round"/>
<path fill-rule="evenodd" clip-rule="evenodd" d="M1721 1682.95V1737.2C1721 1742.73 1725.48 1747.2 1731 1747.2H1809.72C1814.53 1747.2 1818.65 1743.79 1819.55 1739.07L1830.69 1680.56C1831.22 1677.74 1833.69 1675.7 1836.56 1675.7C1839.44 1675.7 1841.92 1677.72 1842.52 1680.54L1855.01 1740.11C1855.88 1744.24 1859.53 1747.2 1863.75 1747.2C1867.31 1747.2 1870.2 1744.32 1870.2 1740.76C1870.2 1740.51 1870.18 1740.25 1870.15 1740L1843.5 1513.7H1772.5L1766.5 1675.7L1761.08 1668.92C1753.33 1659.21 1739.17 1657.62 1729.46 1665.37C1724.11 1669.64 1721 1676.11 1721 1682.95Z" fill="black"/>
<path fill-rule="evenodd" clip-rule="evenodd" d="M1886.93 1692.52L1899.24 1739.57C1900.53 1744.51 1905.33 1747.68 1910.37 1746.93L1957.16 1740.03C1963.95 1739.02 1970.4 1736.4 1975.97 1732.37L1980 1729.45C1982.76 1727.46 1984.32 1724.19 1984.13 1720.79L1980.62 1658.52C1980.46 1655.65 1982.36 1653.08 1985.14 1652.38C1987.94 1651.69 1990.84 1653.04 1992.09 1655.64L2018.59 1710.32C2020.35 1713.97 2024.74 1715.49 2028.38 1713.72C2028.39 1713.72 2028.39 1713.72 2028.39 1713.72C2032.12 1711.9 2033.81 1707.52 2032.27 1703.68L1950.9 1500.3L1885.57 1519.41L1917.17 1669.33C1907.25 1663.68 1894.63 1667.13 1888.97 1677.05C1886.3 1681.74 1885.56 1687.29 1886.93 1692.52Z" fill="black"/>
<path d="M1655.5 1287.2L1611 1195.2L1563 1287.2" stroke="black" stroke-width="2.5" stroke-linecap="round" stroke-linejoin="round"/>
<path fill-rule="evenodd" clip-rule="evenodd" d="M1650.47 1159.15C1649.92 1157.84 1648.88 1156.87 1647.66 1156.38C1646.44 1155.88 1645.03 1155.85 1643.71 1156.4L1612.46 1169.6C1611.25 1170.11 1610.14 1170.81 1609.16 1171.69L1572.15 1205.02C1569.73 1207.2 1568.43 1210.15 1568.29 1213.18C1568.16 1216.2 1569.19 1219.29 1571.42 1221.77C1573.59 1224.09 1576.5 1225.32 1579.44 1225.42C1582.39 1225.52 1585.37 1224.5 1587.7 1222.33L1649.24 1164.93C1650.03 1164.19 1650.55 1163.24 1650.76 1162.23C1650.98 1161.22 1650.89 1160.14 1650.47 1159.15Z" fill="#ADF7FF" stroke="black" stroke-width="2.5"/>
<path fill-rule="evenodd" clip-rule="evenodd" d="M1588.99 1191.7L1537.6 1245.7C1537.12 1246.2 1537.14 1246.98 1537.64 1247.46C1537.64 1247.46 1537.64 1247.46 1537.65 1247.46C1538.17 1247.96 1538.98 1248 1539.56 1247.56L1584.49 1213.58C1591.27 1208.46 1593.2 1199.09 1588.99 1191.7Z" fill="black"/>
<path fill-rule="evenodd" clip-rule="evenodd" d="M1798.82 953.705C1806.97 954.885 1813.87 959.258 1818.44 965.373C1823.01 971.488 1825.24 979.345 1824.06 987.496L1805.53 1115.54C1801.71 1141.9 1785.77 1164.96 1762.45 1177.85L1743.78 1188.17C1731.49 1194.96 1717.89 1199.06 1703.89 1200.18L1651.08 1204.4L1622.56 1218.96C1619.54 1220.36 1616.23 1220.4 1613.34 1219.34C1610.44 1218.27 1607.95 1216.1 1606.55 1213.08C1605.07 1209.88 1604.98 1206.38 1606.05 1203.28C1607.12 1200.17 1609.35 1197.47 1612.49 1195.87L1653.2 1175.08C1654.11 1173.64 1654.45 1171.87 1654.06 1170.12C1653.74 1168.67 1652.97 1167.44 1651.92 1166.54C1650.73 1165.52 1649.18 1164.93 1647.56 1164.95L1581.64 1215.95C1578.8 1218.03 1575.39 1218.76 1572.17 1218.26C1568.94 1217.76 1565.9 1216.03 1563.82 1213.19C1561.66 1210.23 1560.87 1206.68 1561.34 1203.31C1561.82 1199.94 1563.56 1196.75 1566.46 1194.51L1645.36 1133.46C1646.21 1132.84 1647.1 1132.34 1648.02 1131.84L1726.49 1101.89C1732.81 1090.35 1738.9 1068.2 1744.73 1035.42C1748.09 1016.51 1751.91 998.833 1756.19 982.395C1758.58 973.216 1764.11 965.572 1771.4 960.436C1778.7 955.299 1787.76 952.669 1797.21 953.517C1797.75 953.565 1798.28 953.628 1798.82 953.705Z" fill="#ADF7FF" stroke="black" stroke-width="2.5"/>
<path fill-rule="evenodd" clip-rule="evenodd" d="M1908.02 946.735C1909.2 946.914 1910.37 947.169 1911.53 947.497L2019.46 978.298C2035.85 982.977 2048.8 993.86 2056.48 1007.67C2064.16 1021.48 2066.57 1038.23 2061.89 1054.62C2061.79 1054.99 2061.68 1055.35 2061.57 1055.71L2014.58 1209.61L2021.48 1199.65C2023.36 1196.93 2026.17 1195.23 2029.19 1194.68C2032.2 1194.13 2035.43 1194.74 2038.52 1196.89C2041.13 1198.84 2042.69 1201.66 2043.12 1204.65C2043.55 1207.64 2042.83 1210.79 2040.88 1213.39C2040.76 1213.56 2040.63 1213.72 2040.49 1213.88L2026.09 1231.09C2021.35 1236.76 2014.77 1239.96 2007.95 1240.57C2001.13 1241.18 1994.08 1239.18 1988.41 1234.44C1987.59 1233.75 1986.8 1233.01 1986.06 1232.23L1958.71 1203.06C1946.48 1190.01 1939.2 1173.75 1937.18 1156.86C1935.15 1139.96 1938.39 1122.44 1947.2 1106.87L1984.37 1041.19L1901.74 1012.8C1892.89 1009.76 1885.75 1003.77 1881.18 996.223C1876.61 988.679 1874.61 979.581 1876.01 970.323C1877.17 962.646 1881.34 956.168 1887.13 951.899C1892.92 947.63 1900.34 945.572 1908.02 946.735Z" fill="#ADF7FF" stroke="black" stroke-width="2.5"/>
<path d="M1983.5 1041.7L1990.77 1028.64" stroke="black" stroke-width="2.5" stroke-linecap="round" stroke-linejoin="round"/>
<path d="M2017.5 1203.5L2011.5 1216.5" stroke="black" stroke-width="2.5" stroke-linecap="round" stroke-linejoin="round"/>
<path fill-rule="evenodd" clip-rule="evenodd" d="M1765 1055.2C1747.75 1055.2 1729.16 1046.33 1716.96 1035.99C1701.81 1023.15 1695 1006.62 1695 985.204C1695 963.422 1704.1 941.082 1719.71 928.243C1731.79 918.296 1748.12 915.204 1765 915.204C1803.66 915.204 1835 946.544 1835 985.204C1835 1023.86 1803.66 1055.2 1765 1055.2Z" fill="#A057FF" stroke="black" stroke-width="2.5" stroke-linecap="round" stroke-linejoin="round"/>
<path d="M1963 905C1945.88 905 1927.83 909.313 1915.21 918.971C1906.84 925.371 1900.35 933.803 1895.82 943.449L1866.13 943.716L1837.53 942.939C1820.42 942.474 1806.17 955.97 1805.7 973.085C1805.66 974.573 1805.73 976.062 1805.9 977.54L1809.37 1007.06C1812.32 1032.22 1834.07 1050.9 1859.38 1050.02C1878 1049.37 1893.76 1037.86 1900.66 1021.71C1914.11 1041.78 1937.01 1055 1963 1055C1982.66 1055 1997.42 1044.59 2010.79 1032.21C2025.59 1018.51 2038 1001.76 2038 980C2038 961.083 2028.97 943.194 2017.41 930C2003.66 914.304 1985.5 905 1963 905Z" fill="#A057FF"/>
<path fill-rule="evenodd" clip-rule="evenodd" d="M1963 903.75C1985.89 903.75 2004.37 913.209 2018.35 929.176C2030.1 942.588 2039.25 960.778 2039.25 980C2039.25 1002.12 2026.7 1019.18 2011.64 1033.12C1998.03 1045.72 1982.99 1056.25 1963 1056.25C1937.38 1056.25 1914.71 1043.61 1900.89 1024.23C1897.24 1031.77 1891.67 1038.22 1884.81 1042.93C1877.55 1047.9 1868.85 1050.94 1859.43 1051.27C1846.45 1051.72 1834.38 1047.16 1825.18 1039.25C1815.97 1031.35 1809.64 1020.11 1808.12 1007.21L1804.66 977.686C1804.48 976.148 1804.41 974.599 1804.45 973.051C1804.69 964.149 1808.52 956.187 1814.51 950.512C1820.51 944.836 1828.66 941.447 1837.57 941.689L1866.14 942.466L1895.03 942.206C1899.63 932.674 1906.13 924.341 1914.45 917.978C1927.27 908.166 1945.6 903.75 1963 903.75Z" stroke="black" stroke-width="2.5"/>
<path fill-rule="evenodd" clip-rule="evenodd" d="M1892.56 942L1823.06 944.5C1821.06 943 1810.13 952.13 1811.06 955C1818.52 978.116 1823.4 992.029 1831.57 1017.33C1831.64 1017.53 1831.78 1017.68 1831.95 1017.76C1832.12 1017.85 1832.32 1017.87 1832.87 1017.56L1892.56 942Z" fill="#ADF7FF" stroke="black" stroke-width="2.5"/>
<path fill-rule="evenodd" clip-rule="evenodd" d="M1872.2 757.524C1877.29 757.505 1882.02 759.337 1885.67 762.431C1889.33 765.525 1891.92 769.881 1892.75 774.909C1900.83 824.064 1907.85 858.614 1913.8 878.562C1917.03 889.383 1915.31 899.997 1908.7 910.409C1901.99 920.958 1890.31 931.282 1873.7 941.423L1829.34 937.48C1818.36 932.103 1810.11 924.153 1804.61 913.625C1799.02 902.946 1796.25 889.636 1796.25 873.704C1796.25 867.408 1804.43 833.849 1820.71 773.025C1822.02 768.122 1825.12 764.108 1833.83 761.391C1841.56 758.982 1853.52 757.593 1872.2 757.524Z" fill="#FF75AA" stroke="black" stroke-width="2.5"/>
<path fill-rule="evenodd" clip-rule="evenodd" d="M1844 758.5C1837.67 761.5 1834.17 764.538 1833.5 770.204C1832.83 775.871 1832 782.538 1831 790.204C1862.67 787.538 1878.5 786.204 1878.5 786.204C1878.5 786.204 1878.29 774.571 1873 763.204C1871.93 760.899 1869.26 758.899 1865 757.204L1844 758.5Z" fill="black"/>
<path fill-rule="evenodd" clip-rule="evenodd" d="M1862.23 780.187C1857.83 776.729 1852.8 775.318 1847.14 775.947C1843.71 776.328 1840.68 777.97 1838.22 779.981C1834.65 782.899 1832.26 786.609 1831.7 788.548C1831.22 790.236 1826.33 813.328 1823.75 848.296C1823.11 856.913 1823.42 870.503 1824.68 889.065L1877.39 894.337C1879.85 871.343 1881.13 854.96 1881.25 845.189C1881.5 823.841 1880.41 804.878 1877.96 788.302C1877.83 787.372 1877.56 786.465 1877.18 785.606C1876.02 782.992 1873.91 781.096 1871.43 780.144C1868.96 779.192 1866.12 779.185 1863.51 780.346C1863.28 780.449 1863.05 780.559 1862.83 780.677C1862.63 780.512 1862.43 780.348 1862.23 780.187Z" fill="#FFE13D" stroke="black" stroke-width="2.5"/>
<path fill-rule="evenodd" clip-rule="evenodd" d="M1839.23 941.663L1863.22 918.412L1839.03 918.465L1839.23 941.663Z" fill="black"/>
<path d="M1853.65 931.858C1864.73 930.104 1873.15 918.359 1878.91 896.625L1877.8 894.027C1871.52 879.243 1854.99 871.697 1839.7 876.632C1833.98 878.481 1828.83 882.457 1824.28 888.561C1824.18 894.926 1824.54 900.684 1825.35 905.834C1827.95 922.217 1837.03 934.49 1853.65 931.858Z" fill="#ADF7FF"/>
<path fill-rule="evenodd" clip-rule="evenodd" d="M1840.09 877.821C1834.68 879.566 1829.84 883.305 1825.52 888.986C1825.44 895.112 1825.8 900.662 1826.59 905.639C1827.91 914.012 1830.96 921.301 1835.96 925.902C1840.29 929.887 1846.1 931.789 1853.46 930.624C1858.7 929.793 1863.28 926.552 1867.26 921.006C1871.35 915.305 1874.78 907.203 1877.59 896.718L1876.65 894.516C1873.66 887.477 1868.25 882.148 1861.71 879.161C1855.19 876.188 1847.56 875.536 1840.09 877.821Z" fill="#ADF7FF" stroke="black" stroke-width="2.5"/>
<path d="M1845.5 904.204L1843.96 912.314L1846.95 912.053" stroke="black" stroke-width="2" stroke-linecap="round" stroke-linejoin="round"/>
<path fill-rule="evenodd" clip-rule="evenodd" d="M1837.15 931.464C1831.01 934.652 1826.82 938.555 1824.63 943.233C1822.55 947.706 1821.45 954.781 1821.27 964.577C1841.29 948.463 1851.91 939.443 1852.47 937.033C1851.92 936.53 1851 936.014 1849.74 935.454C1847.02 934.244 1842.83 932.918 1837.15 931.464Z" fill="#FF75AA" stroke="black" stroke-width="2.5"/>
<path fill-rule="evenodd" clip-rule="evenodd" d="M1869.8 936.801C1871.95 941.419 1873.36 950.651 1874.12 964.648C1866.71 959.213 1861.26 955.076 1857.79 952.237C1847.9 944.141 1846.03 936.776 1845.45 934.441C1845.37 934.13 1845.31 933.894 1845.33 933.644C1845.65 933.326 1846.21 933.074 1846.97 932.821C1848.9 932.176 1851.97 931.705 1856.22 931.377C1859.75 930.953 1862.68 931.189 1864.99 932.144C1867.17 933.045 1868.77 934.6 1869.8 936.801Z" fill="#FF75AA" stroke="black" stroke-width="2.5"/>
<path d="M1838.5 876.704C1836.83 845.038 1843.5 830.871 1858.5 834.204C1881 839.204 1875.5 861.704 1864 865.204C1852.5 868.704 1851 858.704 1853 852.704C1854.33 848.704 1857 847.538 1861 849.204" stroke="black" stroke-width="2.5" stroke-linecap="round" stroke-linejoin="round"/>
<path d="M1848.75 932.454H1847.25C1844.49 932.454 1842.25 934.693 1842.25 937.454V937.954C1842.25 940.716 1844.49 942.954 1847.25 942.954H1848.75C1851.51 942.954 1853.75 940.716 1853.75 937.954V937.454C1853.75 934.693 1851.51 932.454 1848.75 932.454Z" fill="#FF75AA" stroke="black" stroke-width="2.5"/>
<path d="M1797.5 865.204C1803.83 905.925 1818.33 927.857 1841 931" stroke="black" stroke-width="2.5" stroke-linecap="round" stroke-linejoin="round"/>
<path d="M1859.5 931C1884.17 923.503 1901.5 903.571 1911.5 871.204" stroke="black" stroke-width="2.5" stroke-linecap="round" stroke-linejoin="round"/>
<path fill-rule="evenodd" clip-rule="evenodd" d="M1845.39 904.244C1842.83 899.529 1839.84 896.075 1836.43 893.882C1832.65 891.452 1827.35 890.266 1824.55 888.633C1816.94 884.194 1814.26 880.604 1814.26 880.604C1814.26 880.604 1815.66 884.605 1818.46 892.608C1817.34 894.191 1816.91 895.757 1817.17 897.306C1817.43 898.855 1818.17 900.121 1819.39 901.104C1819.34 903.792 1821 906.215 1823.52 907.142C1829.65 909.396 1834.48 909.819 1838.01 908.412C1842.3 906.696 1844.77 905.307 1845.39 904.244Z" fill="white" stroke="black" stroke-width="2.5" stroke-linecap="round" stroke-linejoin="round"/>
<path fill-rule="evenodd" clip-rule="evenodd" d="M1840.58 903.859C1835.97 905.412 1832.92 905.921 1831.42 905.385C1826.6 903.654 1823.48 900.867 1822.05 897.024L1822.05 897.024C1821.86 896.506 1822.12 895.93 1822.64 895.738C1822.64 895.737 1822.64 895.736 1822.65 895.735C1825.91 894.553 1829.72 894.748 1834.1 896.318C1835.71 896.895 1838.01 898.871 1841.01 902.247L1841.01 902.247C1841.37 902.66 1841.34 903.292 1840.92 903.658C1840.82 903.748 1840.71 903.816 1840.58 903.859Z" fill="black"/>
<path fill-rule="evenodd" clip-rule="evenodd" d="M1845.39 904.244C1848.62 899.63 1852.3 896.292 1856.43 894.231C1861 891.947 1867.34 890.964 1870.72 889.439C1879.92 885.293 1883.25 881.808 1883.25 881.808C1883.25 881.808 1881.43 885.754 1877.81 893.644C1879.07 895.268 1879.52 896.85 1879.16 898.388C1878.79 899.926 1877.87 901.163 1876.38 902.099C1876.33 904.73 1874.57 907.023 1872.04 907.749C1864.3 909.974 1858.28 910.288 1854 908.691C1848.97 906.813 1846.1 905.33 1845.39 904.244Z" fill="white" stroke="black" stroke-width="2.5" stroke-linecap="round" stroke-linejoin="round"/>
<path fill-rule="evenodd" clip-rule="evenodd" d="M1851.12 904.042C1856.53 905.771 1860.14 906.396 1861.93 905.917C1867.67 904.384 1871.47 901.75 1873.33 898.015L1873.33 898.015C1873.57 897.52 1873.37 896.92 1872.88 896.674C1872.84 896.654 1872.8 896.638 1872.76 896.624C1868.92 895.303 1864.37 895.347 1859.1 896.755C1857.19 897.266 1854.41 899.127 1850.76 902.339L1850.76 902.339C1850.35 902.704 1850.31 903.336 1850.67 903.75C1850.79 903.886 1850.95 903.987 1851.12 904.042Z" fill="black"/>
<path d="M1863 780.204C1861.33 794.871 1859 803.704 1856 806.704" stroke="black" stroke-width="2.5" stroke-linecap="round" stroke-linejoin="round"/>
<path fill-rule="evenodd" clip-rule="evenodd" d="M1837.75 918.561C1840.57 922.125 1843.6 923.837 1846.85 923.697C1850.09 923.557 1853.06 921.845 1855.75 918.561L1849.07 915.705L1846.85 917.303L1843.88 915.705L1837.75 918.561Z" fill="#FF7C25" stroke="black" stroke-width="2.5" stroke-linejoin="round"/>
<path fill-rule="evenodd" clip-rule="evenodd" d="M1654.71 1286.45H1563.73L1522.63 1359.95H1690.01L1654.71 1286.45Z" fill="#FF75AA" stroke="black" stroke-width="2.5"/>
<path d="M1564 1286.2L1585.92 1312.22C1596.95 1325.32 1616.51 1326.99 1629.6 1315.95C1630.91 1314.85 1632.12 1313.65 1633.23 1312.35L1655.5 1286.2" stroke="black" stroke-width="2.5" stroke-linecap="round" stroke-linejoin="round"/>
<path d="M1612.5 1316.7H1604.5C1602.29 1316.7 1600.5 1318.5 1600.5 1320.7V1328.7C1600.5 1330.91 1602.29 1332.7 1604.5 1332.7H1612.5C1614.71 1332.7 1616.5 1330.91 1616.5 1328.7V1320.7C1616.5 1318.5 1614.71 1316.7 1612.5 1316.7Z" fill="black"/>
<path fill-rule="evenodd" clip-rule="evenodd" d="M1573 1188.2L1513.01 1232.46C1512.45 1232.87 1512.34 1233.65 1512.74 1234.2C1512.75 1234.2 1512.75 1234.2 1512.75 1234.2C1513.18 1234.78 1513.97 1234.96 1514.61 1234.63L1564.77 1208.98C1572.34 1205.1 1575.86 1196.21 1573 1188.2Z" fill="black"/>
<path fill-rule="evenodd" clip-rule="evenodd" d="M1637.78 1211.55L1574.27 1250.59C1573.68 1250.95 1572.92 1250.77 1572.56 1250.19C1572.56 1250.18 1572.56 1250.18 1572.56 1250.18C1572.18 1249.56 1572.31 1248.76 1572.86 1248.29L1615.43 1211.4C1621.86 1205.83 1631.42 1205.89 1637.78 1211.55Z" fill="black"/>
<path fill-rule="evenodd" clip-rule="evenodd" d="M1813 1019.5L1783 991.5L1810 956" fill="#A057FF"/>
<path d="M1813 1019.5L1783 991.5L1810 956" stroke="black" stroke-width="2.5" stroke-linecap="round" stroke-linejoin="round"/>
<path d="M1900 1024.5C1896.49 1020.98 1894.15 1017.98 1893 1015.5C1891.85 1013.02 1890.85 1008.85 1890 1003" stroke="black" stroke-width="2.5" stroke-linecap="round" stroke-linejoin="round"/>
<path d="M1827.75 1003.75L1838.25 985.25" stroke="black" stroke-width="2.5" stroke-linecap="round" stroke-linejoin="round"/>
<path d="M1845 920H1848" stroke="black" stroke-width="2" stroke-linecap="round" stroke-linejoin="round"/>
<path d="M1843.5 985.5L1847.93 1000.15C1851.7 1012.61 1864.85 1019.66 1877.32 1015.89C1877.71 1015.77 1878.11 1015.64 1878.5 1015.5" stroke="black" stroke-width="2.5" stroke-linecap="round" stroke-linejoin="round"/>
</svg>
