<svg width="2811" height="1999" viewBox="0 0 2811 1999" fill="none" xmlns="http://www.w3.org/2000/svg">
<g clip-path="url(#clip0)">
<rect width="2811" height="1999" fill="white"/>
<path fill-rule="evenodd" clip-rule="evenodd" d="M1407 1640.51L1407.49 416.289C1377.86 410.466 1355.5 384.344 1355.5 353C1355.5 317.378 1384.38 288.5 1420 288.5C1455.62 288.5 1484.5 317.378 1484.5 353C1484.5 384.348 1462.14 410.472 1432.49 416.291L1432 1640.51H1407ZM1420 392.5C1441.82 392.5 1459.5 374.815 1459.5 353C1459.5 331.185 1441.82 313.5 1420 313.5C1398.18 313.5 1380.5 331.185 1380.5 353C1380.5 374.815 1398.18 392.5 1420 392.5ZM1344.5 1338V634.5H1253C1246.2 634.5 1240.67 629.069 1240.5 622.308L1240.5 622L1240.5 504.29C1210.86 498.469 1188.5 472.346 1188.5 441C1188.5 405.378 1217.38 376.5 1253 376.5C1288.62 376.5 1317.5 405.378 1317.5 441C1317.5 472.346 1295.14 498.469 1265.5 504.29L1265.5 609.5H1357C1363.8 609.5 1369.33 614.931 1369.5 621.692L1369.5 622V1338H1344.5ZM1253 480.5C1274.82 480.5 1292.5 462.815 1292.5 441C1292.5 419.185 1274.82 401.5 1253 401.5C1231.18 401.5 1213.5 419.185 1213.5 441C1213.5 462.815 1231.18 480.5 1253 480.5ZM1488 1328.01L1463 1327.99L1463.25 933.538L1463.25 933.275L1463.26 933.013L1475.51 645.468C1475.79 638.88 1481.14 633.663 1487.69 633.504L1488 633.5H1545.5L1545.5 550.29C1515.86 544.469 1493.5 518.346 1493.5 487C1493.5 451.378 1522.38 422.5 1558 422.5C1593.62 422.5 1622.5 451.378 1622.5 487C1622.5 518.346 1600.14 544.469 1570.5 550.29L1570.5 646C1570.5 652.8 1565.07 658.333 1558.31 658.496L1558 658.5H1499.98L1488.25 933.824L1488 1328.01ZM1558 526.5C1579.82 526.5 1597.5 508.815 1597.5 487C1597.5 465.185 1579.82 447.5 1558 447.5C1536.18 447.5 1518.5 465.185 1518.5 487C1518.5 508.815 1536.18 526.5 1558 526.5Z" fill="#DFE9F3"/>
<path d="M1577 887C1577 800.291 1506.71 730 1420 730C1333.29 730 1263 800.291 1263 887C1263 973.709 1333.29 1044 1420 1044C1506.71 1044 1577 973.709 1577 887Z" fill="#EBF2F9"/>
<path d="M1577 887C1577 831.219 1531.78 786 1476 786C1420.22 786 1375 831.219 1375 887C1375 942.781 1420.22 988 1476 988C1531.78 988 1577 942.781 1577 887Z" fill="#DFE9F3"/>
<path fill-rule="evenodd" clip-rule="evenodd" d="M620 535L976 801.5V1640H620V535Z" fill="#DFE9F3"/>
<path d="M1343 800C1343 792.268 1336.73 786 1329 786C1321.27 786 1315 792.268 1315 800V832C1315 839.732 1321.27 846 1329 846C1336.73 846 1343 839.732 1343 832V800Z" fill="#EDF3F9"/>
<path d="M1154 1113H798V1640H1154V1113Z" fill="#E4EDF6"/>
<path d="M1916 1113H1560V1640H1916V1113Z" fill="#DFE9F3"/>
<path d="M1916 556H1789V1640H1916V556Z" fill="#E4EDF6"/>
<path d="M2435 556H2308V1640H2435V556Z" fill="#DFE9F3"/>
<path fill-rule="evenodd" clip-rule="evenodd" d="M2015 1029L2252 863V1640H2015V1029Z" fill="#EBF2F9"/>
<path d="M1310 1450H954V1640H1310V1450Z" fill="#EBF2F9"/>
<path d="M714 802H526V839H714V802Z" fill="#EBF2F9"/>
<path d="M714 918H526V955H714V918Z" fill="#EBF2F9"/>
<path d="M444.5 1450.5V1638.5H548.5V1450.5H444.5Z" fill="#E4EDF6"/>
<path d="M444.5 1328V1398H548.5V1328H444.5Z" fill="#E4EDF6"/>
<path d="M2256 662V732H2360V662H2256Z" fill="#EBF2F9"/>
<path d="M1050 955V1025H1154V955H1050Z" fill="#EBF2F9"/>
<path d="M846 1206V1276H866V1206H846Z" fill="#DFE9F3"/>
<path d="M906 1206V1276H926V1206H906Z" fill="#DFE9F3"/>
<path d="M1050 803V873H1154V803H1050Z" fill="#EBF2F9"/>
<path d="M1853 662V826H2097V662H1853Z" fill="#EBF2F9"/>
<path d="M444.5 1206V1276H548.5V1206H444.5Z" fill="#E4EDF6"/>
<g clip-path="url(#clip1)">
<path fill-rule="evenodd" clip-rule="evenodd" d="M1086.25 884C1050.94 884 1018.75 897.332 994.43 919.236C969.863 941.363 953.331 972.237 949.74 1006.95C949.689 1007.44 949.641 1007.94 949.595 1008.43C949.117 1008.3 948.638 1008.16 948.159 1008.03C915.591 998.888 881.242 994 845.75 994C741.437 994 646.999 1036.23 578.64 1104.49C510.281 1172.76 468 1267.08 468 1371.25C468 1475.42 510.281 1569.74 578.64 1638.01C646.999 1706.27 741.437 1748.5 845.75 1748.5C950.063 1748.5 1044.5 1706.27 1112.86 1638.01C1181.22 1569.74 1223.5 1475.42 1223.5 1371.25C1223.5 1287.37 1196.09 1209.88 1149.72 1147.23L1147.43 1144.16L1150.07 1142.79C1172.26 1131.12 1190.88 1113.53 1203.81 1092.13C1216.31 1071.44 1223.5 1047.18 1223.5 1021.25C1223.5 983.349 1208.14 949.037 1183.3 924.2C1158.46 899.362 1124.15 884 1086.25 884Z" fill="#66EC36" stroke="black" stroke-width="2.5"/>
<path fill-rule="evenodd" clip-rule="evenodd" d="M634.75 1248.75C638.064 1248.75 640.75 1251.44 640.75 1254.75V1276.75C640.75 1280.06 638.064 1282.75 634.75 1282.75C631.436 1282.75 628.75 1280.06 628.75 1276.75V1254.75C628.75 1251.44 631.436 1248.75 634.75 1248.75ZM889.75 1248.75C893.064 1248.75 895.75 1251.44 895.75 1254.75V1276.75C895.75 1280.06 893.064 1282.75 889.75 1282.75C886.436 1282.75 883.75 1280.06 883.75 1276.75V1254.75C883.75 1251.44 886.436 1248.75 889.75 1248.75Z" fill="#FFFFD9" stroke="black" stroke-width="2.5" stroke-linecap="round" stroke-linejoin="round"/>
<path d="M740.75 1299.75L745.93 1303.62C756.313 1311.39 770.589 1311.32 780.896 1303.46L785.75 1299.75" stroke="black" stroke-width="2.5" stroke-linecap="round" stroke-linejoin="round"/>
<path d="M873.911 1258.23C877.359 1249.24 887.445 1244.75 896.439 1248.19C899.922 1249.53 902.886 1251.95 904.894 1255.09L906.865 1258.18" stroke="black" stroke-width="2.5" stroke-linecap="round" stroke-linejoin="round"/>
<path d="M618.75 1257.75C622.238 1248.75 632.364 1244.27 641.368 1247.76C644.811 1249.1 647.744 1251.48 649.746 1254.59L651.75 1257.7" stroke="black" stroke-width="2.5" stroke-linecap="round" stroke-linejoin="round"/>
</g>
<path fill-rule="evenodd" clip-rule="evenodd" d="M1069.49 977.393L1004.26 979.23C970.584 980.179 944.053 1008.25 945.002 1041.92C945.132 1046.57 945.794 1051.19 946.973 1055.68L975.488 1164.39L1040.49 1156.89L1010.99 1033.89L1125.49 1026.89L1069.49 977.393Z" fill="#FFFFD9" stroke="black" stroke-width="2.5" stroke-linecap="round" stroke-linejoin="round"/>
<path fill-rule="evenodd" clip-rule="evenodd" d="M1203.49 1018.39L1227.09 1107.91C1236.29 1142.8 1263.59 1170.04 1298.51 1179.16L1352.99 1193.39L1402.99 1143.89L1285.99 1109.89L1256.99 981.393L1203.49 1018.39Z" fill="#FFFFD9" stroke="black" stroke-width="2.5" stroke-linecap="round" stroke-linejoin="round"/>
<path fill-rule="evenodd" clip-rule="evenodd" d="M970.877 1222.74C964.765 1224.29 959.187 1227.52 954.786 1232.07C948.253 1238.83 945.079 1247.6 945.227 1256.31C945.375 1265.02 948.846 1273.67 955.604 1280.21L987.082 1310.63L970.877 1222.74L970.877 1222.74Z" fill="#5E69FF" stroke="black" stroke-width="2.5"/>
<path fill-rule="evenodd" clip-rule="evenodd" d="M1041.93 1139.5C1026.11 1134.8 1009.86 1136.85 996.29 1144C982.525 1151.25 971.527 1163.75 966.558 1179.79C963.529 1189.56 963.016 1199.94 965.068 1209.97L983.905 1302.02C985.331 1308.99 989.445 1314.72 994.944 1318.35C1000.44 1321.98 1007.33 1323.52 1014.29 1322.09C1017.07 1321.52 1019.74 1320.5 1022.19 1319.06L1032.72 1312.86C1045.33 1305.44 1054.83 1294.38 1060.38 1281.61C1065.94 1268.83 1067.54 1254.34 1064.35 1240.06L1041.93 1139.5Z" fill="#5E69FF" stroke="black" stroke-width="2.5"/>
<path fill-rule="evenodd" clip-rule="evenodd" d="M1164.99 910.893C1165.72 904.62 1166.21 900.773 1166.47 899.351C1168.97 885.568 1170.28 867.894 1170.4 846.329L1170.4 846.329C1170.49 829.553 1156.96 815.88 1140.19 815.79C1126.85 815.718 1115.03 824.351 1111.04 837.074C1104.59 857.633 1093.24 897.156 1076.98 955.643C1076.59 957.056 1077.42 958.521 1078.83 958.914C1080.12 959.271 1081.47 958.62 1081.99 957.393C1082.43 960.178 1085.05 962.077 1087.83 961.633C1089.91 961.302 1091.57 959.733 1092.02 957.68L1094.49 946.393C1094.75 948.274 1096.49 949.583 1098.37 949.317C1099.75 949.123 1100.88 948.118 1101.22 946.771C1113.73 898.35 1121.81 866.396 1125.46 850.91C1127.44 842.528 1135.84 837.337 1144.22 839.316C1151.03 840.924 1155.94 846.876 1156.22 853.872L1158.49 910.893L1164.99 910.893Z" fill="black"/>
<path fill-rule="evenodd" clip-rule="evenodd" d="M1111.21 978.72L1147.93 979.184L1173.31 978.716C1190.43 978.401 1204.56 992.022 1204.87 1009.14C1204.9 1010.68 1204.82 1012.21 1204.62 1013.74L1203.1 1025.34C1199.95 1049.36 1179.06 1067.05 1154.86 1066.21C1130.97 1065.37 1111.95 1045.9 1111.69 1022L1111.21 978.72Z" fill="#FFFFD9" stroke="black" stroke-width="2.5" stroke-linecap="round" stroke-linejoin="round"/>
<path fill-rule="evenodd" clip-rule="evenodd" d="M1170.9 974.643L1170.79 952.377L1142.26 945.649L1140.46 974.673C1139.96 982.834 1146.16 989.859 1154.32 990.364C1154.63 990.383 1154.93 990.393 1155.24 990.393C1163.89 990.393 1170.9 983.378 1170.9 974.726C1170.9 974.698 1170.9 974.671 1170.9 974.643Z" fill="#FFFFD9" stroke="black" stroke-width="2.5" stroke-linecap="round" stroke-linejoin="round"/>
<path fill-rule="evenodd" clip-rule="evenodd" d="M1136.56 1083.52C1137.66 1093.41 1146.01 1100.89 1155.96 1100.89L1156.57 1100.89C1166.43 1100.89 1174.67 1093.37 1175.55 1083.55C1176.35 1074.78 1169.88 1067.04 1161.12 1066.25C1160.65 1066.2 1160.18 1066.18 1159.71 1066.18L1152.1 1066.17C1143.47 1066.17 1136.47 1073.15 1136.46 1081.78C1136.46 1082.37 1136.49 1082.95 1136.56 1083.52Z" fill="black"/>
<path fill-rule="evenodd" clip-rule="evenodd" d="M1169.99 978.393C1162.67 975.329 1157.33 972.829 1153.99 970.893C1150.64 968.956 1146.48 965.956 1141.49 961.893L1171.18 954.57L1169.99 978.393Z" fill="black"/>
<path d="M1164.65 910.207C1149.4 906.984 1134.44 916.728 1131.21 931.97L1131.11 932.465C1131 933.059 1130.9 933.652 1130.82 934.244C1128.94 931.518 1126.01 929.694 1122.63 929.517C1116.56 929.199 1111.36 934.306 1111.02 940.924C1110.67 947.543 1115.31 953.166 1121.37 953.484C1125.86 953.719 1129.87 950.989 1131.79 946.875C1134.89 957.359 1143.53 965.885 1155.03 968.341C1170.98 971.749 1182.12 962.174 1186.1 946.838C1187.79 950.601 1191.25 953.268 1195.37 953.484C1201.44 953.802 1206.64 948.694 1206.98 942.076C1207.33 935.457 1202.69 929.835 1196.63 929.517C1192.61 929.306 1188.97 931.477 1186.87 934.892L1186.86 934.786L1186.78 934.123C1185.22 922.265 1176.35 912.681 1164.65 910.207Z" fill="#5E69FF"/>
<path fill-rule="evenodd" clip-rule="evenodd" d="M1132.53 931.782C1134.17 924.623 1138.54 918.77 1144.29 915.09C1150.04 911.415 1157.18 909.907 1164.39 911.43C1169.98 912.612 1174.89 915.493 1178.6 919.495C1182.3 923.496 1184.79 928.616 1185.54 934.28L1186.3 940.545C1186.63 936.746 1188.76 933.522 1191.72 931.89C1193.17 931.09 1194.83 930.674 1196.56 930.765C1199.24 930.905 1201.6 932.225 1203.25 934.229C1204.93 936.275 1205.89 939.033 1205.74 942.01C1205.58 944.988 1204.34 947.63 1202.45 949.489C1200.59 951.309 1198.11 952.376 1195.44 952.235C1193.66 952.142 1192.02 951.527 1190.63 950.535C1189.18 949.492 1188.01 948.035 1187.24 946.326L1185.78 943.078L1184.89 946.523C1182.91 954.129 1179.13 960.285 1173.79 963.983C1168.85 967.399 1162.6 968.681 1155.29 967.119C1149.87 965.961 1145.11 963.396 1141.32 959.892C1137.39 956.267 1134.5 951.637 1132.99 946.521L1132.06 943.361L1130.66 946.345C1129.79 948.212 1128.44 949.764 1126.79 950.809C1125.22 951.804 1123.38 952.337 1121.44 952.235C1118.76 952.095 1116.41 950.775 1114.75 948.771C1113.07 946.725 1112.11 943.968 1112.26 940.99C1112.42 938.012 1113.66 935.37 1115.55 933.511C1117.41 931.691 1119.89 930.625 1122.56 930.765C1125.55 930.921 1128.14 932.547 1129.79 934.953L1131.63 937.622L1132.06 934.41C1132.14 933.845 1132.23 933.28 1132.34 932.714L1132.53 931.782Z" stroke="black" stroke-width="2.5"/>
<path d="M1152.52 941.651C1152.66 940.001 1151.44 938.546 1149.79 938.401C1148.14 938.257 1146.69 939.478 1146.54 941.128L1146.46 942.124C1146.31 943.775 1147.53 945.23 1149.18 945.374C1150.83 945.519 1152.29 944.298 1152.43 942.647L1152.52 941.651Z" fill="white" stroke="black" stroke-width="2" stroke-linecap="round" stroke-linejoin="round"/>
<path d="M1182.52 942.485C1182.66 940.835 1181.44 939.38 1179.79 939.235C1178.14 939.091 1176.69 940.312 1176.54 941.962L1176.46 942.959C1176.31 944.609 1177.53 946.064 1179.18 946.209C1180.83 946.353 1182.29 945.132 1182.43 943.481L1182.52 942.485Z" fill="white" stroke="black" stroke-width="2" stroke-linecap="round" stroke-linejoin="round"/>
<path fill-rule="evenodd" clip-rule="evenodd" d="M1139.49 919.893C1150.49 919.226 1157.49 922.393 1160.49 929.393C1163.09 935.462 1163.56 942.533 1161.9 950.607C1161.55 952.312 1162.65 953.978 1164.35 954.328C1164.56 954.371 1164.77 954.393 1164.99 954.393C1167.08 954.393 1168.77 952.698 1168.77 950.608C1168.77 950.545 1168.77 950.482 1168.77 950.418C1168.28 940.659 1168.35 933.983 1168.99 930.393C1169.71 926.334 1172.87 922.834 1178.49 919.893C1171.15 912.226 1162.82 909.559 1153.49 911.893C1149.22 912.958 1144.56 915.625 1139.49 919.893Z" fill="#FFFFD9" stroke="black" stroke-width="2.5" stroke-linecap="round" stroke-linejoin="round"/>
<path fill-rule="evenodd" clip-rule="evenodd" d="M1057.6 968.414C1057.32 969.676 1057.41 970.963 1057.83 972.134C1058.25 973.306 1058.99 974.361 1060.01 975.159L1079.41 990.368C1085.03 994.771 1090.17 999.755 1094.74 1005.24L1112 1025.95C1119.45 1017.15 1124.92 1009.75 1128.41 1003.76C1131.88 997.79 1135.36 989.803 1138.85 979.805L1065.61 963.344C1063.81 962.938 1062.01 963.303 1060.56 964.22C1059.11 965.138 1058.01 966.608 1057.6 968.414Z" fill="#5E69FF" stroke="black" stroke-width="2.5"/>
<path fill-rule="evenodd" clip-rule="evenodd" d="M1172.14 979.522C1175.4 990.346 1179.31 998.37 1183.92 1003.56C1188.64 1008.88 1195.15 1014.31 1203.46 1019.87L1242.05 992.311C1243.83 991.037 1245.58 989.704 1247.27 988.315L1257.19 980.176C1258.02 979.501 1258.49 978.556 1258.59 977.573C1258.68 976.591 1258.41 975.572 1257.73 974.749C1256.7 973.485 1254.48 973.35 1172.14 979.522Z" fill="#5E69FF" stroke="black" stroke-width="2.5"/>
<path fill-rule="evenodd" clip-rule="evenodd" d="M1442.32 990.056C1447.67 989.015 1452.94 990.243 1457.13 993.07C1461.32 995.896 1464.43 1000.32 1465.47 1005.67C1466.51 1011.03 1465.29 1016.3 1462.46 1020.49C1459.63 1024.68 1455.21 1027.79 1449.86 1028.83L1418.44 1034.94C1413.29 1035.94 1408.22 1034.84 1404.11 1032.24L1390.69 1062.38C1388.47 1067.37 1384.44 1070.98 1379.72 1072.79C1375 1074.6 1369.59 1074.61 1364.61 1072.39C1359.63 1070.17 1356.02 1066.15 1354.21 1061.43C1352.39 1056.71 1352.38 1051.3 1354.6 1046.32L1367.62 1017.08C1369.84 1012.1 1373.86 1008.49 1378.58 1006.68C1383.3 1004.87 1388.71 1004.86 1393.69 1007.07C1394.16 1007.28 1394.62 1007.51 1395.06 1007.75C1395.46 1007.96 1395.85 1008.2 1396.24 1008.44C1396.41 1008.02 1396.59 1007.59 1396.79 1007.18C1399.37 1001.66 1404.47 997.414 1410.91 996.162L1442.32 990.056Z" fill="#5E69FF" stroke="black" stroke-width="2.5"/>
<path fill-rule="evenodd" clip-rule="evenodd" d="M1502.98 1039.07C1508.42 1039.45 1513.19 1042 1516.5 1045.81C1519.82 1049.63 1521.68 1054.71 1521.3 1060.15C1520.92 1065.59 1518.37 1070.36 1514.56 1073.67C1510.74 1076.99 1505.66 1078.85 1500.22 1078.47L1468.3 1076.24C1463.91 1075.93 1459.96 1074.22 1456.86 1071.57L1439.65 1096.15C1436.52 1100.62 1431.88 1103.39 1426.9 1104.27C1421.92 1105.15 1416.61 1104.13 1412.14 1101C1407.67 1097.87 1404.9 1093.23 1404.02 1088.25C1403.14 1083.27 1404.16 1077.96 1407.29 1073.49L1425.65 1047.28C1428.77 1042.81 1433.42 1040.04 1438.39 1039.16C1443.37 1038.28 1448.68 1039.3 1453.15 1042.43C1453.38 1042.59 1453.61 1042.76 1453.83 1042.92L1454.71 1043.6L1455.48 1042.8C1459.4 1038.76 1465 1036.41 1471.05 1036.83L1502.98 1039.07Z" fill="#5E69FF" stroke="black" stroke-width="2.5"/>
<path fill-rule="evenodd" clip-rule="evenodd" d="M1468.85 1097.35C1473.13 1094.57 1478.12 1093.79 1482.75 1094.77C1487.37 1095.76 1491.61 1098.5 1494.39 1102.78L1495.41 1104.35C1498.19 1108.62 1499.11 1113.6 1498.34 1118.31C1497.56 1123.01 1495.1 1127.43 1491.1 1130.59L1411.36 1193.7C1409.08 1195.95 1406.58 1197.92 1403.84 1199.64C1402.17 1200.88 1400.37 1201.82 1398.4 1202.51C1388.31 1206.95 1376.64 1207.5 1365.79 1203.45C1356.88 1200.13 1349.7 1193.97 1345.05 1186.27C1340.4 1178.58 1338.27 1169.36 1339.46 1159.93L1353.42 1049.74L1434.75 1102.44L1432.12 1124.62L1467.89 1098.02C1468.21 1097.78 1468.53 1097.56 1468.85 1097.35Z" fill="#5E69FF" stroke="black" stroke-width="2.5"/>
<path d="M1195.49 945.393C1197.7 945.393 1199.49 943.602 1199.49 941.393C1199.49 939.183 1197.7 937.393 1195.49 937.393C1193.28 937.393 1191.49 939.183 1191.49 941.393C1191.49 943.602 1193.28 945.393 1195.49 945.393Z" stroke="black" stroke-width="2" stroke-linecap="round" stroke-linejoin="round"/>
<path d="M1122.49 945.393C1124.7 945.393 1126.49 943.602 1126.49 941.393C1126.49 939.183 1124.7 937.393 1122.49 937.393C1120.28 937.393 1118.49 939.183 1118.49 941.393C1118.49 943.602 1120.28 945.393 1122.49 945.393Z" stroke="black" stroke-width="2" stroke-linecap="round" stroke-linejoin="round"/>
<path d="M1228.99 1111.89L1285.99 1109.89L1273.49 1168.89" stroke="black" stroke-width="2" stroke-linecap="round" stroke-linejoin="round"/>
<path d="M1010.99 1033.89L1006.99 1013.89" stroke="black" stroke-width="2" stroke-linecap="round" stroke-linejoin="round"/>
<path d="M977.988 1034.89C979.449 1034.89 990.449 1034.56 1010.99 1033.89" stroke="black" stroke-width="2" stroke-linecap="round" stroke-linejoin="round"/>
<path d="M1433.5 1122L1407 1138.5" stroke="black" stroke-width="2.5" stroke-linecap="round" stroke-linejoin="round"/>
<path fill-rule="evenodd" clip-rule="evenodd" d="M842.487 1756.89L929.5 1757L929.487 1729.89L843.487 1729.89L842.487 1756.89Z" fill="#FFFFD9" stroke="black" stroke-width="2.5" stroke-linecap="round" stroke-linejoin="round"/>
<path fill-rule="evenodd" clip-rule="evenodd" d="M929.5 1758L1020.5 1758L1020.5 1730L929.329 1729.89L929.5 1758Z" fill="black"/>
<path fill-rule="evenodd" clip-rule="evenodd" d="M1111.02 1758.39L1187.02 1758.39L1187 1731.5L1111.5 1730.5L1111.02 1758.39Z" fill="black"/>
<path fill-rule="evenodd" clip-rule="evenodd" d="M1050.37 1757.37L1111.53 1757.2L1111.57 1730.49L1050.44 1730.11L1050.37 1757.37Z" fill="#FFFFD9" stroke="black" stroke-width="2.5" stroke-linecap="round" stroke-linejoin="round"/>
<path fill-rule="evenodd" clip-rule="evenodd" d="M1103.43 1122.03C1046.11 1196.8 1017.79 1260.4 1018.47 1312.85C1019.16 1365.3 1031.51 1388.27 1055.51 1381.74C1084.02 1391.52 1103.78 1388.76 1114.79 1373.47C1125.8 1358.17 1140.33 1297.52 1158.37 1191.5L1103.43 1122.03Z" fill="#FFFFD9" stroke="black" stroke-width="2.5" stroke-linecap="round" stroke-linejoin="round"/>
<path fill-rule="evenodd" clip-rule="evenodd" d="M1016.67 1327.09L994.395 1365.89C989.387 1374.61 986.833 1384.53 987.002 1394.58L987.986 1452.96L1015.16 1431.84L1093.08 1435.62L1096.27 1408.52L1112.96 1376.14L1072.19 1374.66C1061.17 1374.27 1050.86 1369.13 1043.9 1360.57L1016.67 1327.09Z" fill="#5E69FF" stroke="black" stroke-width="2.5" stroke-linecap="round" stroke-linejoin="round"/>
<path fill-rule="evenodd" clip-rule="evenodd" d="M1092.46 1435.8C1108.45 1553.22 1116.13 1620.95 1115.5 1639C1114.87 1657.05 1103.54 1687.55 1081.5 1730.5L1013.5 1730.5L919.5 1621.5C930.045 1513.36 948.859 1450.1 975.943 1431.73C1003.03 1413.36 1041.86 1414.71 1092.46 1435.8Z" fill="#FFFFD9" stroke="black" stroke-width="2.5" stroke-linecap="round" stroke-linejoin="round"/>
<path fill-rule="evenodd" clip-rule="evenodd" d="M919.5 1609L991.747 1609.03C1001.06 1609.03 1009.36 1614.9 1012.48 1623.68L1050.5 1731L910.5 1730.5L919.5 1609Z" fill="black"/>
<path fill-rule="evenodd" clip-rule="evenodd" d="M1035.17 1419.31C1012.98 1461.62 1003.59 1527.52 1007 1617L1035.17 1419.31Z" fill="#FFFFD9"/>
<path d="M1035.17 1419.31C1012.98 1461.62 1003.59 1527.52 1007 1617" stroke="black" stroke-width="2.5" stroke-linecap="round" stroke-linejoin="round"/>
<path fill-rule="evenodd" clip-rule="evenodd" d="M919.5 1622L843.488 1729.89L929.607 1729.72L995.423 1622.18L919.5 1622Z" fill="#FFFFD9" stroke="black" stroke-width="2.5" stroke-linecap="round" stroke-linejoin="round"/>
<path fill-rule="evenodd" clip-rule="evenodd" d="M929.607 1729.72L1019.5 1729.5L995.423 1622.18L929.607 1729.72Z" fill="#FFFFD9" stroke="black" stroke-width="2.5" stroke-linecap="round" stroke-linejoin="round"/>
<path fill-rule="evenodd" clip-rule="evenodd" d="M1115.26 1629.73L1186 1731L1110.5 1731L1074.7 1695.62L1115.26 1629.73Z" fill="#FFFFD9" stroke="black" stroke-width="2.5" stroke-linecap="round" stroke-linejoin="round"/>
<path fill-rule="evenodd" clip-rule="evenodd" d="M1074.7 1695.62L1050.54 1730.79L1110.5 1731L1074.7 1695.62Z" fill="#FFFFD9" stroke="black" stroke-width="2.5" stroke-linecap="round" stroke-linejoin="round"/>
<path fill-rule="evenodd" clip-rule="evenodd" d="M1166.84 1102.61C1161.32 1103.3 1155.74 1103.53 1150.18 1103.31L1121.44 1102.14C1116.45 1101.94 1111.86 1103.78 1108.46 1106.91C1105.06 1110.04 1102.86 1114.48 1102.65 1119.46C1102.51 1123.15 1103.49 1126.81 1105.48 1129.92L1139.58 1183.26C1144.31 1190.67 1152.5 1195.14 1161.74 1195.14C1170.84 1195.14 1179.34 1190.58 1184.36 1182.99L1220.97 1127.68C1223.89 1123.27 1224.74 1118.1 1223.76 1113.3C1222.79 1108.51 1219.98 1104.08 1215.58 1101.16C1211.58 1098.52 1206.66 1097.63 1166.84 1102.61Z" fill="#5E69FF" stroke="black" stroke-width="2.5"/>
<path fill-rule="evenodd" clip-rule="evenodd" d="M1378.5 1757.5L1444.33 1758.39L1444.5 1730.5H1382L1378.5 1757.5Z" fill="black"/>
<path fill-rule="evenodd" clip-rule="evenodd" d="M1173.99 1173.39C1182.74 1218.07 1193.99 1263.89 1202.49 1289.89C1211.87 1318.61 1231.75 1349.03 1262.12 1381.18C1284.65 1386.91 1301.11 1386.99 1311.49 1381.39C1321.87 1375.8 1334.87 1358.6 1350.49 1329.79L1254.69 1133.28C1244.65 1112.67 1219.8 1104.11 1199.19 1114.15C1193.91 1116.72 1189.24 1120.38 1185.49 1124.89C1166.2 1148.04 1173.24 1169.57 1173.99 1173.39Z" fill="#FFFFD9" stroke="black" stroke-width="2.5" stroke-linecap="round" stroke-linejoin="round"/>
<path fill-rule="evenodd" clip-rule="evenodd" d="M1283.99 1426.39C1273.04 1490.7 1269.27 1537.97 1272.68 1568.21C1276.08 1598.45 1290.85 1640.84 1316.99 1695.39L1349.49 1696.89C1341.09 1710.7 1351.03 1710.15 1379.3 1695.26C1407.57 1680.36 1447.97 1660.74 1500.49 1636.39C1480.82 1563.73 1459.75 1507.4 1437.29 1467.43C1414.83 1427.45 1395.5 1402.77 1379.3 1393.39L1317 1430L1283.99 1426.39Z" fill="#FFFFD9" stroke="black" stroke-width="2.5" stroke-linecap="round" stroke-linejoin="round"/>
<path fill-rule="evenodd" clip-rule="evenodd" d="M1317.49 1433.39C1358.15 1525.47 1378.49 1590.14 1378.49 1627.39L1317.49 1433.39Z" fill="#FFFFD9"/>
<path d="M1317.49 1433.39C1358.15 1525.47 1378.49 1590.14 1378.49 1627.39" stroke="black" stroke-width="2.5" stroke-linecap="round" stroke-linejoin="round"/>
<path fill-rule="evenodd" clip-rule="evenodd" d="M1301.99 1382.41H1263.89L1272.51 1394.67L1274.48 1417.59C1274.83 1421.67 1276.71 1425.27 1279.52 1427.85C1282.33 1430.43 1286.08 1432 1290.17 1432H1326.85L1379.99 1428.9C1383.49 1428.69 1386.69 1427.3 1389.17 1425.1C1391.64 1422.89 1393.4 1419.88 1394.01 1416.43L1394.41 1414.12C1395.63 1407.24 1395.14 1400.17 1392.99 1393.53C1388.14 1378.55 1383.29 1366.88 1378.41 1358.52C1372.62 1348.6 1364.98 1340.23 1355.49 1333.42L1354.96 1333.05L1340.94 1329.61C1337.1 1328.66 1333.19 1329.15 1329.83 1330.77C1326.47 1332.4 1323.66 1335.15 1322.01 1338.75L1301.99 1382.41Z" fill="#5E69FF" stroke="black" stroke-width="2.5"/>
<path fill-rule="evenodd" clip-rule="evenodd" d="M1369.5 1698.72L1369.49 1632.5C1369.49 1625.32 1375.31 1619.5 1382.49 1619.5C1382.49 1619.5 1382.49 1619.5 1382.49 1619.5H1484.73C1490.74 1619.5 1495.97 1623.63 1497.37 1629.48L1501.49 1646.71L1500.08 1699.07C1451.67 1718.76 1415.14 1728.57 1390.5 1728.5C1365.86 1728.43 1358.86 1718.51 1369.5 1698.72Z" fill="black"/>
<path fill-rule="evenodd" clip-rule="evenodd" d="M1444.49 1757.39H1556.49V1730.39H1444.49V1757.39Z" fill="#FFFFD9" stroke="black" stroke-width="2.5" stroke-linecap="round" stroke-linejoin="round"/>
<path fill-rule="evenodd" clip-rule="evenodd" d="M1289.49 1757.39H1385.49V1730.39H1289.49V1757.39Z" fill="#FFFFD9" stroke="black" stroke-width="2.5" stroke-linecap="round" stroke-linejoin="round"/>
<path fill-rule="evenodd" clip-rule="evenodd" d="M1231.5 1758.5L1290.49 1758.39V1730.39L1231.5 1730.5V1758.5Z" fill="black"/>
<path fill-rule="evenodd" clip-rule="evenodd" d="M1385.49 1636.39L1444.2 1730.39H1556.49L1500.57 1636.39H1385.49Z" fill="#FFFFD9" stroke="black" stroke-width="2.5" stroke-linecap="round" stroke-linejoin="round"/>
<path fill-rule="evenodd" clip-rule="evenodd" d="M1385.83 1636.39L1444.5 1730.5H1386L1385.83 1636.39Z" fill="#FFFFD9" stroke="black" stroke-width="2.5" stroke-linecap="round" stroke-linejoin="round"/>
<path fill-rule="evenodd" clip-rule="evenodd" d="M1295.19 1647.39L1232.49 1730.39H1289.62L1317.49 1694.26L1295.19 1647.39Z" fill="#FFFFD9" stroke="black" stroke-width="2.5" stroke-linecap="round" stroke-linejoin="round"/>
<path fill-rule="evenodd" clip-rule="evenodd" d="M1317.45 1694.39L1289.49 1730.39L1385.49 1730.24L1368.24 1694.39H1317.45Z" fill="#FFFFD9" stroke="black" stroke-width="2.5" stroke-linecap="round" stroke-linejoin="round"/>
<path fill-rule="evenodd" clip-rule="evenodd" d="M1806.51 1568L1812 1721.3L1745.52 1740.84C1740.54 1742.31 1737.17 1746.94 1737.3 1752.14C1737.43 1757.02 1741.47 1760.88 1746.35 1760.8L1908.52 1758.2C1914.05 1758.12 1918.45 1753.57 1918.36 1748.05C1918.36 1747.69 1918.33 1747.33 1918.29 1746.97L1897.01 1576.02L1806.51 1568ZM2234.07 1605.97L2105.46 1618.83L2044.46 1676.33L2203.77 1711.97L2193.21 1746.95C2191.58 1752.37 2194.65 1758.1 2200.07 1759.73C2201.99 1760.31 2204.04 1760.32 2205.96 1759.74L2206.31 1759.63L2225.82 1743.41C2235.46 1735.4 2241.22 1723.67 2241.67 1711.15L2245.06 1616.27C2245.25 1610.75 2240.94 1606.12 2235.42 1605.92C2234.97 1605.91 2234.52 1605.92 2234.07 1605.97Z" fill="black"/>
<path fill-rule="evenodd" clip-rule="evenodd" d="M2000.4 1399.99L2097.43 1428.27L2005.46 1598.64L2187.65 1608.67L2175.9 1704.66L1976.42 1689.29C1954.18 1687.58 1934.75 1677.02 1921.3 1661.33C1907.86 1645.63 1900.39 1624.81 1902.11 1602.58C1902.94 1591.71 1905.97 1581.12 1911.01 1571.46L2000.4 1399.99Z" fill="#57EFFF" stroke="black" stroke-width="2.5"/>
<path fill-rule="evenodd" clip-rule="evenodd" d="M2099.6 1411.08C2101.64 1432.16 2095.07 1452.14 2082.73 1467.47C2070.21 1483.03 2051.75 1493.82 2030.32 1496.14C2024.99 1496.72 2019.62 1496.74 2014.29 1496.22L1885.84 1483.6L1908.86 1680.75H1811.91L1793.08 1463.58C1791.16 1441.36 1798.42 1420.47 1811.71 1404.65C1825.01 1388.83 1844.34 1378.08 1866.56 1376.16C1873.23 1375.58 1879.96 1375.86 2099.6 1411.08Z" fill="#57EFFF" stroke="black" stroke-width="2.5"/>
<path fill-rule="evenodd" clip-rule="evenodd" d="M1972.59 1206.52C1990.02 1215.58 1999.07 1235.3 1994.57 1254.42L1993.99 1256.92C1988.79 1279.01 1973.74 1297.5 1953.16 1307.08L1869.8 1345.86C1842.41 1358.6 1810.74 1358.28 1783.62 1344.99L1724.61 1316.08L1724.45 1316.6L1636.37 1272.73C1630.88 1269.99 1628.51 1263.43 1630.97 1257.81L1664.94 1180.39L1674.66 1185.68L1652.21 1156L1652.17 1155.95C1646.51 1148.42 1648.04 1137.72 1655.57 1132.07C1663.15 1126.38 1673.89 1127.89 1679.6 1135.44L1736.4 1210.52L1826.26 1263.42L1914.59 1208.7C1932.19 1197.8 1954.23 1196.97 1972.59 1206.52Z" fill="white" stroke="black" stroke-width="2.5" stroke-linecap="round" stroke-linejoin="round"/>
<path fill-rule="evenodd" clip-rule="evenodd" d="M1887 1209.5L1948 1301L1945 1411H2104.5L2122.59 1301.56L2211.16 1302.66C2197.82 1210.21 2128.9 1173.52 2017.73 1186.79C2014.72 1185.48 2011.98 1184.71 2009.5 1184.5C1966.5 1180.83 1925.67 1189.17 1887 1209.5Z" fill="#FFE13D" stroke="black" stroke-width="2.5"/>
<path fill-rule="evenodd" clip-rule="evenodd" d="M2098.11 1301.16L2096.36 1392.73L1958.1 1411.15C1956.67 1410.69 1955.16 1410.42 1953.59 1410.36L1953.48 1410.36L1886.68 1408.47C1877.53 1408.21 1869.9 1415.38 1869.58 1424.52C1869.55 1425.42 1869.59 1426.31 1869.7 1427.18L1816.78 1427.48C1807.91 1427.53 1800.68 1434.61 1800.44 1443.47C1800.2 1451.97 1806.9 1459.04 1815.39 1459.28C1815.56 1459.28 1815.73 1459.28 1815.91 1459.28L1874.7 1458.94C1889.07 1461.11 1900.34 1463.79 1908.5 1467C1919.6 1471.36 1928.02 1473.25 1933.75 1472.67C1940.77 1471.95 1947.85 1471.97 1954.86 1472.74L2098.24 1488.5C2146 1493.75 2188.97 1459.28 2194.22 1411.52C2194.37 1410.14 2194.49 1408.75 2194.58 1407.36L2201.04 1302.15L2098.11 1301.16Z" fill="white" stroke="black" stroke-width="2.5" stroke-linecap="round" stroke-linejoin="round"/>
<path fill-rule="evenodd" clip-rule="evenodd" d="M1677 1098H1642C1634.27 1098 1628 1104.27 1628 1112C1628 1119.73 1634.27 1126 1642 1126H1705C1705 1110.54 1692.46 1098 1677 1098Z" fill="white" stroke="black" stroke-width="2.5" stroke-linecap="round" stroke-linejoin="round"/>
<path d="M1622 1114H1925V1428H1622V1114Z" fill="#FFFFD9" stroke="black" stroke-width="2.5" stroke-linecap="round" stroke-linejoin="round"/>
<path fill-rule="evenodd" clip-rule="evenodd" d="M1925 1114L1622 1428L1925 1114ZM1924.5 1427.5L1622.5 1114.5L1924.5 1427.5Z" fill="white"/>
<path d="M1924.5 1427.5L1622.5 1114.5M1925 1114L1622 1428L1925 1114Z" stroke="black" stroke-width="2.5" stroke-linecap="round" stroke-linejoin="round"/>
<path fill-rule="evenodd" clip-rule="evenodd" d="M1647.26 1201.81L1594.55 1179.71C1586.63 1176.39 1577.51 1179.93 1573.89 1187.71C1570.44 1195.13 1573.66 1203.93 1581.07 1207.38C1581.24 1207.46 1581.42 1207.53 1581.59 1207.61L1634.3 1229.7C1642.22 1233.02 1651.34 1229.49 1654.96 1221.7C1658.41 1214.29 1655.19 1205.48 1647.78 1202.04C1647.61 1201.96 1647.44 1201.88 1647.26 1201.81Z" fill="white" stroke="black" stroke-width="2.5" stroke-linecap="round" stroke-linejoin="round"/>
<path fill-rule="evenodd" clip-rule="evenodd" d="M1661.26 1173.98L1605.95 1151.13C1597.97 1147.83 1588.82 1151.37 1585.13 1159.17C1581.68 1166.49 1584.8 1175.22 1592.12 1178.68C1592.34 1178.78 1592.56 1178.88 1592.79 1178.97L1648.1 1201.82C1656.07 1205.12 1665.22 1201.58 1668.91 1193.78C1672.37 1186.46 1669.24 1177.73 1661.92 1174.27C1661.7 1174.17 1661.48 1174.07 1661.26 1173.98Z" fill="white" stroke="black" stroke-width="2.5" stroke-linecap="round" stroke-linejoin="round"/>
<path fill-rule="evenodd" clip-rule="evenodd" d="M1673.26 1145.98L1617.95 1123.13C1609.97 1119.83 1600.82 1123.37 1597.13 1131.17C1593.68 1138.49 1596.8 1147.22 1604.12 1150.68C1604.34 1150.78 1604.56 1150.88 1604.79 1150.97L1660.1 1173.82C1668.07 1177.12 1677.22 1173.58 1680.91 1165.78C1684.37 1158.46 1681.24 1149.73 1673.92 1146.27C1673.7 1146.17 1673.48 1146.07 1673.26 1145.98Z" fill="white" stroke="black" stroke-width="2.5" stroke-linecap="round" stroke-linejoin="round"/>
<path d="M1667.29 1167.2C1670.96 1167.96 1674.55 1165.6 1675.3 1161.94C1675.64 1160.31 1675.37 1158.61 1674.54 1157.17L1673.65 1155.64" stroke="black" stroke-width="2.5" stroke-linecap="round" stroke-linejoin="round"/>
<path d="M1655.29 1195.2C1658.96 1195.96 1662.55 1193.6 1663.3 1189.94C1663.64 1188.31 1663.37 1186.61 1662.54 1185.17L1661.65 1183.64" stroke="black" stroke-width="2.5" stroke-linecap="round" stroke-linejoin="round"/>
<path d="M1641.29 1223.2C1644.96 1223.96 1648.55 1221.6 1649.3 1217.94C1649.64 1216.31 1649.37 1214.61 1648.54 1213.17L1647.65 1211.64" stroke="black" stroke-width="2.5" stroke-linecap="round" stroke-linejoin="round"/>
<path fill-rule="evenodd" clip-rule="evenodd" d="M1939 1410H1851C1843.27 1410 1837 1416.27 1837 1424C1837 1431.73 1843.27 1438 1851 1438H1919" fill="white"/>
<path d="M1939 1410H1851C1843.27 1410 1837 1416.27 1837 1424C1837 1431.73 1843.27 1438 1851 1438H1919" stroke="black" stroke-width="2.5" stroke-linecap="round" stroke-linejoin="round"/>
<path fill-rule="evenodd" clip-rule="evenodd" d="M2010 1188.39L2012.74 1166.3L2046.71 1160.89L2050.5 1186.51C2044.24 1194.8 2036.94 1198.73 2028.62 1198.29C2020.3 1197.86 2014.09 1194.56 2010 1188.39Z" fill="white" stroke="black" stroke-width="2.5" stroke-linecap="round" stroke-linejoin="round"/>
<path fill-rule="evenodd" clip-rule="evenodd" d="M2009.94 1189.69L2037.9 1171.82L2010.95 1166.52L2009.94 1189.69Z" fill="black"/>
<path d="M2033.5 1039L2049.59 1039.73C2052.87 1039.88 2055.42 1042.64 2055.31 1045.92C2053.57 1099.86 2052.3 1132.8 2051.48 1144.73C2052.09 1144.6 2052.73 1144.53 2053.38 1144.53C2058.9 1144.53 2063.38 1149.23 2063.38 1155.03C2063.38 1160.83 2058.9 1165.53 2053.38 1165.53C2052.07 1165.53 2050.82 1165.27 2049.68 1164.79C2048.35 1171.76 2045.1 1176.75 2035.08 1180.11C2030.17 1181.75 2012 1181.22 2008.07 1179.69C2001.28 1177.06 1998.81 1172.09 1997.22 1164.81L1997.13 1164.81L1996.86 1164.81C1991.34 1164.81 1986.86 1160.11 1986.86 1154.31C1986.86 1149.37 1990.11 1145.23 1994.48 1144.11C1992.97 1126.13 1991.08 1093.48 1988.8 1046.18C1988.79 1046.12 1988.79 1046.06 1988.79 1046C1988.73 1042.68 1991.38 1039.95 1994.69 1039.9L2027.83 1039.34L2028.83 1043.34L2033.5 1039Z" fill="white"/>
<path d="M2027.83 1039.34L2049.59 1039.73C2052.87 1039.88 2055.42 1042.64 2055.31 1045.92C2053.57 1099.86 2052.3 1132.8 2051.48 1144.73C2052.09 1144.6 2052.73 1144.53 2053.38 1144.53C2058.9 1144.53 2063.38 1149.23 2063.38 1155.03C2063.38 1160.83 2058.9 1165.53 2053.38 1165.53C2052.07 1165.53 2050.82 1165.27 2049.68 1164.79C2048.35 1171.76 2045.1 1176.75 2035.08 1180.11C2030.17 1181.75 2012 1181.22 2008.07 1179.69C2001.28 1177.06 1998.81 1172.09 1997.22 1164.81L1997.13 1164.81L1996.86 1164.81C1991.34 1164.81 1986.86 1160.11 1986.86 1154.31C1986.86 1149.37 1990.11 1145.23 1994.48 1144.11C1992.97 1126.13 1991.08 1093.48 1988.8 1046.18C1988.79 1046.12 1988.79 1046.06 1988.79 1046C1988.73 1042.68 1991.38 1039.95 1994.69 1039.9L2027.83 1039.34Z" fill="white" stroke="black" stroke-width="2.5" stroke-linecap="round" stroke-linejoin="round"/>
<mask id="mask0" mask-type="alpha" maskUnits="userSpaceOnUse" x="1985" y="1038" width="80" height="145">
<path d="M2027.83 1039.34L2049.59 1039.73C2052.87 1039.88 2055.42 1042.64 2055.31 1045.92C2053.57 1099.86 2052.3 1132.8 2051.48 1144.73C2052.09 1144.6 2052.73 1144.53 2053.38 1144.53C2058.9 1144.53 2063.38 1149.23 2063.38 1155.03C2063.38 1160.83 2058.9 1165.53 2053.38 1165.53C2052.07 1165.53 2050.82 1165.27 2049.68 1164.79C2048.35 1171.76 2045.1 1176.75 2035.08 1180.11C2030.17 1181.75 2012 1181.22 2008.07 1179.69C2001.28 1177.06 1998.81 1172.09 1997.22 1164.81L1997.13 1164.81L1996.86 1164.81C1991.34 1164.81 1986.86 1160.11 1986.86 1154.31C1986.86 1149.37 1990.11 1145.23 1994.48 1144.11C1992.97 1126.13 1991.08 1093.48 1988.8 1046.18C1988.79 1046.12 1988.79 1046.06 1988.79 1046C1988.73 1042.68 1991.38 1039.95 1994.69 1039.9L2027.83 1039.34Z" fill="white" stroke="black" stroke-width="2.5" stroke-linecap="round" stroke-linejoin="round"/>
</mask>
<g mask="url(#mask0)">
<path fill-rule="evenodd" clip-rule="evenodd" d="M2058.5 1136.5L2051 1144.5C2045.35 1141.75 2039.18 1139.08 2032.5 1136.5C2025.82 1133.92 2019.48 1131.75 2013.5 1130L1993.5 1144.5L1977 1111.5C1957.56 1046.58 1952.56 1012.58 1962 1009.5C1976.16 1004.88 2070.53 1013.91 2076.5 1023.5C2080.48 1029.89 2074.48 1067.56 2058.5 1136.5Z" fill="black"/>
</g>
<path fill-rule="evenodd" clip-rule="evenodd" d="M2027.37 1149.42C2025.72 1149.48 2024.42 1150.87 2024.48 1152.53L2024.52 1153.53C2024.57 1155.18 2025.96 1156.48 2027.62 1156.42C2029.27 1156.36 2030.57 1154.97 2030.51 1153.32L2030.48 1152.32C2030.42 1150.66 2029.03 1149.37 2027.37 1149.42ZM2004.36 1149.05C2002.71 1149.11 2001.41 1150.5 2001.47 1152.16L2001.5 1153.16C2001.56 1154.81 2002.95 1156.11 2004.61 1156.05C2006.26 1155.99 2007.56 1154.6 2007.5 1152.95L2007.46 1151.95C2007.41 1150.29 2006.02 1149 2004.36 1149.05Z" stroke="black" stroke-width="2" stroke-linecap="round" stroke-linejoin="round"/>
<path d="M2018.77 1165.52C2017.15 1166.91 2015.49 1166.97 2013.77 1165.69" stroke="black" stroke-width="2" stroke-linecap="round" stroke-linejoin="round"/>
<path d="M2016.56 1148.6L2008.96 1162.72L2016.55 1161.11" stroke="black" stroke-width="2" stroke-linecap="round" stroke-linejoin="round"/>
</g>
<defs>
<clipPath id="clip0">
<rect width="2811" height="1999" fill="white"/>
</clipPath>
<clipPath id="clip1">
<path d="M-73 227H1764V1749H-73V227Z" fill="white"/>
</clipPath>
</defs>
</svg>
