<svg width="2811" height="1999" viewBox="0 0 2811 1999" fill="none" xmlns="http://www.w3.org/2000/svg">
<g clip-path="url(#clip0)">
<rect width="2811" height="1999" fill="white"/>
<path d="M2260 618H2111V1640H2260V618Z" fill="#E4EDF6"/>
<path d="M1456 523H1081V1640H1456V523Z" fill="#DFE9F3"/>
<path fill-rule="evenodd" clip-rule="evenodd" d="M659 618L976.09 765.13C1011.41 781.516 1034 816.909 1034 855.84V1640H659V618Z" fill="#DFE9F3"/>
<path fill-rule="evenodd" clip-rule="evenodd" d="M2060 1004L2230.48 781.654C2249.4 756.972 2278.74 742.5 2309.84 742.5H2435V1640H2060V1004Z" fill="#EBF2F9"/>
<path d="M1755 618H1647V1640H1755V618Z" fill="#DFE9F3"/>
<path d="M1755 523H1647V562H1755V523Z" fill="#E0EAF5"/>
<path d="M2114 995H2006V1034H2114V995Z" fill="#DFE9F3"/>
<path d="M2333.5 1158.5V1027.5H2251.5V1158.5H2333.5Z" fill="#E4EDF6"/>
<path d="M2333.5 1640.5V1195.5H2251.5V1640.5H2333.5Z" fill="#E4EDF6"/>
<path d="M1510 723H1402V762H1510V723Z" fill="#EBF2F9"/>
<path d="M1510 618H1402V657H1510V618Z" fill="#EBF2F9"/>
<path d="M1917 762H1701V893H1917V762Z" fill="#EBF2F9"/>
<path d="M1214 376H1164V618H1214V376Z" fill="#EBF2F9"/>
<path d="M1945 995H1701V1640H1945V995Z" fill="#E4EDF6"/>
<path d="M1710 1146H1335V1640H1710V1146Z" fill="#EBF2F9"/>
<path d="M757 1146H600V1640H757V1146Z" fill="#EBF2F9"/>
<path d="M547 1338H480V1640H547V1338Z" fill="#E4EDF6"/>
<path d="M547 1146H480V1244H547V1146Z" fill="#E4EDF6"/>
<path d="M547 954H480V1052H547V954Z" fill="#E4EDF6"/>
<path fill-rule="evenodd" clip-rule="evenodd" d="M991.5 854V1010C991.5 1012.53 990.734 1014.99 989.307 1017.07L989.077 1017.4L922.487 1108.11L922.033 1266.62C951.905 1272.26 974.5 1298.49 974.5 1330C974.5 1365.62 945.622 1394.5 910 1394.5C874.378 1394.5 845.5 1365.62 845.5 1330C845.5 1298.82 867.625 1272.81 897.032 1266.8L897.5 1103.96C897.507 1101.45 898.273 1099 899.694 1096.93L899.923 1096.6L966.5 1005.9V854H991.5ZM910 1290.5C888.185 1290.5 870.5 1308.18 870.5 1330C870.5 1351.82 888.185 1369.5 910 1369.5C931.815 1369.5 949.5 1351.82 949.5 1330C949.5 1308.18 931.815 1290.5 910 1290.5ZM1098 888.479L1098.48 1168.71C1128.13 1174.52 1150.5 1200.65 1150.5 1232C1150.5 1267.62 1121.62 1296.5 1086 1296.5C1050.38 1296.5 1021.5 1267.62 1021.5 1232C1021.5 1200.66 1043.85 1174.54 1073.48 1168.71L1073 888.521L1098 888.479ZM1086 1192.5C1064.18 1192.5 1046.5 1210.18 1046.5 1232C1046.5 1253.82 1064.18 1271.5 1086 1271.5C1107.82 1271.5 1125.5 1253.82 1125.5 1232C1125.5 1210.18 1107.82 1192.5 1086 1192.5ZM1229 854.475L1254 854.525L1253.52 1096.71C1283.15 1102.54 1305.5 1128.66 1305.5 1160C1305.5 1195.62 1276.62 1224.5 1241 1224.5C1205.38 1224.5 1176.5 1195.62 1176.5 1160C1176.5 1128.65 1198.87 1102.52 1228.52 1096.71L1229 854.475ZM1241 1120.5C1219.18 1120.5 1201.5 1138.18 1201.5 1160C1201.5 1181.82 1219.18 1199.5 1241 1199.5C1262.82 1199.5 1280.5 1181.82 1280.5 1160C1280.5 1138.18 1262.82 1120.5 1241 1120.5Z" fill="#EBF2F9"/>
<path fill-rule="evenodd" clip-rule="evenodd" d="M854 868.5L1040.8 956.142C1066.4 968.149 1095.88 968.763 1121.95 957.832L1335 868.5L1121.95 779.168C1095.88 768.237 1066.4 768.851 1040.8 780.858L854 868.5Z" fill="#EBF2F9"/>
<path d="M1081 924C1111.38 924 1136 899.376 1136 869C1136 838.624 1111.38 814 1081 814C1050.62 814 1026 838.624 1026 869C1026 899.376 1050.62 924 1081 924Z" fill="#DFE9F3"/>
<path fill-rule="evenodd" clip-rule="evenodd" d="M1647.13 663.754C1699.16 663.754 1746.69 683.033 1782.96 714.835C1819.69 747.046 1844.87 792.105 1851.48 842.994L1875.4 954.957L2026.9 921.275C2046.18 916.989 2066.35 919.725 2083.79 928.99C2104.01 939.731 2117.96 957.65 2124.17 977.938C2130.38 998.226 2128.85 1020.88 2118.11 1041.1L2107.16 1061.71C2100.58 1074.1 2096.46 1087.65 2095.03 1101.61C2091.97 1131.45 2101.3 1159.71 2118.86 1181.27C2136.41 1202.83 2162.19 1217.69 2192.04 1220.74L2240.34 1225.69C2259.56 1227.66 2277.32 1236.85 2290.02 1251.4C2303.87 1267.27 2309.98 1287.24 2308.66 1306.71C2307.34 1326.19 2298.59 1345.16 2282.73 1359.01L2238.77 1397.38C2235.66 1400.09 2232.71 1402.98 2229.93 1406.03C2209.72 1428.2 2200.41 1456.47 2201.7 1484.24C2202.99 1512.01 2214.87 1539.29 2237.04 1559.5L2294.3 1611.7C2309.95 1625.96 2318.87 1646.15 2318.87 1667.32C2318.87 1688.11 2310.44 1706.92 2296.82 1720.54C2283.2 1734.16 2264.38 1742.59 2243.6 1742.59H1537.04C1536.58 1742.59 1536.12 1742.58 1535.66 1742.58C1506.4 1742.2 1480.07 1729.99 1461.15 1710.57C1442.23 1691.15 1430.71 1664.51 1431.1 1635.25L1441.06 869.8C1441.05 812.901 1464.12 761.388 1501.42 724.101C1538.71 686.816 1590.23 663.754 1647.13 663.754Z" fill="#FF75AA" stroke="black" stroke-width="2.5"/>
<path fill-rule="evenodd" clip-rule="evenodd" d="M1500.57 860.82C1495.74 860.82 1491.82 864.739 1491.82 869.572V873.944C1491.82 878.777 1495.74 882.696 1500.57 882.696C1505.4 882.696 1509.32 878.777 1509.32 873.944V869.572C1509.32 864.739 1505.4 860.82 1500.57 860.82ZM1609.09 860.82C1604.26 860.82 1600.34 864.739 1600.34 869.572V873.944C1600.34 878.777 1604.26 882.696 1609.09 882.696C1613.93 882.696 1617.84 878.777 1617.84 873.944V869.572C1617.84 864.739 1613.93 860.82 1609.09 860.82Z" fill="#FFFFD9" stroke="black" stroke-width="2.5" stroke-linecap="round" stroke-linejoin="round"/>
<path d="M1625.56 842.666L1625.12 842.015C1619.23 833.366 1607.44 831.132 1598.79 837.025C1596.61 838.509 1594.77 840.43 1593.37 842.666" stroke="black" stroke-width="2.5" stroke-linecap="round" stroke-linejoin="round"/>
<path d="M1515.05 842.666L1514.61 842.015C1508.71 833.366 1496.92 831.132 1488.27 837.025C1486.1 838.509 1484.25 840.43 1482.86 842.666" stroke="black" stroke-width="2.5" stroke-linecap="round" stroke-linejoin="round"/>
<path d="M1564.4 889.849C1558.66 895.041 1553.12 897.551 1547.77 897.376C1542.42 897.202 1537.24 894.344 1532.22 888.802" stroke="black" stroke-width="2.5" stroke-linecap="round" stroke-linejoin="round"/>
<path fill-rule="evenodd" clip-rule="evenodd" d="M1192.68 1538.74L1269.67 1685.37L1332.21 1696.66C1336.99 1697.52 1340.48 1701.66 1340.52 1706.51C1340.57 1711.34 1337.11 1715.49 1332.35 1716.31L1226.92 1734.58C1222.18 1735.41 1217.53 1732.74 1215.84 1728.23L1198.28 1681.22C1197.27 1678.53 1194.5 1676.93 1191.67 1677.41C1188.94 1677.86 1187.04 1680.38 1187.36 1683.13L1192.89 1730.69C1193.5 1735.98 1189.86 1740.83 1184.6 1741.7L1175.64 1743.2C1171.02 1743.97 1166.48 1741.43 1164.72 1737.08L1091.39 1555.66L1192.68 1538.74ZM510.797 1395.72L705.942 1397.53L689.103 1490.38L523.123 1511.67L490.944 1566.88C488.586 1570.93 483.738 1572.8 479.274 1571.39C474.901 1570 472.225 1565.59 473.012 1561.07L491.508 1454.85C492.347 1450.03 496.547 1446.53 501.436 1446.56L551.246 1446.94C554.107 1446.96 556.571 1444.93 557.093 1442.12C557.601 1439.38 555.901 1436.72 553.205 1436.03L506.61 1424.13C501.508 1422.83 498.291 1417.79 499.252 1412.62L500.872 1403.89C501.758 1399.12 505.943 1395.67 510.797 1395.72Z" fill="black"/>
<path fill-rule="evenodd" clip-rule="evenodd" d="M1127.28 1369.85C1129.14 1372.92 1130.83 1376.09 1132.34 1379.35L1233.93 1598.11L1106.49 1643.55L1029.56 1421.44L936.655 1280.02L865.715 1438.16C858.327 1454.63 846.741 1468.42 832.502 1478.46C818.263 1488.49 801.373 1494.77 783.379 1496.18L582.243 1512.05L590.615 1397.65L752.501 1385.54L864.977 1185.27C872.61 1171.68 883.74 1160.81 896.855 1153.51C909.97 1146.21 925.07 1142.47 940.643 1143.14C972.726 1144.52 1001.86 1162.43 1127.28 1369.85Z" fill="#66EC36" stroke="black" stroke-width="2.5"/>
<path fill-rule="evenodd" clip-rule="evenodd" d="M935.307 1281.7L943.961 1264.78C986.297 1347.76 1003.17 1382.55 994.583 1369.14C983.34 1351.58 963.582 1322.44 935.307 1281.7Z" fill="black"/>
<g clip-path="url(#clip1)">
<path fill-rule="evenodd" clip-rule="evenodd" d="M987.139 1044.88C999.764 1045.52 1016.06 1047.43 1036.04 1050.61C1083.86 1058.24 1107.65 1062.09 1107.4 1062.17L1120.47 942.391C1121.83 929.898 1131.09 919.705 1143.39 917.145C1160.77 913.527 1175.9 912.167 1188.77 913.064C1204.73 914.178 1232.29 912.304 1271.45 907.445C1278.2 906.606 1284.36 911.402 1285.2 918.156C1285.25 918.563 1285.28 918.972 1285.29 919.382C1285.47 927.086 1279.67 933.623 1272 934.359L1244.58 936.99C1220.44 939.306 1200.94 957.695 1197.21 981.659L1177.56 1108.14C1175.18 1123.42 1160.87 1133.88 1145.59 1131.51C1145.46 1131.49 1145.33 1131.47 1145.2 1131.44L975.842 1102.66C962.162 1100.34 952.542 1087.92 953.706 1074.1C955.15 1056.94 969.94 1044.01 987.139 1044.88Z" fill="white" stroke="black" stroke-width="2.5" stroke-linecap="round" stroke-linejoin="round"/>
<path fill-rule="evenodd" clip-rule="evenodd" d="M1159.91 914.404C1159.92 914.402 1187.25 908.593 1241.91 896.976C1249.3 895.953 1256.21 900.917 1257.37 908.082C1258.52 915.208 1253.5 921.834 1246.16 922.883C1246.14 922.885 1246.12 922.888 1246.1 922.89L1201.55 933.163" fill="white"/>
<path d="M1159.91 914.404C1159.92 914.402 1187.25 908.593 1241.91 896.976C1249.3 895.953 1256.21 900.917 1257.37 908.082C1258.52 915.208 1253.5 921.834 1246.16 922.883C1246.14 922.885 1246.12 922.888 1246.1 922.89L1201.55 933.163" stroke="black" stroke-width="2.5" stroke-linecap="round" stroke-linejoin="round"/>
<path fill-rule="evenodd" clip-rule="evenodd" d="M973.909 1043.27C981.778 1044.32 988.477 1048.46 992.946 1054.3C997.415 1060.15 999.654 1067.7 998.604 1075.57C998.493 1076.4 998.346 1077.22 998.164 1078.04L991.812 1106.45C989.129 1118.46 982.035 1128.4 972.571 1134.89C963.108 1141.38 951.274 1144.41 939.11 1142.59C926.828 1140.75 916.233 1134.43 908.844 1125.46C901.455 1116.49 897.274 1104.87 897.821 1092.47L899.024 1065.21C899.374 1057.27 902.905 1050.24 908.332 1045.27C913.759 1040.3 921.082 1037.4 929.013 1037.75C929.547 1037.77 930.081 1037.81 930.613 1037.87L941.866 1038.99L973.909 1043.27Z" fill="#FF75AA" stroke="black" stroke-width="2.5"/>
<path d="M1239.87 924.074C1243.85 915.097 1249.52 910.88 1256.87 911.425" stroke="black" stroke-width="2.5" stroke-linecap="round" stroke-linejoin="round"/>
<path d="M1266.66 934.786C1270.65 925.809 1276.31 921.592 1283.66 922.137" stroke="black" stroke-width="2.5" stroke-linecap="round" stroke-linejoin="round"/>
<path fill-rule="evenodd" clip-rule="evenodd" d="M768.18 1231L779.466 1256.69C782.773 1264.22 779.35 1273.01 771.82 1276.31C771.802 1276.32 771.784 1276.33 771.767 1276.34C764.185 1279.63 755.367 1276.18 752.043 1268.61L740.757 1242.92C737.45 1235.39 740.873 1226.6 748.403 1223.29C748.421 1223.28 748.438 1223.28 748.456 1223.27C756.038 1219.97 764.856 1223.43 768.18 1231Z" fill="white" stroke="black" stroke-width="2.5" stroke-linecap="round" stroke-linejoin="round"/>
<path fill-rule="evenodd" clip-rule="evenodd" d="M737.709 1308.48C730.142 1307.32 724.945 1300.25 726.101 1292.68C726.16 1292.3 726.235 1291.91 726.326 1291.53L726.678 1290.08L726.123 1292.04C723.85 1300.09 715.541 1304.84 707.45 1302.7C700.059 1300.75 695.451 1293.55 696.574 1286.17C693.327 1290.71 687.534 1293.06 681.775 1291.66C681.644 1291.63 681.513 1291.6 681.383 1291.56C673.589 1289.43 668.907 1281.48 670.816 1273.63L677.934 1244.35C677.907 1244.32 677.88 1244.29 677.853 1244.26L678.71 1241.17L680.264 1234.77C680.499 1233.8 680.828 1232.88 681.238 1232.02L705.092 1145.83C713.156 1116.69 735.023 1093.38 763.585 1083.46L897.472 1036.98C911.645 1032.06 927.129 1039.51 932.117 1053.66C937.175 1068.01 930.13 1083.81 916.077 1089.63L787.41 1142.94L767.189 1249.24C767.164 1249.67 767.118 1250.11 767.052 1250.55C766.993 1250.93 766.918 1251.32 766.826 1251.69L756.148 1296.09C754.153 1304.38 746.14 1309.77 737.709 1308.48Z" fill="white" stroke="black" stroke-width="2.5" stroke-linecap="round" stroke-linejoin="round"/>
<path d="M787.41 1142.94L790.641 1125.83" stroke="black" stroke-width="2.5" stroke-linecap="round" stroke-linejoin="round"/>
</g>
<path fill-rule="evenodd" clip-rule="evenodd" d="M947.823 845.482C965.14 847.155 977.821 862.549 976.149 879.865C974.994 891.814 967.307 901.556 956.963 905.898C969.84 910.852 978.379 923.924 976.987 938.327C975.315 955.643 959.921 968.325 942.605 966.652C925.288 964.979 912.607 949.586 914.279 932.269C915.433 920.32 923.121 910.578 933.465 906.237C920.588 901.283 912.049 888.21 913.44 873.808C915.113 856.491 930.507 843.81 947.823 845.482Z" fill="black"/>
<path fill-rule="evenodd" clip-rule="evenodd" d="M959.292 1036.91L959.399 1008.89L930.933 1001.91L925.316 1037.97C930.274 1040.1 936.488 1041.25 943.959 1041.42C951.431 1041.58 956.542 1040.08 959.292 1036.91Z" fill="white" stroke="black" stroke-width="2.5" stroke-linecap="round"/>
<path fill-rule="evenodd" clip-rule="evenodd" d="M959.362 1034.28L935.589 1010.82L959.774 1011.09L959.362 1034.28Z" fill="black"/>
<path d="M946.473 963.007C931.623 971.264 923.015 979.283 920.648 987.063C920.131 986.943 919.597 986.863 919.049 986.83C913.537 986.491 908.78 990.908 908.424 996.696C908.068 1002.48 912.248 1007.45 917.761 1007.79C919.358 1007.89 920.893 1007.59 922.275 1006.97C926.087 1015.39 933.749 1022.01 943.562 1024.19C957.413 1027.27 967.669 1020.43 972.699 1008.5C972.98 1008.54 973.266 1008.57 973.556 1008.59C979.069 1008.93 983.826 1004.51 984.181 998.721C984.517 993.267 980.825 988.543 975.787 987.731C974.436 981.177 969.617 976.845 960.875 969.924C958.054 967.691 953.254 965.386 946.473 963.007Z" fill="white"/>
<path d="M946.473 963.007C931.623 971.264 923.015 979.283 920.648 987.063C920.131 986.943 919.597 986.863 919.049 986.83C913.537 986.491 908.78 990.908 908.424 996.696C908.068 1002.48 912.248 1007.45 917.761 1007.79C919.358 1007.89 920.893 1007.59 922.275 1006.97C926.087 1015.39 933.749 1022.01 943.562 1024.19C957.413 1027.27 967.669 1020.43 972.699 1008.5C972.98 1008.54 973.266 1008.57 973.556 1008.59C979.069 1008.93 983.826 1004.51 984.181 998.721C984.517 993.267 980.825 988.543 975.787 987.731C974.436 981.177 969.617 976.845 960.875 969.924C958.054 967.691 953.254 965.386 946.473 963.007Z" fill="white" stroke="black" stroke-width="2.5" stroke-linejoin="round"/>
<mask id="mask0" mask-type="alpha" maskUnits="userSpaceOnUse" x="907" y="961" width="79" height="66">
<path d="M946.473 963.007C931.623 971.264 923.015 979.283 920.648 987.063C920.131 986.943 919.597 986.863 919.049 986.83C913.537 986.491 908.78 990.908 908.424 996.696C908.068 1002.48 912.248 1007.45 917.761 1007.79C919.358 1007.89 920.893 1007.59 922.275 1006.97C926.087 1015.39 933.749 1022.01 943.562 1024.19C957.413 1027.27 967.669 1020.43 972.699 1008.5C972.98 1008.54 973.266 1008.57 973.556 1008.59C979.069 1008.93 983.826 1004.51 984.181 998.721C984.517 993.267 980.825 988.543 975.787 987.731C974.436 981.177 969.617 976.845 960.875 969.924C958.054 967.691 953.254 965.386 946.473 963.007Z" fill="white" stroke="black" stroke-width="2.5" stroke-linejoin="round"/>
</mask>
<g mask="url(#mask0)">
<path fill-rule="evenodd" clip-rule="evenodd" d="M923.397 976.131L919.504 983.047L920.473 986.556L958.794 980.687L976.47 987.062C980.951 971.97 978.434 963.006 968.919 960.168C954.647 955.911 934.435 948.646 928.717 958.385C924.904 964.878 923.131 970.794 923.397 976.131Z" fill="black"/>
</g>
<path fill-rule="evenodd" clip-rule="evenodd" d="M944.233 994.779C945.882 994.938 947.09 996.405 946.931 998.054L946.835 999.049C946.675 1000.7 945.209 1001.91 943.56 1001.75C941.911 1001.59 940.703 1000.12 940.863 998.472L940.959 997.477C941.118 995.828 942.584 994.62 944.233 994.779ZM965.232 995.803C966.881 995.962 968.089 997.428 967.93 999.078L967.834 1000.07C967.674 1001.72 966.208 1002.93 964.559 1002.77C962.91 1002.61 961.702 1001.15 961.861 999.496L961.958 998.501C962.117 996.851 963.583 995.644 965.232 995.803Z" stroke="black" stroke-width="2" stroke-linecap="round" stroke-linejoin="round"/>
<path d="M952.937 1008.68C954.468 1010.17 956.127 1010.33 957.914 1009.16" stroke="black" stroke-width="2" stroke-linecap="round" stroke-linejoin="round"/>
<path d="M956.37 993.942L958.299 1005.18L955.312 1004.89" stroke="black" stroke-width="2" stroke-linecap="round" stroke-linejoin="round"/>
<path fill-rule="evenodd" clip-rule="evenodd" d="M1169.65 703.421C1165.19 705.337 1161.79 709.089 1160.31 713.708C1153.05 736.424 1147.13 751.725 1142.58 759.624C1137.89 767.779 1129.47 777.082 1117.3 787.51L1116.62 788.085C1112.05 791.978 1109.48 797.355 1109.03 802.904C1108.59 808.452 1110.25 814.171 1114.15 818.746C1115.03 819.786 1116.01 820.74 1117.07 821.597C1130.8 832.643 1139.27 840.91 1142.57 846.353C1151.59 861.251 1159.81 875.961 1167.24 890.483L1168.35 892.658C1169.94 895.8 1172.66 897.998 1175.76 899.013C1178.86 900.028 1182.35 899.86 1185.49 898.268C1188.05 896.972 1190.09 894.852 1191.29 892.251C1202.31 868.46 1209.37 854.311 1212.47 849.793C1215.55 845.296 1224.76 835.666 1240.11 820.922L1240.64 820.415C1244.97 816.257 1247.21 810.736 1247.33 805.171C1247.44 799.606 1245.44 793.996 1240.94 789.312C1227.4 775.823 1217.91 764.598 1212.43 755.652C1207.81 748.1 1201 733.879 1191.99 712.985L1191.65 712.191C1189.83 707.942 1186.45 704.836 1182.47 703.249C1178.48 701.662 1173.9 701.594 1169.65 703.421Z" fill="#5E69FF" stroke="black" stroke-width="2.5"/>
<path fill-rule="evenodd" clip-rule="evenodd" d="M1167 786C1169.14 786 1170.89 787.684 1170.99 789.8L1171 790L1171 797C1171 799.209 1169.21 801 1167 801C1164.86 801 1163.11 799.316 1163 797.2L1163 797L1163 790C1163 787.791 1164.79 786 1167 786ZM1195 786C1197.14 786 1198.89 787.684 1198.99 789.8L1199 790L1199 797C1199 799.209 1197.21 801 1195 801C1192.79 801 1191 799.209 1191 797V797L1191 790C1191 787.791 1192.79 786 1195 786Z" fill="#FFFFD9" stroke="black" stroke-width="2.5" stroke-linecap="round" stroke-linejoin="round"/>
<path d="M1160 773H1160.19C1171.79 773 1181.19 782.402 1181.19 794V797.946L1211 820H1183.7" stroke="black" stroke-width="2.5" stroke-linecap="round" stroke-linejoin="round"/>
<path fill-rule="evenodd" clip-rule="evenodd" d="M1956.5 1527L1956.56 1705L2018.33 1723.8C2023.22 1725.29 2026.55 1729.8 2026.53 1734.9C2026.51 1739.66 2022.66 1743.5 2017.9 1743.5L1859.4 1743.59C1853.87 1743.59 1849.4 1739.12 1849.39 1733.6C1849.39 1733.33 1849.4 1733.06 1849.42 1732.79L1865.15 1536.6L1956.5 1527ZM1750.49 1500.22L1789.27 1636.96C1790.95 1642.85 1789.67 1649.2 1785.85 1653.99L1718.19 1738.82C1714.57 1743.36 1708.32 1744.85 1703.04 1742.43C1697.75 1740.01 1694.78 1734.31 1695.81 1728.59L1706.7 1668.06L1682.94 1525.8L1750.49 1500.22Z" fill="black"/>
<path fill-rule="evenodd" clip-rule="evenodd" d="M1905.97 1136.3L1954.15 1400.84C1955.21 1406.68 1955.75 1412.6 1955.75 1418.53V1667.25H1856.29L1864.25 1422.91L1829.12 1227.68L1819.98 1222.8L1733.68 1387.33L1775.1 1566.51L1691.23 1632.83L1637.17 1423.95C1631.15 1400.68 1633.82 1376.01 1644.68 1354.57L1751.79 1143.22L1905.97 1136.3Z" fill="#57EFFF" stroke="black" stroke-width="2.5"/>
<g clip-path="url(#clip2)">
<path fill-rule="evenodd" clip-rule="evenodd" d="M1441.44 940.266C1433.2 941.458 1427.49 949.106 1428.68 957.348C1428.7 957.518 1428.73 957.688 1428.76 957.857L1434 987L1436.92 1001.53L1399.55 982.893L1387.45 956.216C1383.33 947.137 1372.72 942.999 1363.55 946.893C1355.24 950.416 1351.36 960.005 1354.89 968.31C1355.08 968.774 1355.3 969.23 1355.54 969.674L1369.69 995.95C1374.33 1004.57 1381.55 1011.53 1390.34 1015.85L1413.7 1027.33L1411.94 1031.55L1355.68 1002.58C1347.47 998.349 1337.4 1001.43 1332.95 1009.52C1328.66 1017.33 1331.51 1027.15 1339.32 1031.44C1339.45 1031.51 1339.58 1031.58 1339.71 1031.64L1399.09 1062.24L1398.24 1064.28L1340.62 1037.58C1332.52 1033.83 1322.91 1037.13 1318.82 1045.06C1314.95 1052.58 1317.91 1061.81 1325.42 1065.68C1325.61 1065.78 1325.8 1065.87 1326 1065.96L1428.16 1113.29L1561.95 1179.84C1603.89 1200.7 1654.81 1184.62 1677.16 1143.45L1733.53 1039.62C1744.58 1019.26 1737.03 993.804 1716.68 982.754C1713.95 981.27 1711.06 980.095 1708.06 979.25L1700.74 977.183C1675.94 970.186 1649.66 981.457 1637.61 1004.15L1637.25 1004.84C1611.36 1055.32 1598.27 1080.98 1597.99 1081.81L1597.99 1081.83L1469.6 1002.54C1469.26 998.9 1468.71 995.279 1467.97 991.695L1460.04 953.312C1458.27 944.728 1450.12 939.011 1441.44 940.266Z" fill="white" stroke="black" stroke-width="2.5" stroke-linecap="round" stroke-linejoin="round"/>
<path fill-rule="evenodd" clip-rule="evenodd" d="M1911.35 1006.8C1921.31 989.873 1941.48 981.865 1960.34 987.354L1962.8 988.072C1984.14 994.283 2000.48 1011.49 2005.59 1033.11L2030.39 1138C2036.04 1161.89 2032.71 1187.02 2021.03 1208.6L1954.41 1331.72L1951.4 1341.9L1930.77 1440.5C1930.72 1440.71 1930.67 1440.92 1930.62 1441.12C1928.61 1449.01 1920.58 1453.78 1912.69 1451.77C1904.34 1449.64 1899.16 1441.32 1900.92 1432.89L1915.41 1363.65L1914.38 1363.4L1896.75 1433.02C1896.71 1433.16 1896.67 1433.31 1896.63 1433.45C1894.29 1441.71 1885.69 1446.51 1877.42 1444.17C1868.85 1441.74 1863.77 1432.93 1865.96 1424.29L1883.3 1355.83L1881.52 1355.39L1864.57 1422.67C1864.53 1422.83 1864.49 1422.99 1864.45 1423.14C1862.1 1431.38 1853.51 1436.15 1845.27 1433.8C1836.69 1431.36 1831.61 1422.54 1833.79 1413.89L1850.43 1347.82L1850.19 1347.76L1851.2 1344.75L1852.85 1338.19L1828.38 1364.53L1828.34 1364.58C1821.9 1371.46 1811.11 1371.81 1804.23 1365.37C1797.31 1358.9 1796.93 1348.06 1803.38 1341.13L1876.11 1262.83L1881.37 1254.89L1881.5 1254.5L1881.62 1254.51L1939.5 1167L1905.26 1067.15C1898.38 1047.11 1900.61 1025.06 1911.35 1006.8Z" fill="white" stroke="black" stroke-width="2.5" stroke-linecap="round" stroke-linejoin="round"/>
<path fill-rule="evenodd" clip-rule="evenodd" d="M1903.72 1032.8L1906.72 1142.75L1749.56 1142.75L1731.37 1032.69L1616.34 1034.13C1623.16 988.858 1641.92 956.49 1672.71 937.104C1703.91 917.457 1747.4 911.143 1803.13 918.026C1814.41 919.419 1831.73 919.247 1846.1 918.157C1895.76 914.39 1934.43 921.807 1962.07 940.527C1989.33 958.986 2005.8 988.433 2011.57 1028.8L1903.72 1032.8Z" fill="#FFE13D" stroke="black" stroke-width="2.5"/>
</g>
<path fill-rule="evenodd" clip-rule="evenodd" d="M1795 920.385L1797.74 898.298L1831.71 892.893L1835.5 918.506C1829.24 926.801 1821.94 930.731 1813.62 930.295C1805.3 929.858 1799.09 926.555 1795 920.385Z" fill="white" stroke="black" stroke-width="2.5" stroke-linecap="round" stroke-linejoin="round"/>
<path fill-rule="evenodd" clip-rule="evenodd" d="M1794.94 921.694L1822.9 903.823L1795.95 898.517L1794.94 921.694Z" fill="black"/>
<path d="M1786 853.993L1829.68 854.26C1832.61 854.277 1835.09 856.405 1835.56 859.294C1836.51 865.076 1836.81 870.886 1836.47 876.723C1837.09 876.599 1837.72 876.533 1838.38 876.533C1843.9 876.533 1848.38 881.234 1848.38 887.033C1848.38 892.832 1843.9 897.533 1838.38 897.533C1837.07 897.533 1835.82 897.27 1834.68 896.791C1833.35 903.756 1830.1 908.755 1820.08 912.108C1815.17 913.753 1797 913.216 1793.07 911.693C1786.28 909.062 1783.81 904.094 1782.22 896.806L1782.13 896.809L1781.86 896.813C1776.34 896.813 1771.86 892.112 1771.86 886.313C1771.86 881.326 1775.17 877.151 1779.61 876.08C1779.4 870.752 1779.52 865.229 1779.98 859.512C1780.24 856.381 1782.86 853.974 1786 853.993Z" fill="white"/>
<path d="M1786 853.993L1829.68 854.26C1832.61 854.277 1835.09 856.405 1835.56 859.294C1836.51 865.076 1836.81 870.886 1836.47 876.723C1837.09 876.599 1837.72 876.533 1838.38 876.533C1843.9 876.533 1848.38 881.234 1848.38 887.033C1848.38 892.832 1843.9 897.533 1838.38 897.533C1837.07 897.533 1835.82 897.27 1834.68 896.791C1833.35 903.756 1830.1 908.755 1820.08 912.108C1815.17 913.753 1797 913.216 1793.07 911.693C1786.28 909.062 1783.81 904.094 1782.22 896.806L1782.13 896.809L1781.86 896.813C1776.34 896.813 1771.86 892.112 1771.86 886.313C1771.86 881.326 1775.17 877.151 1779.61 876.08C1779.4 870.752 1779.52 865.229 1779.98 859.512C1780.24 856.381 1782.86 853.974 1786 853.993Z" fill="white" stroke="black" stroke-width="2.5" stroke-linecap="round" stroke-linejoin="round"/>
<mask id="mask1" mask-type="alpha" maskUnits="userSpaceOnUse" x="1770" y="852" width="80" height="63">
<path d="M1786 853.993L1829.68 854.259C1832.61 854.277 1835.09 856.405 1835.56 859.294C1836.51 865.076 1836.81 870.886 1836.47 876.723C1837.09 876.598 1837.72 876.533 1838.38 876.533C1843.9 876.533 1848.38 881.234 1848.38 887.033C1848.38 892.832 1843.9 897.533 1838.38 897.533C1837.07 897.533 1835.82 897.269 1834.68 896.791C1833.35 903.756 1830.1 908.755 1820.08 912.108C1815.17 913.753 1797 913.216 1793.07 911.693C1786.28 909.062 1783.81 904.094 1782.22 896.806L1782.13 896.809L1781.86 896.813C1776.34 896.813 1771.86 892.112 1771.86 886.313C1771.86 881.326 1775.17 877.151 1779.61 876.08C1779.4 870.751 1779.52 865.228 1779.98 859.512C1780.24 856.381 1782.86 853.974 1786 853.993Z" fill="white" stroke="black" stroke-width="2.5" stroke-linecap="round" stroke-linejoin="round"/>
</mask>
<g mask="url(#mask1)">
<path fill-rule="evenodd" clip-rule="evenodd" d="M1840.23 867.774L1778.48 866.508C1776.89 854.092 1780.81 846.343 1790.25 843.26C1804.4 838.635 1824.42 830.849 1830.39 840.438C1834.37 846.83 1837.65 855.942 1840.23 867.774Z" fill="black"/>
</g>
<path fill-rule="evenodd" clip-rule="evenodd" d="M1812.37 881.424C1810.72 881.482 1809.42 882.871 1809.48 884.527L1809.52 885.526C1809.57 887.182 1810.96 888.477 1812.62 888.42C1814.27 888.362 1815.57 886.972 1815.51 885.317L1815.48 884.317C1815.42 882.661 1814.03 881.366 1812.37 881.424ZM1789.36 881.053C1787.71 881.111 1786.41 882.5 1786.47 884.156L1786.5 885.155C1786.56 886.811 1787.95 888.107 1789.61 888.049C1791.26 887.991 1792.56 886.602 1792.5 884.946L1792.46 883.946C1792.41 882.291 1791.02 880.995 1789.36 881.053Z" stroke="black" stroke-width="2" stroke-linecap="round" stroke-linejoin="round"/>
<path d="M1803.77 897.518C1802.15 898.909 1800.49 898.967 1798.77 897.693" stroke="black" stroke-width="2" stroke-linecap="round" stroke-linejoin="round"/>
<path d="M1801.56 880.595L1793.96 894.717L1801.55 893.112" stroke="black" stroke-width="2" stroke-linecap="round" stroke-linejoin="round"/>
</g>
<defs>
<clipPath id="clip0">
<rect width="2811" height="1999" fill="white"/>
</clipPath>
<clipPath id="clip1">
<path d="M417.781 618L1605.73 628.731L1592.95 2043.67L405 2032.94L417.781 618Z" fill="white"/>
</clipPath>
<clipPath id="clip2">
<path d="M1275 543H2455V1958H1275V543Z" fill="white"/>
</clipPath>
</defs>
</svg>
