<svg width="2811" height="1999" viewBox="0 0 2811 1999" fill="none" xmlns="http://www.w3.org/2000/svg">
<g clip-path="url(#clip0)">
<rect width="2811" height="1999" fill="white"/>
<path fill-rule="evenodd" clip-rule="evenodd" d="M1395.2 504C1465.41 504 1522.33 560.906 1522.33 631.103C1522.33 633.908 1522.24 636.692 1522.06 639.453L1522.33 639.452L1522.33 805.521L1522.74 805.521C1524.93 817.654 1535.54 826.859 1548.31 826.859C1561.07 826.859 1571.69 817.654 1573.88 805.521L1577.67 805.521C1575.48 799.437 1574.29 792.877 1574.29 786.038C1574.29 754.27 1600.05 728.517 1631.82 728.517C1663.59 728.517 1689.35 754.27 1689.35 786.038C1689.35 787.285 1689.31 788.522 1689.23 789.749L1689.35 789.749V892C1689.35 935.594 1661.46 972.673 1622.54 986.36L1622.54 992L1522.33 991.999L1522.33 992H1268.08L1268.08 991.999H1216.11L1216.11 992H1101.05L1101.05 991.999L973 992L973.118 873H1039L1039.3 862.187C1045.7 866.811 1053.57 869.536 1062.08 869.536C1083.6 869.536 1101.05 852.091 1101.05 830.57C1101.05 830.156 1101.05 829.742 1101.03 829.331L1101.01 828.715L1101.05 828.715L1101.05 708.714V708.714L1101.05 691.407L1101.17 691.407C1101.09 690.18 1101.05 688.943 1101.05 687.696C1101.05 655.928 1126.81 630.175 1158.58 630.175C1190.36 630.175 1216.11 655.928 1216.11 687.696C1216.11 688.943 1216.07 690.18 1216 691.407L1216.11 691.407V737.795L1216.18 737.795C1216.14 738.408 1216.11 739.026 1216.11 739.65C1216.11 753.997 1227.75 765.627 1242.1 765.627C1256.45 765.627 1268.08 753.997 1268.08 739.65C1268.08 739.234 1268.07 738.821 1268.05 738.41L1268.01 737.795L1268.08 737.795V639.452L1268.35 639.453C1268.17 636.692 1268.08 633.908 1268.08 631.103C1268.08 560.906 1324.99 504 1395.2 504Z" fill="#E4EDF6"/>
<path d="M2116 690H1915V1056H2116V690Z" fill="#E4EDF6"/>
<path fill-rule="evenodd" clip-rule="evenodd" d="M2097.98 395H1941.09L1758.07 698.131C1754.93 703.332 1756.6 710.093 1761.81 713.233C1763.52 714.269 1765.49 714.816 1767.49 714.816C1781.73 714.816 1795.96 714.816 1810.2 714.816C1815.69 714.816 1825.96 708.057 1841.01 694.54C1845 690.954 1851.11 691.158 1854.86 695.001C1867.72 708.211 1878.52 714.816 1887.25 714.816C1896.09 714.816 1908.24 708.026 1923.68 694.446C1927.67 690.937 1933.71 691.162 1937.43 694.959C1950.4 708.197 1961.83 714.816 1971.73 714.816C1981.74 714.816 1994.02 708.04 2008.58 694.488C2012.4 690.928 2018.32 690.911 2022.17 694.449C2036.92 708.027 2049.5 714.816 2059.92 714.816C2070.28 714.816 2082.33 708.097 2096.05 694.658C2099.8 690.989 2105.74 690.838 2109.67 694.312C2125.13 707.982 2136.7 714.816 2144.39 714.816C2153.98 714.816 2166.9 707.829 2183.16 693.854C2187.01 690.548 2192.72 690.646 2196.45 694.08C2209.98 706.539 2220.17 713.451 2227.01 714.816C2232.98 716.008 2244.32 716.3 2261.03 715.692C2267.1 715.471 2271.85 710.371 2271.63 704.3C2271.56 702.537 2271.08 700.816 2270.21 699.281L2097.98 395Z" fill="#DFE9F3"/>
<path fill-rule="evenodd" clip-rule="evenodd" d="M2006.42 201.634L1845.56 480.111C1842.52 485.372 1844.32 492.1 1849.58 495.138C1849.74 495.229 1849.9 495.316 1850.06 495.399C1861.23 501.133 1870.77 504 1878.66 504C1887.56 504 1899.05 497.246 1913.14 483.739C1916.73 480.29 1922.32 480.015 1926.24 483.094C1943.97 497.031 1957.96 504 1968.2 504C1978.44 504 1991.88 497.042 2008.53 483.126C2012.27 480.001 2017.71 480.025 2021.42 483.183C2037.73 497.061 2051.19 504 2061.81 504C2072.36 504 2085.7 497.163 2101.84 483.49V483.49C2105.71 480.212 2111.42 480.35 2115.13 483.811C2129.55 497.27 2140.6 504 2148.3 504C2155.3 504 2165.3 501.001 2178.29 495.004C2183.8 492.458 2186.21 485.922 2183.66 480.406C2183.53 480.128 2183.39 479.854 2183.24 479.587L2025.51 201.706C2022.51 196.423 2015.8 194.571 2010.51 197.57C2008.81 198.536 2007.4 199.939 2006.42 201.634Z" fill="#EBF2F9"/>
<path fill-rule="evenodd" clip-rule="evenodd" d="M546.491 878H2208.89L2394 912V1496.5L2360.5 1528V1624L524.5 1597.5V1528L485.5 1496.5V889.5L546.491 878Z" fill="#DFE9F3"/>
<mask id="mask0" mask-type="alpha" maskUnits="userSpaceOnUse" x="444" y="847" width="1990" height="793">
<path d="M1387.5 1555C1410.97 1555 1430 1574.03 1430 1597.5C1430 1620.97 1410.97 1640 1387.5 1640H1015.5C992.028 1640 973 1620.97 973 1597.5C973 1574.03 992.028 1555 1015.5 1555H1387.5ZM915.5 1555C938.972 1555 958 1574.03 958 1597.5C958 1620.97 938.972 1640 915.5 1640H543.5C520.028 1640 501 1620.97 501 1597.5C501 1574.03 520.028 1555 543.5 1555H915.5ZM1862.5 1555C1885.97 1555 1905 1574.03 1905 1597.5C1905 1620.97 1885.97 1640 1862.5 1640H1490.5C1467.03 1640 1448 1620.97 1448 1597.5C1448 1574.03 1467.03 1555 1490.5 1555H1862.5ZM2334.5 1555C2357.97 1555 2377 1574.03 2377 1597.5C2377 1620.97 2357.97 1640 2334.5 1640H1962.5C1939.03 1640 1920 1620.97 1920 1597.5C1920 1574.03 1939.03 1555 1962.5 1555H2334.5ZM1152.5 1454C1175.97 1454 1195 1473.03 1195 1496.5C1195 1519.97 1175.97 1539 1152.5 1539H780.5C757.028 1539 738 1519.97 738 1496.5C738 1473.03 757.028 1454 780.5 1454H1152.5ZM679.5 1454C702.972 1454 722 1473.03 722 1496.5C722 1519.97 702.972 1539 679.5 1539H486.5C463.028 1539 444 1519.97 444 1496.5C444 1473.03 463.028 1454 486.5 1454H679.5ZM1625.5 1454C1648.97 1454 1668 1473.03 1668 1496.5C1668 1519.74 1649.35 1538.62 1626.2 1538.99L1625.5 1539H1253.5C1230.03 1539 1211 1519.97 1211 1496.5C1211 1473.03 1230.03 1454 1253.5 1454H1625.5ZM2097.5 1454C2120.97 1454 2140 1473.03 2140 1496.5C2140 1519.97 2120.97 1539 2097.5 1539H1725.5C1702.03 1539 1683 1519.97 1683 1496.5C1683 1473.03 1702.03 1454 1725.5 1454H2097.5ZM2391.5 1454C2414.97 1454 2434 1473.03 2434 1496.5C2434 1519.97 2414.97 1539 2391.5 1539H2198.5C2175.03 1539 2156 1519.97 2156 1496.5C2156 1473.03 2175.03 1454 2198.5 1454H2391.5ZM1387.5 1352C1410.97 1352 1430 1371.03 1430 1394.5C1430 1417.97 1410.97 1437 1387.5 1437H1015.5C992.028 1437 973 1417.97 973 1394.5C973 1371.03 992.028 1352 1015.5 1352H1387.5ZM915.5 1352C938.972 1352 958 1371.03 958 1394.5C958 1417.97 938.972 1437 915.5 1437H543.5C520.028 1437 501 1417.97 501 1394.5C501 1371.03 520.028 1352 543.5 1352H915.5ZM1862.5 1352C1885.97 1352 1905 1371.03 1905 1394.5C1905 1417.97 1885.97 1437 1862.5 1437H1490.5C1467.03 1437 1448 1417.97 1448 1394.5C1448 1371.03 1467.03 1352 1490.5 1352H1862.5ZM2334.5 1352C2357.97 1352 2377 1371.03 2377 1394.5C2377 1417.97 2357.97 1437 2334.5 1437H1962.5C1939.03 1437 1920 1417.97 1920 1394.5C1920 1371.03 1939.03 1352 1962.5 1352H2334.5ZM1152.5 1252C1175.97 1252 1195 1271.03 1195 1294.5C1195 1317.97 1175.97 1337 1152.5 1337H780.5C757.028 1337 738 1317.97 738 1294.5C738 1271.03 757.028 1252 780.5 1252H1152.5ZM679.5 1252C702.972 1252 722 1271.03 722 1294.5C722 1317.97 702.972 1337 679.5 1337H486.5C463.028 1337 444 1317.97 444 1294.5C444 1271.03 463.028 1252 486.5 1252H679.5ZM1625.5 1252C1648.97 1252 1668 1271.03 1668 1294.5C1668 1317.74 1649.35 1336.62 1626.2 1336.99L1625.5 1337H1253.5C1230.03 1337 1211 1317.97 1211 1294.5C1211 1271.03 1230.03 1252 1253.5 1252H1625.5ZM2097.5 1252C2120.97 1252 2140 1271.03 2140 1294.5C2140 1317.97 2120.97 1337 2097.5 1337H1725.5C1702.03 1337 1683 1317.97 1683 1294.5C1683 1271.03 1702.03 1252 1725.5 1252H2097.5ZM2391.5 1252C2414.97 1252 2434 1271.03 2434 1294.5C2434 1317.97 2414.97 1337 2391.5 1337H2198.5C2175.03 1337 2156 1317.97 2156 1294.5C2156 1271.03 2175.03 1252 2198.5 1252H2391.5ZM2334.5 1151C2357.97 1151 2377 1170.03 2377 1193.5C2377 1216.97 2357.97 1236 2334.5 1236H1962.5C1939.03 1236 1920 1216.97 1920 1193.5C1920 1170.03 1939.03 1151 1962.5 1151H2334.5ZM1387.5 1151C1410.97 1151 1430 1170.03 1430 1193.5C1430 1216.97 1410.97 1236 1387.5 1236H1015.5C992.028 1236 973 1216.97 973 1193.5C973 1170.03 992.028 1151 1015.5 1151H1387.5ZM915.5 1151C938.972 1151 958 1170.03 958 1193.5C958 1216.97 938.972 1236 915.5 1236H543.5C520.028 1236 501 1216.97 501 1193.5C501 1170.03 520.028 1151 543.5 1151H915.5ZM1862.5 1151C1885.97 1151 1905 1170.03 1905 1193.5C1905 1216.97 1885.97 1236 1862.5 1236H1490.5C1467.03 1236 1448 1216.97 1448 1193.5C1448 1170.03 1467.03 1151 1490.5 1151H1862.5ZM1152.5 1049C1175.97 1049 1195 1068.03 1195 1091.5C1195 1114.97 1175.97 1134 1152.5 1134H780.5C757.028 1134 738 1114.97 738 1091.5C738 1068.03 757.028 1049 780.5 1049H1152.5ZM679.5 1049C702.972 1049 722 1068.03 722 1091.5C722 1114.97 702.972 1134 679.5 1134H486.5C463.028 1134 444 1114.97 444 1091.5C444 1068.03 463.028 1049 486.5 1049H679.5ZM1625.5 1049C1648.97 1049 1668 1068.03 1668 1091.5C1668 1114.74 1649.35 1133.62 1626.2 1133.99L1625.5 1134H1253.5C1230.03 1134 1211 1114.97 1211 1091.5C1211 1068.03 1230.03 1049 1253.5 1049H1625.5ZM2097.5 1049C2120.97 1049 2140 1068.03 2140 1091.5C2140 1114.97 2120.97 1134 2097.5 1134H1725.5C1702.03 1134 1683 1114.97 1683 1091.5C1683 1068.03 1702.03 1049 1725.5 1049H2097.5ZM2391.5 1049C2414.97 1049 2434 1068.03 2434 1091.5C2434 1114.97 2414.97 1134 2391.5 1134H2198.5C2175.03 1134 2156 1114.97 2156 1091.5C2156 1068.03 2175.03 1049 2198.5 1049H2391.5ZM1387.5 949C1410.97 949 1430 968.028 1430 991.5C1430 1014.97 1410.97 1034 1387.5 1034H1015.5C992.028 1034 973 1014.97 973 991.5C973 968.028 992.028 949 1015.5 949H1387.5ZM915.5 949C938.972 949 958 968.028 958 991.5C958 1014.97 938.972 1034 915.5 1034H543.5C520.028 1034 501 1014.97 501 991.5C501 968.028 520.028 949 543.5 949H915.5ZM1862.5 949C1885.97 949 1905 968.028 1905 991.5C1905 1014.97 1885.97 1034 1862.5 1034H1490.5C1467.03 1034 1448 1014.97 1448 991.5C1448 968.028 1467.03 949 1490.5 949H1862.5ZM2334.5 949C2357.97 949 2377 968.028 2377 991.5C2377 1014.97 2357.97 1034 2334.5 1034H1962.5C1939.03 1034 1920 1014.97 1920 991.5C1920 968.028 1939.03 949 1962.5 949H2334.5ZM1152.5 847C1175.97 847 1195 866.028 1195 889.5C1195 912.972 1175.97 932 1152.5 932H780.5C757.028 932 738 912.972 738 889.5C738 866.028 757.028 847 780.5 847H1152.5ZM679.5 847C702.972 847 722 866.028 722 889.5C722 912.972 702.972 932 679.5 932H486.5C463.028 932 444 912.972 444 889.5C444 866.028 463.028 847 486.5 847H679.5ZM1625.5 847C1648.97 847 1668 866.028 1668 889.5C1668 912.737 1649.35 931.619 1626.2 931.994L1625.5 932H1253.5C1230.03 932 1211 912.972 1211 889.5C1211 866.028 1230.03 847 1253.5 847H1625.5ZM2097.5 847C2120.97 847 2140 866.028 2140 889.5C2140 912.972 2120.97 932 2097.5 932H1725.5C1702.03 932 1683 912.972 1683 889.5C1683 866.028 1702.03 847 1725.5 847H2097.5ZM2391.5 847C2414.97 847 2434 866.028 2434 889.5C2434 912.972 2414.97 932 2391.5 932H2198.5C2175.03 932 2156 912.972 2156 889.5C2156 866.028 2175.03 847 2198.5 847H2391.5Z" fill="white"/>
</mask>
<g mask="url(#mask0)">
<path d="M1387.5 1555C1410.97 1555 1430 1574.03 1430 1597.5C1430 1620.97 1410.97 1640 1387.5 1640H1015.5C992.028 1640 973 1620.97 973 1597.5C973 1574.03 992.028 1555 1015.5 1555H1387.5ZM915.5 1555C938.972 1555 958 1574.03 958 1597.5C958 1620.97 938.972 1640 915.5 1640H543.5C520.028 1640 501 1620.97 501 1597.5C501 1574.03 520.028 1555 543.5 1555H915.5ZM1862.5 1555C1885.97 1555 1905 1574.03 1905 1597.5C1905 1620.97 1885.97 1640 1862.5 1640H1490.5C1467.03 1640 1448 1620.97 1448 1597.5C1448 1574.03 1467.03 1555 1490.5 1555H1862.5ZM2334.5 1555C2357.97 1555 2377 1574.03 2377 1597.5C2377 1620.97 2357.97 1640 2334.5 1640H1962.5C1939.03 1640 1920 1620.97 1920 1597.5C1920 1574.03 1939.03 1555 1962.5 1555H2334.5ZM1152.5 1454C1175.97 1454 1195 1473.03 1195 1496.5C1195 1519.97 1175.97 1539 1152.5 1539H780.5C757.028 1539 738 1519.97 738 1496.5C738 1473.03 757.028 1454 780.5 1454H1152.5ZM679.5 1454C702.972 1454 722 1473.03 722 1496.5C722 1519.97 702.972 1539 679.5 1539H486.5C463.028 1539 444 1519.97 444 1496.5C444 1473.03 463.028 1454 486.5 1454H679.5ZM1625.5 1454C1648.97 1454 1668 1473.03 1668 1496.5C1668 1519.74 1649.35 1538.62 1626.2 1538.99L1625.5 1539H1253.5C1230.03 1539 1211 1519.97 1211 1496.5C1211 1473.03 1230.03 1454 1253.5 1454H1625.5ZM2097.5 1454C2120.97 1454 2140 1473.03 2140 1496.5C2140 1519.97 2120.97 1539 2097.5 1539H1725.5C1702.03 1539 1683 1519.97 1683 1496.5C1683 1473.03 1702.03 1454 1725.5 1454H2097.5ZM2391.5 1454C2414.97 1454 2434 1473.03 2434 1496.5C2434 1519.97 2414.97 1539 2391.5 1539H2198.5C2175.03 1539 2156 1519.97 2156 1496.5C2156 1473.03 2175.03 1454 2198.5 1454H2391.5ZM1387.5 1352C1410.97 1352 1430 1371.03 1430 1394.5C1430 1417.97 1410.97 1437 1387.5 1437H1015.5C992.028 1437 973 1417.97 973 1394.5C973 1371.03 992.028 1352 1015.5 1352H1387.5ZM915.5 1352C938.972 1352 958 1371.03 958 1394.5C958 1417.97 938.972 1437 915.5 1437H543.5C520.028 1437 501 1417.97 501 1394.5C501 1371.03 520.028 1352 543.5 1352H915.5ZM1862.5 1352C1885.97 1352 1905 1371.03 1905 1394.5C1905 1417.97 1885.97 1437 1862.5 1437H1490.5C1467.03 1437 1448 1417.97 1448 1394.5C1448 1371.03 1467.03 1352 1490.5 1352H1862.5ZM2334.5 1352C2357.97 1352 2377 1371.03 2377 1394.5C2377 1417.97 2357.97 1437 2334.5 1437H1962.5C1939.03 1437 1920 1417.97 1920 1394.5C1920 1371.03 1939.03 1352 1962.5 1352H2334.5ZM1152.5 1252C1175.97 1252 1195 1271.03 1195 1294.5C1195 1317.97 1175.97 1337 1152.5 1337H780.5C757.028 1337 738 1317.97 738 1294.5C738 1271.03 757.028 1252 780.5 1252H1152.5ZM679.5 1252C702.972 1252 722 1271.03 722 1294.5C722 1317.97 702.972 1337 679.5 1337H486.5C463.028 1337 444 1317.97 444 1294.5C444 1271.03 463.028 1252 486.5 1252H679.5ZM1625.5 1252C1648.97 1252 1668 1271.03 1668 1294.5C1668 1317.74 1649.35 1336.62 1626.2 1336.99L1625.5 1337H1253.5C1230.03 1337 1211 1317.97 1211 1294.5C1211 1271.03 1230.03 1252 1253.5 1252H1625.5ZM2097.5 1252C2120.97 1252 2140 1271.03 2140 1294.5C2140 1317.97 2120.97 1337 2097.5 1337H1725.5C1702.03 1337 1683 1317.97 1683 1294.5C1683 1271.03 1702.03 1252 1725.5 1252H2097.5ZM2391.5 1252C2414.97 1252 2434 1271.03 2434 1294.5C2434 1317.97 2414.97 1337 2391.5 1337H2198.5C2175.03 1337 2156 1317.97 2156 1294.5C2156 1271.03 2175.03 1252 2198.5 1252H2391.5ZM2334.5 1151C2357.97 1151 2377 1170.03 2377 1193.5C2377 1216.97 2357.97 1236 2334.5 1236H1962.5C1939.03 1236 1920 1216.97 1920 1193.5C1920 1170.03 1939.03 1151 1962.5 1151H2334.5ZM1387.5 1151C1410.97 1151 1430 1170.03 1430 1193.5C1430 1216.97 1410.97 1236 1387.5 1236H1015.5C992.028 1236 973 1216.97 973 1193.5C973 1170.03 992.028 1151 1015.5 1151H1387.5ZM915.5 1151C938.972 1151 958 1170.03 958 1193.5C958 1216.97 938.972 1236 915.5 1236H543.5C520.028 1236 501 1216.97 501 1193.5C501 1170.03 520.028 1151 543.5 1151H915.5ZM1862.5 1151C1885.97 1151 1905 1170.03 1905 1193.5C1905 1216.97 1885.97 1236 1862.5 1236H1490.5C1467.03 1236 1448 1216.97 1448 1193.5C1448 1170.03 1467.03 1151 1490.5 1151H1862.5ZM1152.5 1049C1175.97 1049 1195 1068.03 1195 1091.5C1195 1114.97 1175.97 1134 1152.5 1134H780.5C757.028 1134 738 1114.97 738 1091.5C738 1068.03 757.028 1049 780.5 1049H1152.5ZM679.5 1049C702.972 1049 722 1068.03 722 1091.5C722 1114.97 702.972 1134 679.5 1134H486.5C463.028 1134 444 1114.97 444 1091.5C444 1068.03 463.028 1049 486.5 1049H679.5ZM1625.5 1049C1648.97 1049 1668 1068.03 1668 1091.5C1668 1114.74 1649.35 1133.62 1626.2 1133.99L1625.5 1134H1253.5C1230.03 1134 1211 1114.97 1211 1091.5C1211 1068.03 1230.03 1049 1253.5 1049H1625.5ZM2097.5 1049C2120.97 1049 2140 1068.03 2140 1091.5C2140 1114.97 2120.97 1134 2097.5 1134H1725.5C1702.03 1134 1683 1114.97 1683 1091.5C1683 1068.03 1702.03 1049 1725.5 1049H2097.5ZM2391.5 1049C2414.97 1049 2434 1068.03 2434 1091.5C2434 1114.97 2414.97 1134 2391.5 1134H2198.5C2175.03 1134 2156 1114.97 2156 1091.5C2156 1068.03 2175.03 1049 2198.5 1049H2391.5ZM1387.5 949C1410.97 949 1430 968.028 1430 991.5C1430 1014.97 1410.97 1034 1387.5 1034H1015.5C992.028 1034 973 1014.97 973 991.5C973 968.028 992.028 949 1015.5 949H1387.5ZM915.5 949C938.972 949 958 968.028 958 991.5C958 1014.97 938.972 1034 915.5 1034H543.5C520.028 1034 501 1014.97 501 991.5C501 968.028 520.028 949 543.5 949H915.5ZM1862.5 949C1885.97 949 1905 968.028 1905 991.5C1905 1014.97 1885.97 1034 1862.5 1034H1490.5C1467.03 1034 1448 1014.97 1448 991.5C1448 968.028 1467.03 949 1490.5 949H1862.5ZM2334.5 949C2357.97 949 2377 968.028 2377 991.5C2377 1014.97 2357.97 1034 2334.5 1034H1962.5C1939.03 1034 1920 1014.97 1920 991.5C1920 968.028 1939.03 949 1962.5 949H2334.5ZM1152.5 847C1175.97 847 1195 866.028 1195 889.5C1195 912.972 1175.97 932 1152.5 932H780.5C757.028 932 738 912.972 738 889.5C738 866.028 757.028 847 780.5 847H1152.5ZM679.5 847C702.972 847 722 866.028 722 889.5C722 912.972 702.972 932 679.5 932H486.5C463.028 932 444 912.972 444 889.5C444 866.028 463.028 847 486.5 847H679.5ZM1625.5 847C1648.97 847 1668 866.028 1668 889.5C1668 912.737 1649.35 931.619 1626.2 931.994L1625.5 932H1253.5C1230.03 932 1211 912.972 1211 889.5C1211 866.028 1230.03 847 1253.5 847H1625.5ZM2097.5 847C2120.97 847 2140 866.028 2140 889.5C2140 912.972 2120.97 932 2097.5 932H1725.5C1702.03 932 1683 912.972 1683 889.5C1683 866.028 1702.03 847 1725.5 847H2097.5ZM2391.5 847C2414.97 847 2434 866.028 2434 889.5C2434 912.972 2414.97 932 2391.5 932H2198.5C2175.03 932 2156 912.972 2156 889.5C2156 866.028 2175.03 847 2198.5 847H2391.5Z" fill="#EBF2F9"/>
</g>
<path d="M771 247H692C567.184 247 466 348.184 466 473V571C466 695.816 567.184 797 692 797H771C895.816 797 997 695.816 997 571V473C997 348.184 895.816 247 771 247Z" fill="#E4EDF6"/>
<path fill-rule="evenodd" clip-rule="evenodd" d="M745.808 471C749.122 471 751.808 473.686 751.808 477L751.807 703.273C752.32 704.866 753.224 706.334 754.471 707.527C758.555 711.438 765.036 711.297 768.947 707.213L779.273 696.429L843.445 618.649C843.597 618.465 843.762 618.292 843.939 618.131C845.982 616.274 849.144 616.424 851.002 618.468L869.197 638.483C870.924 640.382 870.932 643.282 869.215 645.19L751.807 775.679L751.808 1640H712.9L712.899 957.255L658.838 904.935C656.898 903.057 656.799 899.977 658.616 897.979L677.716 876.969C679.32 875.204 681.948 874.818 683.992 876.047L685.108 876.718L692.068 886.709C695.698 891.921 702.867 893.203 708.079 889.573C710.755 887.708 712.472 884.83 712.901 881.69L712.899 654.415L658.838 602.096C656.898 600.217 656.799 597.138 658.616 595.139L677.716 574.129C679.32 572.364 681.948 571.978 683.992 573.208L685.108 573.879L692.068 583.87C695.698 589.082 702.867 590.364 708.079 586.733C710.755 584.869 712.473 581.99 712.901 578.85L712.9 477C712.9 473.686 715.586 471 718.9 471H745.808Z" fill="#DFE9F3"/>
<path fill-rule="evenodd" clip-rule="evenodd" d="M1320.41 1100L1433.43 1103.44L1473.87 1361.32C1475.11 1369.25 1475.38 1377.31 1474.68 1385.3L1451.86 1643.95L1382.31 1642.43L1395.75 1376.67L1370.41 1194.47L1323.21 1363.2L1369.04 1558.47L1306.33 1584.03L1249.68 1382.28C1244.54 1363.97 1244.79 1344.58 1250.41 1326.41L1320.41 1100Z" fill="#5E69FF"/>
<path d="M1320.41 1100L1319.22 1099.63L1319.5 1098.72L1320.45 1098.75L1320.41 1100ZM1433.43 1103.44L1433.46 1102.19L1434.5 1102.22L1434.66 1103.24L1433.43 1103.44ZM1473.87 1361.32L1475.1 1361.13H1475.1L1473.87 1361.32ZM1474.68 1385.3L1473.43 1385.19L1474.68 1385.3ZM1451.86 1643.95L1453.1 1644.06L1453 1645.22L1451.83 1645.2L1451.86 1643.95ZM1382.31 1642.43L1382.29 1643.68L1381 1643.65L1381.07 1642.37L1382.31 1642.43ZM1395.75 1376.67L1396.99 1376.5L1397.01 1376.61L1397 1376.73L1395.75 1376.67ZM1370.41 1194.47L1369.21 1194.14C1369.37 1193.57 1369.9 1193.19 1370.5 1193.23C1371.09 1193.27 1371.57 1193.72 1371.65 1194.3L1370.41 1194.47ZM1323.21 1363.2L1321.99 1363.48L1321.92 1363.17L1322.01 1362.86L1323.21 1363.2ZM1369.04 1558.47L1370.26 1558.18L1370.5 1559.22L1369.51 1559.62L1369.04 1558.47ZM1306.33 1584.03L1306.8 1585.19L1305.5 1585.72L1305.12 1584.37L1306.33 1584.03ZM1249.68 1382.28L1250.88 1381.94L1249.68 1382.28ZM1250.41 1326.41L1251.6 1326.78L1250.41 1326.41ZM1320.45 1098.75L1433.46 1102.19L1433.39 1104.69L1320.38 1101.25L1320.45 1098.75ZM1434.66 1103.24L1475.1 1361.13L1472.63 1361.52L1432.19 1103.63L1434.66 1103.24ZM1475.1 1361.13C1476.36 1369.16 1476.64 1377.31 1475.92 1385.41L1473.43 1385.19C1474.13 1377.3 1473.86 1369.35 1472.63 1361.52L1475.1 1361.13ZM1475.92 1385.41L1453.1 1644.06L1450.61 1643.84L1473.43 1385.19L1475.92 1385.41ZM1451.83 1645.2L1382.29 1643.68L1382.34 1641.18L1451.89 1642.7L1451.83 1645.2ZM1381.07 1642.37L1394.51 1376.6L1397 1376.73L1383.56 1642.5L1381.07 1642.37ZM1394.52 1376.84L1369.17 1194.65L1371.65 1194.3L1396.99 1376.5L1394.52 1376.84ZM1371.62 1194.81L1324.41 1363.53L1322.01 1362.86L1369.21 1194.14L1371.62 1194.81ZM1324.43 1362.91L1370.26 1558.18L1367.82 1558.75L1321.99 1363.48L1324.43 1362.91ZM1369.51 1559.62L1306.8 1585.19L1305.85 1582.88L1368.57 1557.31L1369.51 1559.62ZM1305.12 1584.37L1248.47 1382.62L1250.88 1381.94L1307.53 1583.7L1305.12 1584.37ZM1248.47 1382.62C1243.27 1364.08 1243.53 1344.44 1249.21 1326.04L1251.6 1326.78C1246.06 1344.72 1245.81 1363.87 1250.88 1381.94L1248.47 1382.62ZM1249.21 1326.04L1319.22 1099.63L1321.61 1100.37L1251.6 1326.78L1249.21 1326.04Z" fill="black"/>
<path d="M1361.5 1189.5L1370.5 1195.5" stroke="black" stroke-width="2.5" stroke-linecap="round" stroke-linejoin="round"/>
<path fill-rule="evenodd" clip-rule="evenodd" d="M1356 1500L1390.51 1598L1456.5 1598C1455.17 1635.67 1458.67 1667.33 1467 1693C1472.25 1709.17 1474.19 1722.83 1472.83 1733.98C1471.64 1743.69 1463.27 1750.91 1453.49 1750.66L1388.05 1749.01C1377.56 1748.74 1369.28 1740.02 1369.54 1729.53C1369.55 1729.19 1369.57 1728.85 1369.59 1728.5L1376.71 1639.31L1269.33 1701.54C1265.46 1703.79 1260.56 1703.01 1257.56 1699.72L1257.37 1699.51C1254.37 1696.01 1254.23 1690.9 1257.02 1687.23L1295.8 1636.29L1289.5 1526.5L1356 1500Z" fill="black"/>
<path fill-rule="evenodd" clip-rule="evenodd" d="M1361 1189L1323 1362.5L1370 1196L1361 1189Z" fill="black"/>
<path fill-rule="evenodd" clip-rule="evenodd" d="M1368.7 961.769L1374.58 946.085C1378.31 937.843 1405.03 931.041 1454.76 925.679C1504.49 920.317 1529.24 917.707 1529.02 917.849L1508.78 799.334C1506.62 786.724 1512.99 774.192 1524.44 768.49C1540.76 760.365 1555.46 755.023 1568.54 752.464C1584.78 749.285 1611.79 740.112 1649.58 724.946C1656.07 722.34 1663.45 725.49 1666.05 731.983C1666.17 732.282 1666.28 732.586 1666.38 732.894C1668.69 740.228 1664.84 748.084 1657.63 750.752L1630.75 760.693C1607.45 769.311 1593.14 792.813 1596.17 817.468L1611.71 943.942C1613.56 959.284 1602.67 973.249 1587.33 975.173L1401.8 998.14C1391.66 999.396 1381.51 995.848 1374.35 988.545C1367.43 981.476 1365.22 971.035 1368.7 961.769Z" fill="white" stroke="black" stroke-width="2.5" stroke-linecap="round" stroke-linejoin="round"/>
<path fill-rule="evenodd" clip-rule="evenodd" d="M1536.31 762.97C1536.32 762.965 1561.06 749.727 1610.54 723.255C1617.38 720.221 1625.38 723.286 1628.44 730.111C1631.49 736.899 1628.45 744.871 1621.67 747.917C1621.65 747.925 1621.63 747.933 1621.61 747.94L1581.5 770.32" fill="white"/>
<path d="M1536.31 762.97C1536.32 762.965 1561.06 749.727 1610.54 723.255C1617.38 720.221 1625.38 723.286 1628.44 730.111C1631.49 736.899 1628.45 744.871 1621.67 747.917C1621.65 747.925 1621.63 747.933 1621.61 747.94L1581.5 770.32" stroke="black" stroke-width="2.5" stroke-linecap="round" stroke-linejoin="round"/>
<path fill-rule="evenodd" clip-rule="evenodd" d="M1616.89 750.557C1618.3 740.522 1622.61 734.775 1629.83 733.316L1616.89 750.557Z" fill="white"/>
<path d="M1616.89 750.557C1618.3 740.522 1622.61 734.775 1629.83 733.316" stroke="black" stroke-width="2.5" stroke-linecap="round" stroke-linejoin="round"/>
<path fill-rule="evenodd" clip-rule="evenodd" d="M1653.29 752.146C1654.69 742.111 1659 736.364 1666.22 734.905L1653.29 752.146Z" fill="white"/>
<path d="M1653.29 752.146C1654.69 742.111 1659 736.364 1666.22 734.905" stroke="black" stroke-width="2.5" stroke-linecap="round" stroke-linejoin="round"/>
<path fill-rule="evenodd" clip-rule="evenodd" d="M1364.41 955.184L1364.43 954.92C1364.85 944.89 1359.38 935.538 1350.42 931.007L1228.12 869.131L1284.63 784.392L1347.81 738.408C1354.66 733.425 1356.18 723.837 1351.21 716.981C1346.24 710.139 1336.68 708.616 1329.83 713.578C1329.83 713.583 1329.82 713.588 1329.81 713.593L1298.32 736.515L1303.1 725.745L1327.6 676.103C1331.14 668.926 1328.32 660.234 1321.24 656.503C1314.4 652.898 1305.93 655.522 1302.32 662.365C1302.26 662.475 1302.21 662.585 1302.15 662.696L1278.73 710.151L1277.35 709.495L1300.54 660.532C1303.96 653.307 1300.99 644.672 1293.85 641.08C1286.92 637.597 1278.48 640.388 1274.99 647.316C1274.94 647.415 1274.9 647.515 1274.85 647.614L1251.37 697.198L1250.08 696.592L1272.43 646.281C1275.56 639.219 1272.56 630.942 1265.62 627.535C1259.03 624.294 1251.05 627.016 1247.81 633.614C1247.73 633.768 1247.66 633.924 1247.59 634.08L1218.33 699.961L1140.2 859.742C1133.41 873.634 1139.16 890.403 1153.05 897.196L1153.25 897.29L1319.14 976.839C1328.45 981.302 1339.22 981.586 1348.75 977.622C1357.88 973.82 1363.99 965.071 1364.41 955.184Z" fill="white" stroke="black" stroke-width="2.5" stroke-linecap="round" stroke-linejoin="round"/>
<path d="M1292.24 717.955L1241.54 694.171" stroke="black" stroke-width="2.5" stroke-linecap="round" stroke-linejoin="round"/>
<path fill-rule="evenodd" clip-rule="evenodd" d="M1339.8 925.866L1370.83 929.941L1413.08 930.267L1429.96 929.781L1441.52 993.497L1434.33 1102.75L1319.25 1102.75L1319.25 977.241L1339.8 925.866Z" fill="#FF7C25" stroke="black" stroke-width="2.5"/>
<path fill-rule="evenodd" clip-rule="evenodd" d="M1419.33 901.5C1419.33 901.759 1418.92 906.048 1418.12 914.368C1417.67 918.981 1413.79 922.5 1409.16 922.5H1364.65C1359.68 922.5 1355.65 918.471 1355.65 913.5C1355.65 912.948 1355.71 912.397 1355.81 911.854L1361.83 879.5C1400.16 893.833 1419.33 901.167 1419.33 901.5Z" fill="black"/>
<path fill-rule="evenodd" clip-rule="evenodd" d="M1402.88 929.672L1402.73 901.656L1374.2 894.928L1368.91 931.044C1373.89 933.129 1380.11 934.221 1387.59 934.32C1395.06 934.418 1400.16 932.869 1402.88 929.672Z" fill="white" stroke="black" stroke-width="2.5" stroke-linecap="round" stroke-linejoin="round"/>
<path fill-rule="evenodd" clip-rule="evenodd" d="M1402.92 927.047L1378.94 903.797L1403.13 903.849L1402.92 927.047Z" fill="black"/>
<path d="M1393.5 855.308C1392.45 855.169 1391.39 855.094 1390.32 855.084C1376.07 854.938 1364.32 866.039 1363.52 880.122C1363.09 880.038 1362.64 879.982 1362.18 879.958C1356.67 879.669 1351.95 884.13 1351.65 889.921C1351.34 895.712 1355.57 900.641 1361.08 900.93C1363.11 901.036 1365.04 900.499 1366.67 899.49C1370.24 908.233 1376.89 914.941 1387.03 917.096C1400.91 920.046 1411.1 913.114 1416.03 901.139C1416.31 901.18 1416.59 901.208 1416.88 901.223C1422.4 901.512 1427.12 897.052 1427.42 891.261C1427.68 886.301 1424.62 881.973 1420.27 880.652C1420.69 871.666 1417.88 864.872 1407.33 858.538C1405.31 857.328 1400.7 856.251 1393.5 855.308Z" fill="white" stroke="black" stroke-width="2.5" stroke-linecap="round" stroke-linejoin="round"/>
<mask id="mask1" mask-type="alpha" maskUnits="userSpaceOnUse" x="1350" y="853" width="79" height="67">
<path d="M1393.5 855.307C1392.45 855.169 1391.39 855.094 1390.32 855.083C1376.07 854.937 1364.32 866.039 1363.52 880.121C1363.09 880.037 1362.64 879.982 1362.18 879.958C1356.67 879.669 1351.95 884.129 1351.65 889.92C1351.34 895.711 1355.57 900.64 1361.08 900.929C1363.11 901.035 1365.04 900.499 1366.67 899.489C1370.24 908.232 1376.89 914.94 1387.03 917.095C1400.91 920.045 1411.1 913.114 1416.03 901.139C1416.31 901.179 1416.59 901.207 1416.88 901.222C1422.4 901.511 1427.12 897.051 1427.42 891.26C1427.68 886.3 1424.62 881.973 1420.27 880.651C1420.69 871.665 1417.88 864.872 1407.33 858.538C1405.31 857.327 1400.7 856.25 1393.5 855.307Z" fill="white" stroke="black" stroke-width="2.5" stroke-linecap="round" stroke-linejoin="round"/>
</mask>
<g mask="url(#mask1)">
<path fill-rule="evenodd" clip-rule="evenodd" d="M1358.1 870L1364.1 879.671C1377.62 879.544 1386.53 878.653 1390.83 877C1395.12 875.346 1398.45 871.525 1400.83 865.538C1402.76 871.215 1404.93 875.036 1407.33 877C1409.72 878.964 1414.06 880.464 1420.33 881.5C1424.19 865.15 1421.35 855.599 1411.81 852.847C1397.5 848.72 1377.22 841.637 1371.59 851.428C1367.84 857.955 1363.34 864.145 1358.1 870Z" fill="black"/>
</g>
<path d="M1390.17 890.93C1390.31 889.28 1389.09 887.825 1387.44 887.68C1385.79 887.536 1384.33 888.757 1384.19 890.407L1384.1 891.403C1383.96 893.054 1385.18 894.509 1386.83 894.654C1388.48 894.798 1389.93 893.577 1390.08 891.926L1390.17 890.93Z" stroke="black" stroke-width="2" stroke-linecap="round" stroke-linejoin="round"/>
<path d="M1411.17 891.764C1411.32 890.114 1410.1 888.659 1408.45 888.514C1406.8 888.37 1405.34 889.591 1405.2 891.241L1405.11 892.238C1404.96 893.888 1406.18 895.343 1407.84 895.488C1409.49 895.632 1410.94 894.411 1411.09 892.761L1411.17 891.764Z" stroke="black" stroke-width="2" stroke-linecap="round" stroke-linejoin="round"/>
<path d="M1396.27 901.502C1397.81 902.976 1399.47 903.121 1401.25 901.938" stroke="black" stroke-width="2" stroke-linecap="round" stroke-linejoin="round"/>
<path d="M1399.57 886.734L1401.6 897.953L1398.61 897.692" stroke="black" stroke-width="2" stroke-linecap="round" stroke-linejoin="round"/>
<path fill-rule="evenodd" clip-rule="evenodd" d="M1105.03 251.722C1090.07 267.775 1083.18 288.509 1084.14 309.054C1085.09 329.6 1093.89 349.956 1110.31 365.254C1122.91 376.998 1138.17 384.054 1153.88 386.475C1170.04 388.966 1186.69 386.552 1201.41 379.291C1202.01 378.992 1202.61 378.686 1203.21 378.372C1202.94 378.988 1202.68 379.61 1202.42 380.236C1196.21 395.431 1194.98 412.202 1198.6 428.149C1202.12 443.652 1210.23 458.376 1222.84 470.12C1244.13 489.964 1273.01 496.423 1298.85 489.753L1301.33 489.096L1299.16 492.904C1277.75 530.944 1270.7 574.863 1277.65 617.108C1284.45 658.492 1304.69 698.269 1338.03 729.344C1377.4 766.033 1427.59 783.644 1476.9 782.458C1526.21 781.272 1574.65 761.29 1610.52 722.791C1646.4 684.293 1662.92 634.569 1660.63 585.296C1658.35 536.024 1637.25 487.204 1597.88 450.516C1564.53 419.441 1523.43 402.052 1481.67 398.179C1439.04 394.225 1395.72 404.354 1359.28 428.385L1355.64 430.823L1356.12 428.289C1360.95 402.055 1352.48 373.699 1331.18 353.855C1318.58 342.111 1303.32 335.055 1287.61 332.634C1271.45 330.144 1254.81 332.558 1240.09 339.819C1239.48 340.117 1238.88 340.424 1238.28 340.737C1238.55 340.122 1238.82 339.5 1239.07 338.874C1245.28 323.678 1246.51 306.908 1242.89 290.96C1239.37 275.458 1231.26 260.733 1218.66 248.99C1202.24 233.691 1181.31 226.348 1160.75 226.843C1140.19 227.337 1119.99 235.669 1105.03 251.722Z" fill="#66EC36" stroke="black" stroke-width="2.5"/>
<path fill-rule="evenodd" clip-rule="evenodd" d="M1326.97 620.491C1328.28 619.09 1330.5 619.037 1331.93 620.373L1341.45 629.242C1342.89 630.578 1342.99 632.797 1341.68 634.198C1340.38 635.599 1338.16 635.651 1336.72 634.316L1327.21 625.446C1325.77 624.111 1325.67 621.892 1326.97 620.491ZM1427.05 513.103C1428.36 511.702 1430.58 511.649 1432.01 512.985L1441.53 521.854C1442.96 523.19 1443.06 525.409 1441.76 526.81C1440.45 528.211 1438.23 528.263 1436.8 526.927L1427.28 518.058C1425.85 516.722 1425.74 514.504 1427.05 513.103Z" fill="#FFFFD9" stroke="black" stroke-width="2.5" stroke-linecap="round" stroke-linejoin="round"/>
<path d="M1388.69 585.577C1393.15 585.51 1396.33 584.385 1398.21 582.204C1400.1 580.023 1400.7 576.772 1400.03 572.451" stroke="black" stroke-width="2.5" stroke-linecap="round" stroke-linejoin="round"/>
<path d="M841 1366.08H832V1592.08H841V1366.08Z" fill="#FFFFD9" stroke="black" stroke-width="2.5" stroke-linecap="round" stroke-linejoin="round"/>
<path d="M835 1751.45C910.111 1751.45 971 1690.56 971 1615.45C971 1540.34 910.111 1479.45 835 1479.45C759.889 1479.45 699 1540.34 699 1615.45C699 1690.56 759.889 1751.45 835 1751.45Z" fill="black"/>
<path d="M835 1682.45C872.003 1682.45 902 1652.45 902 1615.45C902 1578.45 872.003 1548.45 835 1548.45C797.997 1548.45 768 1578.45 768 1615.45C768 1652.45 797.997 1682.45 835 1682.45Z" fill="#FFFFD9" stroke="black" stroke-width="2.5" stroke-linecap="round" stroke-linejoin="round"/>
<path d="M835 1620C837.761 1620 840 1617.76 840 1615C840 1612.24 837.761 1610 835 1610C832.239 1610 830 1612.24 830 1615C830 1617.76 832.239 1620 835 1620Z" fill="#FFFFD9" stroke="black" stroke-width="2.5" stroke-linecap="round" stroke-linejoin="round"/>
<path d="M758.613 1179.16C740.623 1179.16 726.04 1193.04 726.04 1210.17C726.04 1227.29 740.623 1241.17 758.613 1241.17C759.288 1241.17 759.957 1241.15 760.622 1241.11C755.353 1249.73 751.545 1259.37 749.54 1269.69C740.433 1316.56 771.05 1361.94 817.925 1371.05L818.987 1371.25C811.515 1376.68 806.574 1385.14 806.237 1394.8C805.639 1411.91 819.729 1426.29 837.708 1426.92C855.687 1427.55 870.746 1414.18 871.344 1397.07C871.731 1385.97 865.942 1376.02 856.921 1370.23C891.594 1361.92 920.086 1333.79 927.416 1296.1C931.342 1275.91 928.614 1258.34 920.774 1243.86C922.022 1244 923.296 1244.07 924.588 1244.07C942.578 1244.07 957.161 1230.19 957.161 1213.06C957.161 1195.94 942.578 1182.06 924.588 1182.06C906.598 1182.06 892.014 1195.94 892.014 1213.06C892.014 1213.63 892.03 1214.19 892.061 1214.74C881.169 1208.21 868.292 1203.46 854.003 1200.69C844.517 1198.84 833.679 1198.84 821.491 1200.69C810.58 1202.33 800.338 1206 791.163 1211.31C791.179 1210.93 791.186 1210.55 791.186 1210.17C791.186 1193.04 776.603 1179.16 758.613 1179.16Z" fill="#5E69FF"/>
<path fill-rule="evenodd" clip-rule="evenodd" d="M727.289 1210.17C727.289 1201.96 730.791 1194.53 736.442 1189.15C742.116 1183.75 749.956 1180.41 758.613 1180.41C767.27 1180.41 775.11 1183.75 780.784 1189.15C786.435 1194.53 789.936 1201.96 789.936 1210.17C789.936 1210.53 789.93 1210.89 789.915 1211.25L789.82 1213.53L791.789 1212.39C800.831 1207.16 810.925 1203.55 821.678 1201.92C833.706 1200.1 844.402 1200.09 853.765 1201.91C867.901 1204.66 880.642 1209.35 891.418 1215.81L893.441 1217.03L893.309 1214.67C893.279 1214.14 893.264 1213.6 893.264 1213.06C893.264 1204.85 896.765 1197.42 902.417 1192.05C908.091 1186.64 915.931 1183.31 924.588 1183.31C933.245 1183.31 941.085 1186.64 946.759 1192.05C952.41 1197.42 955.911 1204.85 955.911 1213.06C955.911 1221.27 952.41 1228.7 946.759 1234.08C941.085 1239.48 933.245 1242.82 924.588 1242.82C923.344 1242.82 922.116 1242.75 920.914 1242.61C920.086 1242.52 919.254 1242.39 918.42 1242.23C918.852 1242.97 919.27 1243.71 919.674 1244.45C927.39 1258.71 930.051 1276 926.189 1295.86C922.629 1314.17 914.012 1330.19 902.098 1342.72C889.806 1355.64 874.005 1364.85 856.63 1369.01C855.589 1369.26 854.546 1369.49 853.5 1369.7C854.436 1370.18 855.353 1370.71 856.245 1371.28C864.898 1376.84 870.466 1386.38 870.095 1397.03C869.808 1405.23 866.05 1412.53 860.214 1417.71C854.355 1422.91 846.403 1425.97 837.752 1425.67C829.1 1425.37 821.381 1421.76 815.899 1416.16C810.439 1410.59 807.199 1403.04 807.486 1394.84C807.846 1384.52 813.703 1375.62 822.277 1370.59L818.163 1369.82L816.772 1369.54C794.055 1364.75 775.317 1351.26 763.381 1333.24C751.465 1315.26 746.328 1292.77 750.767 1269.92C752.743 1259.76 756.496 1250.26 761.688 1241.77L762.934 1239.73L760.549 1239.87C759.909 1239.9 759.263 1239.92 758.613 1239.92C749.956 1239.92 742.116 1236.59 736.442 1231.19C730.791 1225.81 727.289 1218.38 727.289 1210.17Z" stroke="black" stroke-width="2.5"/>
<path fill-rule="evenodd" clip-rule="evenodd" d="M930.776 1410.79L971 1472.08L836.5 1444.58L707.389 1465.22L743.506 1410.26C762.465 1381.41 794.963 1364.38 829.474 1365.21L849.573 1365.69C882.404 1366.48 912.756 1383.34 930.776 1410.79Z" fill="#FFFFD9" stroke="black" stroke-width="2.5" stroke-linecap="round" stroke-linejoin="round"/>
<path d="M838.5 1366.95C838.425 1377.92 838.567 1392.94 838.928 1411.99" stroke="black" stroke-width="2.5" stroke-linecap="round" stroke-linejoin="round"/>
<path fill-rule="evenodd" clip-rule="evenodd" d="M838 1237C814.517 1237 795.481 1256.04 795.481 1279.52C795.481 1285.69 796.824 1291.79 799.417 1297.39C811.03 1322.46 823.891 1335 838 1335C853.302 1335 866.416 1322.17 877.342 1296.51L877.342 1296.51C886.595 1274.79 876.482 1249.67 854.754 1240.42C849.456 1238.16 843.758 1237 838 1237Z" fill="#FFFFD9" stroke="black" stroke-width="2.5" stroke-linecap="round" stroke-linejoin="round"/>
<path d="M826 1279C826 1277.34 824.657 1276 823 1276C821.343 1276 820 1277.34 820 1279V1280C820 1281.66 821.343 1283 823 1283C824.657 1283 826 1281.66 826 1280V1279Z" fill="white" stroke="black" stroke-width="2.5" stroke-linecap="round" stroke-linejoin="round"/>
<path d="M856 1279.83C856 1278.18 854.657 1276.83 853 1276.83C851.343 1276.83 850 1278.18 850 1279.83V1280.83C850 1282.49 851.343 1283.83 853 1283.83C854.657 1283.83 856 1282.49 856 1280.83V1279.83Z" fill="white" stroke="black" stroke-width="2.5" stroke-linecap="round" stroke-linejoin="round"/>
<path d="M839 1276.5L834 1292.5H843" stroke="black" stroke-width="2.5" stroke-linecap="round" stroke-linejoin="round"/>
<path d="M830 1299C835.333 1303 840.667 1303 846 1299" stroke="black" stroke-width="2.5" stroke-linecap="round" stroke-linejoin="round"/>
<path fill-rule="evenodd" clip-rule="evenodd" d="M2073.75 1165.57C2071.8 1175.33 2062.82 1182.05 2052.91 1181.18L2052.3 1181.13C2042.48 1180.27 2034.93 1172.06 2034.9 1162.19C2034.88 1153.4 2041.99 1146.24 2050.79 1146.22C2051.26 1146.22 2051.74 1146.24 2052.21 1146.28L2059.78 1146.93C2068.38 1147.68 2074.74 1155.25 2074 1163.85C2073.95 1164.43 2073.87 1165 2073.75 1165.57Z" fill="black"/>
<path fill-rule="evenodd" clip-rule="evenodd" d="M2011 1106.5L1938.57 1098.96C1893.43 1094.27 1857.12 1059.77 1850.11 1014.94L1837.21 932.405L1895.49 905.682L1910.77 1026.56L2033.15 1075.31L2011 1106.5Z" fill="#FFFFD9" stroke="black" stroke-width="2.5" stroke-linecap="round" stroke-linejoin="round"/>
<path fill-rule="evenodd" clip-rule="evenodd" d="M2091.23 1084.17L2155.85 1135.43C2170.33 1146.92 2181.35 1162.2 2187.67 1179.57L2221.5 1272.5L2279.5 1251L2235.75 1144.05C2229.04 1127.64 2218.09 1113.32 2204.02 1102.54L2133.5 1048.5L2091.23 1084.17Z" fill="#FFFFD9" stroke="black" stroke-width="2.5" stroke-linecap="round" stroke-linejoin="round"/>
<path fill-rule="evenodd" clip-rule="evenodd" d="M2032.84 992.249C2031.46 986.087 2030.56 982.313 2030.16 980.926C2026.23 967.48 2023.08 950.039 2020.71 928.604L2020.71 928.604C2018.86 911.93 2030.89 896.918 2047.56 895.075C2060.81 893.609 2073.47 900.959 2078.77 913.195C2087.34 932.968 2102.76 971.088 2125.04 1027.56C2125.58 1028.92 2124.91 1030.46 2123.54 1031C2122.3 1031.49 2120.89 1030.98 2120.24 1029.82C2120.09 1032.63 2117.69 1034.8 2114.87 1034.65C2112.77 1034.53 2110.96 1033.15 2110.29 1031.15L2106.66 1020.19C2106.59 1022.08 2105 1023.57 2103.1 1023.5C2101.71 1023.45 2100.49 1022.57 2100 1021.27C2082.51 974.417 2071.13 943.483 2065.88 928.463C2063.06 920.424 2054.27 916.187 2046.23 918.999C2039.63 921.307 2035.41 927.763 2035.94 934.732L2040.31 991.778L2032.84 992.249Z" fill="black"/>
<path fill-rule="evenodd" clip-rule="evenodd" d="M2093.43 1054.5L2056.96 1058.8L2031.67 1060.99C2014.62 1062.46 2001.99 1077.49 2003.46 1094.55C2003.59 1096.08 2003.84 1097.6 2004.2 1099.09L2006.92 1110.47C2012.56 1134.03 2035.18 1149.44 2059.17 1146.07C2082.84 1142.75 2099.71 1121.39 2097.48 1097.6L2093.43 1054.5Z" fill="#FFFFD9" stroke="black" stroke-width="2.5" stroke-linecap="round" stroke-linejoin="round"/>
<path fill-rule="evenodd" clip-rule="evenodd" d="M2033.64 1056.69L2031.43 1034.53L2059.1 1024.86L2063.92 1053.53C2065.27 1061.6 2059.84 1069.23 2051.77 1070.59C2051.47 1070.64 2051.17 1070.68 2050.87 1070.71C2042.26 1071.62 2034.55 1065.37 2033.65 1056.77C2033.64 1056.74 2033.64 1056.71 2033.64 1056.69Z" fill="#FFFFD9" stroke="black" stroke-width="2.5" stroke-linecap="round" stroke-linejoin="round"/>
<path fill-rule="evenodd" clip-rule="evenodd" d="M2034.94 1060.32C2041.9 1056.51 2046.95 1053.46 2050.07 1051.19C2053.2 1048.91 2057.03 1045.49 2061.56 1040.93L2031.27 1036.75L2034.94 1060.32Z" fill="black"/>
<path d="M2033.13 991.95C2047.95 987.151 2063.85 995.277 2068.65 1010.1L2068.8 1010.58C2069 1011.22 2069.17 1011.85 2069.32 1012.49C2070.88 1009.44 2073.67 1007.19 2077.12 1006.65C2083.12 1005.7 2088.83 1010.23 2089.86 1016.78C2090.9 1023.33 2086.88 1029.4 2080.88 1030.35C2076.36 1031.07 2072.01 1028.67 2069.69 1024.65C2067.81 1035.54 2060.06 1045.08 2048.77 1048.76C2033.18 1053.84 2021.05 1045.36 2015.53 1030.37C2014.33 1034.49 2011.09 1037.68 2006.88 1038.35C2000.88 1039.3 1995.17 1034.77 1994.14 1028.22C1993.1 1021.68 1997.12 1015.6 2003.12 1014.65C2007.22 1014 2011.17 1015.9 2013.6 1019.26L2013.6 1018.72L2013.62 1018.05C2013.93 1006.09 2021.75 995.633 2033.13 991.95Z" fill="#5E69FF"/>
<path fill-rule="evenodd" clip-rule="evenodd" d="M2067.32 1010.05C2064.94 1003.1 2059.99 997.737 2053.88 994.678C2047.78 991.624 2040.52 990.871 2033.51 993.139C2028.07 994.899 2023.49 998.278 2020.22 1002.65C2016.96 1007.01 2015.02 1012.37 2014.87 1018.08L2014.85 1018.73L2014.84 1023.1L2012.59 1019.99C2011.49 1018.47 2010.03 1017.28 2008.39 1016.55C2006.82 1015.87 2005.09 1015.6 2003.32 1015.88C2000.67 1016.3 1998.47 1017.86 1997.03 1020.03C1995.57 1022.24 1994.9 1025.08 1995.37 1028.03C1995.84 1030.97 1997.35 1033.47 1999.42 1035.12C2001.46 1036.74 2004.03 1037.54 2006.68 1037.12C2008.5 1036.83 2010.12 1036 2011.41 1034.81C2012.77 1033.55 2013.78 1031.89 2014.33 1030.02L2015.39 1026.37L2016.7 1029.94C2019.44 1037.38 2023.85 1043.17 2029.57 1046.34C2034.85 1049.26 2041.24 1049.9 2048.38 1047.57C2053.71 1045.83 2058.21 1042.74 2061.63 1038.8C2065.17 1034.73 2067.54 1029.75 2068.46 1024.43L2069.05 1021.03L2070.77 1024.02C2071.82 1025.85 2073.34 1027.31 2075.11 1028.21C2076.8 1029.07 2078.72 1029.43 2080.68 1029.12C2083.33 1028.7 2085.53 1027.14 2086.97 1024.97C2088.43 1022.76 2089.1 1019.92 2088.63 1016.97C2088.16 1014.03 2086.65 1011.53 2084.58 1009.88C2082.54 1008.26 2079.97 1007.46 2077.32 1007.88C2074.27 1008.37 2071.81 1010.36 2070.43 1013.06L2068.89 1016.09L2068.1 1012.78C2067.96 1012.17 2067.8 1011.56 2067.61 1010.96L2067.32 1010.05Z" stroke="black" stroke-width="2.5"/>
<path d="M2048.47 1021.95C2048.16 1020.33 2049.22 1018.75 2050.85 1018.44C2052.47 1018.12 2054.05 1019.18 2054.36 1020.81L2054.55 1021.79C2054.87 1023.42 2053.81 1024.99 2052.18 1025.31C2050.56 1025.62 2048.98 1024.56 2048.66 1022.94L2048.47 1021.95Z" fill="white" stroke="black" stroke-width="2" stroke-linecap="round" stroke-linejoin="round"/>
<path d="M2018.73 1025.92C2018.41 1024.29 2019.47 1022.72 2021.1 1022.4C2022.72 1022.09 2024.3 1023.15 2024.62 1024.77L2024.81 1025.76C2025.12 1027.38 2024.06 1028.96 2022.43 1029.27C2020.81 1029.59 2019.23 1028.53 2018.92 1026.9L2018.73 1025.92Z" fill="white" stroke="black" stroke-width="2" stroke-linecap="round" stroke-linejoin="round"/>
<path fill-rule="evenodd" clip-rule="evenodd" d="M2060.16 998.952C2049.15 999.439 2042.52 1003.32 2040.27 1010.6C2038.32 1016.9 2038.59 1023.99 2041.08 1031.84C2041.61 1033.5 2040.69 1035.27 2039.03 1035.8C2038.83 1035.86 2038.62 1035.91 2038.41 1035.93C2036.33 1036.15 2034.47 1034.64 2034.25 1032.56C2034.24 1032.5 2034.24 1032.43 2034.23 1032.37C2033.7 1022.61 2032.93 1015.98 2031.92 1012.48C2030.78 1008.52 2026.93 1005.4 2020.38 1003.13C2027.53 994.672 2035.87 991.114 2045.4 992.459C2049.75 993.074 2054.67 995.238 2060.16 998.952Z" fill="#FFFFD9" stroke="black" stroke-width="2.5" stroke-linecap="round" stroke-linejoin="round"/>
<path fill-rule="evenodd" clip-rule="evenodd" d="M2145.67 1038.65C2146.08 1039.87 2146.12 1041.16 2145.83 1042.37C2145.54 1043.58 2144.91 1044.71 2143.98 1045.61L2126.27 1062.76C2121.15 1067.73 2116.56 1073.22 2112.59 1079.15L2097.59 1101.56C2089.25 1093.58 2083.04 1086.8 2078.95 1081.21C2074.87 1075.63 2070.57 1068.05 2066.06 1058.47L2137.17 1034.44C2138.93 1033.85 2140.75 1034.03 2142.29 1034.79C2143.83 1035.55 2145.07 1036.89 2145.67 1038.65Z" fill="#5E69FF" stroke="black" stroke-width="2.5"/>
<path fill-rule="evenodd" clip-rule="evenodd" d="M2032.04 1061.62C2026.01 1070.24 2020.89 1077.09 2016.69 1082.17C2012.61 1087.09 2008.3 1091 2003.73 1093.89L1968.39 1054.54C1967.51 1053.56 1966.66 1052.57 1965.82 1051.56L1956.78 1040.65C1956.22 1039.98 1955.99 1039.15 1956.07 1038.34C1956.14 1037.54 1956.52 1036.77 1957.19 1036.21C1958.37 1035.23 1960.64 1035.81 2032.04 1061.62Z" fill="#5E69FF" stroke="black" stroke-width="2.5"/>
<path fill-rule="evenodd" clip-rule="evenodd" d="M1774.15 730.042C1768.71 729.567 1763.6 731.339 1759.73 734.588C1755.86 737.837 1753.23 742.563 1752.75 747.996C1752.28 753.429 1754.05 758.54 1757.3 762.412C1760.55 766.284 1765.27 768.917 1770.7 769.392L1802.58 772.181C1807.81 772.638 1812.74 771.015 1816.55 767.997L1833.06 796.577C1835.78 801.3 1840.17 804.47 1845.05 805.779C1849.93 807.087 1855.31 806.533 1860.03 803.806C1864.76 801.079 1867.93 796.696 1869.24 791.813C1870.55 786.931 1869.99 781.55 1867.26 776.827L1851.26 749.114C1848.54 744.391 1844.15 741.22 1839.27 739.912C1834.39 738.604 1829.01 739.158 1824.28 741.885C1823.84 742.141 1823.41 742.411 1823 742.696C1822.62 742.953 1822.25 743.225 1821.89 743.513C1821.68 743.105 1821.46 742.704 1821.22 742.311C1818.07 737.095 1812.56 733.403 1806.02 732.831L1774.15 730.042Z" fill="#5E69FF" stroke="black" stroke-width="2.5"/>
<path fill-rule="evenodd" clip-rule="evenodd" d="M1718.94 785.125C1713.57 786.072 1709.1 789.106 1706.2 793.247C1703.3 797.387 1701.98 802.633 1702.92 808.004C1703.87 813.375 1706.91 817.854 1711.05 820.753C1715.19 823.652 1720.43 824.972 1725.8 824.025L1757.32 818.468C1761.65 817.705 1765.4 815.586 1768.2 812.625L1787.89 835.274C1791.47 839.39 1796.38 841.666 1801.42 842.019C1806.46 842.371 1811.64 840.8 1815.76 837.222C1819.87 833.644 1822.15 828.737 1822.5 823.695C1822.85 818.652 1821.28 813.476 1817.7 809.36L1796.71 785.209C1793.13 781.093 1788.22 778.817 1783.18 778.464C1778.14 778.112 1772.96 779.683 1768.85 783.261C1768.64 783.445 1768.43 783.632 1768.23 783.823L1767.42 784.587L1766.57 783.874C1762.25 780.265 1756.43 778.515 1750.46 779.568L1718.94 785.125Z" fill="#5E69FF" stroke="black" stroke-width="2.5"/>
<path fill-rule="evenodd" clip-rule="evenodd" d="M1758.97 839.521C1754.43 837.207 1749.38 836.952 1744.89 838.412C1740.39 839.872 1736.46 843.046 1734.14 847.588L1733.29 849.26C1730.98 853.801 1730.58 858.85 1731.84 863.445C1733.1 868.04 1736.01 872.182 1740.32 874.91L1826.22 929.336C1828.72 931.336 1831.41 933.03 1834.32 934.455C1836.11 935.517 1838 936.264 1840.03 936.739C1850.53 940.102 1862.2 939.431 1872.56 934.272C1881.07 930.038 1887.57 923.154 1891.39 915.016C1895.21 906.878 1896.37 897.485 1894.19 888.231L1868.8 780.109L1793.42 841.023L1798.36 862.802L1760 840.085C1759.66 839.886 1759.32 839.698 1758.97 839.521Z" fill="#5E69FF" stroke="black" stroke-width="2.5"/>
<path d="M2314.97 1395.11C2315.54 1406 2307.17 1415.29 2296.28 1415.86C2285.38 1416.43 2276.09 1408.07 2275.52 1397.17L2273.85 1365.22C2273.28 1354.33 2281.64 1345.03 2292.54 1344.46C2303.43 1343.89 2312.72 1352.26 2313.29 1363.15L2314.97 1395.11Z" fill="#5E69FF" stroke="black" stroke-width="2.5"/>
<path d="M2250.68 1381.82C2256.63 1390.97 2254.03 1403.2 2244.88 1409.15C2235.73 1415.09 2223.5 1412.49 2217.56 1403.34L2200.13 1376.5C2194.19 1367.35 2196.79 1355.12 2205.94 1349.18C2215.08 1343.24 2227.32 1345.84 2233.26 1354.99L2250.68 1381.82Z" fill="#5E69FF" stroke="black" stroke-width="2.5"/>
<path d="M2254.94 1402.81C2250.5 1412.78 2238.83 1417.26 2228.87 1412.82C2218.9 1408.39 2214.42 1396.71 2218.86 1386.75L2231.87 1357.51C2236.31 1347.55 2247.98 1343.07 2257.95 1347.5C2267.91 1351.94 2272.39 1363.61 2267.96 1373.58L2254.94 1402.81Z" fill="#5E69FF" stroke="black" stroke-width="2.5"/>
<path fill-rule="evenodd" clip-rule="evenodd" d="M2202.66 1376.34C2200.11 1380.76 2196.02 1383.72 2191.45 1384.94C2186.89 1386.17 2181.86 1385.65 2177.44 1383.1L2175.82 1382.16C2171.41 1379.61 2168.32 1375.59 2166.88 1371.05C2165.43 1366.51 2165.62 1361.45 2167.74 1356.82L2210.15 1264.39C2211.15 1261.35 2212.49 1258.46 2214.15 1255.68C2215.07 1253.82 2216.25 1252.16 2217.69 1250.66C2224.67 1242.12 2234.82 1236.33 2246.32 1235.01C2255.55 1233.95 2264.47 1236.36 2271.67 1241.28C2278.88 1246.19 2284.37 1253.62 2286.75 1262.6L2312.45 1359.66L2230.72 1356.27L2223.01 1335.36L2203.21 1375.31C2203.04 1375.66 2202.86 1376 2202.66 1376.34Z" fill="#5E69FF" stroke="black" stroke-width="2.5"/>
<path d="M2005.42 1030.17C2003.22 1030.4 2001.25 1028.8 2001.02 1026.61C2000.79 1024.41 2002.38 1022.44 2004.58 1022.21C2006.78 1021.98 2008.75 1023.57 2008.98 1025.77C2009.21 1027.97 2007.62 1029.94 2005.42 1030.17Z" stroke="black" stroke-width="2" stroke-linecap="round" stroke-linejoin="round"/>
<path d="M2078.73 1022.54C2076.54 1022.77 2074.57 1021.17 2074.34 1018.98C2074.11 1016.78 2075.7 1014.81 2077.9 1014.58C2080.09 1014.35 2082.06 1015.94 2082.29 1018.14C2082.52 1020.34 2080.93 1022.3 2078.73 1022.54Z" stroke="black" stroke-width="2" stroke-linecap="round" stroke-linejoin="round"/>
<path d="M1900.5 1086.5L1911 1027L1855.5 1035" stroke="black" stroke-width="2" stroke-linecap="round" stroke-linejoin="round"/>
<path fill-rule="evenodd" clip-rule="evenodd" d="M2088.6 1358.35L2176.54 1384.34L2178.01 1468.62C2178.05 1470.76 2177.21 1472.71 2175.84 1474.14C2174.46 1475.56 2172.54 1476.46 2170.4 1476.5C2168.47 1476.53 2166.61 1475.85 2165.16 1474.59L2140.53 1453.06L2149.32 1557.74C2149.5 1559.88 2148.8 1561.88 2147.52 1563.39C2146.24 1564.91 2144.38 1565.94 2142.25 1566.12C2140.65 1566.25 2139.09 1565.88 2137.75 1565.12C2136.42 1564.36 2135.31 1563.2 2134.62 1561.75L2086.23 1461.09L2082.53 1525.39C2082.41 1527.53 2081.43 1529.41 2079.95 1530.73C2078.47 1532.05 2076.49 1532.8 2074.35 1532.68C2072.85 1532.6 2071.44 1532.08 2070.26 1531.23C2069.09 1530.38 2068.15 1529.2 2067.59 1527.8L2022.84 1415L2088.6 1358.35Z" fill="#FF7C25" stroke="black" stroke-width="2.5"/>
<path fill-rule="evenodd" clip-rule="evenodd" d="M2059.6 1183.62C2076.97 1182.14 2094.2 1187.77 2107.34 1199.22L2135.66 1223.91C2140.19 1227.86 2145.07 1231.39 2150.22 1234.48L2203.97 1266.62C2156.3 1323.03 2118.24 1354.02 2089.67 1359.3C2061.11 1364.59 2016.56 1348.89 1956 1312.52L1991.91 1264.14C1995.46 1259.35 1998.59 1254.25 2001.25 1248.91L2020.52 1210.19C2028.02 1195.12 2042.83 1185.05 2059.6 1183.62Z" fill="#5E69FF" stroke="black" stroke-width="2.5"/>
<path fill-rule="evenodd" clip-rule="evenodd" d="M2092 1384L2020.85 1417.46L1964.05 1399.29L2088.5 1357.5L2092 1384Z" fill="black"/>
<path fill-rule="evenodd" clip-rule="evenodd" d="M2022.69 1416.48L1916.53 1431.13L1906.6 1407.3L2017.77 1393.65L2022.69 1416.48Z" fill="#FFFFD9" stroke="black" stroke-width="2.5" stroke-linecap="round" stroke-linejoin="round"/>
<path fill-rule="evenodd" clip-rule="evenodd" d="M2064.51 1290.19L2018.06 1393.62L1906.6 1407.3L1937.2 1335.07C1945.29 1315.98 1962.96 1302.66 1983.54 1300.13L2064.51 1290.19Z" fill="#FFFFD9" stroke="black" stroke-width="2.5" stroke-linecap="round" stroke-linejoin="round"/>
<path fill-rule="evenodd" clip-rule="evenodd" d="M2064.5 1290L2017.77 1393.65L2088.86 1358.44L2064.5 1290Z" fill="#FFFFD9" stroke="black" stroke-width="2.5" stroke-linecap="round" stroke-linejoin="round"/>
<path fill-rule="evenodd" clip-rule="evenodd" d="M2091.97 1384.06L2177.19 1387.01L2221.69 1347.31L2088.5 1358L2091.97 1384.06Z" fill="black"/>
<path fill-rule="evenodd" clip-rule="evenodd" d="M2177.35 1386.96L2277.46 1354.22L2277.44 1331.26L2170.33 1364.01L2177.35 1386.96Z" fill="#FFFFD9" stroke="black" stroke-width="2.5" stroke-linecap="round" stroke-linejoin="round"/>
<path fill-rule="evenodd" clip-rule="evenodd" d="M2085.55 1288.5L2170.05 1364.09L2277.44 1331.26L2213.35 1271.41C2202.37 1261.16 2186.76 1257.56 2172.4 1261.95L2085.55 1288.5Z" fill="#FFFFD9" stroke="black" stroke-width="2.5" stroke-linecap="round" stroke-linejoin="round"/>
<path fill-rule="evenodd" clip-rule="evenodd" d="M2085.5 1288.5L2170.33 1364.01L2088.86 1358.44L2085.5 1288.5Z" fill="#FFFFD9" stroke="black" stroke-width="2.5" stroke-linecap="round" stroke-linejoin="round"/>
</g>
<defs>
<clipPath id="clip0">
<rect width="2811" height="1999" fill="white"/>
</clipPath>
</defs>
</svg>
